<svg version="1.2" xmlns="http://www.w3.org/2000/svg" viewBox="0 0 248 235" width="248" height="235">
	<title>Ty-Lunch_Picto_Panier-svg</title>
	<defs>
		<clipPath clipPathUnits="userSpaceOnUse" id="cp1">
			<path d="m-270-444h793.7v1122.52h-793.7z"/>
		</clipPath>
	</defs>
	<style>
		.s0 { fill: #252b5c } 
	</style>
	<g id="g8">
		<g id="g10">
			<g id="Clip-Path: g12" clip-path="url(#cp1)">
				<g id="g12">
					<g id="g18">
						<path id="path20" class="s0" d="m82.8 100.6c5.5-5.3 9.3-12.6 10.5-20.1 0.3-2.2 0.4-4.4 0.7-6.5-0.3 1.7 0.2-1 0.3-1.5q0.2-1.6 0.5-3.2 1-5.2 2.6-10.2 0.7-2.3 1.6-4.5 0.4-1 0.8-2.1c0.6-1.5-0.6 1.4 0.1-0.1q0.3-0.7 0.6-1.4 1.9-4.1 4.4-8c0.2-0.4 2.4-3.7 2.5-3.6 0 0-1.1 1.3-0.3 0.3q0.3-0.4 0.7-0.8 0.7-0.8 1.5-1.7 1.3-1.5 2.8-2.8 0.7-0.7 1.5-1.3c0.2-0.1 0.4-0.3 0.6-0.5-1.4 1.3-0.6 0.5-0.1 0.2q1.5-1.1 3.1-2 0.8-0.5 1.6-0.9 0.3-0.1 0.7-0.3c1.1-0.5-1.6 0.6-0.1 0.1 1-0.4 2.1-0.7 3.2-1q0.8-0.2 1.7-0.4 0.3 0 0.7-0.1c-2.1 0.5-0.8 0.1-0.2 0.1q1.7-0.1 3.3 0c0.7 0 2.6 0.4 0.4-0.1 0.7 0.2 1.4 0.3 2 0.4q1.6 0.4 3.1 0.9c0.3 0.1 0.6 0.3 1 0.4-0.1 0-1.6-0.7-0.6-0.3q1 0.5 1.9 1 1.6 0.8 3 1.8c0.5 0.3 0.9 0.7 1.4 1-1.8-1.1 0.3 0.3 0.7 0.7q1.5 1.3 2.9 2.8 0.6 0.6 1.2 1.3c0.2 0.2 1.2 1.8 1.5 1.8-0.4 0-0.9-1.2-0.2-0.2q0.3 0.5 0.7 0.9 0.6 0.9 1.2 1.8 1.2 1.9 2.3 3.9 1.1 2 2.1 4.1 0.5 1.1 1 2.2c0.2 0.3 0.6 1-0.1-0.3 0.2 0.4 0.4 0.9 0.6 1.4q2.1 5.5 3.5 11.2 0.7 2.8 1.2 5.7 0.3 1.6 0.5 3.2c0.1 0.4 0.2 1.4 0-0.1q0.1 1 0.2 2c0.6 5 1.3 9.5 3.4 14.1 1.7 4 4.3 7.6 7.4 10.7 2.5 2.4 7 2.6 9.4 0 2.5-2.7 2.7-6.8 0-9.5q-0.8-0.8-1.5-1.6c-0.2-0.2-1.3-1.6-0.3-0.3q-0.3-0.5-0.7-0.9-0.7-1.1-1.4-2.3-0.4-0.7-0.7-1.4c-0.2-0.3-0.8-1.8-0.2-0.3q-1.1-2.5-1.6-5.2-0.1-0.6-0.2-1.3c-0.2-1.1 0.1 1.7 0-0.1q-0.2-1.7-0.4-3.3c-0.9-7.6-2.5-15.1-5.1-22.3-4.5-12.4-11.6-24.4-22.8-31.7-10.2-6.6-22.7-7.1-33.5-1.6-11.6 5.9-19.2 17.6-24.1 29.3-3.1 7.4-5.1 15.1-6.2 23.1q-0.3 2.2-0.6 4.5-0.1 0.6-0.1 1.1-0.1 0.6-0.1 1.1 0.2-1.3 0-0.2c-0.4 1.9-0.9 3.7-1.5 5.5-0.6 1.7 0.6-1.2-0.2 0.4q-0.3 0.7-0.6 1.4-0.8 1.4-1.7 2.7-0.3 0.4-0.6 0.8-0.6 0.9 0.1-0.1-0.3 0.4-0.7 0.8-0.8 1-1.8 1.9c-2.5 2.4-2.6 7.1 0 9.5 2.7 2.4 6.8 2.5 9.5 0z"/>
					</g>
					<g id="g22">
						<path id="path24" class="s0" d="m205 167.1h-15.3-36.9-44.5-38.5c-6.2 0-12.5-0.2-18.7 0q-0.1 0-0.2 0c-3.5 0-6.9 3.1-6.7 6.7 0.2 3.6 2.9 6.6 6.7 6.6h15.3 36.8 44.6 38.5c6.2 0 12.4 0.2 18.6 0q0.2 0 0.3 0c3.5 0 6.8-3 6.7-6.6-0.2-3.6-3-6.7-6.7-6.7z"/>
					</g>
					<g id="g26">
						<path id="path28" class="s0" d="m222 129.2h-19.1-45.4-55-47.6c-7.7 0-15.4-0.1-23.1 0q-0.2 0-0.3 0c-3.5 0-6.9 3.1-6.7 6.7 0.2 3.6 2.9 6.7 6.7 6.7h19 45.4 55.1 47.6c7.7 0 15.4 0.1 23.1 0q0.1 0 0.3 0c3.5 0 6.8-3.1 6.7-6.7-0.2-3.6-3-6.7-6.7-6.7z"/>
					</g>
					<g id="g30">
						<path id="path32" class="s0" d="m133.2 211.6v-36.5-58.2-13.4c0-3.5-3-6.8-6.6-6.7-3.6 0.2-6.7 3-6.7 6.7v36.5 58.3 13.3c0 3.5 3.1 6.9 6.7 6.7 3.6-0.2 6.6-2.9 6.6-6.7z"/>
					</g>
					<g id="g34">
						<path id="path36" class="s0" d="m95.4 210.3v-37.6-59.7-13.6c0-3.5-3.1-6.8-6.7-6.7-3.6 0.2-6.7 3-6.7 6.7v37.6 59.7 13.6c0 3.5 3.1 6.8 6.7 6.6 3.6-0.1 6.7-2.9 6.7-6.6z"/>
					</g>
					<g id="g38">
						<path id="path40" class="s0" d="m57.5 205.5v-34.6-54.8-12.6c0-3.5-3-6.8-6.6-6.7-3.7 0.2-6.7 3-6.7 6.7v34.6 54.8 12.6c0 3.5 3.1 6.9 6.7 6.7 3.6-0.1 6.6-2.9 6.6-6.7z"/>
					</g>
					<g id="g42">
						<path id="path44" class="s0" d="m172.5 211.6v-37.6-59.4-13.6c0-3.5-3.1-6.8-6.7-6.7-3.6 0.2-6.7 2.9-6.7 6.7v37.6 59.4 13.6c0 3.5 3.1 6.9 6.7 6.7 3.6-0.2 6.7-2.9 6.7-6.7z"/>
					</g>
					<g id="g46">
						<path id="path48" class="s0" d="m211.7 199v-32.3-51.5-11.7c0-3.5-3.1-6.8-6.7-6.7-3.6 0.2-6.7 3-6.7 6.7v32.3 51.5 11.7c0 3.5 3.1 6.8 6.7 6.7 3.6-0.2 6.7-3 6.7-6.7z"/>
					</g>
					<g id="g50">
						<path id="path52" class="s0" d="m34.7 104.7h10 25.7 35.2 38.7 35.7 26.7c3.9 0 7.8 0 11.6 0q0.1 0 0.1 0 0 0 0 0 0.5 0 0.9 0c1.3 0-0.9-0.2-0.1 0 0.5 0.1 1 0.2 1.5 0.4 0.2 0 0.4 0.2 0.6 0.2 0.8 0.1-1.1-0.6-0.4-0.2 0.4 0.2 0.9 0.4 1.3 0.7q0.3 0.2 0.6 0.3c1.2 0.8-0.2 0-0.2-0.1 0 0 1.1 1 1.1 1q0.2 0.2 0.4 0.5c0.9 0.9-0.3-0.3-0.2-0.4 0 0 0.7 1.2 0.8 1.3q0.1 0.2 0.3 0.5 0.1 0.3 0.3 0.6 0.2 0.5-0.1-0.2c-0.4-0.3-0.2-0.6-0.1 0q0.2 0.4 0.3 0.8c0.1 0.3 0.3 1.8 0.2 0.8-0.1-1.1 0 0.5 0 0.8 0 0.6-0.1 1.2-0.1 1.8 0-0.2 0.4-1.6 0.1-0.4q-0.1 0.3-0.2 0.6-0.1 0.4-0.2 0.7 0 0.1-0.1 0.1-0.1 0.4-0.2 0.8-0.5 1.6-1 3.2-4.6 14.2-9.2 28.4-5.7 17.8-11.4 35.5c-1.9 6-3.7 11.9-5.7 17.8q-0.1 0.2-0.1 0.5c-0.3 0.9-0.3-0.2 0.1-0.3-0.1 0-0.3 0.5-0.3 0.6-0.2 0.3-0.6 1.3-0.9 1.4 0 0 1.1-1.3 0.2-0.3q-0.3 0.3-0.6 0.7c-0.2 0.2-1.4 1.3-0.7 0.7 0.7-0.7-0.5 0.3-0.8 0.5-0.3 0.1-1.7 0.8-0.8 0.4 0.8-0.4-0.8 0.3-1.2 0.4-0.3 0-0.6 0.1-0.9 0.2-0.7 0.1 0.6-0.1 0.6-0.1-0.3-0.1-1 0.1-1.4 0.1q0 0 0 0-0.3 0-0.6 0-3.1 0-6.2 0h-28-37.7-35.1-19.8q-0.5 0-1.1 0-0.3 0-0.7-0.1c-0.2 0-0.5-0.1-0.7 0 0.8-0.3 1.1 0.2 0.4 0-0.5-0.1-1-0.2-1.6-0.4-0.1-0.1-0.4-0.2-0.6-0.2q1.2 0.5 0.6 0.2-0.3-0.1-0.5-0.2-0.7-0.4-1.3-0.8c-1-0.6 0.8 0.8-0.3-0.3q-0.5-0.5-1.1-1.1c-0.6-0.7 0.3-0.1 0.2 0.3 0-0.2-0.4-0.7-0.5-0.8-0.1-0.2-1-1.7-0.5-0.9 0.5 0.9-0.1-0.2-0.2-0.5q0 0 0-0.1-0.1-0.4-0.2-0.7-0.5-1.6-1-3.1-4.6-14.2-9.1-28.3l-11.4-35.5c-2-6-4-12-5.8-18.1-0.2-0.5-0.3-1-0.5-1.6-0.2-0.7 0.1 0.6 0.1 0.7 0-0.3-0.1-0.6-0.1-0.9 0-0.5 0-1 0-1.5 0-0.1 0.1-0.6 0.1-0.7 0.3 0.4-0.3 1.4 0 0.5q0.2-0.7 0.3-1.4c0.1-0.1 0.3-0.6 0.3-0.6 0.1 0.1-0.7 1.3-0.2 0.4 0.2-0.4 0.4-0.9 0.7-1.3q0.2-0.3 0.3-0.5c0.7-1.1-0.2 0.3-0.2 0.3 0 0 0.8-1 1-1.1q0.2-0.2 0.4-0.4c0.9-0.9-0.3 0.3-0.3 0.2-0.1 0 1-0.7 1.2-0.8 0.2-0.1 1.3-0.7 1.3-0.7 0.1 0.1-1.6 0.5-0.3 0.2q0.3-0.1 0.6-0.2c0.2 0 1.5-0.4 1.5-0.3 0.1 0.1-1.8 0.1-0.4 0q0.5 0 0.9 0c3.5 0 6.9-3 6.7-6.6-0.2-3.6-2.9-6.8-6.7-6.7-5.6 0.1-11.3 2.3-15.1 6.7-3.6 4.1-5.9 9.6-5.3 15.2 0.3 3 1.1 5.6 2 8.5q4.7 14.5 9.4 29 5.7 18 11.5 36 2 6.2 4 12.4c0.7 2 1.2 4 2 5.9 3.3 8.1 10.8 13.2 19.6 13.2q3 0 6 0h28.3 38.6 35.5q9.5 0 19 0c7.5 0 14.7-3.7 18.5-10.4 1.4-2.5 2.1-5.3 3-8q4.7-14.5 9.3-29 5.8-18 11.6-35.9 2-6.3 4-12.6c0.6-1.9 1.4-3.8 1.8-5.8 1.2-5.5 0.3-11.5-3-16.2-3.7-5.1-8.9-8.2-15.1-8.9-1.4-0.2-2.8-0.1-4.2-0.1h-18.8-31.9-38.5-38.6-32-19-2.6c-3.4 0-6.8 3.1-6.6 6.7 0.1 3.6 2.9 6.6 6.6 6.6z"/>
					</g>
				</g>
			</g>
		</g>
	</g>
</svg>