<svg version="1.2" xmlns="http://www.w3.org/2000/svg" viewBox="0 0 365 114" width="365" height="114">
	<title>circ 5-svg</title>
	<defs>
		<clipPath clipPathUnits="userSpaceOnUse" id="cp1">
			<path d="m37.37-341l327.49 289.29-231.38 261.92-327.48-289.29z"/>
		</clipPath>
	</defs>
	<style>
		.s0 { fill: #020d6f } 
	</style>
	<g id="Clip-Path" clip-path="url(#cp1)">
		<g id="Layer" style="opacity: .2">
			<path id="Layer" fill-rule="evenodd" class="s0" d="m-30.4 61.4c-50-43.5-70.1-114.8-48-179.8 4.3-12.8 3.4-24.9-3.2-36.7-9-16.2-7.1-35 4.8-48.5 12.1-13.8 30.3-18.2 47.7-11.2 12.7 5.1 24.8 4.2 37.1-1.4 55-25 109.2-23.2 160.8 8.4 50.7 31 77 77.7 80.4 137 1.2 20.7-2.1 40.9-8.8 60.5-4.3 12.6-3.3 24.6 3.2 36.3 9.1 16.2 7.1 35.2-4.9 48.8-12 13.5-30.6 17.9-47.6 10.9-12.4-5.1-24.5-4.5-36.7 1.2q-71.3 33.3-143.3 1.6c-15.2-6.7-29.2-15.9-41.5-27.1zm6.3-214c-49 58.7-40.9 144.7 18.1 194.1 56.8 47.6 143.9 39.6 192-17.7 48.7-57.9 41.2-145.1-16.7-193.5-58.2-48.6-145.1-40.9-193.4 17.1z"/>
		</g>
	</g>
</svg>