<?xml version="1.0" encoding="UTF-8" standalone="no"?>
<!-- Created with Inkscape (http://www.inkscape.org/) -->

<svg
   version="1.1"
   id="svg2"
   width="1122.52"
   height="793.70135"
   viewBox="0 0 1122.52 793.70135"
   sodipodi:docname="ty lunch - logo dessert sans titre.ai"
   xmlns:inkscape="http://www.inkscape.org/namespaces/inkscape"
   xmlns:sodipodi="http://sodipodi.sourceforge.net/DTD/sodipodi-0.dtd"
   xmlns="http://www.w3.org/2000/svg"
   xmlns:svg="http://www.w3.org/2000/svg">
  <defs
     id="defs6">
    <clipPath
       clipPathUnits="userSpaceOnUse"
       id="clipPath16">
      <path
         d="M 0,595.276 H 841.89 V 0 H 0 Z"
         id="path14" />
    </clipPath>
  </defs>
  <sodipodi:namedview
     id="namedview4"
     pagecolor="#ffffff"
     bordercolor="#000000"
     borderopacity="0.25"
     inkscape:showpageshadow="2"
     inkscape:pageopacity="0.0"
     inkscape:pagecheckerboard="0"
     inkscape:deskcolor="#d1d1d1" />
  <g
     id="g8"
     inkscape:groupmode="layer"
     inkscape:label="ty lunch - logo dessert sans titre"
     transform="matrix(1.3333333,0,0,-1.3333333,0,793.70133)">
    <g
       id="g10">
      <g
         id="g12"
         clip-path="url(#clipPath16)">
        <g
           id="g18"
           transform="translate(420.9448,122.927)">
          <path
             d="m 0,0 c -96.49,0 -174.711,78.221 -174.711,174.711 0,96.49 78.221,174.711 174.711,174.711 96.49,0 174.711,-78.221 174.711,-174.711 C 174.711,78.221 96.49,0 0,0 m 231.403,225.682 c -14.899,4.901 -26.907,16.075 -32.866,30.583 C 165.464,336.778 87.041,389.345 0,389.345 c -87.041,0 -165.464,-52.567 -198.537,-133.08 -5.959,-14.508 -17.967,-25.682 -32.865,-30.583 -22.013,-7.242 -36.891,-27.797 -36.891,-50.971 0,-23.174 14.877,-43.729 36.891,-50.971 14.898,-4.902 26.906,-16.075 32.866,-30.583 C -165.464,12.644 -87.041,-39.923 0,-39.923 c 87.041,0 165.464,52.567 198.537,133.08 5.959,14.507 17.967,25.681 32.866,30.583 22.013,7.242 36.89,27.797 36.89,50.971 0,23.174 -14.877,43.729 -36.89,50.971"
             style="fill:#040d6a;fill-opacity:1;fill-rule:nonzero;stroke:none"
             id="path20" />
        </g>
        <g
           id="g22"
           transform="translate(512.0668,386.7052)">
          <path
             d="m 0,0 c -24.262,-28.721 -48.86,-47.839 -54.94,-42.703 -6.081,5.137 1.169,23.38 25.431,52.1 C -5.247,38.118 5.207,40.833 11.288,35.696 17.369,30.56 24.262,28.721 0,0"
             style="fill:#b5b7df;fill-opacity:1;fill-rule:nonzero;stroke:none"
             id="path24" />
        </g>
        <g
           id="g26"
           transform="translate(322.2866,191.192)">
          <path
             d="M 0,0 C 1.138,1.175 0.283,4.658 -2.013,5.933 -4.031,7.054 -7.075,6.419 -7.611,4.932 -8.155,3.424 -5.946,1.516 -5.734,1.333 -4.052,-0.121 -1.098,-1.133 0,0"
             style="fill:#f25183;fill-opacity:1;fill-rule:nonzero;stroke:none"
             id="path28" />
        </g>
        <g
           id="g30"
           transform="translate(357.1355,224.7352)">
          <path
             d="m 0,0 c -10.586,9.135 -16.843,21.51 -15.228,35.712 1.875,16.482 12.724,32.746 25.013,43.442 19.16,16.677 45.993,24.38 70.373,29.465 4.591,0.957 9.205,1.804 13.84,2.519 0.817,0.126 1.635,0.243 2.452,0.365 1.426,0.212 0.645,0.091 0.659,0.093 0.482,0.064 0.964,0.124 1.447,0.178 7.115,0.797 7.196,12.056 0,11.25 C 78.854,120.819 59.036,116.016 40.534,108.958 9.555,97.141 -20.721,74.231 -26.042,39.142 -28.795,20.991 -21.741,3.942 -7.955,-7.955 -2.499,-12.663 5.493,-4.74 0,0"
             style="fill:#b5b7df;fill-opacity:1;fill-rule:nonzero;stroke:none"
             id="path32" />
        </g>
        <g
           id="g34"
           transform="translate(357.1355,224.7352)">
          <path
             d="m 0,0 c -7.956,6.867 -11.915,14.425 -8.22,24.76 5.006,14.005 16.503,26.784 26.236,37.681 17.39,19.471 41.613,32.605 65.267,42.935 5.497,2.401 11.082,4.683 16.769,6.599 6.824,2.3 3.897,13.17 -2.991,10.849 C 78.895,116.702 61.129,108.146 44.803,98.159 31.818,90.216 19.245,80.928 9.194,69.413 -1.619,57.024 -13.888,43.109 -19.237,27.256 -23.885,13.478 -18.584,1.22 -7.955,-7.955 -2.499,-12.664 5.492,-4.741 0,0"
             style="fill:#b5b7df;fill-opacity:1;fill-rule:nonzero;stroke:none"
             id="path36" />
        </g>
        <g
           id="g38"
           transform="translate(349.1805,216.7803)">
          <path
             d="m 0,0 c 9.289,-7.68 20.406,-12.451 32.347,-8.06 14.447,5.313 25.527,18.453 35.332,29.714 20.144,23.135 31.865,50.846 39.504,80.341 1.867,7.206 3.586,14.506 4.752,21.864 1.122,7.083 -9.716,10.133 -10.848,2.991 C 98.493,110.474 93.876,94.177 88.15,78.648 83.303,65.502 77.251,52.644 69.139,41.176 64.258,34.274 58.435,27.938 52.683,21.757 47.919,16.639 42.946,11.473 37.258,7.365 33.045,4.323 28.213,1.516 22.881,1.408 17.246,1.294 12.151,4.486 7.955,7.955 2.415,12.535 -5.587,4.619 0,0"
             style="fill:#b5b7df;fill-opacity:1;fill-rule:nonzero;stroke:none"
             id="path40" />
        </g>
        <g
           id="g42"
           transform="translate(349.1805,216.7803)">
          <path
             d="m 0,0 c 11.924,-9.863 26.362,-15.065 41.878,-12.638 18.511,2.896 34.575,16.09 45.879,30.396 18.374,23.253 22.896,55.823 24.272,84.563 0.367,7.653 0.54,15.377 0.107,23.033 -0.251,4.442 -6.236,7.963 -9.602,3.978 L 12.89,23.214 C 8.594,18.128 4.297,13.041 0,7.955 -4.645,2.456 3.275,-5.54 7.955,0 c 29.881,35.373 59.762,70.745 89.643,106.118 4.297,5.086 8.594,10.172 12.891,15.259 -3.201,1.326 -6.402,2.652 -9.603,3.977 0.967,-17.115 -0.192,-34.727 -3.102,-51.593 C 92.692,44.248 79.498,13.576 49.847,1.243 35.337,-4.792 19.965,-1.979 7.955,7.955 2.416,12.536 -5.586,4.62 0,0"
             style="fill:#b5b7df;fill-opacity:1;fill-rule:nonzero;stroke:none"
             id="path44" />
        </g>
        <g
           id="g46"
           transform="translate(508.4202,413.9576)">
          <path
             d="m 0,0 c -11.172,-4.762 -18.398,-15.952 -17.032,-17.449 1.455,-1.593 13.18,7.217 16.744,9.896 3.37,2.532 10.304,7.743 9.491,9.242 C 8.579,2.84 3.543,1.51 0,0"
             style="fill:#ffffff;fill-opacity:1;fill-rule:nonzero;stroke:none"
             id="path48" />
        </g>
        <g
           id="g50"
           transform="translate(355.3511,310.2191)">
          <path
             d="m 0,0 c -3.079,0.893 -21.105,-11.849 -27.662,-23.457 -5.351,-9.475 -13.097,-30.598 -2.989,-51.962 1.57,-3.32 5.479,-10.432 11.162,-23.053 2.761,-6.132 4.933,-11.326 2.666,-15.223 -2.441,-4.198 -8.441,-4.156 -8.445,-5.967 -0.004,-1.822 6.043,-3.945 15.026,-5.008 29.695,-3.516 53.942,8.99 57.81,11.048 4.512,2.401 12.442,7.051 20.335,15.14 5.318,5.449 13.808,14.149 11.475,19.378 -0.871,1.952 -5.803,10.909 -25.73,10.512 -28.835,-0.574 -28.665,-3.887 -39.828,-3.989 -20.594,-0.189 -25.218,30.16 -25.634,34.853 C -13.591,-17.675 3.321,-0.964 0,0"
             style="fill:#f25183;fill-opacity:1;fill-rule:nonzero;stroke:none"
             id="path52" />
        </g>
      </g>
    </g>
  </g>
</svg>
