<?xml version="1.0" encoding="UTF-8" standalone="no"?>
<!-- Created with Inkscape (http://www.inkscape.org/) -->

<svg
   version="1.1"
   id="svg2"
   width="1122.52"
   height="793.70135"
   viewBox="0 0 1122.52 793.70135"
   sodipodi:docname="ty lunch - logo entrée froide sans titre.ai"
   xmlns:inkscape="http://www.inkscape.org/namespaces/inkscape"
   xmlns:sodipodi="http://sodipodi.sourceforge.net/DTD/sodipodi-0.dtd"
   xmlns="http://www.w3.org/2000/svg"
   xmlns:svg="http://www.w3.org/2000/svg">
  <defs
     id="defs6">
    <clipPath
       clipPathUnits="userSpaceOnUse"
       id="clipPath16">
      <path
         d="M 0,595.276 H 841.89 V 0 H 0 Z"
         id="path14" />
    </clipPath>
  </defs>
  <sodipodi:namedview
     id="namedview4"
     pagecolor="#ffffff"
     bordercolor="#000000"
     borderopacity="0.25"
     inkscape:showpageshadow="2"
     inkscape:pageopacity="0.0"
     inkscape:pagecheckerboard="0"
     inkscape:deskcolor="#d1d1d1" />
  <g
     id="g8"
     inkscape:groupmode="layer"
     inkscape:label="ty lunch - logo entrée froide sans titre"
     transform="matrix(1.3333333,0,0,-1.3333333,0,793.70133)">
    <g
       id="g10">
      <g
         id="g12"
         clip-path="url(#clipPath16)">
        <g
           id="g18"
           transform="translate(508.4843,320.7231)">
          <path
             d="m 0,0 c -20.069,-30.481 -54.648,-59.737 -54.648,-59.737 0,0 -14.805,28.097 -8.025,63.956 6.368,33.683 57.236,58.699 57.236,58.699 0,0 27.501,-29.408 5.437,-62.918"
             style="fill:#4fa020;fill-opacity:1;fill-rule:nonzero;stroke:none"
             id="path20" />
        </g>
        <g
           id="g22"
           transform="translate(506.3256,321.9849)">
          <path
             d="m 0,0 c -7.841,-11.876 -17.143,-22.748 -26.921,-33.063 -7.304,-7.707 -14.926,-15.121 -22.829,-22.211 -1.488,-1.335 -2.981,-2.666 -4.507,-3.957 1.309,-0.169 2.618,-0.338 3.927,-0.506 -0.219,0.415 -0.419,0.841 -0.618,1.266 -0.239,0.51 -0.469,1.024 -0.694,1.54 -0.066,0.152 -0.131,0.305 -0.197,0.457 -0.172,0.394 0.2,-0.49 -0.016,0.038 -0.161,0.392 -0.323,0.783 -0.48,1.176 -1.768,4.423 -3.196,8.982 -4.335,13.605 -3.56,14.436 -4.305,29.887 -1.326,44.498 2.208,10.827 8.841,20.143 16.435,28.036 7.434,7.726 15.622,14.052 24.536,19.864 3.199,2.086 6.462,4.074 9.788,5.952 1.64,0.926 3.371,1.724 4.988,2.686 0.073,0.044 0.155,0.079 0.232,0.117 -1.01,0.13 -2.02,0.26 -3.029,0.39 0.237,-0.254 0.464,-0.521 0.689,-0.787 0.254,-0.301 0.503,-0.606 0.749,-0.913 0.125,-0.157 0.665,-0.865 0.146,-0.18 0.2,-0.264 0.402,-0.527 0.6,-0.793 C -0.859,54.514 0.916,51.64 2.452,48.65 6.837,40.111 9.186,30.071 7.871,20.193 6.902,12.92 3.991,6.11 0,0 -1.765,-2.702 2.563,-5.21 4.317,-2.524 11.593,8.617 14.725,21.684 12.41,34.843 10.891,43.474 7.143,51.789 2.06,58.906 c -1.11,1.555 -2.265,3.118 -3.571,4.518 -0.796,0.853 -2.05,0.873 -3.029,0.391 -4.371,-2.152 -8.584,-4.677 -12.7,-7.274 -9.068,-5.72 -17.762,-12.204 -25.445,-19.699 -8.334,-8.131 -15.866,-17.833 -19.243,-29.135 -1.06,-3.546 -1.593,-7.236 -2.055,-10.9 -0.534,-4.239 -0.802,-8.51 -0.809,-12.782 -0.012,-7.49 0.775,-14.992 2.254,-22.333 1.073,-5.333 2.529,-10.596 4.397,-15.707 0.975,-2.666 1.983,-5.416 3.33,-7.924 0.057,-0.106 0.107,-0.215 0.163,-0.322 0.803,-1.527 2.762,-1.492 3.927,-0.506 4.455,3.772 8.739,7.758 12.966,11.782 9.513,9.057 18.646,18.545 27.097,28.606 5.332,6.348 10.406,12.934 14.975,19.855 C 6.095,0.169 1.767,2.677 0,0"
             style="fill:#007203;fill-opacity:1;fill-rule:nonzero;stroke:none"
             id="path24" />
        </g>
        <g
           id="g26"
           transform="translate(503.047,383.6411)">
          <path
             d="m 0,0 c -1.479,-8.289 -0.623,-23.946 -7.881,-35.922 -9.943,-16.406 -19.684,-19.971 -28.323,-32.431 -6.735,-9.712 -14.481,-27.442 -13.006,-54.302"
             style="fill:#4fa020;fill-opacity:1;fill-rule:nonzero;stroke:none"
             id="path28" />
        </g>
        <g
           id="g30"
           transform="translate(500.6363,384.3057)">
          <path
             d="m 0,0 c -0.68,-3.902 -0.881,-7.874 -1.252,-11.812 -0.439,-4.668 -1.072,-9.324 -2.327,-13.852 -2.71,-9.772 -9.177,-17.966 -16.332,-24.953 -6.117,-5.973 -12.454,-11.512 -17.131,-18.768 -3.866,-6 -6.711,-12.685 -8.697,-19.528 -3.232,-11.131 -4.172,-22.864 -3.561,-34.407 0.17,-3.201 5.171,-3.221 5,0 -0.917,17.323 1.748,35.405 10.844,50.247 4.253,6.938 10.14,12.271 15.966,17.844 7.319,7.001 14.202,15.198 17.659,24.843 1.855,5.174 2.73,10.636 3.327,16.081 0.469,4.28 0.662,9.169 1.325,12.976 C 5.053,-0.001 4.465,1.364 3.075,1.746 1.87,2.077 0.233,1.337 0,0"
             style="fill:#007203;fill-opacity:1;fill-rule:nonzero;stroke:none"
             id="path32" />
        </g>
        <g
           id="g34"
           transform="translate(486.1211,335.6449)">
          <path
             d="m 0,0 c -0.455,3.483 -1.767,9.347 -6.067,14.859 -1.303,1.67 -2.667,3.034 -3.954,4.138"
             style="fill:#4fa020;fill-opacity:1;fill-rule:nonzero;stroke:none"
             id="path36" />
        </g>
        <g
           id="g38"
           transform="translate(488.6211,335.6449)">
          <path
             d="m 0,0 c -1.067,7.994 -4.591,15.426 -10.753,20.765 -1.02,0.883 -2.533,1.002 -3.535,0 -0.904,-0.904 -1.025,-2.648 0,-3.536 2.964,-2.568 5.31,-5.648 6.967,-9.207 0.624,-1.341 1.166,-2.917 1.579,-4.47 C -5.556,2.855 -5.394,2.153 -5.255,1.445 -5.193,1.128 -5.135,0.809 -5.082,0.49 -5.048,0.287 -4.907,-0.694 -5,0 c 0.179,-1.338 1.021,-2.5 2.5,-2.5 1.212,0 2.68,1.152 2.5,2.5"
             style="fill:#007203;fill-opacity:1;fill-rule:nonzero;stroke:none"
             id="path40" />
        </g>
        <g
           id="g42"
           transform="translate(474.6139,324.0557)">
          <path
             d="m 0,0 c 3.512,0.017 9.499,-0.495 15.539,-4.016 1.83,-1.068 3.364,-2.236 4.631,-3.363"
             style="fill:#4fa020;fill-opacity:1;fill-rule:nonzero;stroke:none"
             id="path44" />
        </g>
        <g
           id="g46"
           transform="translate(474.6139,321.5557)">
          <path
             d="m 0,0 c 3.123,0.005 5.699,-0.331 8.722,-1.249 3.569,-1.084 6.881,-2.933 9.681,-5.398 1.013,-0.891 2.538,-0.997 3.535,0 0.91,0.91 1.018,2.64 0,3.536 C 15.852,2.248 8.085,5.014 0,5 -3.217,4.994 -3.223,-0.006 0,0"
             style="fill:#007203;fill-opacity:1;fill-rule:nonzero;stroke:none"
             id="path48" />
        </g>
        <g
           id="g50"
           transform="translate(348.7667,309.3545)">
          <path
             d="m 0,0 c 20.069,-30.481 54.648,-59.737 54.648,-59.737 0,0 14.805,28.097 8.026,63.956 C 56.305,37.902 5.437,62.918 5.437,62.918 5.437,62.918 -22.064,33.51 0,0"
             style="fill:#4fa020;fill-opacity:1;fill-rule:nonzero;stroke:none"
             id="path52" />
        </g>
        <g
           id="g54"
           transform="translate(346.608,308.0927)">
          <path
             d="m 0,0 c 8.003,-12.121 17.475,-23.262 27.443,-33.802 7.383,-7.805 15.092,-15.31 23.089,-22.484 1.488,-1.335 2.981,-2.666 4.507,-3.957 1.164,-0.986 3.123,-1.021 3.926,0.506 3.175,6.039 5.265,12.831 6.881,19.426 3.724,15.194 4.36,31.215 1.37,46.594 C 64.978,17.799 57.958,27.906 50.031,36.291 42.433,44.329 33.591,51.2 24.361,57.26 19.453,60.483 14.384,63.659 9.09,66.222 9.012,66.26 8.936,66.3 8.858,66.339 7.882,66.819 6.618,66.794 5.828,65.948 2.41,62.283 -0.368,57.817 -2.619,53.368 -7.51,43.704 -9.914,32.839 -8.463,22.034 -7.401,14.124 -4.352,6.664 0,0 1.753,-2.684 6.084,-0.181 4.317,2.524 -2.354,12.739 -5.428,24.83 -3.131,36.798 c 1.563,8.146 4.9,15.401 9.753,22.176 0.213,0.297 0.428,0.592 0.647,0.884 0.131,0.176 0.833,1.065 0.279,0.375 0.32,0.399 0.634,0.802 0.961,1.195 0.278,0.333 0.559,0.667 0.855,0.984 -1.01,-0.13 -2.02,-0.26 -3.03,-0.391 4.207,-2.071 8.265,-4.493 12.234,-6.981 8.824,-5.529 16.88,-11.487 24.366,-18.694 7.933,-7.637 15.199,-16.686 18.409,-27.175 2.21,-7.222 2.754,-15.108 2.766,-22.622 0.012,-7.108 -0.694,-14.201 -2.107,-21.166 -1.064,-5.243 -2.497,-10.417 -4.329,-15.444 -0.326,-0.897 -0.666,-1.789 -1.02,-2.675 -0.147,-0.369 -0.299,-0.735 -0.449,-1.102 -0.195,-0.476 -0.013,-0.032 -0.018,-0.044 -0.076,-0.175 -0.151,-0.351 -0.227,-0.526 -0.364,-0.835 -0.792,-1.646 -1.148,-2.484 -0.046,-0.109 -0.108,-0.216 -0.163,-0.322 1.309,0.169 2.617,0.338 3.926,0.506 -4.381,3.709 -8.595,7.628 -12.754,11.581 -9.396,8.931 -18.419,18.284 -26.787,28.188 C 13.78,-10.722 8.804,-4.271 4.317,2.524 2.552,5.197 -1.78,2.696 0,0"
             style="fill:#007203;fill-opacity:1;fill-rule:nonzero;stroke:none"
             id="path56" />
        </g>
        <g
           id="g58"
           transform="translate(354.204,372.2726)">
          <path
             d="m 0,0 c 1.479,-8.289 0.623,-23.946 7.881,-35.922 9.943,-16.406 19.684,-19.971 28.323,-32.431 6.735,-9.712 14.481,-27.442 13.007,-54.302"
             style="fill:#4fa020;fill-opacity:1;fill-rule:nonzero;stroke:none"
             id="path60" />
        </g>
        <g
           id="g62"
           transform="translate(351.7933,371.608)">
          <path
             d="m 0,0 c 0.072,-0.414 0.139,-0.829 0.198,-1.245 -0.049,0.347 0.066,-0.524 0.084,-0.676 0.115,-0.977 0.209,-1.956 0.297,-2.935 0.191,-2.11 0.356,-4.222 0.562,-6.33 0.475,-4.87 1.129,-9.755 2.439,-14.478 2.776,-10.013 9.128,-18.633 16.372,-25.926 5.929,-5.969 12.474,-11.261 17.169,-18.34 3.843,-5.795 6.519,-11.905 8.478,-18.504 3.228,-10.877 4.121,-22.258 3.522,-33.557 -0.17,-3.215 4.83,-3.206 5,0 0.947,17.867 -1.868,36.608 -11.16,52.166 -4.249,7.114 -10.027,12.767 -16.005,18.408 -7.022,6.626 -14.062,14.28 -17.415,23.503 -1.83,5.034 -2.738,10.348 -3.293,15.659 C 5.776,-7.732 5.603,-3.157 4.821,1.329 4.589,2.66 2.958,3.408 1.746,3.075 0.34,2.689 -0.233,1.335 0,0"
             style="fill:#007203;fill-opacity:1;fill-rule:nonzero;stroke:none"
             id="path64" />
        </g>
        <g
           id="g66"
           transform="translate(371.13,324.2764)">
          <path
             d="m 0,0 c 0.455,3.483 1.767,9.347 6.067,14.859 1.303,1.67 2.667,3.034 3.954,4.138"
             style="fill:#4fa020;fill-opacity:1;fill-rule:nonzero;stroke:none"
             id="path68" />
        </g>
        <g
           id="g70"
           transform="translate(373.63,324.2764)">
          <path
             d="m 0,0 c -0.084,-0.628 0.03,0.173 0.065,0.389 0.052,0.316 0.108,0.631 0.168,0.946 0.136,0.703 0.294,1.401 0.476,2.094 0.417,1.589 0.974,3.221 1.612,4.593 1.657,3.559 4.003,6.639 6.967,9.207 1.021,0.885 0.907,2.629 0,3.536 -1.012,1.012 -2.512,0.886 -3.535,0 C -0.409,15.426 -3.933,7.994 -5,0 c -0.179,-1.341 1.277,-2.5 2.5,-2.5 1.499,0 2.321,1.155 2.5,2.5"
             style="fill:#007203;fill-opacity:1;fill-rule:nonzero;stroke:none"
             id="path72" />
        </g>
        <g
           id="g74"
           transform="translate(382.6372,312.6871)">
          <path
             d="m 0,0 c -3.512,0.017 -9.499,-0.495 -15.539,-4.016 -1.83,-1.068 -3.364,-2.236 -4.631,-3.363"
             style="fill:#4fa020;fill-opacity:1;fill-rule:nonzero;stroke:none"
             id="path76" />
        </g>
        <g
           id="g78"
           transform="translate(382.6372,315.1871)">
          <path
             d="m 0,0 c -8.085,0.014 -15.852,-2.752 -21.938,-8.111 -1.014,-0.893 -0.912,-2.624 0,-3.536 1.006,-1.006 2.519,-0.894 3.535,0 2.8,2.465 6.112,4.314 9.681,5.398 3.023,0.918 5.6,1.254 8.722,1.249 3.217,-0.006 3.222,4.994 0,5"
             style="fill:#007203;fill-opacity:1;fill-rule:nonzero;stroke:none"
             id="path80" />
        </g>
        <g
           id="g82"
           transform="translate(510.2058,322.3135)">
          <path
             d="m 0,0 c 11.859,0 20.592,-10.936 18.168,-22.544 -10.397,-49.781 -54.532,-87.174 -107.4,-87.174 -53.021,0 -97.258,37.609 -107.488,87.606 C -199.062,-10.67 -190.148,0 -178.469,0 Z"
             style="fill:#c5ed77;fill-opacity:1;fill-rule:nonzero;stroke:none"
             id="path84" />
        </g>
        <g
           id="g86"
           transform="translate(490.1094,212.6489)">
          <path
             d="m 0,0 c -18.581,-2.628 -41.624,0.756 -41.624,0.756 0,0 5.799,15.267 21.934,24.849 15.156,9 42.104,-2.108 42.104,-2.108 C 22.414,23.497 20.427,2.889 0,0"
             style="fill:#4fa020;fill-opacity:1;fill-rule:nonzero;stroke:none"
             id="path88" />
        </g>
        <g
           id="g90"
           transform="translate(489.4448,215.0596)">
          <path
             d="m 0,0 c -12.434,-1.727 -25.341,-1.012 -37.773,0.439 -0.757,0.088 -1.514,0.186 -2.271,0.281 -0.471,0.059 0.493,-0.15 0.239,-0.032 -0.034,0.016 -0.228,0.051 -0.27,0.037 -0.052,-0.017 -0.163,0.023 -0.22,0.031 0.582,-1.025 1.164,-2.05 1.746,-3.075 0.007,0.018 0.055,0.115 0.048,0.122 -0.008,0.009 0.069,0.163 0.072,0.175 0.049,0.21 -0.319,-0.71 -0.116,-0.277 0.235,0.502 0.455,1.011 0.699,1.509 0.873,1.782 1.866,3.507 2.94,5.175 3.365,5.222 7.672,9.974 12.734,13.72 2.749,2.034 5.628,3.885 8.82,4.851 2.885,0.873 5.651,1.198 8.66,1.25 5.998,0.102 11.755,-0.898 17.558,-2.431 3.225,-0.852 6.459,-1.83 9.548,-3.1 -0.611,0.804 -1.223,1.608 -1.835,2.411 -0.069,-0.701 0.125,0.705 0.008,0.052 -0.085,-0.481 -0.163,-0.962 -0.264,-1.44 -0.351,-1.655 -0.841,-3.281 -1.452,-4.859 -0.091,-0.236 -0.186,-0.471 -0.283,-0.705 0.231,0.557 -0.072,-0.159 -0.14,-0.307 C 18.192,13.261 17.919,12.703 17.629,12.154 17.056,11.072 16.415,10.026 15.705,9.028 15.243,8.38 15.346,8.515 14.87,7.946 14.398,7.381 13.902,6.838 13.381,6.318 12.323,5.26 11.451,4.539 10.382,3.82 7.217,1.688 3.816,0.561 0,0 c -1.337,-0.197 -2.072,-1.888 -1.746,-3.075 0.394,-1.434 1.734,-1.944 3.075,-1.746 6.831,1.005 13.211,4.337 17.528,9.788 2.969,3.747 5.066,8.151 6.155,12.808 0.254,1.088 0.458,2.199 0.567,3.311 0.116,1.181 -0.878,2.017 -1.835,2.411 -8.365,3.439 -17.798,5.557 -26.83,5.708 -7.017,0.118 -13.6,-1.371 -19.476,-5.285 -6.09,-4.055 -11.298,-9.265 -15.483,-15.256 -2.092,-2.995 -4.017,-6.228 -5.326,-9.654 -0.441,-1.155 0.498,-2.892 1.747,-3.075 9.825,-1.437 19.872,-2.039 29.794,-1.804 4.407,0.104 8.793,0.441 13.159,1.048 1.339,0.186 2.071,1.895 1.746,3.075 C 2.679,-0.305 1.343,0.186 0,0"
             style="fill:#007203;fill-opacity:1;fill-rule:nonzero;stroke:none"
             id="path92" />
        </g>
        <g
           id="g94"
           transform="translate(512.5239,236.1457)">
          <path
             d="m 0,0 c -3.7,-2.249 -9.447,-7.904 -16.534,-9.178 -9.708,-1.746 -14.396,0.798 -22.14,-0.108 -6.036,-0.707 -15.508,-3.75 -25.365,-13.454"
             style="fill:#4fa020;fill-opacity:1;fill-rule:nonzero;stroke:none"
             id="path96" />
        </g>
        <g
           id="g98"
           transform="translate(511.2621,238.3044)">
          <path
             d="m 0,0 c -3.662,-2.264 -6.838,-5.188 -10.706,-7.146 -4.463,-2.258 -9.616,-2.538 -14.529,-2.209 -4.474,0.301 -8.802,0.889 -13.284,0.266 -3.805,-0.53 -7.448,-1.73 -10.934,-3.331 -5.637,-2.588 -10.67,-6.391 -15.092,-10.711 -2.305,-2.253 1.231,-5.787 3.536,-3.536 6.433,6.285 14.345,11.33 23.365,12.692 0.754,0.114 -0.502,-0.051 0.232,0.03 0.251,0.028 0.501,0.055 0.752,0.078 0.542,0.05 1.085,0.083 1.629,0.103 1.131,0.041 2.262,0.016 3.392,-0.05 2.139,-0.125 4.266,-0.397 6.404,-0.541 5.144,-0.346 10.532,0.043 15.311,2.087 4.622,1.978 8.225,5.34 12.448,7.951 C 5.256,-2.629 2.747,1.698 0,0"
             style="fill:#007203;fill-opacity:1;fill-rule:nonzero;stroke:none"
             id="path100" />
        </g>
        <g
           id="g102"
           transform="translate(488.2576,226.3484)">
          <path
             d="M 0,0 C 1.188,1.36 3.004,3.86 3.667,7.393 3.868,8.464 3.93,9.454 3.918,10.326"
             style="fill:#4fa020;fill-opacity:1;fill-rule:nonzero;stroke:none"
             id="path104" />
        </g>
        <g
           id="g106"
           transform="translate(490.0254,224.5807)">
          <path
             d="m 0,0 c 2.934,3.376 4.687,7.58 4.65,12.093 -0.011,1.308 -1.142,2.561 -2.5,2.5 -1.345,-0.06 -2.511,-1.098 -2.5,-2.5 0.004,-0.526 -0.013,-1.052 -0.062,-1.576 -0.003,-0.032 -0.027,-0.376 -0.039,-0.377 0.01,10e-4 0.083,0.517 0.008,0.083 C -0.492,9.939 -0.542,9.656 -0.604,9.375 -0.718,8.858 -0.86,8.348 -1.028,7.847 -1.108,7.609 -1.199,7.375 -1.286,7.14 -1.42,6.778 -1.28,7.266 -1.22,7.287 -1.275,7.268 -1.358,6.976 -1.382,6.925 -1.735,6.162 -2.15,5.428 -2.619,4.729 -2.725,4.572 -2.834,4.416 -2.945,4.262 -3.015,4.166 -3.358,3.715 -3.069,4.088 -2.778,4.465 -3.139,4.006 -3.215,3.913 -3.32,3.785 -3.427,3.66 -3.536,3.536 -4.393,2.549 -4.578,0.957 -3.536,0 -2.595,-0.863 -0.916,-1.054 0,0"
             style="fill:#007203;fill-opacity:1;fill-rule:nonzero;stroke:none"
             id="path108" />
        </g>
        <g
           id="g110"
           transform="translate(479.8744,226.8443)">
          <path
             d="m 0,0 c 1.201,-1.349 3.04,-3.832 3.736,-7.358 0.211,-1.069 0.282,-2.058 0.279,-2.93"
             style="fill:#4fa020;fill-opacity:1;fill-rule:nonzero;stroke:none"
             id="path112" />
        </g>
        <g
           id="g114"
           transform="translate(478.1067,225.0766)">
          <path
             d="m 0,0 c 0.205,-0.232 0.402,-0.47 0.599,-0.709 0.207,-0.253 -0.158,0.205 -0.178,0.233 0.046,-0.065 0.097,-0.128 0.144,-0.192 0.113,-0.151 0.223,-0.305 0.33,-0.46 0.491,-0.71 0.926,-1.458 1.296,-2.238 0.045,-0.095 0.089,-0.191 0.132,-0.287 0.031,-0.07 0.187,-0.417 0.034,-0.072 -0.166,0.373 0.026,-0.078 0.057,-0.16 0.04,-0.105 0.079,-0.21 0.116,-0.316 0.176,-0.497 0.325,-1.003 0.446,-1.515 0.066,-0.278 0.123,-0.557 0.173,-0.837 0.022,-0.131 0.041,-0.261 0.063,-0.392 0.06,-0.363 -0.039,0.451 -0.016,0.094 0.036,-0.558 0.086,-1.109 0.087,-1.67 10e-4,-1.307 1.148,-2.56 2.5,-2.5 1.353,0.061 2.502,1.099 2.5,2.5 C 8.277,-4.01 6.502,0.186 3.536,3.536 2.666,4.518 0.876,4.489 0,3.536 -0.962,2.488 -0.928,1.048 0,0"
             style="fill:#007203;fill-opacity:1;fill-rule:nonzero;stroke:none"
             id="path116" />
        </g>
        <g
           id="g118"
           transform="translate(363.2969,245.2834)">
          <path
             d="m 0,0 c -6.746,-1.638 4.58,-9.538 14.093,-14.111 5.057,-2.431 9.883,-4.698 14.705,-4.446 6.26,0.328 10.227,4.785 8.579,8.312 -2.049,4.383 -12.573,6.922 -15.931,7.732 C 20.106,-2.19 5.497,1.335 0,0"
             style="fill:#ffffff;fill-opacity:1;fill-rule:nonzero;stroke:none"
             id="path120" />
        </g>
        <g
           id="g122"
           transform="translate(314.3719,295.0013)">
          <path
             d="m 0,0 c 1.439,0.867 3.37,1.166 4.721,0.334 0.761,-0.469 0.999,-1.257 1.282,-2.244 0.343,-1.194 0.723,-2.387 1.404,-3.438 2.518,-3.886 7.308,-5.806 11.831,-5.144 5.391,0.789 7.776,5.357 10.272,9.623 1.054,1.8 2.563,3.902 4.787,4.279 1.929,0.327 2.804,-1.664 3.502,-3.125 1.024,-2.146 2.026,-4.22 3.879,-5.793 1.795,-1.525 3.956,-2.642 6.278,-3.095 5.124,-1 9.842,0.837 13.251,4.738 2.97,3.397 5.128,8.436 9.804,9.788 1.849,0.535 3.483,0.247 4.474,-1.539 1.133,-2.04 1.437,-4.438 2.659,-6.459 2.279,-3.767 6.375,-6.348 10.689,-7.074 4.793,-0.807 9.454,0.408 13.047,3.735 3.867,3.581 6.486,8.637 11.585,10.738 1.897,0.782 4.018,0.939 5.978,0.327 1.98,-0.618 3.036,-2.092 3.836,-3.926 0.951,-2.179 1.667,-4.518 3.451,-6.199 2.025,-1.908 4.698,-2.539 7.394,-2.003 5.347,1.064 8.402,5.731 11.534,9.679 1.363,1.719 2.989,3.704 5.091,4.542 1.682,0.671 3.027,0.282 4.273,-0.546 0.301,-0.2 0.967,-0.817 1.446,-1.349 0.657,-0.73 0.96,-1.166 1.561,-2.037 1.128,-1.635 2.187,-3.311 3.425,-4.868 3.04,-3.822 7.525,-5.82 12.368,-4.229 2.806,0.921 5.238,2.654 7.433,4.589 1.874,1.653 3.627,3.49 5.762,4.815 1.857,1.154 3.928,1.816 6.103,1.26 2.095,-0.537 3.648,-1.839 4.697,-3.7 0.609,-1.081 1.289,-2.037 2.424,-2.606 1.657,-0.83 3.456,-0.275 5.042,0.431 2.178,0.968 3.916,2.662 5.526,4.379 1.481,1.58 2.899,3.151 4.86,4.135 2.877,1.444 0.348,5.758 -2.523,4.318 -2.164,-1.086 -3.885,-2.794 -5.521,-4.542 -1.393,-1.488 -2.816,-3.147 -4.759,-3.915 -0.133,-0.046 -0.266,-0.091 -0.399,-0.137 -0.477,-0.062 -0.545,-0.116 -0.204,-0.163 0.054,-0.052 0.262,-0.107 0.211,0.021 -0.183,0.458 -0.512,0.944 -0.775,1.356 -0.722,1.131 -1.614,2.11 -2.665,2.937 -2.094,1.648 -4.662,2.624 -7.338,2.692 -5.567,0.141 -9.704,-3.894 -13.546,-7.358 -1.91,-1.723 -4.066,-3.378 -6.623,-3.96 -1.023,-0.232 -2.057,-0.168 -3.043,0.195 -0.374,0.137 -1.31,0.727 -1.623,1.003 -2.776,2.443 -4.285,6.062 -6.857,8.919 -3.14,3.487 -7.789,4.701 -12.079,2.533 -4.576,-2.313 -6.615,-7.128 -10.108,-10.569 -1.447,-1.426 -3.406,-2.969 -5.511,-3.038 -1.947,-0.064 -2.934,1.726 -3.636,3.351 -0.96,2.224 -1.717,4.517 -3.499,6.254 -1.87,1.824 -4.335,2.753 -6.896,3.034 -5.447,0.599 -10.348,-2.477 -14.01,-6.226 -3.347,-3.427 -5.89,-8.199 -10.879,-9.039 -3.281,-0.553 -7.172,0.646 -9.638,3.131 C 80.464,2.124 81.043,8.02 76.307,10.333 71.476,12.692 65.728,9.771 62.542,6.009 59.694,2.645 57.364,-2.56 52.736,-3.694 49.282,-4.541 45.187,-2.99 43.36,0.253 42.174,2.36 41.483,4.749 39.673,6.456 37.641,8.37 34.747,8.919 32.13,7.985 29.507,7.05 27.427,5.115 25.91,2.821 24.539,0.745 23.632,-1.734 21.945,-3.586 19.55,-6.216 15.576,-6.302 12.878,-4.071 12.196,-3.508 11.81,-3.019 11.424,-2.319 10.907,-1.38 10.658,0.208 10.151,1.356 9.122,3.687 6.97,5.217 4.477,5.641 2.063,6.052 -0.423,5.582 -2.524,4.317 -5.277,2.659 -2.766,-1.666 0,0"
             style="fill:#ffffff;fill-opacity:1;fill-rule:nonzero;stroke:none"
             id="path124" />
        </g>
        <g
           id="g126"
           transform="translate(420.9448,122.9348)">
          <path
             d="m 0,0 c -96.49,0 -174.711,78.221 -174.711,174.711 0,96.49 78.221,174.71 174.711,174.71 96.49,0 174.711,-78.22 174.711,-174.71 C 174.711,78.221 96.49,0 0,0 m 231.402,225.682 c -14.898,4.901 -26.906,16.075 -32.865,30.583 C 165.464,336.778 87.041,389.345 0,389.345 c -87.041,0 -165.464,-52.567 -198.536,-133.08 -5.96,-14.508 -17.968,-25.682 -32.866,-30.583 -22.013,-7.242 -36.891,-27.797 -36.891,-50.971 0,-23.174 14.878,-43.73 36.891,-50.971 14.898,-4.902 26.906,-16.076 32.866,-30.583 C -165.464,12.644 -87.041,-39.923 0,-39.923 c 87.041,0 165.464,52.567 198.537,133.08 5.959,14.507 17.967,25.681 32.866,30.582 22.013,7.242 36.89,27.798 36.89,50.972 0,23.174 -14.877,43.729 -36.891,50.971"
             style="fill:#040d6a;fill-opacity:1;fill-rule:nonzero;stroke:none"
             id="path128" />
        </g>
      </g>
    </g>
  </g>
</svg>
