<?xml version="1.0" encoding="UTF-8" standalone="no"?>
<!-- Created with Inkscape (http://www.inkscape.org/) -->

<svg
   version="1.1"
   id="svg2"
   width="1122.52"
   height="793.70135"
   viewBox="0 0 1122.52 793.70135"
   sodipodi:docname="ty lunch - logo plat sans titre.ai"
   xmlns:inkscape="http://www.inkscape.org/namespaces/inkscape"
   xmlns:sodipodi="http://sodipodi.sourceforge.net/DTD/sodipodi-0.dtd"
   xmlns="http://www.w3.org/2000/svg"
   xmlns:svg="http://www.w3.org/2000/svg">
  <defs
     id="defs6">
    <clipPath
       clipPathUnits="userSpaceOnUse"
       id="clipPath16">
      <path
         d="M 0,595.276 H 841.89 V 0 H 0 Z"
         id="path14" />
    </clipPath>
    <clipPath
       clipPathUnits="userSpaceOnUse"
       id="clipPath76">
      <path
         d="m 468.81,410.505 h 66.244 V 326.322 H 468.81 Z"
         id="path74" />
    </clipPath>
  </defs>
  <sodipodi:namedview
     id="namedview4"
     pagecolor="#ffffff"
     bordercolor="#000000"
     borderopacity="0.25"
     inkscape:showpageshadow="2"
     inkscape:pageopacity="0.0"
     inkscape:pagecheckerboard="0"
     inkscape:deskcolor="#d1d1d1" />
  <g
     id="g8"
     inkscape:groupmode="layer"
     inkscape:label="ty lunch - logo plat sans titre"
     transform="matrix(1.3333333,0,0,-1.3333333,0,793.70133)">
    <g
       id="g10">
      <g
         id="g12"
         clip-path="url(#clipPath16)">
        <g
           id="g18"
           transform="translate(442.0778,223.1731)">
          <path
             d="m 0,0 c 32.188,0 61.564,26.333 58.282,58.282 -1.508,8.911 -2.461,23.37 0,24.493 3.046,1.39 6.886,-4.854 14.058,-4.206 5.505,0.496 10.758,4.869 10.777,8.381 0.016,2.994 1.272,7.394 -7.604,7.774 C 67.1,95.084 58.57,94.86 56.475,94.84 h -158.404 c -2.096,0.02 -10.626,0.244 -19.039,-0.116 -8.876,-0.38 -7.619,-4.78 -7.603,-7.774 0.019,-3.512 5.272,-7.885 10.777,-8.381 7.172,-0.648 11.012,5.596 14.057,4.206 2.462,-1.123 1.508,-15.582 0,-24.493 C -107.018,26.333 -77.643,0 -45.454,0 Z"
             style="fill:#b4b6dc;fill-opacity:1;fill-rule:nonzero;stroke:none"
             id="path20" />
        </g>
        <g
           id="g22"
           transform="translate(395.7554,210.6872)">
          <path
             d="m 0,0 c 0,-4.871 -1.847,-8.82 -4.126,-8.82 -2.279,0 -4.126,3.949 -4.126,8.82 0,4.871 4.126,8.82 4.126,8.82 C -4.126,8.82 0,4.871 0,0"
             style="fill:#ff0000;fill-opacity:1;fill-rule:nonzero;stroke:none"
             id="path24" />
        </g>
        <g
           id="g26"
           transform="translate(393.7919,207.9461)">
          <path
             d="m 0,0 c 0,-3.357 -0.968,-6.079 -2.163,-6.079 -1.194,0 -2.162,2.722 -2.162,6.079 0,3.357 2.162,6.079 2.162,6.079 C -2.163,6.079 0,3.357 0,0"
             style="fill:#ff0000;fill-opacity:1;fill-rule:nonzero;stroke:none"
             id="path28" />
        </g>
        <g
           id="g30"
           transform="translate(409.6161,210.6872)">
          <path
             d="m 0,0 c 0,-4.871 -1.847,-8.82 -4.126,-8.82 -2.279,0 -4.126,3.949 -4.126,8.82 0,4.871 4.126,8.82 4.126,8.82 C -4.126,8.82 0,4.871 0,0"
             style="fill:#ff0000;fill-opacity:1;fill-rule:nonzero;stroke:none"
             id="path32" />
        </g>
        <g
           id="g34"
           transform="translate(407.6526,207.9461)">
          <path
             d="m 0,0 c 0,-3.357 -0.968,-6.079 -2.163,-6.079 -1.194,0 -2.162,2.722 -2.162,6.079 0,3.357 2.162,6.079 2.162,6.079 C -2.163,6.079 0,3.357 0,0"
             style="fill:#ff0000;fill-opacity:1;fill-rule:nonzero;stroke:none"
             id="path36" />
        </g>
        <g
           id="g38"
           transform="translate(423.4768,210.6872)">
          <path
             d="m 0,0 c 0,-4.871 -1.847,-8.82 -4.126,-8.82 -2.279,0 -4.126,3.949 -4.126,8.82 0,4.871 4.126,8.82 4.126,8.82 C -4.126,8.82 0,4.871 0,0"
             style="fill:#ff0000;fill-opacity:1;fill-rule:nonzero;stroke:none"
             id="path40" />
        </g>
        <g
           id="g42"
           transform="translate(421.5133,207.9461)">
          <path
             d="m 0,0 c 0,-3.357 -0.968,-6.079 -2.163,-6.079 -1.194,0 -2.162,2.722 -2.162,6.079 0,3.357 2.162,6.079 2.162,6.079 C -2.163,6.079 0,3.357 0,0"
             style="fill:#ff0000;fill-opacity:1;fill-rule:nonzero;stroke:none"
             id="path44" />
        </g>
        <g
           id="g46"
           transform="translate(437.3375,210.6872)">
          <path
             d="m 0,0 c 0,-4.871 -1.847,-8.82 -4.126,-8.82 -2.279,0 -4.126,3.949 -4.126,8.82 0,4.871 4.126,8.82 4.126,8.82 C -4.126,8.82 0,4.871 0,0"
             style="fill:#ff0000;fill-opacity:1;fill-rule:nonzero;stroke:none"
             id="path48" />
        </g>
        <g
           id="g50"
           transform="translate(435.374,207.9461)">
          <path
             d="m 0,0 c 0,-3.357 -0.968,-6.079 -2.163,-6.079 -1.194,0 -2.162,2.722 -2.162,6.079 0,3.357 2.162,6.079 2.162,6.079 C -2.163,6.079 0,3.357 0,0"
             style="fill:#ff0000;fill-opacity:1;fill-rule:nonzero;stroke:none"
             id="path52" />
        </g>
        <g
           id="g54"
           transform="translate(451.1982,210.6872)">
          <path
             d="m 0,0 c 0,-4.871 -1.847,-8.82 -4.126,-8.82 -2.279,0 -4.126,3.949 -4.126,8.82 0,4.871 4.126,8.82 4.126,8.82 C -4.126,8.82 0,4.871 0,0"
             style="fill:#ff0000;fill-opacity:1;fill-rule:nonzero;stroke:none"
             id="path56" />
        </g>
        <g
           id="g58"
           transform="translate(449.2347,207.9461)">
          <path
             d="m 0,0 c 0,-3.357 -0.968,-6.079 -2.163,-6.079 -1.194,0 -2.162,2.722 -2.162,6.079 0,3.357 2.162,6.079 2.162,6.079 C -2.163,6.079 0,3.357 0,0"
             style="fill:#ff0000;fill-opacity:1;fill-rule:nonzero;stroke:none"
             id="path60" />
        </g>
        <g
           id="g62"
           transform="translate(492.6479,341.2968)">
          <path
             d="m 0,0 c 2.107,0.282 3.312,2.612 2.253,4.455 -7.242,12.61 -40.424,18.592 -78.851,13.452 -38.428,-5.141 -68.87,-19.633 -72.544,-33.704 -0.537,-2.056 1.239,-3.988 3.345,-3.706 z"
             style="fill:#b4b6dc;fill-opacity:1;fill-rule:nonzero;stroke:none"
             id="path64" />
        </g>
        <g
           id="g66"
           transform="translate(414.8954,359.0492)">
          <path
             d="m 0,0 c 0.126,0.605 0.327,1.902 -0.14,3.303 -2.063,6.193 -13.869,4.548 -15.687,9.228 -1.706,4.393 5.431,14.166 15.089,15.458 L -1.462,27.892 C 8.196,29.184 17.651,21.631 17.159,16.943 16.635,11.95 4.812,10.435 4.449,3.917 4.367,2.443 4.901,1.243 5.182,0.693"
             style="fill:#b4b6dc;fill-opacity:1;fill-rule:nonzero;stroke:none"
             id="path68" />
        </g>
        <g
           id="g70">
          <g
             id="g72" />
          <g
             id="g84">
            <g
               clip-path="url(#clipPath76)"
               opacity="0.740005"
               id="g82">
              <g
                 transform="translate(494.3603,328.0505)"
                 id="g80">
                <path
                   d="m 0,0 c 3.294,1.302 6.556,2.663 9.76,4.113 3.208,1.427 6.369,2.93 9.394,4.583 3.006,1.664 5.95,3.421 8.417,5.438 1.22,1.002 2.329,2.073 3.095,3.13 0.787,1.052 1.118,2.057 1.033,2.57 -0.034,0.27 -0.115,0.455 -0.238,0.68 -0.128,0.223 -0.332,0.509 -0.649,0.849 -0.622,0.683 -1.7,1.49 -2.93,2.213 -2.493,1.471 -5.563,2.728 -8.712,3.871 -6.326,2.354 -13.09,4.349 -20.008,6.801 -3.479,1.228 -6.989,2.566 -10.708,4.303 -1.85,0.889 -3.762,1.906 -5.748,3.282 -1.965,1.406 -4.117,3.166 -5.993,6.196 -0.918,1.502 -1.712,3.38 -2.062,5.456 -0.078,0.518 -0.142,1.041 -0.189,1.565 -0.024,0.517 -0.012,1.137 0.036,1.697 0.063,0.559 0.161,1.124 0.293,1.67 0.564,2.165 1.575,3.665 2.409,4.699 1.732,2.062 3.115,2.914 4.3,3.702 1.19,0.762 2.255,1.284 3.261,1.769 2.009,0.939 3.843,1.61 5.641,2.21 1.799,0.591 3.543,1.096 5.279,1.549 6.914,1.795 13.561,3.144 20.229,4.662 6.683,1.517 13.222,3.171 20.294,5.446 l 1.135,-1.397 C 35.406,77.719 32.84,74.817 30.068,72.179 27.28,69.551 24.228,67.243 21.074,65.171 14.767,61.019 7.979,57.857 1.48,55.155 c -1.615,-0.68 -3.222,-1.31 -4.752,-1.919 -1.529,-0.601 -3.007,-1.182 -4.223,-1.7 -0.604,-0.247 -1.127,-0.511 -1.456,-0.656 -0.328,-0.118 -0.416,-0.296 0.157,0.424 0.262,0.364 0.792,1.093 1.127,2.4 0.088,0.329 0.146,0.676 0.168,1.018 0.041,0.339 0.042,0.738 0.014,1.034 -0.007,0.084 -0.03,0.167 -0.068,0.245 -0.1,0.322 -0.278,0.51 -0.341,0.467 -0.067,-0.035 -0.016,-0.258 0.158,-0.563 0.181,-0.306 0.495,-0.702 0.868,-1.111 0.782,-0.83 1.856,-1.732 3.085,-2.583 2.441,-1.751 5.408,-3.299 8.45,-4.81 6.137,-3.011 12.727,-5.749 19.336,-9.145 3.294,-1.759 6.621,-3.621 9.915,-6.239 1.632,-1.336 3.303,-2.846 4.744,-5.049 0.708,-1.098 1.347,-2.394 1.711,-3.872 0.364,-1.471 0.432,-3.09 0.133,-4.569 C 40.22,17.038 39.626,15.723 38.941,14.631 38.252,13.533 37.469,12.625 36.667,11.842 35.056,10.271 33.366,9.136 31.676,8.133 28.287,6.167 24.859,4.77 21.398,3.578 17.94,2.394 14.471,1.406 10.989,0.533 7.499,-0.315 4.003,-1.055 0.502,-1.728 Z"
                   style="fill:#f7db63;fill-opacity:1;fill-rule:nonzero;stroke:none"
                   id="path78" />
              </g>
            </g>
          </g>
        </g>
        <g
           id="g86"
           transform="translate(344.0707,283.6203)">
          <path
             d="m 0,0 c -1.569,-3.678 0.033,-11.195 0.902,-15.276 1.159,-5.441 4.301,-17.247 6.991,-15.981 0.983,0.462 1.879,2.656 2.03,4.935 0.367,5.523 -3.941,7.014 -5.638,16.451 C 3.249,-4.107 3.936,0.449 2.594,1.645 1.77,2.379 0.622,1.457 0,0"
             style="fill:#ffffff;fill-opacity:1;fill-rule:nonzero;stroke:none"
             id="path88" />
        </g>
        <g
           id="g90"
           transform="translate(404.0092,378.0751)">
          <path
             d="M 0,0 C -0.335,0.392 3.065,5.591 8.382,6.386 10.967,6.773 13.563,6.052 13.57,5.588 13.578,5.106 10.794,5.178 6.985,3.792 2.328,2.097 0.243,-0.284 0,0"
             style="fill:#ffffff;fill-opacity:1;fill-rule:nonzero;stroke:none"
             id="path92" />
        </g>
        <g
           id="g94"
           transform="translate(420.9449,122.9269)">
          <path
             d="m 0,0 c -96.49,0 -174.711,78.221 -174.711,174.711 0,96.49 78.221,174.711 174.711,174.711 96.49,0 174.711,-78.221 174.711,-174.711 C 174.711,78.221 96.49,0 0,0 m 231.403,225.682 c -14.899,4.901 -26.907,16.075 -32.866,30.582 C 165.464,336.778 87.041,389.345 0,389.345 c -87.041,0 -165.464,-52.567 -198.536,-133.08 -5.96,-14.508 -17.968,-25.682 -32.866,-30.583 -22.013,-7.242 -36.891,-27.797 -36.891,-50.971 0,-23.174 14.878,-43.729 36.891,-50.971 14.898,-4.902 26.906,-16.076 32.866,-30.583 C -165.464,12.644 -87.041,-39.923 0,-39.923 c 87.041,0 165.464,52.567 198.537,133.08 5.959,14.507 17.967,25.681 32.866,30.583 22.013,7.241 36.89,27.797 36.89,50.971 0,23.174 -14.877,43.729 -36.89,50.971"
             style="fill:#040d6a;fill-opacity:1;fill-rule:nonzero;stroke:none"
             id="path96" />
        </g>
      </g>
    </g>
  </g>
</svg>
