<?xml version="1.0" encoding="UTF-8" standalone="no"?>
<!-- Created with Inkscape (http://www.inkscape.org/) -->

<svg
   version="1.1"
   id="svg2"
   width="1122.52"
   height="793.70135"
   viewBox="0 0 1122.52 793.70135"
   sodipodi:docname="ty lunch - logo sur le pouce.ai"
   xmlns:inkscape="http://www.inkscape.org/namespaces/inkscape"
   xmlns:sodipodi="http://sodipodi.sourceforge.net/DTD/sodipodi-0.dtd"
   xmlns="http://www.w3.org/2000/svg"
   xmlns:svg="http://www.w3.org/2000/svg">
  <defs
     id="defs6">
    <clipPath
       clipPathUnits="userSpaceOnUse"
       id="clipPath16">
      <path
         d="M 0,595.276 H 841.89 V 0 H 0 Z"
         id="path14" />
    </clipPath>
    <clipPath
       clipPathUnits="userSpaceOnUse"
       id="clipPath28">
      <path
         d="M 0,595.276 H 841.89 V 0 H 0 Z"
         id="path26" />
    </clipPath>
  </defs>
  <sodipodi:namedview
     id="namedview4"
     pagecolor="#ffffff"
     bordercolor="#000000"
     borderopacity="0.25"
     inkscape:showpageshadow="2"
     inkscape:pageopacity="0.0"
     inkscape:pagecheckerboard="0"
     inkscape:deskcolor="#d1d1d1" />
  <g
     id="g8"
     inkscape:groupmode="layer"
     inkscape:label="ty lunch - logo sur le pouce"
     transform="matrix(1.3333333,0,0,-1.3333333,0,793.70133)">
    <g
       id="g10">
      <g
         id="g12"
         clip-path="url(#clipPath16)">
        <g
           id="g18"
           transform="translate(420.9448,118.9691)">
          <path
             d="m 0,0 c -96.49,0 -174.711,78.221 -174.711,174.711 0,96.49 78.221,174.711 174.711,174.711 96.49,0 174.711,-78.221 174.711,-174.711 C 174.711,78.221 96.49,0 0,0 m 231.403,225.682 c -14.899,4.901 -26.907,16.075 -32.866,30.583 C 165.464,336.778 87.041,389.345 0,389.345 c -87.041,0 -165.464,-52.567 -198.536,-133.08 -5.96,-14.508 -17.968,-25.682 -32.866,-30.583 -22.013,-7.242 -36.891,-27.797 -36.891,-50.971 0,-23.174 14.878,-43.73 36.891,-50.971 14.898,-4.902 26.906,-16.075 32.866,-30.583 C -165.464,12.644 -87.041,-39.923 0,-39.923 c 87.041,0 165.464,52.567 198.537,133.08 5.959,14.507 17.967,25.681 32.866,30.583 22.013,7.241 36.89,27.797 36.89,50.971 0,23.174 -14.877,43.729 -36.89,50.971"
             style="fill:#040d6a;fill-opacity:1;fill-rule:nonzero;stroke:none"
             id="path20" />
        </g>
      </g>
    </g>
    <g
       id="g22">
      <g
         id="g24"
         clip-path="url(#clipPath28)">
        <g
           id="g30"
           transform="translate(315.5273,330.5519)">
          <path
             d="m 0,0 c 18.292,-27.782 49.809,-54.448 49.809,-54.448 0,0 13.495,25.609 7.315,58.294 C 51.32,34.546 4.956,57.347 4.956,57.347 4.956,57.347 -20.11,30.543 0,0"
             style="fill:#4fa020;fill-opacity:1;fill-rule:nonzero;stroke:none"
             id="path32" />
        </g>
        <g
           id="g34"
           transform="translate(317.4948,331.702)">
          <path
             d="m 0,0 c 7.147,-10.825 15.625,-20.734 24.537,-30.136 6.657,-7.024 13.604,-13.782 20.808,-20.244 1.356,-1.216 2.717,-2.429 4.108,-3.607 -1.193,-0.153 -2.386,-0.307 -3.579,-0.461 0.199,0.379 0.382,0.767 0.563,1.155 0.217,0.464 0.427,0.933 0.632,1.403 0.06,0.138 0.119,0.278 0.18,0.416 0.157,0.36 -0.183,-0.446 0.015,0.035 0.146,0.358 0.294,0.714 0.437,1.072 1.611,4.031 2.913,8.187 3.951,12.4 3.245,13.158 3.924,27.241 1.209,40.558 -2.013,9.869 -8.058,18.359 -14.98,25.553 -6.775,7.043 -14.239,12.809 -22.364,18.106 -2.916,1.901 -5.89,3.713 -8.921,5.425 -1.494,0.843 -3.073,1.571 -4.546,2.448 -0.067,0.04 -0.141,0.072 -0.212,0.106 L 4.6,54.586 C 4.383,54.353 4.176,54.111 3.971,53.868 3.74,53.594 3.512,53.316 3.288,53.035 3.175,52.893 2.682,52.247 3.155,52.872 2.973,52.631 2.789,52.391 2.609,52.149 0.783,49.687 -0.835,47.068 -2.235,44.342 -6.232,36.56 -8.373,27.408 -7.174,18.405 -6.291,11.776 -3.637,5.569 0,0 c 1.608,-2.463 -2.336,-4.749 -3.935,-2.3 -6.632,10.154 -9.486,22.064 -7.376,34.058 1.384,7.867 4.8,15.445 9.433,21.932 1.012,1.417 2.065,2.842 3.255,4.118 0.726,0.778 1.869,0.796 2.761,0.356 3.984,-1.961 7.824,-4.263 11.576,-6.63 8.264,-5.213 16.189,-11.123 23.191,-17.955 7.597,-7.411 14.462,-16.253 17.54,-26.554 0.966,-3.233 1.451,-6.596 1.872,-9.936 0.488,-3.863 0.731,-7.756 0.738,-11.65 0.011,-6.826 -0.707,-13.664 -2.054,-20.355 -0.979,-4.861 -2.306,-9.658 -4.009,-14.316 -0.888,-2.43 -1.806,-4.937 -3.034,-7.222 -0.052,-0.097 -0.098,-0.197 -0.149,-0.294 -0.732,-1.392 -2.517,-1.36 -3.579,-0.461 -4.061,3.438 -7.966,7.071 -11.818,10.738 -8.671,8.256 -16.995,16.903 -24.697,26.073 C 4.854,-14.611 0.23,-8.609 -3.935,-2.3 -5.556,0.154 -1.611,2.44 0,0"
             style="fill:#007203;fill-opacity:1;fill-rule:nonzero;stroke:none"
             id="path36" />
        </g>
        <g
           id="g38"
           transform="translate(320.4831,387.8988)">
          <path
             d="m 0,0 c 1.348,-7.555 0.568,-21.826 7.183,-32.741 9.063,-14.953 17.941,-18.203 25.816,-29.559 6.138,-8.852 13.198,-25.012 11.854,-49.495"
             style="fill:#4fa020;fill-opacity:1;fill-rule:nonzero;stroke:none"
             id="path40" />
        </g>
        <g
           id="g42"
           transform="translate(322.6804,388.5045)">
          <path
             d="m 0,0 c 0.62,-3.556 0.803,-7.177 1.141,-10.766 0.4,-4.255 0.977,-8.499 2.122,-12.626 2.469,-8.907 8.364,-16.375 14.885,-22.743 5.575,-5.444 11.351,-10.493 15.614,-17.107 3.524,-5.468 6.117,-11.561 7.927,-17.798 2.946,-10.145 3.803,-20.839 3.245,-31.36 -0.154,-2.918 -4.712,-2.936 -4.557,0 0.837,15.789 -1.593,32.27 -9.884,45.797 -3.875,6.324 -9.241,11.185 -14.552,16.265 -6.67,6.38 -12.944,13.852 -16.095,22.643 -1.691,4.715 -2.489,9.694 -3.032,14.657 -0.428,3.901 -0.604,8.356 -1.208,11.826 C -4.606,0 -4.07,1.243 -2.803,1.591 -1.705,1.893 -0.212,1.219 0,0"
             style="fill:#007203;fill-opacity:1;fill-rule:nonzero;stroke:none"
             id="path44" />
        </g>
        <g
           id="g46"
           transform="translate(335.9103,344.1525)">
          <path
             d="m 0,0 c 0.415,3.174 1.61,8.519 5.529,13.543 1.189,1.523 2.431,2.765 3.604,3.772"
             style="fill:#4fa020;fill-opacity:1;fill-rule:nonzero;stroke:none"
             id="path48" />
        </g>
        <g
           id="g50"
           transform="translate(333.6317,344.1525)">
          <path
             d="m 0,0 c 0.972,7.286 4.184,14.06 9.801,18.926 0.929,0.805 2.308,0.914 3.222,0 0.824,-0.823 0.934,-2.413 0,-3.222 C 10.321,13.363 8.183,10.556 6.673,7.312 6.104,6.089 5.61,4.653 5.233,3.238 5.064,2.603 4.916,1.962 4.79,1.317 4.733,1.028 4.68,0.737 4.632,0.446 4.601,0.262 4.473,-0.632 4.557,0 4.395,-1.22 3.626,-2.279 2.279,-2.279 1.174,-2.279 -0.164,-1.229 0,0"
             style="fill:#007203;fill-opacity:1;fill-rule:nonzero;stroke:none"
             id="path52" />
        </g>
        <g
           id="g54"
           transform="translate(346.3986,333.5894)">
          <path
             d="m 0,0 c -3.201,0.015 -8.658,-0.452 -14.163,-3.661 -1.668,-0.972 -3.067,-2.037 -4.221,-3.065"
             style="fill:#4fa020;fill-opacity:1;fill-rule:nonzero;stroke:none"
             id="path56" />
        </g>
        <g
           id="g58"
           transform="translate(346.3986,331.3108)">
          <path
             d="m 0,0 c -2.847,0.005 -5.194,-0.302 -7.949,-1.139 -3.253,-0.988 -6.273,-2.673 -8.824,-4.919 -0.923,-0.813 -2.314,-0.909 -3.223,0 -0.828,0.829 -0.927,2.406 0,3.222 C -14.448,2.049 -7.369,4.57 0,4.557 2.932,4.552 2.937,-0.005 0,0"
             style="fill:#007203;fill-opacity:1;fill-rule:nonzero;stroke:none"
             id="path60" />
        </g>
        <g
           id="g62"
           transform="translate(461.1025,320.19)">
          <path
             d="m 0,0 c -18.292,-27.782 -49.809,-54.448 -49.809,-54.448 0,0 -13.495,25.61 -7.315,58.294 5.804,30.7 52.168,53.501 52.168,53.501 0,0 25.066,-26.804 4.956,-57.347"
             style="fill:#4fa020;fill-opacity:1;fill-rule:nonzero;stroke:none"
             id="path64" />
        </g>
        <g
           id="g66"
           transform="translate(463.07,319.0399)">
          <path
             d="m 0,0 c -7.294,-11.048 -15.927,-21.202 -25.013,-30.809 -6.729,-7.114 -13.756,-13.955 -21.045,-20.493 -1.356,-1.217 -2.717,-2.43 -4.107,-3.607 -1.062,-0.899 -2.847,-0.931 -3.579,0.461 -2.893,5.505 -4.798,11.696 -6.271,17.706 -3.395,13.849 -3.975,28.451 -1.25,42.469 2.041,10.496 8.439,19.708 15.664,27.35 6.926,7.326 14.985,13.589 23.397,19.113 4.473,2.937 9.094,5.832 13.919,8.169 0.071,0.034 0.141,0.071 0.212,0.106 0.889,0.437 2.041,0.415 2.761,-0.357 3.116,-3.34 5.647,-7.411 7.699,-11.466 C 6.845,39.834 9.036,29.932 7.714,20.083 6.746,12.874 3.967,6.074 0,0 c -1.598,-2.446 -5.545,-0.165 -3.935,2.3 6.08,9.311 8.883,20.332 6.789,31.24 -1.425,7.424 -4.466,14.037 -8.89,20.212 -0.194,0.271 -0.39,0.539 -0.589,0.806 -0.12,0.16 -0.759,0.971 -0.255,0.342 -0.292,0.363 -0.577,0.731 -0.876,1.089 -0.253,0.304 -0.509,0.607 -0.779,0.897 0.921,-0.119 1.841,-0.238 2.762,-0.357 -3.835,-1.887 -7.533,-4.095 -11.151,-6.363 -8.042,-5.039 -15.385,-10.47 -22.208,-17.038 -7.231,-6.961 -13.854,-15.209 -16.779,-24.769 -2.014,-6.583 -2.51,-13.771 -2.522,-20.619 -0.01,-6.479 0.633,-12.944 1.921,-19.292 0.97,-4.779 2.276,-9.494 3.945,-14.076 0.298,-0.818 0.608,-1.631 0.93,-2.439 0.135,-0.335 0.273,-0.67 0.41,-1.004 0.178,-0.433 0.011,-0.029 0.016,-0.04 0.069,-0.16 0.137,-0.32 0.207,-0.479 0.331,-0.761 0.722,-1.5 1.046,-2.264 0.043,-0.1 0.098,-0.197 0.149,-0.293 -1.193,0.153 -2.386,0.307 -3.579,0.461 3.993,3.38 7.835,6.951 11.626,10.555 8.563,8.14 16.787,16.665 24.414,25.692 C -12.56,-9.773 -8.024,-3.893 -3.935,2.3 -2.326,4.737 1.622,2.457 0,0"
             style="fill:#007203;fill-opacity:1;fill-rule:nonzero;stroke:none"
             id="path68" />
        </g>
        <g
           id="g70"
           transform="translate(456.1466,377.5369)">
          <path
             d="m 0,0 c -1.348,-7.555 -0.568,-21.826 -7.183,-32.741 -9.063,-14.953 -17.941,-18.203 -25.816,-29.559 -6.138,-8.852 -13.198,-25.012 -11.854,-49.495"
             style="fill:#4fa020;fill-opacity:1;fill-rule:nonzero;stroke:none"
             id="path72" />
        </g>
        <g
           id="g74"
           transform="translate(458.3439,376.9312)">
          <path
             d="m 0,0 c -0.066,-0.378 -0.127,-0.756 -0.181,-1.135 0.046,0.317 -0.06,-0.477 -0.076,-0.616 -0.105,-0.89 -0.19,-1.783 -0.271,-2.675 -0.174,-1.923 -0.324,-3.848 -0.512,-5.77 -0.433,-4.438 -1.029,-8.891 -2.223,-13.196 -2.53,-9.126 -8.32,-16.983 -14.922,-23.63 -5.404,-5.44 -11.37,-10.264 -15.649,-16.716 -3.503,-5.282 -5.942,-10.851 -7.727,-16.865 -2.943,-9.914 -3.756,-20.288 -3.211,-30.586 0.156,-2.931 -4.402,-2.922 -4.557,0 -0.863,16.285 1.703,33.366 10.172,47.546 3.873,6.485 9.139,11.637 14.588,16.779 6.4,6.039 12.817,13.016 15.873,21.421 1.668,4.589 2.496,9.432 3.001,14.273 0.43,4.123 0.588,8.293 1.301,12.381 0.211,1.214 1.698,1.896 2.803,1.592 C -0.31,2.451 0.212,1.217 0,0"
             style="fill:#007203;fill-opacity:1;fill-rule:nonzero;stroke:none"
             id="path76" />
        </g>
        <g
           id="g78"
           transform="translate(440.7194,333.7906)">
          <path
             d="m 0,0 c -0.415,3.174 -1.61,8.519 -5.529,13.543 -1.188,1.523 -2.431,2.765 -3.604,3.772"
             style="fill:#4fa020;fill-opacity:1;fill-rule:nonzero;stroke:none"
             id="path80" />
        </g>
        <g
           id="g82"
           transform="translate(438.4407,333.7906)">
          <path
             d="m 0,0 c 0.076,-0.572 -0.027,0.157 -0.06,0.354 -0.047,0.288 -0.097,0.576 -0.153,0.863 -0.123,0.64 -0.267,1.277 -0.433,1.908 -0.38,1.449 -0.888,2.937 -1.47,4.187 -1.509,3.244 -3.648,6.051 -6.35,8.392 -0.93,0.806 -0.826,2.396 0,3.222 0.923,0.923 2.29,0.808 3.223,0 C 0.373,14.06 3.585,7.286 4.557,0 4.72,-1.222 3.393,-2.279 2.279,-2.279 0.912,-2.279 0.164,-1.226 0,0"
             style="fill:#007203;fill-opacity:1;fill-rule:nonzero;stroke:none"
             id="path84" />
        </g>
        <g
           id="g86"
           transform="translate(430.2311,323.2275)">
          <path
             d="m 0,0 c 3.201,0.015 8.658,-0.452 14.163,-3.661 1.668,-0.972 3.067,-2.037 4.221,-3.064"
             style="fill:#4fa020;fill-opacity:1;fill-rule:nonzero;stroke:none"
             id="path88" />
        </g>
        <g
           id="g90"
           transform="translate(430.2311,325.5061)">
          <path
             d="m 0,0 c 7.369,0.013 14.448,-2.509 19.996,-7.393 0.924,-0.813 0.831,-2.391 0,-3.222 -0.918,-0.918 -2.296,-0.816 -3.223,0 -2.551,2.246 -5.571,3.931 -8.824,4.919 C 5.195,-4.859 2.846,-4.552 0,-4.557 -2.933,-4.562 -2.937,-0.005 0,0"
             style="fill:#007203;fill-opacity:1;fill-rule:nonzero;stroke:none"
             id="path92" />
        </g>
        <g
           id="g94"
           transform="translate(313.9582,332.0015)">
          <path
             d="m 0,0 c -10.809,0 -18.769,-9.967 -16.559,-20.548 9.476,-45.373 49.703,-79.455 97.89,-79.455 48.326,0 88.646,34.279 97.97,79.849 C 181.436,-9.725 173.311,0 162.666,0 Z"
             style="fill:#c5ed77;fill-opacity:1;fill-rule:nonzero;stroke:none"
             id="path96" />
        </g>
        <g
           id="g98"
           transform="translate(332.2751,232.0473)">
          <path
             d="m 0,0 c 16.936,-2.395 37.939,0.689 37.939,0.689 0,0 -5.286,13.915 -19.993,22.648 C 4.133,31.541 -20.43,21.416 -20.43,21.416 -20.43,21.416 -18.619,2.633 0,0"
             style="fill:#4fa020;fill-opacity:1;fill-rule:nonzero;stroke:none"
             id="path100" />
        </g>
        <g
           id="g102"
           transform="translate(332.8809,234.2445)">
          <path
             d="m 0,0 c 11.333,-1.574 23.097,-0.922 34.428,0.4 0.691,0.08 1.38,0.169 2.07,0.256 0.429,0.054 -0.449,-0.137 -0.218,-0.029 0.031,0.014 0.208,0.046 0.246,0.034 0.048,-0.016 0.149,0.021 0.201,0.028 -0.53,-0.934 -1.061,-1.868 -1.591,-2.803 -0.007,0.017 -0.05,0.105 -0.044,0.112 0.007,0.007 -0.063,0.148 -0.065,0.159 -0.046,0.192 0.29,-0.647 0.105,-0.252 -0.214,0.457 -0.415,0.921 -0.637,1.375 -0.796,1.625 -1.7,3.197 -2.68,4.717 -3.067,4.759 -6.992,9.091 -11.607,12.505 -2.505,1.854 -5.129,3.541 -8.038,4.422 -2.63,0.795 -5.15,1.092 -7.893,1.138 -5.468,0.094 -10.715,-0.818 -16.004,-2.215 -2.939,-0.777 -5.887,-1.668 -8.703,-2.825 0.558,0.732 1.115,1.465 1.673,2.197 0.063,-0.639 -0.113,0.642 -0.007,0.048 0.078,-0.439 0.148,-0.877 0.241,-1.313 0.32,-1.508 0.766,-2.991 1.323,-4.429 0.083,-0.215 0.169,-0.429 0.258,-0.643 -0.21,0.508 0.066,-0.144 0.127,-0.279 0.233,-0.516 0.482,-1.025 0.747,-1.525 0.523,-0.986 1.107,-1.94 1.754,-2.849 0.421,-0.591 0.327,-0.468 0.761,-0.987 0.43,-0.514 0.882,-1.01 1.356,-1.484 0.965,-0.964 1.76,-1.621 2.734,-2.277 C -6.578,1.538 -3.479,0.512 0,0 1.219,-0.179 1.889,-1.721 1.591,-2.803 1.232,-4.109 0.011,-4.574 -1.212,-4.394 c -6.226,0.915 -12.04,3.953 -15.976,8.921 -2.705,3.415 -4.617,7.43 -5.609,11.674 -0.232,0.992 -0.418,2.004 -0.517,3.018 -0.106,1.076 0.8,1.839 1.673,2.197 7.624,3.135 16.221,5.065 24.454,5.203 6.396,0.108 12.395,-1.25 17.751,-4.817 5.551,-3.696 10.298,-8.445 14.112,-13.905 1.907,-2.73 3.662,-5.677 4.854,-8.799 0.402,-1.053 -0.453,-2.637 -1.591,-2.803 -8.956,-1.31 -18.113,-1.858 -27.156,-1.644 -4.017,0.095 -8.015,0.402 -11.995,0.955 -1.22,0.169 -1.887,1.727 -1.591,2.803 C -2.442,-0.278 -1.224,0.17 0,0"
             style="fill:#007203;fill-opacity:1;fill-rule:nonzero;stroke:none"
             id="path104" />
        </g>
        <g
           id="g106"
           transform="translate(311.8454,253.4635)">
          <path
             d="m 0,0 c 3.372,-2.05 8.61,-7.204 15.07,-8.366 8.849,-1.591 13.121,0.728 20.179,-0.098 5.502,-0.644 14.135,-3.417 23.119,-12.263"
             style="fill:#4fa020;fill-opacity:1;fill-rule:nonzero;stroke:none"
             id="path108" />
        </g>
        <g
           id="g110"
           transform="translate(312.9954,255.4311)">
          <path
             d="m 0,0 c 3.338,-2.063 6.233,-4.729 9.758,-6.513 4.068,-2.059 8.765,-2.314 13.242,-2.013 4.078,0.273 8.023,0.81 12.108,0.241 3.469,-0.482 6.789,-1.576 9.966,-3.035 5.138,-2.359 9.725,-5.825 13.756,-9.763 2.101,-2.053 -1.123,-5.274 -3.223,-3.223 -5.863,5.729 -13.075,10.327 -21.297,11.569 -0.687,0.104 0.458,-0.047 -0.211,0.027 -0.228,0.025 -0.456,0.05 -0.685,0.071 -0.494,0.045 -0.989,0.076 -1.485,0.094 -1.031,0.037 -2.062,0.014 -3.091,-0.046 -1.95,-0.114 -3.889,-0.361 -5.838,-0.493 -4.688,-0.315 -9.599,0.039 -13.955,1.902 C 4.833,-9.379 1.548,-6.314 -2.3,-3.935 -4.79,-2.396 -2.504,1.548 0,0"
             style="fill:#007203;fill-opacity:1;fill-rule:nonzero;stroke:none"
             id="path112" />
        </g>
        <g
           id="g114"
           transform="translate(333.963,244.5338)">
          <path
             d="m 0,0 c -1.083,1.24 -2.738,3.519 -3.342,6.739 -0.183,0.976 -0.24,1.878 -0.229,2.672"
             style="fill:#4fa020;fill-opacity:1;fill-rule:nonzero;stroke:none"
             id="path116" />
        </g>
        <g
           id="g118"
           transform="translate(332.3517,242.9225)">
          <path
             d="m 0,0 c -2.674,3.077 -4.272,6.909 -4.238,11.023 0.009,1.191 1.041,2.334 2.278,2.278 C -0.733,13.246 0.329,12.3 0.319,11.023 0.315,10.543 0.331,10.064 0.375,9.586 0.378,9.557 0.4,9.243 0.411,9.242 0.402,9.243 0.335,9.713 0.404,9.318 0.448,9.059 0.494,8.801 0.551,8.545 0.654,8.074 0.784,7.609 0.937,7.152 1.01,6.935 1.093,6.722 1.172,6.508 1.294,6.178 1.167,6.623 1.112,6.642 1.162,6.625 1.238,6.359 1.259,6.312 1.581,5.616 1.96,4.947 2.387,4.311 2.484,4.167 2.583,4.025 2.685,3.885 2.748,3.797 3.06,3.386 2.798,3.726 2.532,4.069 2.861,3.651 2.931,3.566 3.026,3.45 3.124,3.336 3.222,3.222 4.004,2.323 4.173,0.872 3.222,0 2.365,-0.787 0.835,-0.961 0,0"
             style="fill:#007203;fill-opacity:1;fill-rule:nonzero;stroke:none"
             id="path120" />
        </g>
        <g
           id="g122"
           transform="translate(341.6039,244.9857)">
          <path
             d="m 0,0 c -1.095,-1.229 -2.771,-3.493 -3.405,-6.707 -0.193,-0.974 -0.258,-1.876 -0.254,-2.67"
             style="fill:#4fa020;fill-opacity:1;fill-rule:nonzero;stroke:none"
             id="path124" />
        </g>
        <g
           id="g126"
           transform="translate(343.2151,243.3745)">
          <path
             d="m 0,0 c -0.187,-0.211 -0.366,-0.429 -0.546,-0.647 -0.189,-0.23 0.144,0.187 0.163,0.213 -0.043,-0.059 -0.089,-0.116 -0.132,-0.175 -0.103,-0.138 -0.203,-0.278 -0.301,-0.419 -0.447,-0.647 -0.844,-1.329 -1.181,-2.04 -0.041,-0.087 -0.081,-0.174 -0.12,-0.262 -0.029,-0.063 -0.17,-0.38 -0.031,-0.065 0.151,0.34 -0.024,-0.071 -0.053,-0.146 -0.036,-0.096 -0.071,-0.192 -0.105,-0.288 -0.16,-0.453 -0.296,-0.914 -0.407,-1.381 -0.059,-0.253 -0.112,-0.507 -0.157,-0.763 -0.021,-0.119 -0.038,-0.238 -0.058,-0.357 -0.054,-0.331 0.036,0.411 0.015,0.086 -0.033,-0.509 -0.078,-1.011 -0.079,-1.522 -0.002,-1.192 -1.047,-2.334 -2.279,-2.279 -1.233,0.056 -2.28,1.002 -2.278,2.279 0.005,4.111 1.623,7.935 4.327,10.988 0.792,0.896 2.424,0.87 3.222,0 C 0.877,2.267 0.846,0.955 0,0"
             style="fill:#007203;fill-opacity:1;fill-rule:nonzero;stroke:none"
             id="path128" />
        </g>
        <g
           id="g130"
           transform="translate(447.8589,261.7921)">
          <path
             d="m 0,0 c 6.149,-1.493 -4.174,-8.693 -12.845,-12.861 -4.609,-2.216 -9.008,-4.283 -13.403,-4.052 -5.706,0.299 -9.322,4.36 -7.819,7.575 1.867,3.995 11.459,6.309 14.52,7.048 C -18.325,-1.996 -5.01,1.217 0,0"
             style="fill:#ffffff;fill-opacity:1;fill-rule:nonzero;stroke:none"
             id="path132" />
        </g>
        <g
           id="g134"
           transform="translate(492.4518,307.1076)">
          <path
             d="m 0,0 c -1.312,0.79 -3.072,1.063 -4.303,0.304 -0.694,-0.427 -0.91,-1.145 -1.169,-2.045 -0.312,-1.088 -0.658,-2.175 -1.279,-3.133 -2.295,-3.543 -6.661,-5.293 -10.783,-4.689 -4.914,0.719 -7.088,4.883 -9.363,8.771 -0.961,1.641 -2.336,3.557 -4.363,3.9 -1.758,0.298 -2.556,-1.517 -3.192,-2.848 -0.934,-1.956 -1.847,-3.847 -3.535,-5.281 -1.637,-1.389 -3.607,-2.408 -5.723,-2.82 -4.67,-0.912 -8.97,0.763 -12.078,4.318 -2.707,3.097 -4.673,7.689 -8.935,8.922 -1.686,0.487 -3.175,0.225 -4.078,-1.403 -1.033,-1.86 -1.31,-4.045 -2.424,-5.887 -2.077,-3.434 -5.81,-5.786 -9.742,-6.448 -4.369,-0.735 -8.617,0.372 -11.891,3.404 -3.525,3.264 -5.912,7.872 -10.56,9.787 -1.73,0.713 -3.662,0.856 -5.449,0.299 -1.805,-0.563 -2.767,-1.907 -3.496,-3.579 -0.867,-1.986 -1.52,-4.117 -3.146,-5.65 -1.845,-1.739 -4.282,-2.314 -6.738,-1.825 -4.875,0.969 -7.659,5.223 -10.514,8.822 -1.242,1.566 -2.724,3.375 -4.64,4.139 -1.533,0.612 -2.759,0.257 -3.894,-0.497 -0.275,-0.183 -0.882,-0.745 -1.318,-1.23 -0.6,-0.666 -0.876,-1.063 -1.423,-1.856 -1.028,-1.491 -1.994,-3.018 -3.122,-4.437 -2.77,-3.484 -6.859,-5.305 -11.273,-3.855 -2.557,0.839 -4.774,2.419 -6.774,4.183 -1.709,1.506 -3.307,3.18 -5.252,4.389 -1.693,1.051 -3.581,1.655 -5.563,1.147 -1.91,-0.489 -3.325,-1.675 -4.281,-3.371 -0.555,-0.986 -1.175,-1.857 -2.21,-2.376 -1.51,-0.756 -3.15,-0.25 -4.595,0.393 -1.985,0.883 -3.57,2.426 -5.037,3.991 -1.35,1.44 -2.642,2.872 -4.43,3.769 -2.622,1.316 -0.317,5.248 2.3,3.935 1.972,-0.989 3.542,-2.546 5.033,-4.139 1.269,-1.356 2.566,-2.869 4.337,-3.569 0.121,-0.041 0.242,-0.083 0.363,-0.124 0.435,-0.057 0.497,-0.106 0.187,-0.149 -0.049,-0.047 -0.239,-0.097 -0.193,0.019 0.167,0.418 0.467,0.861 0.707,1.237 0.657,1.03 1.471,1.922 2.429,2.676 1.909,1.502 4.249,2.391 6.688,2.454 5.074,0.128 8.845,-3.549 12.346,-6.707 1.741,-1.57 3.707,-3.079 6.037,-3.609 0.932,-0.212 1.875,-0.153 2.774,0.177 0.341,0.126 1.193,0.664 1.479,0.915 2.53,2.226 3.905,5.525 6.25,8.129 2.862,3.178 7.099,4.285 11.01,2.309 4.17,-2.108 6.028,-6.497 9.212,-9.633 1.319,-1.3 3.104,-2.707 5.024,-2.769 1.773,-0.059 2.674,1.572 3.313,3.054 0.876,2.027 1.565,4.117 3.189,5.7 1.705,1.663 3.951,2.509 6.286,2.766 4.965,0.545 9.432,-2.258 12.769,-5.675 3.051,-3.123 5.369,-7.473 9.916,-8.239 2.99,-0.504 6.537,0.589 8.784,2.854 2.994,3.016 2.466,8.39 6.783,10.498 4.403,2.15 9.642,-0.512 12.546,-3.941 2.596,-3.066 4.719,-7.81 8.937,-8.844 3.148,-0.772 6.881,0.641 8.546,3.598 1.081,1.92 1.711,4.098 3.361,5.653 1.852,1.745 4.49,2.245 6.875,1.394 2.391,-0.853 4.287,-2.616 5.669,-4.707 1.25,-1.892 2.076,-4.152 3.614,-5.84 2.183,-2.396 5.806,-2.475 8.265,-0.442 0.621,0.514 0.973,0.959 1.325,1.597 0.471,0.856 0.698,2.304 1.16,3.35 0.938,2.125 2.9,3.519 5.171,3.905 C -1.88,5.516 0.386,5.088 2.3,3.935 4.81,2.424 2.521,-1.518 0,0"
             style="fill:#ffffff;fill-opacity:1;fill-rule:nonzero;stroke:none"
             id="path136" />
        </g>
        <g
           id="g138"
           transform="translate(525.9559,245.9513)">
          <path
             d="m 0,0 v -4.374 c 1.78,2.242 3.936,4.856 7.51,6.056 l -0.273,9.335 z"
             style="fill:#c6ae79;fill-opacity:1;fill-rule:nonzero;stroke:none"
             id="path140" />
        </g>
        <g
           id="g142"
           transform="translate(525.2676,244.815)">
          <path
             d="m 0,0 -18.453,-28.513 v -9.096 L 0,-9.096 v 4.921 z"
             style="fill:#d5bc7f;fill-opacity:1;fill-rule:nonzero;stroke:none"
             id="path144" />
        </g>
        <g
           id="g146"
           transform="translate(524.134,245.4777)">
          <path
             d="m 0,0 c -4.431,-6.846 -8.861,-13.692 -13.292,-20.538 -1.574,-2.432 -4.079,-5.173 -5.111,-7.898 -1.043,-2.756 -0.229,-6.892 -0.229,-9.836 0,-1.343 1.754,-1.732 2.447,-0.662 4.493,6.943 8.986,13.886 13.48,20.829 1.512,2.336 4.004,5.031 4.96,7.664 0.95,2.619 0.192,6.954 0.192,9.778 0,1.69 -2.626,1.693 -2.626,0 v -4.499 c 0,-1.172 -0.069,-2.365 0,-3.534 0.059,-1.002 0.042,-0.634 0.068,-0.572 -1.211,-2.913 -3.727,-5.759 -5.435,-8.397 -4.302,-6.648 -8.604,-13.296 -12.907,-19.944 0.816,-0.221 1.631,-0.442 2.447,-0.663 v 5.671 c 0,0.961 -0.078,1.973 0,2.933 0.083,1.02 -0.36,-0.64 0.016,0.131 1.454,2.984 3.746,5.789 5.546,8.57 4.237,6.547 8.474,13.095 12.711,19.642 C 3.188,0.098 0.916,1.415 0,0"
             style="fill:#d5bc7f;fill-opacity:1;fill-rule:nonzero;stroke:none"
             id="path148" />
        </g>
        <g
           id="g150"
           transform="translate(534.6856,259.2407)">
          <path
             d="m 0,0 -8.73,-13.289 v -0.083 L 0,-0.003 Z"
             style="fill:#c6ae79;fill-opacity:1;fill-rule:nonzero;stroke:none"
             id="path152" />
        </g>
        <g
           id="g154"
           transform="translate(539.6343,266.8158)">
          <path
             d="M 0,0 -4.949,-8.388 V -18.739 L 0,-10.351 Z"
             style="fill:#d5bc7f;fill-opacity:1;fill-rule:nonzero;stroke:none"
             id="path156" />
        </g>
        <g
           id="g158"
           transform="translate(538.5006,267.4784)">
          <path
             d="m 0,0 c -1.584,-2.686 -4.356,-5.854 -5.104,-8.876 -0.777,-3.137 -0.024,-7.284 -0.024,-10.526 0,-1.305 1.786,-1.782 2.447,-0.662 1.584,2.685 4.356,5.854 5.104,8.876 0.776,3.136 0.024,7.284 0.024,10.525 0,1.69 -2.626,1.693 -2.626,0 0,-3.245 0.618,-7.107 0,-10.282 0.226,1.161 -0.342,-0.314 -0.594,-0.716 -0.529,-0.842 -1.012,-1.715 -1.516,-2.57 -0.887,-1.503 -1.773,-3.006 -2.66,-4.508 0.816,-0.221 1.631,-0.442 2.447,-0.663 0,3.245 -0.618,7.107 0,10.283 -0.226,-1.162 0.341,0.314 0.594,0.716 0.528,0.841 1.011,1.714 1.516,2.57 0.886,1.503 1.773,3.005 2.659,4.508 C 3.128,0.133 0.859,1.456 0,0"
             style="fill:#d5bc7f;fill-opacity:1;fill-rule:nonzero;stroke:none"
             id="path160" />
        </g>
        <g
           id="g162"
           transform="translate(539.6343,266.9417)">
          <path
             d="m 0,0 c -86.144,12.805 -162.646,-7.446 -159.012,-24.961 1.6,-7.709 48.699,-22.347 126.193,-25.424"
             style="fill:#e7ce89;fill-opacity:1;fill-rule:nonzero;stroke:none"
             id="path164" />
        </g>
        <g
           id="g166"
           transform="translate(539.9833,268.2077)">
          <path
             d="m 0,0 c -29.77,4.362 -60.123,5.416 -90.077,2.333 -19.648,-2.022 -40.998,-5.092 -58.748,-14.337 -5.485,-2.856 -17.307,-11.224 -9.4,-17.845 3.537,-2.963 8.265,-4.662 12.539,-6.213 7.684,-2.787 15.651,-4.806 23.626,-6.559 29.145,-6.408 59.121,-9.129 88.892,-10.342 1.689,-0.069 1.686,2.557 0,2.625 -25.945,1.058 -51.933,3.34 -77.482,8.084 -13.999,2.6 -29.275,5.363 -42.045,12.003 -2.154,1.12 -5.486,2.598 -5.473,5.404 0.02,4.287 5.361,7.554 8.536,9.405 15.795,9.21 35.803,12.295 53.65,14.484 31.593,3.877 63.819,3.036 95.284,-1.574 C 0.955,-2.774 1.668,-0.244 0,0"
             style="fill:#a46224;fill-opacity:1;fill-rule:nonzero;stroke:none"
             id="path168" />
        </g>
        <g
           id="g170"
           transform="translate(410.9779,235.9696)">
          <path
             d="M 0,0 C 3.389,-1.945 8.057,-0.631 8.525,1.759 9.005,4.209 5.177,8.333 1.346,8.797 -0.53,9.024 -3.524,8.508 -4.038,6.451 -4.578,4.294 -2.189,1.256 0,0"
             style="fill:#d5bc7f;fill-opacity:1;fill-rule:nonzero;stroke:none"
             id="path172" />
        </g>
        <g
           id="g174"
           transform="translate(488.0042,225.1896)">
          <path
             d="M 0,0 C -0.574,1.516 4.676,5.515 10.249,6.701 12.695,7.222 16.523,7.481 16.95,6.307 17.401,5.066 13.941,2.533 11.037,1.183 6.503,-0.926 0.547,-1.446 0,0"
             style="fill:#d5bc7f;fill-opacity:1;fill-rule:nonzero;stroke:none"
             id="path176" />
        </g>
        <g
           id="g178"
           transform="translate(424.0331,254.565)">
          <path
             d="M 0,0 C 1.926,-2.234 6.892,-1.526 9.578,-0.608 13.807,0.839 17.559,4.578 16.611,6.73 15.402,9.475 6.232,10.319 1.883,6.771 -0.228,5.049 -1.657,1.921 0,0"
             style="fill:#d5bc7f;fill-opacity:1;fill-rule:nonzero;stroke:none"
             id="path180" />
        </g>
        <g
           id="g182"
           transform="translate(432.5453,245.5401)">
          <path
             d="M 0,0 C 0.488,4.059 10.407,6.899 18.2,7.43 26.362,7.985 39.189,6.483 41.859,1.393 44.125,-2.926 37.912,-7.611 30.029,-9.287 18.901,-11.654 8.688,-7.125 7.28,-6.501 4.956,-5.471 -0.374,-3.107 0,0"
             style="fill:#d5bc7f;fill-opacity:1;fill-rule:nonzero;stroke:none"
             id="path184" />
        </g>
        <g
           id="g186"
           transform="translate(533.193,256.9684)">
          <path
             d="M 0,0 C -7.634,-1.677 -11.937,-6.614 -7.157,-11"
             style="fill:#c6ae79;fill-opacity:1;fill-rule:nonzero;stroke:none"
             id="path188" />
        </g>
        <g
           id="g190"
           transform="translate(484.9327,254.844)">
          <path
             d="M 0,0 C 0.303,4.084 6.456,6.943 11.289,7.476 16.353,8.035 24.309,6.523 25.965,1.402 27.371,-2.945 23.517,-7.658 18.627,-9.345 11.725,-11.727 5.389,-7.17 4.516,-6.542 3.074,-5.505 -0.232,-3.127 0,0"
             style="fill:#d5bc7f;fill-opacity:1;fill-rule:nonzero;stroke:none"
             id="path192" />
        </g>
        <g
           id="g194"
           transform="translate(516.4833,263.5361)">
          <path
             d="M 0,0 C 0.279,1.15 2.579,2.156 3.843,1.183 5.167,0.164 4.625,-2.46 3.548,-2.956 2.272,-3.543 -0.345,-1.42 0,0"
             style="fill:#d5bc7f;fill-opacity:1;fill-rule:nonzero;stroke:none"
             id="path196" />
        </g>
        <g
           id="g198"
           transform="translate(506.815,216.5571)">
          <path
             d="m 0,0 v -9.351 c -77.493,3.076 -124.593,17.714 -126.193,25.423 v 9.351 c 3.121,-9.65 25.784,-16.627 60.275,-20.757 C -44.041,1.512 -21.894,0 0,0"
             style="fill:#a46224;fill-opacity:1;fill-rule:nonzero;stroke:none"
             id="path200" />
        </g>
        <g
           id="g202"
           transform="translate(505.5021,216.5571)">
          <path
             d="m 0,0 v -9.351 c 0.438,0.437 0.875,0.875 1.313,1.313 -27.245,1.11 -54.569,3.545 -81.349,8.823 -8.671,1.709 -17.315,3.706 -25.742,6.384 -5.101,1.621 -10.515,3.375 -15.012,6.363 -4.3,2.857 -2.777,6.947 -2.777,11.891 -0.859,-0.116 -1.719,-0.232 -2.579,-0.349 1.919,-5.424 7.535,-8.539 12.494,-10.748 9.117,-4.061 19.081,-6.222 28.857,-7.994 28.331,-5.136 57.33,-7.6 86.108,-7.645 1.69,-0.003 1.692,2.623 0,2.626 -27.303,0.043 -54.64,2.398 -81.575,6.884 -9.752,1.625 -19.609,3.604 -28.885,7.105 -5.078,1.916 -12.473,4.832 -14.467,10.47 -0.477,1.35 -2.579,1.2 -2.579,-0.349 0,-3.942 -1.346,-9.31 1.754,-12.368 3.261,-3.218 8.229,-4.959 12.42,-6.519 19.095,-7.107 39.844,-10.29 59.957,-12.863 17.714,-2.266 35.534,-3.61 53.375,-4.337 0.709,-0.029 1.313,0.625 1.313,1.313 L 2.626,0 C 2.626,1.69 0,1.692 0,0"
             style="fill:#a46224;fill-opacity:1;fill-rule:nonzero;stroke:none"
             id="path204" />
        </g>
        <g
           id="g206"
           transform="translate(379.9946,249.481)">
          <path
             d="m 0,0 c -3.787,-19.258 40.386,-20.168 71.794,-22.733 10.912,-0.891 33.096,-11.293 37.558,-11.557 21.215,-1.256 19.145,3.896 30.817,11.557 11.747,7.709 27.33,25.246 25.469,43.284 -2.373,22.983 -54.606,18.766 -94.86,22.365 C 43.778,45.329 24.428,22.147 19.97,18.738 11.151,11.993 4.059,8.753 0,0"
             style="fill:#e58891;fill-opacity:1;fill-rule:nonzero;stroke:none"
             id="path208" />
        </g>
        <g
           id="g210"
           transform="translate(378.7286,249.83)">
          <path
             d="m 0,0 c -1.77,-10.289 8.317,-15.1 16.634,-17.538 14.638,-4.292 30.384,-4.927 45.507,-6.032 7.328,-0.535 14.287,-1.03 21.34,-3.205 6.838,-2.108 13.472,-4.797 20.205,-7.207 9.546,-3.416 21.635,-3.698 29.84,2.981 11.201,9.118 22.927,16.868 29.896,30.043 5.37,10.153 8.532,24.888 -2.137,32.654 -9.996,7.277 -24.487,8.172 -36.359,9.158 -16.871,1.401 -33.823,1.455 -50.695,2.838 C 57.578,45.058 43.149,38.989 30.453,28.469 26.698,25.358 23.394,21.687 19.524,18.729 12.251,13.17 4.315,8.856 0.132,0.314 -0.608,-1.198 1.656,-2.531 2.4,-1.012 c 3.665,7.487 10.381,11.603 16.909,16.343 3.13,2.273 5.791,4.854 8.635,7.462 9.154,8.395 19.893,15.646 32.315,17.925 7.956,1.46 16.052,0.118 24.045,-0.338 7.637,-0.436 15.282,-0.718 22.922,-1.075 13.777,-0.645 28.09,-1.033 41.444,-4.811 4.759,-1.347 9.844,-3.231 13.357,-6.872 4.205,-4.359 4.227,-10.537 3.15,-16.192 -1.55,-8.137 -6.073,-15.6 -11.425,-21.803 -4.78,-5.539 -10.415,-9.453 -16.165,-13.842 -3.404,-2.598 -6.415,-6.085 -10.437,-7.749 -5.029,-2.081 -12.421,-2.307 -17.651,-1.143 -11.603,2.582 -22.066,9.078 -33.919,11.017 -7.063,1.155 -14.409,1.194 -21.541,1.753 -8.341,0.653 -16.699,1.383 -24.958,2.752 C 20.672,-16.191 0.373,-13.252 2.532,-0.698 2.816,0.955 0.286,1.665 0,0"
             style="fill:#c86775;fill-opacity:1;fill-rule:nonzero;stroke:none"
             id="path212" />
        </g>
        <g
           id="g214"
           transform="translate(445.145,274.6637)">
          <path
             d="M 0,0 C 15.828,-13.478 18.911,-20.788 0.084,-31.611 -18.744,-42.433 -38.402,-44.369 -54.23,-30.89 -70.058,-17.412 -69.252,-7.119 -50.424,3.703 -31.597,14.526 -15.828,13.478 0,0"
             style="fill:#dd4b36;fill-opacity:1;fill-rule:nonzero;stroke:none"
             id="path216" />
        </g>
        <g
           id="g218"
           transform="translate(443.6331,273.8703)">
          <path
             d="m 0,0 c 7.971,-6.842 17.412,-15.233 9.117,-23.489 -7.964,-7.927 -24.106,-15.481 -38.669,-14.674 -14.353,0.796 -27.212,10.95 -31.299,20.316 -4.611,10.564 7.511,18.987 18.69,24.126 6.291,2.891 13.76,4.991 21.581,3.9 C -12.136,9.001 -5.433,4.531 0,0 c 1.632,-1.361 4.662,0.221 3.024,1.587 -10.73,8.949 -24.841,14.536 -40.568,9.631 -13.238,-4.13 -29.092,-13.651 -28.202,-25.05 0.83,-10.645 14.882,-22.873 29.273,-26.094 16.858,-3.773 34.136,3.754 45.097,11.746 4.884,3.562 8.714,8.022 7.692,13.295 C 15.112,-8.671 8.529,-3.139 3.024,1.587 1.417,2.966 -1.61,1.382 0,0"
             style="fill:#c63620;fill-opacity:1;fill-rule:nonzero;stroke:none"
             id="path220" />
        </g>
        <g
           id="g222"
           transform="translate(471.5878,226.1567)">
          <path
             d="M 0,0 C -21.034,9.864 -26.733,16.625 -10.894,32.638 4.945,48.651 24.684,55.694 45.718,45.83 66.753,35.966 69.435,25.125 53.596,9.112 37.757,-6.9 21.034,-9.864 0,0"
             style="fill:#dd4b36;fill-opacity:1;fill-rule:nonzero;stroke:none"
             id="path224" />
        </g>
        <g
           id="g226"
           transform="translate(472.8856,227.3644)">
          <path
             d="m 0,0 c -10.612,5.024 -23.278,11.271 -17.492,21.929 5.554,10.233 19.724,22.18 35.113,25.083 15.168,2.861 31.985,-4.33 39.428,-12.958 C 65.445,24.321 55.745,12.509 45.9,4.331 40.361,-0.271 33.328,-4.356 24.837,-5.236 15.672,-6.185 7.187,-3.288 0,0 -2.159,0.988 -4.762,-1.424 -2.596,-2.415 11.599,-8.909 28.154,-11.06 42.798,-1.956 55.125,5.707 68.322,19.612 63.502,31.161 59,41.946 40.237,50.974 24.201,50.609 5.416,50.182 -9.941,37.972 -18.584,26.901 -22.435,21.969 -24.885,16.377 -22.022,11.192 -18.648,5.081 -9.925,1.055 -2.596,-2.415 -0.457,-3.428 2.143,-1.015 0,0"
             style="fill:#c63620;fill-opacity:1;fill-rule:nonzero;stroke:none"
             id="path228" />
        </g>
        <g
           id="g230"
           transform="translate(375.9278,252.6822)">
          <path
             d="m 0,0 125.95,-27.171 c 4.252,-0.917 8.62,0.878 11.153,4.583 l 32.328,47.297 c 1.929,2.821 0.111,6.766 -3.191,6.924 L 50.289,37.192 c -1.994,0.096 -3.968,-0.466 -5.644,-1.606 L -0.832,4.646 C -2.658,3.404 -2.131,0.46 0,0"
             style="fill:#e9b50f;fill-opacity:1;fill-rule:nonzero;stroke:none"
             id="path232" />
        </g>
        <g
           id="g234"
           transform="translate(375.5788,251.4162)">
          <path
             d="m 0,0 c 26.455,-5.707 52.909,-11.414 79.364,-17.121 13.873,-2.993 27.746,-5.985 41.618,-8.978 3.59,-0.775 7.238,-1.927 10.9,-0.864 5.516,1.602 8.411,7.477 11.434,11.899 8.881,12.994 17.763,25.987 26.644,38.98 2.801,4.099 2.243,9.777 -3.698,10.311 -3.694,0.333 -7.443,0.357 -11.147,0.535 -32.398,1.553 -64.796,3.107 -97.194,4.66 -2.874,0.138 -5.946,0.594 -8.824,0.281 C 43.946,39.143 38.657,34.125 34.562,31.339 27.037,26.22 19.512,21.1 11.988,15.981 7.709,13.07 2.799,10.43 -1.134,7.054 -3.761,4.799 -3.264,1.268 0,0 c 1.576,-0.612 2.259,1.926 0.698,2.532 -3.133,1.217 2.355,4.201 2.735,4.46 2.721,1.851 5.441,3.702 8.161,5.552 6.977,4.747 13.953,9.493 20.929,14.239 4.314,2.935 8.542,6.196 13.028,8.863 3.252,1.934 6.435,1.435 9.986,1.264 30.391,-1.457 60.781,-2.914 91.172,-4.371 l 15.937,-0.764 c 3.428,-0.164 8.605,-0.308 5.583,-5.748 -2.773,-4.994 -6.59,-9.642 -9.811,-14.355 -4.805,-7.029 -9.61,-14.058 -14.414,-21.087 -2.548,-3.728 -4.945,-7.637 -7.678,-11.233 -3.834,-5.043 -8.606,-4.222 -13.737,-3.115 -12.373,2.669 -24.747,5.339 -37.121,8.008 C 57.763,-9.778 30.058,-3.802 2.353,2.175 1.801,2.294 1.25,2.413 0.698,2.532 -0.95,2.887 -1.654,0.357 0,0"
             style="fill:#e0982a;fill-opacity:1;fill-rule:nonzero;stroke:none"
             id="path236" />
        </g>
        <g
           id="g238"
           transform="translate(393.8289,285.6129)">
          <path
             d="m 0,0 c -1.996,-0.9 -24.821,-11.346 -23.393,-18.034 0.713,-3.339 5.825,-3.784 16.019,-10.347 3.349,-2.157 4.177,-4.13 6.865,-4.731 4.592,-1.026 7.083,2.161 11.188,0.887 2.267,-0.703 2.229,-2.008 6.103,-5.617 3.598,-3.352 6.637,-6.184 10.171,-7.095 6.846,-1.766 9.277,5.291 15.256,3.548 5.73,-1.671 5.918,-8.859 11.188,-9.461 4.242,-0.484 5.803,3.98 10.425,5.026 6.102,1.381 7.746,-5.959 17.036,-10.052 2.535,-1.116 12.659,-5.576 21.614,-0.887 5.203,2.725 9.52,11.77 12.752,18.402 1.767,3.626 20.656,5.324 23.852,9.983 3.329,4.851 -1.382,14.58 1.733,17.439 2.708,2.486 8.581,-0.497 9.292,7.294 1.43,15.672 -92.312,18.493 -95.395,18.131 C 42.32,13.033 22.455,10.129 0,0"
             style="fill:#009540;fill-opacity:1;fill-rule:nonzero;stroke:none"
             id="path240" />
        </g>
        <g
           id="g242"
           transform="translate(393.1662,286.7465)">
          <path
             d="m 0,0 c -5.197,-2.353 -10.32,-5.022 -15.072,-8.184 -3.4,-2.264 -10.628,-6.845 -8.733,-11.924 0.784,-2.103 2.999,-3.19 4.866,-4.158 4.919,-2.552 9.944,-4.895 14.235,-8.463 3.356,-2.792 6.211,-3.517 10.516,-2.385 2.322,0.611 4.662,1.277 6.654,-0.462 1.644,-1.437 2.974,-3.317 4.582,-4.822 3.323,-3.11 7.218,-6.906 12.03,-7.228 3.901,-0.26 6.275,2.237 9.67,3.545 8.516,3.281 9.5,-12.46 18.553,-8.684 3.965,1.654 6.89,6.677 11.586,3.591 3.357,-2.207 5.796,-5.515 9.312,-7.595 7.233,-4.281 17.17,-6.388 24.984,-2.553 3.8,1.865 6.35,5.465 8.504,8.992 1.422,2.329 2.669,4.765 3.882,7.208 0.84,1.692 1.26,3.176 2.969,4.086 6.243,3.327 14.06,3.002 20.116,6.854 2.532,1.609 3.481,4.11 3.628,7.043 0.149,2.955 -2.289,10.581 0.665,12.458 2.288,1.454 5.213,0.514 7.263,2.766 1.515,1.663 2.262,4.522 1.731,6.728 -1.733,7.194 -14.789,9.352 -20.537,10.642 -13.23,2.969 -26.845,4.361 -40.34,5.468 C 80.398,13.798 69.689,14.459 58.986,14.666 55.49,14.734 52.161,14.297 48.682,13.808 38.249,12.343 27.929,10.107 17.891,6.887 11.798,4.932 5.844,2.603 0,0 c -1.541,-0.686 -0.206,-2.95 1.325,-2.267 16.773,7.472 35.95,13.313 54.429,14.327 7.208,0.396 14.663,-0.389 21.851,-0.815 12.628,-0.749 25.266,-1.802 37.792,-3.595 9.825,-1.407 21.189,-2.663 30.005,-7.59 2.979,-1.665 6.649,-5.647 2.228,-8.741 -2.053,-1.436 -4.976,-0.583 -6.954,-2.36 -1.977,-1.777 -1.713,-4.789 -1.497,-7.186 0.323,-3.59 1.756,-8.99 -1.595,-11.529 -2.563,-1.941 -6.355,-2.672 -9.39,-3.519 -5.414,-1.512 -11.72,-2.068 -14.394,-7.51 -2.181,-4.44 -4.404,-9.146 -7.693,-12.891 -3.983,-4.536 -10.058,-5.639 -15.838,-4.688 -3.902,0.642 -7.873,2.061 -11.234,4.152 -3.194,1.987 -5.502,4.955 -8.544,7.099 -2.252,1.587 -4.734,2.041 -7.37,1.123 -3.89,-1.354 -7.341,-7.154 -11.576,-3.299 -2.537,2.311 -3.491,5.677 -6.698,7.363 -2.611,1.374 -5.365,1.159 -7.953,-0.111 -4.402,-2.161 -7.285,-4.327 -12.189,-1.287 -4.301,2.666 -7.009,6.807 -10.773,9.978 -2.282,1.923 -5.152,1.748 -7.885,1.04 -3.024,-0.782 -5.497,-1.27 -8.15,0.771 -1.946,1.498 -3.674,3.016 -5.791,4.307 -3.634,2.217 -7.559,3.868 -11.211,6.029 -2.61,1.544 -2.875,3.182 -0.924,5.554 4.087,4.97 10.876,8.194 16.506,11.044 1.6,0.81 3.214,1.594 4.848,2.334 C 2.862,-1.571 1.529,0.692 0,0"
             style="fill:#258035;fill-opacity:1;fill-rule:nonzero;stroke:none"
             id="path244" />
        </g>
        <g
           id="g246"
           transform="translate(524.0427,283.2811)">
          <path
             d="m 0,0 v -4.374 c 1.78,2.242 3.936,4.856 7.51,6.056 l -0.273,9.335 z"
             style="fill:#c6ae79;fill-opacity:1;fill-rule:nonzero;stroke:none"
             id="path248" />
        </g>
        <g
           id="g250"
           transform="translate(523.3544,282.1449)">
          <path
             d="m 0,0 -18.453,-28.513 v -9.096 L 0,-9.096 v 4.921 z"
             style="fill:#d5bc7f;fill-opacity:1;fill-rule:nonzero;stroke:none"
             id="path252" />
        </g>
        <g
           id="g254"
           transform="translate(522.2207,282.8075)">
          <path
             d="m 0,0 c -4.431,-6.846 -8.861,-13.692 -13.292,-20.538 -1.574,-2.432 -4.079,-5.173 -5.111,-7.898 -1.043,-2.756 -0.229,-6.892 -0.229,-9.836 0,-1.343 1.754,-1.732 2.447,-0.662 4.493,6.943 8.986,13.886 13.48,20.829 1.512,2.336 4.004,5.031 4.96,7.664 0.95,2.619 0.192,6.954 0.192,9.778 0,1.69 -2.626,1.693 -2.626,0 v -4.499 c 0,-1.172 -0.069,-2.365 0,-3.534 0.059,-1.002 0.042,-0.634 0.068,-0.572 -1.211,-2.913 -3.727,-5.759 -5.435,-8.397 -4.302,-6.648 -8.604,-13.296 -12.907,-19.944 0.816,-0.221 1.631,-0.442 2.447,-0.663 v 5.671 c 0,0.961 -0.078,1.973 0,2.933 0.083,1.02 -0.36,-0.64 0.016,0.131 1.454,2.984 3.746,5.789 5.546,8.57 4.237,6.547 8.474,13.095 12.711,19.642 C 3.188,0.098 0.916,1.415 0,0"
             style="fill:#d5bc7f;fill-opacity:1;fill-rule:nonzero;stroke:none"
             id="path256" />
        </g>
        <g
           id="g258"
           transform="translate(532.7723,296.5705)">
          <path
             d="m 0,0 -8.73,-13.289 v -0.083 L 0,-0.003 Z"
             style="fill:#c6ae79;fill-opacity:1;fill-rule:nonzero;stroke:none"
             id="path260" />
        </g>
        <g
           id="g262"
           transform="translate(537.721,304.1456)">
          <path
             d="M 0,0 -4.949,-8.388 V -18.739 L 0,-10.351 Z"
             style="fill:#d5bc7f;fill-opacity:1;fill-rule:nonzero;stroke:none"
             id="path264" />
        </g>
        <g
           id="g266"
           transform="translate(536.5873,304.8082)">
          <path
             d="m 0,0 c -1.584,-2.686 -4.356,-5.854 -5.104,-8.876 -0.777,-3.137 -0.024,-7.284 -0.024,-10.526 0,-1.305 1.786,-1.782 2.447,-0.662 1.584,2.685 4.356,5.854 5.104,8.876 0.776,3.136 0.024,7.284 0.024,10.525 0,1.69 -2.626,1.693 -2.626,0 0,-3.245 0.618,-7.107 0,-10.282 0.226,1.161 -0.342,-0.314 -0.594,-0.716 -0.529,-0.842 -1.012,-1.715 -1.516,-2.57 -0.887,-1.503 -1.773,-3.006 -2.66,-4.508 0.816,-0.221 1.631,-0.442 2.447,-0.663 0,3.246 -0.618,7.107 0,10.283 -0.226,-1.162 0.341,0.314 0.594,0.716 0.528,0.841 1.011,1.714 1.516,2.57 0.886,1.503 1.773,3.005 2.659,4.508 C 3.128,0.133 0.859,1.456 0,0"
             style="fill:#d5bc7f;fill-opacity:1;fill-rule:nonzero;stroke:none"
             id="path268" />
        </g>
        <g
           id="g270"
           transform="translate(537.721,304.2715)">
          <path
             d="m 0,0 c -86.144,12.805 -162.646,-7.446 -159.012,-24.961 1.6,-7.709 48.699,-22.347 126.193,-25.424"
             style="fill:#e7ce89;fill-opacity:1;fill-rule:nonzero;stroke:none"
             id="path272" />
        </g>
        <g
           id="g274"
           transform="translate(538.07,305.5375)">
          <path
             d="m 0,0 c -29.77,4.362 -60.123,5.416 -90.077,2.333 -19.648,-2.022 -40.998,-5.092 -58.748,-14.336 -5.485,-2.857 -17.307,-11.225 -9.4,-17.846 3.537,-2.963 8.265,-4.662 12.539,-6.213 7.684,-2.787 15.651,-4.806 23.626,-6.559 29.145,-6.408 59.121,-9.129 88.892,-10.342 1.689,-0.069 1.686,2.557 0,2.625 -25.945,1.058 -51.933,3.34 -77.482,8.084 -13.999,2.6 -29.275,5.363 -42.045,12.003 -2.154,1.12 -5.486,2.598 -5.473,5.404 0.02,4.287 5.361,7.554 8.536,9.405 15.795,9.21 35.803,12.295 53.65,14.484 31.593,3.877 63.819,3.036 95.284,-1.574 C 0.955,-2.774 1.668,-0.244 0,0"
             style="fill:#a46224;fill-opacity:1;fill-rule:nonzero;stroke:none"
             id="path276" />
        </g>
        <g
           id="g278"
           transform="translate(409.0646,273.2994)">
          <path
             d="M 0,0 C 3.389,-1.945 8.057,-0.631 8.525,1.759 9.005,4.209 5.177,8.333 1.346,8.797 -0.53,9.024 -3.524,8.508 -4.038,6.451 -4.578,4.294 -2.189,1.256 0,0"
             style="fill:#d5bc7f;fill-opacity:1;fill-rule:nonzero;stroke:none"
             id="path280" />
        </g>
        <g
           id="g282"
           transform="translate(486.0909,262.5193)">
          <path
             d="M 0,0 C -0.574,1.516 4.676,5.515 10.249,6.701 12.695,7.222 16.523,7.481 16.95,6.307 17.401,5.066 13.941,2.533 11.037,1.183 6.503,-0.926 0.547,-1.446 0,0"
             style="fill:#d5bc7f;fill-opacity:1;fill-rule:nonzero;stroke:none"
             id="path284" />
        </g>
        <g
           id="g286"
           transform="translate(422.1199,291.8948)">
          <path
             d="m 0,0 c 1.926,-2.234 6.892,-1.526 9.578,-0.608 4.229,1.447 7.981,5.186 7.033,7.337 C 15.402,9.475 6.232,10.319 1.883,6.771 -0.228,5.049 -1.657,1.921 0,0"
             style="fill:#d5bc7f;fill-opacity:1;fill-rule:nonzero;stroke:none"
             id="path288" />
        </g>
        <g
           id="g290"
           transform="translate(430.632,282.8699)">
          <path
             d="M 0,0 C 0.488,4.059 10.407,6.899 18.2,7.43 26.362,7.985 39.189,6.483 41.859,1.393 44.125,-2.926 37.912,-7.611 30.029,-9.287 18.901,-11.654 8.688,-7.125 7.28,-6.501 4.956,-5.471 -0.374,-3.107 0,0"
             style="fill:#d5bc7f;fill-opacity:1;fill-rule:nonzero;stroke:none"
             id="path292" />
        </g>
        <g
           id="g294"
           transform="translate(531.2797,294.2982)">
          <path
             d="M 0,0 C -7.634,-1.677 -11.937,-6.614 -7.157,-11"
             style="fill:#c6ae79;fill-opacity:1;fill-rule:nonzero;stroke:none"
             id="path296" />
        </g>
        <g
           id="g298"
           transform="translate(483.0194,292.1738)">
          <path
             d="M 0,0 C 0.303,4.084 6.456,6.943 11.289,7.476 16.353,8.035 24.309,6.523 25.965,1.402 27.371,-2.945 23.517,-7.658 18.627,-9.345 11.725,-11.727 5.389,-7.17 4.516,-6.542 3.074,-5.505 -0.232,-3.127 0,0"
             style="fill:#d5bc7f;fill-opacity:1;fill-rule:nonzero;stroke:none"
             id="path300" />
        </g>
        <g
           id="g302"
           transform="translate(514.5701,300.8659)">
          <path
             d="M 0,0 C 0.279,1.15 2.579,2.156 3.843,1.183 5.167,0.164 4.625,-2.46 3.548,-2.956 2.272,-3.543 -0.345,-1.42 0,0"
             style="fill:#d5bc7f;fill-opacity:1;fill-rule:nonzero;stroke:none"
             id="path304" />
        </g>
        <g
           id="g306"
           transform="translate(504.9017,253.8869)">
          <path
             d="m 0,0 v -9.351 c -77.493,3.076 -124.593,17.714 -126.193,25.423 v 9.351 c 3.121,-9.65 25.784,-16.627 60.275,-20.757 C -44.041,1.512 -21.894,0 0,0"
             style="fill:#a46224;fill-opacity:1;fill-rule:nonzero;stroke:none"
             id="path308" />
        </g>
        <g
           id="g310"
           transform="translate(503.5888,253.8869)">
          <path
             d="m 0,0 v -9.351 c 0.438,0.437 0.875,0.875 1.313,1.313 -27.245,1.11 -54.569,3.545 -81.349,8.823 -8.67,1.709 -17.315,3.706 -25.742,6.384 -5.101,1.621 -10.515,3.375 -15.012,6.363 -4.3,2.857 -2.777,6.947 -2.777,11.891 -0.859,-0.116 -1.719,-0.232 -2.579,-0.349 1.919,-5.424 7.535,-8.539 12.494,-10.748 9.117,-4.061 19.081,-6.222 28.857,-7.994 28.331,-5.136 57.33,-7.6 86.108,-7.645 1.69,-0.003 1.692,2.623 0,2.626 -27.303,0.043 -54.64,2.398 -81.575,6.884 -9.752,1.625 -19.609,3.604 -28.885,7.105 -5.078,1.916 -12.473,4.832 -14.467,10.47 -0.477,1.35 -2.579,1.2 -2.579,-0.349 0,-3.942 -1.346,-9.31 1.754,-12.368 3.261,-3.218 8.229,-4.959 12.42,-6.519 19.095,-7.107 39.844,-10.29 59.957,-12.863 17.714,-2.266 35.534,-3.61 53.375,-4.337 0.709,-0.029 1.313,0.625 1.313,1.313 L 2.626,0 C 2.626,1.69 0,1.692 0,0"
             style="fill:#a46224;fill-opacity:1;fill-rule:nonzero;stroke:none"
             id="path312" />
        </g>
      </g>
    </g>
  </g>
</svg>
