<?xml version="1.0" encoding="UTF-8" standalone="no"?>
<!-- Created with Inkscape (http://www.inkscape.org/) -->

<svg
   version="1.1"
   id="svg2"
   width="1122.52"
   height="793.70135"
   viewBox="0 0 1122.52 793.70135"
   sodipodi:docname="Ty-Lunch_Picto_Entree_chaude.ai"
   xmlns:inkscape="http://www.inkscape.org/namespaces/inkscape"
   xmlns:sodipodi="http://sodipodi.sourceforge.net/DTD/sodipodi-0.dtd"
   xmlns="http://www.w3.org/2000/svg"
   xmlns:svg="http://www.w3.org/2000/svg">
  <defs
     id="defs6">
    <clipPath
       clipPathUnits="userSpaceOnUse"
       id="clipPath16">
      <path
         d="M 0,595.276 H 841.89 V 0 H 0 Z"
         id="path14" />
    </clipPath>
    <clipPath
       clipPathUnits="userSpaceOnUse"
       id="clipPath24">
      <path
         d="m 374.549,397.216 h 29.103 v -68.254 h -29.103 z"
         id="path22" />
    </clipPath>
    <clipPath
       clipPathUnits="userSpaceOnUse"
       id="clipPath40">
      <path
         d="m 442.66,396.117 h 29.102 V 327.862 H 442.66 Z"
         id="path38" />
    </clipPath>
    <clipPath
       clipPathUnits="userSpaceOnUse"
       id="clipPath152">
      <path
         d="M 0,595.276 H 841.89 V 0 H 0 Z"
         id="path150" />
    </clipPath>
  </defs>
  <sodipodi:namedview
     id="namedview4"
     pagecolor="#ffffff"
     bordercolor="#000000"
     borderopacity="0.25"
     inkscape:showpageshadow="2"
     inkscape:pageopacity="0.0"
     inkscape:pagecheckerboard="0"
     inkscape:deskcolor="#d1d1d1" />
  <g
     id="g8"
     inkscape:groupmode="layer"
     inkscape:label="Ty-Lunch_Picto_Entree_chaude"
     transform="matrix(1.3333333,0,0,-1.3333333,0,793.70133)">
    <g
       id="g10">
      <g
         id="g12"
         clip-path="url(#clipPath16)">
        <g
           id="g18">
          <g
             id="g20" />
          <g
             id="g32">
            <g
               clip-path="url(#clipPath24)"
               opacity="0.740005"
               id="g30">
              <g
                 transform="translate(395.8029,341.7472)"
                 id="g28">
                <path
                   d="m 0,0 c -2.152,2.673 -4.455,5.678 -5.669,8.924 -0.134,0.36 -0.75,3.376 -0.584,2.183 -0.18,1.289 -0.581,-0.303 0.005,0.585 0.826,1.253 -0.349,-0.045 0.269,0.415 1.201,0.895 2.468,1.692 3.662,2.598 3.051,2.314 5.573,5.05 7.342,8.481 6.722,13.033 1.04,27.139 -12.782,31.846 -9.158,3.118 -13.09,-11.365 -3.988,-14.464 0.456,-0.156 1.483,-0.447 2.883,-1.707 2.063,-1.858 2.358,-4.211 1.492,-6.779 -1.817,-5.392 -7.243,-6.799 -10.545,-10.986 -8.231,-10.438 0.517,-23.269 7.308,-31.703 2.561,-3.179 7.932,-2.616 10.607,0 3.152,3.084 2.526,7.47 0,10.607"
                   style="fill:#f7db63;fill-opacity:1;fill-rule:nonzero;stroke:none"
                   id="path26" />
              </g>
            </g>
          </g>
        </g>
        <g
           id="g34">
          <g
             id="g36" />
          <g
             id="g48">
            <g
               clip-path="url(#clipPath40)"
               opacity="0.740005"
               id="g46">
              <g
                 transform="translate(463.9135,340.6473)"
                 id="g44">
                <path
                   d="m 0,0 c -2.152,2.673 -4.455,5.678 -5.669,8.924 -0.134,0.36 -0.75,3.376 -0.584,2.183 -0.18,1.289 -0.581,-0.303 0.005,0.585 0.826,1.253 -0.349,-0.045 0.269,0.415 1.201,0.895 2.468,1.692 3.662,2.598 3.051,2.314 5.573,5.05 7.342,8.481 6.723,13.034 1.039,27.138 -12.782,31.846 -9.158,3.119 -13.089,-11.364 -3.988,-14.464 0.456,-0.156 1.483,-0.447 2.883,-1.707 2.063,-1.858 2.358,-4.211 1.492,-6.779 -1.817,-5.392 -7.243,-6.799 -10.545,-10.986 -8.231,-10.438 0.517,-23.269 7.308,-31.703 2.561,-3.179 7.932,-2.616 10.607,0 3.152,3.084 2.526,7.47 0,10.607"
                   style="fill:#f7db63;fill-opacity:1;fill-rule:nonzero;stroke:none"
                   id="path42" />
              </g>
            </g>
          </g>
        </g>
        <g
           id="g50"
           transform="translate(510.171,294.7615)">
          <path
             d="m 0,0 c 11.858,-0.191 20.413,-11.267 17.801,-22.835 -11.199,-49.606 -55.931,-86.281 -108.792,-85.427 -53.015,0.856 -96.638,39.174 -106.061,89.329 -2.156,11.479 6.929,22.003 18.607,21.815 z"
             style="fill:#ed6418;fill-opacity:1;fill-rule:nonzero;stroke:none"
             id="path52" />
        </g>
        <g
           id="g54"
           transform="translate(362.0375,220.1135)">
          <path
             d="m 0,0 c -6.772,-1.529 4.425,-9.61 13.863,-14.336 5.017,-2.512 9.806,-4.858 14.632,-4.683 6.264,0.227 10.303,4.618 8.711,8.172 -1.977,4.415 -12.459,7.124 -15.804,7.988 C 20.068,-2.514 5.518,1.246 0,0"
             style="fill:#ffffff;fill-opacity:1;fill-rule:nonzero;stroke:none"
             id="path56" />
        </g>
        <g
           id="g58"
           transform="translate(310.7787,270.6599)">
          <path
             d="m 0,0 c 1.452,0.796 3.391,0.984 4.747,0.312 0.803,-0.398 1.086,-0.9 1.378,-1.88 0.359,-1.209 0.68,-2.426 1.338,-3.519 2.268,-3.766 6.996,-5.89 11.324,-5.558 2.407,0.185 4.6,0.993 6.466,2.54 2.06,1.707 3.375,4.082 4.772,6.318 1.158,1.853 2.613,3.815 4.848,4.395 2.122,0.55 3.133,-0.958 3.992,-2.678 1.058,-2.119 1.989,-4.204 3.808,-5.809 1.792,-1.58 3.982,-2.719 6.315,-3.251 5.121,-1.168 10.025,0.403 13.701,4.106 3.251,3.274 5.485,8.12 10.22,9.494 1.693,0.492 3.57,0.51 4.702,-1.031 1.384,-1.885 1.585,-4.487 2.756,-6.515 4.633,-8.028 16.595,-10.029 23.764,-4.407 4.265,3.345 7.085,8.431 12.291,10.562 1.96,0.802 4.168,1.066 6.231,0.533 2.099,-0.542 3.365,-1.774 4.273,-3.704 1.011,-2.148 1.657,-4.422 3.357,-6.17 1.817,-1.869 4.42,-2.701 6.983,-2.389 2.743,0.335 5.15,1.688 7.285,3.384 1.961,1.557 3.393,3.513 4.993,5.411 1.469,1.741 3.1,3.604 5.2,4.594 0.842,0.397 1.756,0.604 2.69,0.527 0.77,-0.063 1.469,-0.339 1.956,-0.616 1.252,-0.714 2.393,-2.064 3.252,-3.257 1.179,-1.639 2.261,-3.34 3.518,-4.923 3.062,-3.856 7.441,-5.891 12.385,-4.625 5.574,1.429 9.029,6.03 13.778,8.856 1.93,1.149 4.099,1.842 6.348,1.363 2.064,-0.441 3.916,-1.626 4.994,-3.458 0.686,-1.166 1.35,-2.256 2.607,-2.878 1.497,-0.741 3.204,-0.397 4.692,0.189 2.353,0.927 4.249,2.507 6.046,4.252 1.616,1.568 3.136,3.097 5.215,4.04 1.229,0.558 1.528,2.341 0.897,3.421 -0.74,1.263 -2.187,1.457 -3.421,0.896 -2.214,-1.004 -4.014,-2.661 -5.736,-4.342 -1.484,-1.448 -2.99,-3.014 -5.004,-3.691 -0.138,-0.042 -0.276,-0.084 -0.413,-0.126 -0.545,-0.069 -0.564,-0.129 -0.058,-0.181 -0.006,0.008 0.005,0.045 -0.004,0.058 -0.321,0.473 -0.549,1.004 -0.872,1.477 -0.783,1.148 -1.714,2.104 -2.821,2.937 -2.086,1.568 -4.647,2.444 -7.252,2.554 -5.704,0.239 -10.036,-3.736 -14.15,-7.102 -1.985,-1.623 -4.379,-3.246 -6.977,-3.618 -2.006,-0.288 -3.667,0.422 -4.852,1.483 -2.74,2.453 -4.247,6.032 -6.902,8.801 -3.324,3.468 -8.089,4.45 -12.44,2.28 -4.607,-2.298 -6.853,-7.065 -10.615,-10.303 -1.488,-1.281 -3.625,-2.632 -5.664,-2.484 -1.863,0.136 -2.803,1.742 -3.506,3.348 -1.003,2.289 -1.798,4.634 -3.733,6.341 -1.992,1.755 -4.501,2.627 -7.117,2.868 C 116.039,9.336 111.052,6.339 107.184,2.64 105.151,0.697 103.445,-1.605 101.275,-3.402 99.781,-4.64 97.954,-5.409 96.212,-5.635 92.482,-6.117 88.489,-4.873 85.9,-2.174 84.53,-0.746 83.984,1.124 83.277,3.062 82.355,5.587 80.97,7.876 78.419,9.005 73.573,11.148 67.888,8.478 64.529,4.86 61.45,1.543 59.024,-3.346 54.236,-4.373 50.531,-5.167 46.257,-3.468 44.409,-0.062 43.274,2.032 42.516,4.37 40.626,5.951 38.435,7.784 35.519,8.183 32.856,7.2 30.203,6.221 28.145,4.329 26.553,2.034 25.145,0.005 24.116,-2.346 22.298,-4.061 19.784,-6.433 15.562,-6.058 13.065,-4.007 11.221,-2.492 11.338,-0.66 10.27,1.552 9.219,3.727 6.981,5.14 4.641,5.529 2.164,5.941 -0.32,5.526 -2.524,4.317 -5.346,2.77 -2.826,-1.549 0,0"
             style="fill:#ffffff;fill-opacity:1;fill-rule:nonzero;stroke:none"
             id="path60" />
        </g>
      </g>
    </g>
    <text
       xml:space="preserve"
       transform="matrix(0.40709105,0.91338758,0.91338758,-0.40709105,193.4014,380.0625)"
       style="font-variant:normal;font-weight:normal;font-stretch:normal;font-size:55px;font-family:'Arial Rounded MT Bold';-inkscape-font-specification:ArialRoundedMTBold;writing-mode:lr-tb;fill:#040d6a;fill-opacity:1;fill-rule:nonzero;stroke:none"
       id="text64"><tspan
         x="0"
         y="0"
         id="tspan62">T</tspan></text>
    <text
       xml:space="preserve"
       transform="matrix(0.49856165,0.86685425,0.86685425,-0.49856165,204.1514,404.8242)"
       style="font-variant:normal;font-weight:normal;font-stretch:normal;font-size:55px;font-family:'Arial Rounded MT Bold';-inkscape-font-specification:ArialRoundedMTBold;writing-mode:lr-tb;fill:#040d6a;fill-opacity:1;fill-rule:nonzero;stroke:none"
       id="text68"><tspan
         x="0"
         y="0"
         id="tspan66">y</tspan></text>
    <text
       xml:space="preserve"
       transform="matrix(0.60576413,0.79564428,0.79564428,-0.60576413,223.2549,436.377)"
       style="font-variant:normal;font-weight:normal;font-stretch:normal;font-size:55px;font-family:'Arial Rounded MT Bold';-inkscape-font-specification:ArialRoundedMTBold;writing-mode:lr-tb;fill:#040d6a;fill-opacity:1;fill-rule:nonzero;stroke:none"
       id="text72"><tspan
         x="0"
         y="0"
         id="tspan70">-</tspan></text>
    <text
       xml:space="preserve"
       transform="matrix(0.7067767,0.7074367,0.7074367,-0.7067767,238.4863,456.4443)"
       style="font-variant:normal;font-weight:normal;font-stretch:normal;font-size:55px;font-family:'Arial Rounded MT Bold';-inkscape-font-specification:ArialRoundedMTBold;writing-mode:lr-tb;fill:#040d6a;fill-opacity:1;fill-rule:nonzero;stroke:none"
       id="text76"><tspan
         x="0"
         y="0"
         id="tspan74">L</tspan></text>
    <text
       xml:space="preserve"
       transform="matrix(0.78185816,0.62345635,0.62345635,-0.78185816,257.6416,476.0801)"
       style="font-variant:normal;font-weight:normal;font-stretch:normal;font-size:55px;font-family:'Arial Rounded MT Bold';-inkscape-font-specification:ArialRoundedMTBold;writing-mode:lr-tb;fill:#040d6a;fill-opacity:1;fill-rule:nonzero;stroke:none"
       id="text80"><tspan
         x="0"
         y="0"
         id="tspan78">u</tspan></text>
    <text
       xml:space="preserve"
       transform="matrix(0.84718853,0.53129238,0.53129238,-0.84718853,278.8691,493.4297)"
       style="font-variant:normal;font-weight:normal;font-stretch:normal;font-size:55px;font-family:'Arial Rounded MT Bold';-inkscape-font-specification:ArialRoundedMTBold;writing-mode:lr-tb;fill:#040d6a;fill-opacity:1;fill-rule:nonzero;stroke:none"
       id="text84"><tspan
         x="0"
         y="0"
         id="tspan82">n</tspan></text>
    <text
       xml:space="preserve"
       transform="matrix(0.90153097,0.43271458,0.43271458,-0.90153097,301.9424,508.2695)"
       style="font-variant:normal;font-weight:normal;font-stretch:normal;font-size:55px;font-family:'Arial Rounded MT Bold';-inkscape-font-specification:ArialRoundedMTBold;writing-mode:lr-tb;fill:#040d6a;fill-opacity:1;fill-rule:nonzero;stroke:none"
       id="text88"><tspan
         x="0"
         y="0"
         id="tspan86">c</tspan></text>
    <text
       xml:space="preserve"
       transform="matrix(0.94307442,0.33258177,0.33258177,-0.94307442,324.9951,519.7686)"
       style="font-variant:normal;font-weight:normal;font-stretch:normal;font-size:55px;font-family:'Arial Rounded MT Bold';-inkscape-font-specification:ArialRoundedMTBold;writing-mode:lr-tb;fill:#040d6a;fill-opacity:1;fill-rule:nonzero;stroke:none"
       id="text92"><tspan
         x="0"
         y="0"
         id="tspan90">h</tspan></text>
    <text
       xml:space="preserve"
       transform="matrix(0.97981595,0.19990173,0.19990173,-0.97981595,362.8652,532.1338)"
       style="font-variant:normal;font-weight:normal;font-stretch:normal;font-size:55px;font-family:'Arial Rounded MT Bold';-inkscape-font-specification:ArialRoundedMTBold;writing-mode:lr-tb;fill:#040d6a;fill-opacity:1;fill-rule:nonzero;stroke:none"
       id="text96"><tspan
         x="0"
         y="0"
         id="tspan94">•</tspan></text>
    <text
       xml:space="preserve"
       transform="matrix(0.99828037,0.05862002,0.05862002,-0.99828037,388.2266,537.459)"
       style="font-variant:normal;font-weight:normal;font-stretch:normal;font-size:55px;font-family:'Arial Rounded MT Bold';-inkscape-font-specification:ArialRoundedMTBold;writing-mode:lr-tb;fill:#ed6418;fill-opacity:1;fill-rule:nonzero;stroke:none"
       id="text100"><tspan
         x="0"
         y="0"
         id="tspan98">E</tspan></text>
    <text
       xml:space="preserve"
       transform="matrix(0.99826829,-0.05882541,-0.05882541,-0.99826829,418.8184,539.5098)"
       style="font-variant:normal;font-weight:normal;font-stretch:normal;font-size:55px;font-family:'Arial Rounded MT Bold';-inkscape-font-specification:ArialRoundedMTBold;writing-mode:lr-tb;fill:#ed6418;fill-opacity:1;fill-rule:nonzero;stroke:none"
       id="text104"><tspan
         x="0"
         y="0"
         id="tspan102">n</tspan></text>
    <text
       xml:space="preserve"
       transform="matrix(0.98901239,-0.14783268,-0.14783268,-0.98901239,447.3477,537.7305)"
       style="font-variant:normal;font-weight:normal;font-stretch:normal;font-size:55px;font-family:'Arial Rounded MT Bold';-inkscape-font-specification:ArialRoundedMTBold;writing-mode:lr-tb;fill:#ed6418;fill-opacity:1;fill-rule:nonzero;stroke:none"
       id="text108"><tspan
         x="0"
         y="0"
         id="tspan106">t</tspan></text>
    <text
       xml:space="preserve"
       transform="matrix(0.97522636,-0.2212093,-0.2212093,-0.97522636,462.8477,535.6455)"
       style="font-variant:normal;font-weight:normal;font-stretch:normal;font-size:55px;font-family:'Arial Rounded MT Bold';-inkscape-font-specification:ArialRoundedMTBold;writing-mode:lr-tb;fill:#ed6418;fill-opacity:1;fill-rule:nonzero;stroke:none"
       id="text112"><tspan
         x="0"
         y="0"
         id="tspan110">r</tspan></text>
    <text
       xml:space="preserve"
       transform="matrix(0.94904576,-0.31513828,-0.31513828,-0.94904576,481.5498,531.8691)"
       style="font-variant:normal;font-weight:normal;font-stretch:normal;font-size:55px;font-family:'Arial Rounded MT Bold';-inkscape-font-specification:ArialRoundedMTBold;writing-mode:lr-tb;fill:#ed6418;fill-opacity:1;fill-rule:nonzero;stroke:none"
       id="text116"><tspan
         x="0"
         y="0"
         id="tspan114">é</tspan></text>
    <text
       xml:space="preserve"
       transform="matrix(0.90778657,-0.4194324,-0.4194324,-0.90778657,507.1943,523.6943)"
       style="font-variant:normal;font-weight:normal;font-stretch:normal;font-size:55px;font-family:'Arial Rounded MT Bold';-inkscape-font-specification:ArialRoundedMTBold;writing-mode:lr-tb;fill:#ed6418;fill-opacity:1;fill-rule:nonzero;stroke:none"
       id="text120"><tspan
         x="0"
         y="0"
         id="tspan118">e</tspan></text>
    <text
       xml:space="preserve"
       transform="matrix(0.83009494,-0.55762208,-0.55762208,-0.83009494,541.748,507.2354)"
       style="font-variant:normal;font-weight:normal;font-stretch:normal;font-size:55px;font-family:'Arial Rounded MT Bold';-inkscape-font-specification:ArialRoundedMTBold;writing-mode:lr-tb;fill:#ed6418;fill-opacity:1;fill-rule:nonzero;stroke:none"
       id="text124"><tspan
         x="0"
         y="0"
         id="tspan122">c</tspan></text>
    <text
       xml:space="preserve"
       transform="matrix(0.76553632,-0.64339269,-0.64339269,-0.76553632,563.3848,493.1621)"
       style="font-variant:normal;font-weight:normal;font-stretch:normal;font-size:55px;font-family:'Arial Rounded MT Bold';-inkscape-font-specification:ArialRoundedMTBold;writing-mode:lr-tb;fill:#ed6418;fill-opacity:1;fill-rule:nonzero;stroke:none"
       id="text128"><tspan
         x="0"
         y="0"
         id="tspan126">h</tspan></text>
    <text
       xml:space="preserve"
       transform="matrix(0.68897086,-0.72478904,-0.72478904,-0.68897086,584.625,475.7109)"
       style="font-variant:normal;font-weight:normal;font-stretch:normal;font-size:55px;font-family:'Arial Rounded MT Bold';-inkscape-font-specification:ArialRoundedMTBold;writing-mode:lr-tb;fill:#ed6418;fill-opacity:1;fill-rule:nonzero;stroke:none"
       id="text132"><tspan
         x="0"
         y="0"
         id="tspan130">a</tspan></text>
    <text
       xml:space="preserve"
       transform="matrix(0.60375946,-0.79716656,-0.79716656,-0.60375946,603.4297,456.417)"
       style="font-variant:normal;font-weight:normal;font-stretch:normal;font-size:55px;font-family:'Arial Rounded MT Bold';-inkscape-font-specification:ArialRoundedMTBold;writing-mode:lr-tb;fill:#ed6418;fill-opacity:1;fill-rule:nonzero;stroke:none"
       id="text136"><tspan
         x="0"
         y="0"
         id="tspan134">u</tspan></text>
    <text
       xml:space="preserve"
       transform="matrix(0.50819261,-0.86124344,-0.86124344,-0.50819261,620.2207,434.8682)"
       style="font-variant:normal;font-weight:normal;font-stretch:normal;font-size:55px;font-family:'Arial Rounded MT Bold';-inkscape-font-specification:ArialRoundedMTBold;writing-mode:lr-tb;fill:#ed6418;fill-opacity:1;fill-rule:nonzero;stroke:none"
       id="text140"><tspan
         x="0"
         y="0"
         id="tspan138">d</tspan></text>
    <text
       xml:space="preserve"
       transform="matrix(0.40622551,-0.91377286,-0.91377286,-0.40622551,634.9463,410.4844)"
       style="font-variant:normal;font-weight:normal;font-stretch:normal;font-size:55px;font-family:'Arial Rounded MT Bold';-inkscape-font-specification:ArialRoundedMTBold;writing-mode:lr-tb;fill:#ed6418;fill-opacity:1;fill-rule:nonzero;stroke:none"
       id="text144"><tspan
         x="0"
         y="0"
         id="tspan142">e</tspan></text>
    <g
       id="g146">
      <g
         id="g148"
         clip-path="url(#clipPath152)">
        <g
           id="g154"
           transform="translate(528.1459,212.1389)">
          <path
             d="m 0,0 c 0.661,-2.8 -15.934,-7.541 -33.992,-11.469 -18.924,-4.117 -28.131,-4.651 -44.809,-9.881 -10.36,-3.249 -8.819,-13.537 -18.562,-17.358 -11.491,-4.505 -23.197,0.994 -24.98,8.552 -1.784,7.557 5.814,17.297 18.521,18.817 7.838,0.937 10.975,-5.344 21.926,-3.341 18.233,3.334 44.95,11.723 64.731,16.104 C -0.443,5.126 -0.617,2.612 0,0"
             style="fill:#f7db63;fill-opacity:1;fill-rule:nonzero;stroke:none"
             id="path156" />
        </g>
        <g
           id="g158"
           transform="translate(420.9448,122.927)">
          <path
             d="m 0,0 c -96.49,0 -174.711,78.221 -174.711,174.711 0,96.49 78.221,174.711 174.711,174.711 96.49,0 174.711,-78.221 174.711,-174.712 C 174.711,78.22 96.49,0 0,0 m 231.403,225.682 c -14.899,4.901 -26.907,16.075 -32.866,30.582 C 165.464,336.778 87.041,389.345 0,389.345 c -87.041,0 -165.464,-52.567 -198.537,-133.08 -5.959,-14.508 -17.967,-25.682 -32.865,-30.583 -22.014,-7.242 -36.891,-27.797 -36.891,-50.971 0,-23.174 14.877,-43.729 36.891,-50.971 14.898,-4.902 26.906,-16.075 32.865,-30.583 C -165.464,12.644 -87.041,-39.923 0,-39.923 c 87.041,-10e-4 165.464,52.567 198.537,133.08 5.959,14.507 17.967,25.681 32.866,30.582 22.013,7.242 36.89,27.798 36.89,50.971 0,23.174 -14.877,43.73 -36.89,50.972"
             style="fill:#040d6a;fill-opacity:1;fill-rule:nonzero;stroke:none"
             id="path160" />
        </g>
      </g>
    </g>
  </g>
</svg>
