<?xml version="1.0" encoding="UTF-8" standalone="no"?>
<!-- Created with Inkscape (http://www.inkscape.org/) -->

<svg
   version="1.1"
   id="svg2"
   width="793.70135"
   height="1122.52"
   viewBox="0 0 793.70135 1122.52"
   sodipodi:docname="Ty-Lunch_Picto_Panier.ai"
   xmlns:inkscape="http://www.inkscape.org/namespaces/inkscape"
   xmlns:sodipodi="http://sodipodi.sourceforge.net/DTD/sodipodi-0.dtd"
   xmlns="http://www.w3.org/2000/svg"
   xmlns:svg="http://www.w3.org/2000/svg">
  <defs
     id="defs6">
    <clipPath
       clipPathUnits="userSpaceOnUse"
       id="clipPath16">
      <path
         d="M 0,841.89 H 595.276 V 0 H 0 Z"
         id="path14" />
    </clipPath>
  </defs>
  <sodipodi:namedview
     id="namedview4"
     pagecolor="#ffffff"
     bordercolor="#000000"
     borderopacity="0.25"
     inkscape:showpageshadow="2"
     inkscape:pageopacity="0.0"
     inkscape:pagecheckerboard="0"
     inkscape:deskcolor="#d1d1d1" />
  <g
     id="g8"
     inkscape:groupmode="layer"
     inkscape:label="Ty-Lunch_Picto_Panier"
     transform="matrix(1.3333333,0,0,-1.3333333,0,1122.52)">
    <g
       id="g10">
      <g
         id="g12"
         clip-path="url(#clipPath16)">
        <g
           id="g18"
           transform="translate(264.5661,433.4732)">
          <path
             d="m 0,0 c 4.136,3.954 7.044,9.406 7.884,15.073 0.236,1.594 0.294,3.233 0.576,4.818 -0.223,-1.251 0.123,0.801 0.176,1.131 0.13,0.806 0.273,1.61 0.429,2.411 0.502,2.579 1.14,5.133 1.929,7.639 0.359,1.14 0.749,2.27 1.171,3.388 0.196,0.519 0.404,1.032 0.608,1.546 0.465,1.167 -0.454,-0.988 0.065,0.146 0.15,0.327 0.293,0.657 0.444,0.984 0.968,2.089 2.065,4.12 3.31,6.057 0.154,0.238 1.788,2.725 1.87,2.675 0.011,-0.008 -0.788,-0.979 -0.196,-0.259 0.167,0.203 0.33,0.408 0.498,0.61 0.364,0.436 0.737,0.864 1.122,1.283 0.677,0.738 1.387,1.447 2.131,2.119 0.361,0.326 0.73,0.644 1.107,0.952 0.146,0.119 0.315,0.232 0.451,0.36 -1.015,-0.962 -0.408,-0.319 -0.099,-0.097 0.755,0.54 1.54,1.042 2.351,1.494 0.397,0.221 0.801,0.43 1.21,0.627 0.163,0.078 0.328,0.15 0.49,0.228 0.86,0.411 -1.192,-0.432 -0.079,-0.041 0.795,0.28 1.584,0.553 2.405,0.753 0.427,0.104 0.858,0.193 1.292,0.268 0.171,0.029 0.35,0.046 0.521,0.082 -1.592,-0.33 -0.571,-0.082 -0.147,-0.049 0.839,0.066 1.683,0.076 2.523,0.028 0.471,-0.027 1.93,-0.318 0.246,0.022 0.517,-0.105 1.038,-0.17 1.553,-0.288 0.773,-0.177 1.535,-0.402 2.282,-0.67 0.243,-0.088 0.497,-0.223 0.747,-0.286 -0.053,0.014 -1.178,0.533 -0.455,0.189 0.49,-0.233 0.979,-0.462 1.457,-0.72 0.772,-0.417 1.519,-0.878 2.24,-1.376 0.349,-0.24 0.676,-0.52 1.032,-0.749 -1.353,0.87 0.232,-0.223 0.55,-0.504 0.746,-0.659 1.459,-1.355 2.139,-2.081 0.315,-0.337 0.623,-0.679 0.925,-1.028 0.118,-0.136 0.921,-1.336 1.097,-1.328 -0.246,-0.011 -0.659,0.897 -0.104,0.125 0.156,-0.218 0.318,-0.432 0.474,-0.651 0.317,-0.444 0.624,-0.895 0.924,-1.351 0.616,-0.938 1.196,-1.9 1.743,-2.88 0.567,-1.017 1.099,-2.054 1.596,-3.106 0.255,-0.541 0.497,-1.087 0.74,-1.633 0.112,-0.253 0.446,-0.787 -0.08,0.19 0.171,-0.317 0.279,-0.685 0.41,-1.022 1.066,-2.729 1.934,-5.535 2.625,-8.382 0.347,-1.429 0.649,-2.868 0.91,-4.315 0.145,-0.807 0.267,-1.617 0.395,-2.427 0.036,-0.226 0.156,-0.978 -0.008,0.098 0.073,-0.481 0.121,-0.968 0.175,-1.451 0.418,-3.758 0.987,-7.128 2.518,-10.603 1.309,-2.973 3.25,-5.712 5.555,-7.999 1.859,-1.845 5.239,-1.995 7.071,0 1.826,1.99 1.984,5.103 0,7.071 -0.397,0.394 -0.781,0.801 -1.148,1.223 -0.123,0.141 -0.939,1.205 -0.233,0.244 -0.159,0.217 -0.319,0.433 -0.472,0.653 -0.382,0.551 -0.738,1.118 -1.069,1.701 -0.198,0.349 -0.386,0.703 -0.564,1.063 -0.119,0.238 -0.602,1.358 -0.157,0.267 -0.506,1.241 -0.9,2.528 -1.172,3.84 -0.068,0.33 -0.116,0.664 -0.18,0.995 -0.157,0.799 0.1,-1.23 0,0.079 -0.063,0.836 -0.168,1.672 -0.271,2.504 -0.711,5.694 -1.85,11.303 -3.809,16.708 -3.36,9.271 -8.712,18.294 -17.146,23.774 C 38.967,65.066 29.552,65.46 21.504,61.35 12.796,56.904 7.079,48.098 3.412,39.339 1.095,33.804 -0.416,27.984 -1.251,22.046 -1.41,20.914 -1.563,19.78 -1.69,18.644 c -0.031,-0.279 -0.06,-0.558 -0.089,-0.837 -0.026,-0.272 -0.053,-0.544 -0.082,-0.816 0.096,0.674 0.101,0.726 0.012,0.154 -0.29,-1.432 -0.661,-2.781 -1.129,-4.164 -0.418,-1.234 0.468,0.923 -0.103,-0.248 C -3.253,12.381 -3.419,12.029 -3.602,11.682 -3.967,10.99 -4.371,10.317 -4.809,9.668 -4.956,9.451 -5.111,9.241 -5.259,9.026 -5.592,8.579 -5.571,8.605 -5.196,9.103 -5.362,8.899 -5.531,8.699 -5.704,8.501 -6.138,8.004 -6.594,7.527 -7.071,7.071 -8.966,5.26 -9.03,1.799 -7.071,0 -5.038,-1.866 -2.021,-1.932 0,0"
             style="fill:#252b5c;fill-opacity:1;fill-rule:nonzero;stroke:none"
             id="path20" />
        </g>
        <g
           id="g22"
           transform="translate(356.2469,383.5632)">
          <path
             d="m 0,0 h -11.5 -27.616 -33.408 -28.874 c -4.662,0 -9.342,0.117 -14.003,0 -0.068,-0.002 -0.136,0 -0.205,0 -2.615,0 -5.121,-2.3 -5,-5 0.122,-2.709 2.197,-5 5,-5 h 11.5 27.617 33.408 28.873 c 4.663,0 9.342,-0.117 14.003,0 0.068,0.002 0.137,0 0.205,0 2.615,0 5.121,2.3 5,5 -0.121,2.709 -2.197,5 -5,5"
             style="fill:#252b5c;fill-opacity:1;fill-rule:nonzero;stroke:none"
             id="path24" />
        </g>
        <g
           id="g26"
           transform="translate(369,411.9576)">
          <path
             d="m 0,0 h -14.29 -34.05 -41.289 -35.69 c -5.769,0 -11.554,0.124 -17.322,0 -0.084,-0.002 -0.169,0 -0.253,0 -2.615,0 -5.121,-2.3 -5,-5 0.121,-2.709 2.197,-5 5,-5 h 14.29 34.05 41.289 35.69 c 5.769,0 11.554,-0.124 17.322,0 0.085,0.002 0.169,0 0.253,0 2.615,0 5.121,2.3 5,5 -0.121,2.709 -2.197,5 -5,5"
             style="fill:#252b5c;fill-opacity:1;fill-rule:nonzero;stroke:none"
             id="path28" />
        </g>
        <g
           id="g30"
           transform="translate(302.43,350.1689)">
          <path
             d="m 0,0 v 27.402 43.677 10.025 c 0,2.615 -2.3,5.121 -5,5 -2.709,-0.121 -5,-2.197 -5,-5 V 53.702 10.025 0 c 0,-2.615 2.3,-5.121 5,-5 2.709,0.121 5,2.197 5,5"
             style="fill:#252b5c;fill-opacity:1;fill-rule:nonzero;stroke:none"
             id="path32" />
        </g>
        <g
           id="g34"
           transform="translate(274.0356,351.183)">
          <path
             d="m 0,0 v 28.171 44.814 10.17 c 0,2.615 -2.3,5.121 -5,5 -2.709,-0.121 -5,-2.197 -5,-5 V 54.984 10.17 0 c 0,-2.615 2.3,-5.121 5,-5 2.709,0.121 5,2.197 5,5"
             style="fill:#252b5c;fill-opacity:1;fill-rule:nonzero;stroke:none"
             id="path36" />
        </g>
        <g
           id="g38"
           transform="translate(245.6413,354.7287)">
          <path
             d="m 0,0 v 25.989 41.105 9.45 c 0,2.615 -2.3,5.121 -5,5 -2.709,-0.121 -5,-2.197 -5,-5 V 50.555 9.45 0 c 0,-2.615 2.3,-5.121 5,-5 2.709,0.121 5,2.197 5,5"
             style="fill:#252b5c;fill-opacity:1;fill-rule:nonzero;stroke:none"
             id="path40" />
        </g>
        <g
           id="g42"
           transform="translate(331.8385,350.1689)">
          <path
             d="M 0,0 V 28.207 72.8 82.986 c 0,2.615 -2.3,5.121 -5,5 -2.709,-0.121 -5,-2.197 -5,-5 V 54.779 10.186 0 c 0,-2.615 2.3,-5.121 5,-5 2.709,0.121 5,2.197 5,5"
             style="fill:#252b5c;fill-opacity:1;fill-rule:nonzero;stroke:none"
             id="path44" />
        </g>
        <g
           id="g46"
           transform="translate(361.2469,359.6337)">
          <path
             d="m 0,0 v 24.261 38.604 8.774 c 0,2.616 -2.3,5.121 -5,5 -2.709,-0.121 -5,-2.197 -5,-5 V 47.378 8.774 0 c 0,-2.615 2.3,-5.121 5,-5 2.709,0.121 5,2.197 5,5"
             style="fill:#252b5c;fill-opacity:1;fill-rule:nonzero;stroke:none"
             id="path48" />
        </g>
        <g
           id="g50"
           transform="translate(228.5526,430.352)">
          <path
             d="m 0,0 h 7.491 19.253 26.392 29.034 26.79 20.047 c 2.895,0 5.793,0.033 8.688,0 0.018,0 0.036,0 0.054,0 0.002,0 0.004,0 0.006,0 0.231,-0.003 0.467,-0.024 0.699,-0.023 0.936,0.005 -0.73,0.177 -0.144,0.032 0.38,-0.093 0.76,-0.158 1.136,-0.271 0.143,-0.043 0.322,-0.139 0.468,-0.154 0.623,-0.066 -0.831,0.451 -0.289,0.134 0.324,-0.19 0.673,-0.335 0.995,-0.531 0.137,-0.083 0.268,-0.176 0.404,-0.26 0.922,-0.569 -0.159,0.056 -0.12,0.111 0.006,0.009 0.789,-0.737 0.81,-0.76 0.11,-0.114 0.212,-0.236 0.322,-0.349 0.647,-0.66 -0.241,0.213 -0.188,0.27 -0.006,-0.006 0.586,-0.898 0.603,-0.928 0.08,-0.138 0.157,-0.276 0.23,-0.417 0.074,-0.14 0.144,-0.283 0.209,-0.427 0.112,-0.245 0.091,-0.192 -0.065,0.158 -0.29,0.227 -0.13,0.399 -0.024,0.003 0.055,-0.205 0.131,-0.406 0.187,-0.611 0.065,-0.241 0.258,-1.4 0.165,-0.596 -0.094,0.812 0.013,-0.391 0.016,-0.634 0.006,-0.435 -0.099,-0.898 -0.068,-1.326 -0.012,0.161 0.239,1.163 0.012,0.324 -0.045,-0.167 -0.079,-0.337 -0.124,-0.504 -0.047,-0.174 -0.095,-0.334 -0.149,-0.509 -0.01,-0.033 -0.021,-0.066 -0.032,-0.1 -0.056,-0.182 -0.116,-0.362 -0.174,-0.544 -0.259,-0.803 -0.517,-1.607 -0.775,-2.41 -2.287,-7.116 -4.574,-14.231 -6.862,-21.347 -2.851,-8.871 -5.703,-17.743 -8.554,-26.614 -1.429,-4.445 -2.799,-8.915 -4.288,-13.34 -0.039,-0.115 -0.08,-0.23 -0.117,-0.345 -0.221,-0.681 -0.161,0.121 0.097,0.22 -0.063,-0.024 -0.203,-0.398 -0.239,-0.465 -0.109,-0.201 -0.435,-0.993 -0.636,-1.028 0.006,0.001 0.811,0.921 0.15,0.201 -0.154,-0.167 -0.303,-0.339 -0.463,-0.501 -0.161,-0.164 -1.038,-0.986 -0.513,-0.509 0.542,0.491 -0.423,-0.265 -0.614,-0.378 -0.202,-0.119 -1.279,-0.662 -0.621,-0.356 0.644,0.3 -0.613,-0.183 -0.863,-0.247 -0.224,-0.058 -0.454,-0.092 -0.676,-0.151 -0.53,-0.14 0.426,0.067 0.465,0.053 -0.226,0.08 -0.797,-0.05 -1.06,-0.054 -0.018,0 -0.036,0 -0.054,0 -0.13,-0.002 -0.26,0 -0.39,0 -1.562,-0.003 -3.124,0 -4.687,0 H 90.962 62.651 36.361 21.489 c -0.265,0 -0.531,-0.004 -0.796,0 -0.179,0.002 -0.357,0.006 -0.536,0.015 -0.135,0.007 -0.401,0.077 -0.527,0.039 0.628,0.187 0.846,-0.174 0.294,-0.02 -0.388,0.107 -0.782,0.185 -1.166,0.312 -0.12,0.04 -0.36,0.178 -0.484,0.172 0.613,-0.269 0.75,-0.324 0.411,-0.163 -0.103,0.048 -0.204,0.099 -0.304,0.153 -0.354,0.186 -0.683,0.399 -1.021,0.611 -0.733,0.459 0.644,-0.593 -0.184,0.169 -0.295,0.271 -0.56,0.562 -0.831,0.855 -0.464,0.503 0.175,0.105 0.15,-0.201 0.009,0.111 -0.314,0.471 -0.378,0.576 -0.085,0.139 -0.783,1.263 -0.386,0.642 0.395,-0.617 -0.063,0.198 -0.129,0.393 -0.01,0.031 -0.019,0.062 -0.03,0.092 -0.058,0.176 -0.113,0.353 -0.169,0.529 -0.25,0.776 -0.499,1.553 -0.749,2.329 -2.274,7.074 -4.548,14.148 -6.822,21.223 l -8.565,26.648 c -1.449,4.509 -2.961,9.003 -4.349,13.531 -0.12,0.391 -0.186,0.803 -0.309,1.19 -0.164,0.515 0.047,-0.451 0.045,-0.491 0.014,0.202 -0.045,0.456 -0.056,0.665 -0.02,0.386 0.007,0.767 0.007,1.152 0,0.064 0.078,0.448 0.041,0.487 0.243,-0.253 -0.221,-1.065 -0.028,-0.372 0.099,0.357 0.198,0.723 0.287,1.083 0.009,0.036 0.168,0.443 0.156,0.452 0.135,-0.101 -0.492,-0.982 -0.13,-0.317 0.178,0.325 0.34,0.656 0.535,0.971 0.084,0.135 0.176,0.264 0.258,0.399 0.483,0.789 -0.149,-0.287 -0.211,-0.253 0.016,-0.009 0.652,0.718 0.751,0.816 0.113,0.111 0.236,0.213 0.347,0.326 0.655,0.667 -0.216,-0.246 -0.273,-0.178 -0.005,0.006 0.818,0.547 0.935,0.616 0.119,0.07 0.987,0.548 1.004,0.518 0.042,-0.077 -1.219,-0.395 -0.282,-0.148 0.159,0.042 0.315,0.101 0.473,0.145 0.143,0.041 1.118,0.317 1.143,0.256 0.027,-0.068 -1.331,-0.068 -0.31,-0.062 C -0.466,-0.021 -0.232,-0.004 0,0 2.614,0.042 5.122,2.269 5,5 4.88,7.673 2.802,10.045 0,10 -4.239,9.931 -8.52,8.229 -11.352,5 c -2.71,-3.088 -4.427,-7.248 -4.011,-11.413 0.229,-2.291 0.872,-4.253 1.564,-6.406 2.33,-7.247 4.659,-14.493 6.988,-21.74 2.89,-8.99 5.779,-17.98 8.669,-26.97 1.004,-3.122 2.007,-6.245 3.011,-9.368 0.47,-1.462 0.886,-2.961 1.466,-4.385 2.474,-6.069 8.106,-9.879 14.675,-9.901 1.524,-0.005 3.049,0 4.573,0 h 21.21 28.93 26.61 c 4.75,0 9.499,-0.008 14.249,0 5.649,0.009 11.041,2.76 13.866,7.77 1.052,1.866 1.626,3.991 2.278,6.021 2.33,7.246 4.659,14.493 6.988,21.739 2.89,8.99 5.779,17.98 8.669,26.97 1.01,3.142 2.02,6.284 3.029,9.425 0.46,1.43 1.025,2.873 1.343,4.344 0.899,4.149 0.215,8.66 -2.272,12.161 -2.728,3.838 -6.671,6.146 -11.346,6.663 -1.041,0.116 -2.083,0.09 -3.129,0.09 l -14.065,0 H 98.019 69.127 40.195 16.146 1.905 0 C -2.615,10 -5.121,7.7 -5,5 -4.879,2.291 -2.803,0 0,0"
             style="fill:#252b5c;fill-opacity:1;fill-rule:nonzero;stroke:none"
             id="path52" />
        </g>
      </g>
    </g>
  </g>
</svg>
