<?xml version="1.0" encoding="UTF-8" standalone="no"?>
<!-- Created with Inkscape (http://www.inkscape.org/) -->

<svg
   version="1.1"
   id="svg2"
   width="1122.52"
   height="793.70135"
   viewBox="0 0 1122.52 793.70135"
   sodipodi:docname="Ty-Lunch_Picto_Consigne.ai"
   xmlns:inkscape="http://www.inkscape.org/namespaces/inkscape"
   xmlns:sodipodi="http://sodipodi.sourceforge.net/DTD/sodipodi-0.dtd"
   xmlns="http://www.w3.org/2000/svg"
   xmlns:svg="http://www.w3.org/2000/svg">
  <defs
     id="defs6">
    <clipPath
       clipPathUnits="userSpaceOnUse"
       id="clipPath16">
      <path
         d="M 0,595.276 H 841.89 V 0 H 0 Z"
         id="path14" />
    </clipPath>
    <clipPath
       clipPathUnits="userSpaceOnUse"
       id="clipPath100">
      <path
         d="M 0,595.276 H 841.89 V 0 H 0 Z"
         id="path98" />
    </clipPath>
    <clipPath
       clipPathUnits="userSpaceOnUse"
       id="clipPath128">
      <path
         d="M 343.063,407.165 H 478.978 V 291.101 H 343.063 Z"
         id="path126" />
    </clipPath>
    <clipPath
       clipPathUnits="userSpaceOnUse"
       id="clipPath156">
      <path
         d="M 373.703,294.417 H 520.087 V 188.685 H 373.703 Z"
         id="path154" />
    </clipPath>
    <clipPath
       clipPathUnits="userSpaceOnUse"
       id="clipPath188">
      <path
         d="m 286.141,323.919 h 87.567 V 186.57 h -87.567 z"
         id="path186" />
    </clipPath>
  </defs>
  <sodipodi:namedview
     id="namedview4"
     pagecolor="#ffffff"
     bordercolor="#000000"
     borderopacity="0.25"
     inkscape:showpageshadow="2"
     inkscape:pageopacity="0.0"
     inkscape:pagecheckerboard="0"
     inkscape:deskcolor="#d1d1d1" />
  <g
     id="g8"
     inkscape:groupmode="layer"
     inkscape:label="Ty-Lunch_Picto_Consigne"
     transform="matrix(1.3333333,0,0,-1.3333333,0,793.70133)">
    <g
       id="g10">
      <g
         id="g12"
         clip-path="url(#clipPath16)">
        <g
           id="g18"
           transform="translate(461.1254,110.7635)">
          <path
             d="m 0,0 c -92.578,-32.04 -193.6,17.036 -225.64,109.614 -32.04,92.578 17.035,193.6 109.613,225.64 C -23.449,367.294 77.574,318.218 109.614,225.64 141.654,133.062 92.578,32.04 0,0 m 145.836,292.606 c -15.825,-0.243 -30.964,6.45 -41.435,18.318 -58.111,65.864 -150.247,90.111 -233.252,61.384 -83.004,-28.726 -140.442,-104.739 -145.408,-192.433 -0.895,-15.802 -8.659,-30.421 -21.249,-40.012 -18.602,-14.171 -26.005,-38.683 -18.357,-60.783 7.648,-22.099 28.62,-36.791 52.002,-36.432 15.825,0.243 30.964,-6.45 41.435,-18.318 58.112,-65.864 150.247,-90.111 233.252,-61.384 83.005,28.727 140.442,104.739 145.409,192.433 0.895,15.802 8.658,30.421 21.248,40.012 18.602,14.171 26.006,38.683 18.357,60.783 -7.648,22.099 -28.619,36.791 -52.002,36.432"
             style="fill:#040d6a;fill-opacity:1;fill-rule:nonzero;stroke:none"
             id="path20" />
        </g>
      </g>
    </g>
    <text
       xml:space="preserve"
       transform="matrix(0.18197022,0.98330404,0.98330404,-0.18197022,162.1968,302.6216)"
       style="font-variant:normal;font-weight:normal;font-stretch:normal;font-size:63.201px;font-family:'Arial Rounded MT Bold';-inkscape-font-specification:ArialRoundedMTBold;writing-mode:lr-tb;fill:#040d6a;fill-opacity:1;fill-rule:nonzero;stroke:none"
       id="text24"><tspan
         x="0"
         y="0"
         id="tspan22">T</tspan></text>
    <text
       xml:space="preserve"
       transform="matrix(0.29548147,0.95534847,0.95534847,-0.29548147,167.4844,333.1004)"
       style="font-variant:normal;font-weight:normal;font-stretch:normal;font-size:63.2009px;font-family:'Arial Rounded MT Bold';-inkscape-font-specification:ArialRoundedMTBold;writing-mode:lr-tb;fill:#040d6a;fill-opacity:1;fill-rule:nonzero;stroke:none"
       id="text28"><tspan
         x="0"
         y="0"
         id="tspan26">y</tspan></text>
    <text
       xml:space="preserve"
       transform="matrix(0.43209158,0.90182973,0.90182973,-0.43209158,180.9914,373.1335)"
       style="font-variant:normal;font-weight:normal;font-stretch:normal;font-size:63.201px;font-family:'Arial Rounded MT Bold';-inkscape-font-specification:ArialRoundedMTBold;writing-mode:lr-tb;fill:#040d6a;fill-opacity:1;fill-rule:nonzero;stroke:none"
       id="text32"><tspan
         x="0"
         y="0"
         id="tspan30">-</tspan></text>
    <text
       xml:space="preserve"
       transform="matrix(0.5648535,0.8251912,0.8251912,-0.5648535,193.3624,399.1079)"
       style="font-variant:normal;font-weight:normal;font-stretch:normal;font-size:63.201px;font-family:'Arial Rounded MT Bold';-inkscape-font-specification:ArialRoundedMTBold;writing-mode:lr-tb;fill:#040d6a;fill-opacity:1;fill-rule:nonzero;stroke:none"
       id="text36"><tspan
         x="0"
         y="0"
         id="tspan34">L</tspan></text>
    <text
       xml:space="preserve"
       transform="matrix(0.66668621,0.74533851,0.74533851,-0.66668621,210.7052,425.2311)"
       style="font-variant:normal;font-weight:normal;font-stretch:normal;font-size:63.2009px;font-family:'Arial Rounded MT Bold';-inkscape-font-specification:ArialRoundedMTBold;writing-mode:lr-tb;fill:#040d6a;fill-opacity:1;fill-rule:nonzero;stroke:none"
       id="text40"><tspan
         x="0"
         y="0"
         id="tspan38">u</tspan></text>
    <text
       xml:space="preserve"
       transform="matrix(0.75783669,0.65244429,0.65244429,-0.75783669,231.2563,448.8788)"
       style="font-variant:normal;font-weight:normal;font-stretch:normal;font-size:63.201px;font-family:'Arial Rounded MT Bold';-inkscape-font-specification:ArialRoundedMTBold;writing-mode:lr-tb;fill:#040d6a;fill-opacity:1;fill-rule:nonzero;stroke:none"
       id="text44"><tspan
         x="0"
         y="0"
         id="tspan42">n</tspan></text>
    <text
       xml:space="preserve"
       transform="matrix(0.83579448,0.54904243,0.54904243,-0.83579448,254.7489,469.6631)"
       style="font-variant:normal;font-weight:normal;font-stretch:normal;font-size:63.2009px;font-family:'Arial Rounded MT Bold';-inkscape-font-specification:ArialRoundedMTBold;writing-mode:lr-tb;fill:#040d6a;fill-opacity:1;fill-rule:nonzero;stroke:none"
       id="text48"><tspan
         x="0"
         y="0"
         id="tspan46">c</tspan></text>
    <text
       xml:space="preserve"
       transform="matrix(0.89717337,0.44167856,0.44167856,-0.89717337,279.1017,486.2776)"
       style="font-variant:normal;font-weight:normal;font-stretch:normal;font-size:63.2009px;font-family:'Arial Rounded MT Bold';-inkscape-font-specification:ArialRoundedMTBold;writing-mode:lr-tb;fill:#040d6a;fill-opacity:1;fill-rule:nonzero;stroke:none"
       id="text52"><tspan
         x="0"
         y="0"
         id="tspan50">h</tspan></text>
    <text
       xml:space="preserve"
       transform="matrix(0.95453227,0.2981076,0.2981076,-0.95453227,320.6652,505.3898)"
       style="font-variant:normal;font-weight:normal;font-stretch:normal;font-size:63.201px;font-family:'Arial Rounded MT Bold';-inkscape-font-specification:ArialRoundedMTBold;writing-mode:lr-tb;fill:#040d6a;fill-opacity:1;fill-rule:nonzero;stroke:none"
       id="text56"><tspan
         x="0"
         y="0"
         id="tspan54">•</tspan></text>
    <text
       xml:space="preserve"
       transform="matrix(0.99129858,0.13163254,0.13163254,-0.99129858,348.4498,514.5591)"
       style="font-variant:normal;font-weight:normal;font-stretch:normal;font-size:63.2009px;font-family:'Arial Rounded MT Bold';-inkscape-font-specification:ArialRoundedMTBold;writing-mode:lr-tb;fill:#040d6a;fill-opacity:1;fill-rule:nonzero;stroke:none"
       id="text60"><tspan
         x="0"
         y="0"
         id="tspan58">C</tspan></text>
    <text
       xml:space="preserve"
       transform="matrix(0.99991178,-0.01328302,-0.01328302,-0.99991178,387.2151,519.9528)"
       style="font-variant:normal;font-weight:normal;font-stretch:normal;font-size:63.201px;font-family:'Arial Rounded MT Bold';-inkscape-font-specification:ArialRoundedMTBold;writing-mode:lr-tb;fill:#040d6a;fill-opacity:1;fill-rule:nonzero;stroke:none"
       id="text64"><tspan
         x="0"
         y="0"
         id="tspan62">o</tspan></text>
    <text
       xml:space="preserve"
       transform="matrix(0.98969465,-0.14319392,-0.14319392,-0.98969465,418.5448,519.9819)"
       style="font-variant:normal;font-weight:normal;font-stretch:normal;font-size:63.201px;font-family:'Arial Rounded MT Bold';-inkscape-font-specification:ArialRoundedMTBold;writing-mode:lr-tb;fill:#040d6a;fill-opacity:1;fill-rule:nonzero;stroke:none"
       id="text68"><tspan
         x="0"
         y="0"
         id="tspan66">n</tspan></text>
    <text
       xml:space="preserve"
       transform="matrix(0.96462289,-0.26363362,-0.26363362,-0.96462289,449.9541,515.717)"
       style="font-variant:normal;font-weight:normal;font-stretch:normal;font-size:63.201px;font-family:'Arial Rounded MT Bold';-inkscape-font-specification:ArialRoundedMTBold;writing-mode:lr-tb;fill:#040d6a;fill-opacity:1;fill-rule:nonzero;stroke:none"
       id="text72"><tspan
         x="0"
         y="0"
         id="tspan70">s</tspan></text>
    <text
       xml:space="preserve"
       transform="matrix(0.93809635,-0.34637443,-0.34637443,-0.93809635,478.4903,507.7399)"
       style="font-variant:normal;font-weight:normal;font-stretch:normal;font-size:63.201px;font-family:'Arial Rounded MT Bold';-inkscape-font-specification:ArialRoundedMTBold;writing-mode:lr-tb;fill:#040d6a;fill-opacity:1;fill-rule:nonzero;stroke:none"
       id="text76"><tspan
         x="0"
         y="0"
         id="tspan74">i</tspan></text>
    <text
       xml:space="preserve"
       transform="matrix(0.90073857,-0.43436163,-0.43436163,-0.90073857,490.108,504.2768)"
       style="font-variant:normal;font-weight:normal;font-stretch:normal;font-size:63.201px;font-family:'Arial Rounded MT Bold';-inkscape-font-specification:ArialRoundedMTBold;writing-mode:lr-tb;fill:#040d6a;fill-opacity:1;fill-rule:nonzero;stroke:none"
       id="text80"><tspan
         x="0"
         y="0"
         id="tspan78">g</tspan></text>
    <text
       xml:space="preserve"
       transform="matrix(0.83617497,-0.54846278,-0.54846278,-0.83617497,519.6479,490.488)"
       style="font-variant:normal;font-weight:normal;font-stretch:normal;font-size:63.201px;font-family:'Arial Rounded MT Bold';-inkscape-font-specification:ArialRoundedMTBold;writing-mode:lr-tb;fill:#040d6a;fill-opacity:1;fill-rule:nonzero;stroke:none"
       id="text84"><tspan
         x="0"
         y="0"
         id="tspan82">n</tspan></text>
    <text
       xml:space="preserve"
       transform="matrix(0.75903307,-0.65105207,-0.65105207,-0.75903307,546.1593,473.5957)"
       style="font-variant:normal;font-weight:normal;font-stretch:normal;font-size:63.2009px;font-family:'Arial Rounded MT Bold';-inkscape-font-specification:ArialRoundedMTBold;writing-mode:lr-tb;fill:#040d6a;fill-opacity:1;fill-rule:nonzero;stroke:none"
       id="text88"><tspan
         x="0"
         y="0"
         id="tspan86">e</tspan></text>
    <g
       id="g90"
       transform="translate(607.8663,260.7903)">
      <path
         d="M 0,0 H 114.238 Z"
         style="fill:#040d6a;fill-opacity:1;fill-rule:nonzero;stroke:none"
         id="path92" />
    </g>
    <g
       id="g94">
      <g
         id="g96"
         clip-path="url(#clipPath100)">
        <g
           id="g102"
           transform="translate(722.1043,270.7907)">
          <path
             d="m 0,0 h -11.374 -27.309 -33.028 -28.444 c -4.627,0 -9.261,0.077 -13.888,0 -0.065,-0.001 -0.13,0 -0.195,0 -5.231,0 -10.242,-4.6 -10,-10 0.243,-5.418 4.394,-10 10,-10 h 11.374 27.309 33.028 28.444 c 4.627,0 9.261,-0.077 13.888,0 0.065,0.001 0.13,0 0.195,0 5.231,0 10.242,4.6 10,10 C 9.757,-4.582 5.606,0 0,0"
             style="fill:#040d6a;fill-opacity:1;fill-rule:nonzero;stroke:none"
             id="path104" />
        </g>
        <g
           id="g106"
           transform="translate(722.1043,187.3444)">
          <path
             d="M 0,0 H -133.156"
             style="fill:#040d6a;fill-opacity:1;fill-rule:nonzero;stroke:none"
             id="path108" />
        </g>
        <g
           id="g110"
           transform="translate(722.1043,197.3444)">
          <path
             d="m 0,0 h -13.246 -31.809 -38.479 -33.257 c -5.379,0 -10.765,0.083 -16.143,0 -0.074,-0.001 -0.148,0 -0.222,0 -5.231,0 -10.242,-4.6 -10,-10 0.243,-5.418 4.394,-10 10,-10 h 13.246 31.808 38.48 33.257 c 5.379,0 10.765,-0.083 16.143,0 0.074,0.001 0.148,0 0.222,0 5.231,0 10.242,4.6 10,10 C 9.757,-4.582 5.606,0 0,0"
             style="fill:#040d6a;fill-opacity:1;fill-rule:nonzero;stroke:none"
             id="path112" />
        </g>
        <g
           id="g114"
           transform="translate(593.967,225.376)">
          <path
             d="M 0,0 H 161.211"
             style="fill:#040d6a;fill-opacity:1;fill-rule:nonzero;stroke:none"
             id="path116" />
        </g>
        <g
           id="g118"
           transform="translate(593.967,215.376)">
          <path
             d="m 0,0 h 16.037 38.512 46.587 40.265 c 6.511,0 13.03,-0.092 19.541,0 0.09,0.001 0.179,0 0.269,0 5.231,0 10.242,4.6 10,10 -0.243,5.418 -4.394,10 -10,10 H 145.174 106.662 60.074 19.81 C 13.299,20 6.78,20.092 0.269,20 0.179,19.999 0.09,20 0,20 -5.231,20 -10.242,15.4 -10,10 -9.757,4.582 -5.606,0 0,0"
             style="fill:#040d6a;fill-opacity:1;fill-rule:nonzero;stroke:none"
             id="path120" />
        </g>
        <g
           id="g122">
          <g
             id="g124" />
          <g
             id="g140">
            <g
               clip-path="url(#clipPath128)"
               id="g138">
              <g
                 transform="translate(476.1057,321.734)"
                 id="g132">
                <path
                   d="m 0,0 c 2.398,-6.39 2.903,-12.736 2.87,-17.201 -0.022,-2.265 -2.804,-3.332 -4.333,-1.671 -3.013,3.288 -5.818,8.391 -8.677,11.778 -1.265,1.496 -3.629,0.033 -2.859,-1.759 3.86,-9.03 5.718,-15.331 3.332,-16.464 -2.486,-1.188 -6.357,4.377 -11.064,13.021 -0.946,1.738 -3.585,0.781 -3.211,-1.154 0.88,-4.444 3.101,-9.953 3.75,-14.342 0.319,-2.232 -2.266,-3.695 -4.025,-2.287 -3.861,3.09 -9.107,8.171 -12.626,15.056 -0.319,0.638 -0.528,1.309 -0.748,1.98 l -4.135,7.599 -30.728,53.45 c -2.463,5.565 -4.289,9.744 -5.268,12.009 -3.167,7.303 -4.124,9.645 -6.874,11.9 -1.22,1.001 -4.146,3.398 -8.369,3.343 -5.411,-0.066 -8.853,-4.102 -9.436,-4.806 2.903,3.861 6.522,7.138 10.679,9.634 5.62,3.388 12.218,5.345 19.268,5.345 10.58,0 22.359,-4.41 26.945,-11.459 L -3.189,5.576 C -1.903,3.849 -0.748,2.024 0,0"
                   style="fill:#4fa020;fill-opacity:1;fill-rule:nonzero;stroke:none"
                   id="path130" />
              </g>
              <g
                 transform="translate(403.6517,369.7397)"
                 id="g136">
                <path
                   d="m 0,0 -19.862,-36.117 c -0.979,-1.694 -2.794,-2.738 -4.751,-2.738 h -30.475 c -4.234,0 -6.874,4.575 -4.751,8.237 l 29.892,53.065 c 0.583,0.704 4.025,4.74 9.436,4.806 4.223,0.055 7.149,-2.343 8.369,-3.344 2.75,-2.254 3.707,-4.597 6.874,-11.899 C -4.289,9.744 -2.464,5.565 0,0"
                   style="fill:#c5ed77;fill-opacity:1;fill-rule:nonzero;stroke:none"
                   id="path134" />
              </g>
            </g>
          </g>
        </g>
        <g
           id="g142"
           transform="translate(373.7045,392.1863)">
          <path
             d="m 0,0 c 2.903,3.86 6.522,7.138 10.679,9.634 5.62,3.387 12.219,5.345 19.268,5.345 10.58,0 22.359,-4.41 26.945,-11.46 l 42.32,-68.395 c 1.287,-1.727 2.441,-3.553 3.189,-5.576 2.398,-6.39 2.904,-12.736 2.871,-17.201 -0.022,-2.266 -2.805,-3.332 -4.334,-1.672 -3.013,3.289 -5.817,8.392 -8.677,11.779 -1.265,1.496 -3.629,0.033 -2.859,-1.76 3.86,-9.029 5.719,-15.331 3.332,-16.463 -2.485,-1.188 -6.357,4.377 -11.064,13.021 -0.946,1.738 -3.585,0.781 -3.211,-1.155 0.88,-4.443 3.101,-9.953 3.75,-14.341 0.319,-2.233 -2.266,-3.695 -4.025,-2.287 -3.86,3.09 -9.106,8.171 -12.626,15.056 -0.319,0.637 -0.528,1.308 -0.748,1.979 l -4.135,7.6 -30.728,53.449 -19.862,-36.117 c -0.979,-1.693 -2.793,-2.738 -4.751,-2.738 h -30.475 c -4.234,0 -6.874,4.575 -4.751,8.237 z"
             style="fill:none;stroke:#007203;stroke-width:4;stroke-linecap:butt;stroke-linejoin:miter;stroke-miterlimit:10;stroke-dasharray:none;stroke-opacity:1"
             id="path144" />
        </g>
        <g
           id="g146"
           transform="translate(403.6517,369.7397)">
          <path
             d="m 0,0 c -2.464,5.565 -4.289,9.744 -5.268,12.01 -3.167,7.302 -4.124,9.645 -6.874,11.899 -1.22,1.001 -4.146,3.399 -8.369,3.344 -5.411,-0.066 -8.853,-4.102 -9.436,-4.806"
             style="fill:none;stroke:#007203;stroke-width:4;stroke-linecap:butt;stroke-linejoin:miter;stroke-miterlimit:10;stroke-dasharray:none;stroke-opacity:1"
             id="path148" />
        </g>
        <g
           id="g150">
          <g
             id="g152" />
          <g
             id="g168">
            <g
               clip-path="url(#clipPath156)"
               id="g166">
              <g
                 transform="translate(520.0751,226.9764)"
                 id="g160">
                <path
                   d="m 0,0 c 0.165,-6.566 -1.408,-13.263 -4.883,-19.389 -5.235,-9.205 -13.769,-15.342 -23.272,-17.773 -1.242,-0.33 -2.364,-0.473 -3.398,-0.473 -8.446,0 -11.658,9.546 -35.831,6.731 -6.335,-0.737 -21.875,-9.722 -33.213,-6.808 -14.067,3.608 -46.983,16.497 -45.741,24.449 1.331,8.468 20.808,11.503 47.258,12.042 l 61.654,0.319 c 6.06,-0.616 10.602,-1.1 13.055,-1.364 7.907,-0.846 10.415,-1.165 13.736,0.11 1.474,0.561 5.004,1.925 7.039,5.62 2.419,4.377 1.055,8.986 0.583,10.327 C -1.144,9.436 -0.132,4.751 0,0"
                   style="fill:#4fa020;fill-opacity:1;fill-rule:nonzero;stroke:none"
                   id="path158" />
              </g>
              <g
                 transform="translate(517.0617,240.7677)"
                 id="g164">
                <path
                   d="m 0,0 c 0.473,-1.342 1.837,-5.95 -0.583,-10.327 -2.034,-3.695 -5.565,-5.059 -7.039,-5.62 -3.321,-1.276 -5.828,-0.957 -13.736,-0.11 -2.452,0.264 -6.994,0.748 -13.054,1.364 l -19.906,33.576 c -0.99,1.694 -1.001,3.784 -0.033,5.488 l 15.056,26.494 c 2.089,3.684 7.379,3.717 9.513,0.066 L -0.099,0.253 C -0.066,0.165 -0.022,0.088 0,0"
                   style="fill:#c5ed77;fill-opacity:1;fill-rule:nonzero;stroke:none"
                   id="path162" />
              </g>
            </g>
          </g>
        </g>
        <g
           id="g170"
           transform="translate(517.0617,240.7677)">
          <path
             d="m 0,0 c 1.87,-4.355 2.881,-9.04 3.013,-13.791 0.165,-6.566 -1.407,-13.264 -4.883,-19.39 -5.235,-9.205 -13.769,-15.342 -23.271,-17.772 -1.243,-0.33 -2.365,-0.473 -3.398,-0.473 -8.447,0 -11.658,9.546 -35.832,6.731 -6.334,-0.737 -21.874,-9.722 -33.213,-6.808 -14.066,3.607 -46.983,16.497 -45.74,24.448 1.331,8.469 20.808,11.504 47.258,12.043 l 61.654,0.319 c 6.06,-0.616 10.602,-1.1 13.054,-1.364 7.908,-0.847 10.415,-1.166 13.736,0.11 1.474,0.561 5.005,1.925 7.039,5.62 C 1.837,-5.95 0.473,-1.342 0,0"
             style="fill:none;stroke:#007203;stroke-width:4;stroke-linecap:butt;stroke-linejoin:miter;stroke-miterlimit:10;stroke-dasharray:none;stroke-opacity:1"
             id="path172" />
        </g>
        <g
           id="g174"
           transform="translate(517.0617,240.7677)">
          <path
             d="M 0,0 C -0.022,0.088 -0.066,0.165 -0.099,0.253"
             style="fill:none;stroke:#007203;stroke-width:4;stroke-linecap:butt;stroke-linejoin:miter;stroke-miterlimit:10;stroke-dasharray:none;stroke-opacity:1"
             id="path176" />
        </g>
        <g
           id="g178"
           transform="translate(482.6494,226.0746)">
          <path
             d="m 0,0 -19.906,33.576 c -0.99,1.694 -1.001,3.784 -0.033,5.488 l 15.056,26.494 c 2.09,3.685 7.38,3.718 9.513,0.066 L 34.313,14.946"
             style="fill:none;stroke:#007203;stroke-width:4;stroke-linecap:butt;stroke-linejoin:miter;stroke-miterlimit:10;stroke-dasharray:none;stroke-opacity:1"
             id="path180" />
        </g>
        <g
           id="g182">
          <g
             id="g184" />
          <g
             id="g200">
            <g
               clip-path="url(#clipPath188)"
               id="g198">
              <g
                 transform="translate(372.9347,195.3246)"
                 id="g192">
                <path
                   d="m 0,0 c 2.156,-3.64 -0.451,-8.248 -4.685,-8.281 l -48.842,-0.473 c -0.044,0.011 -0.099,0.011 -0.154,0.022 -0.066,0 -0.143,0.011 -0.209,0.033 -1.484,0.297 -6.026,1.429 -8.567,5.631 -2.188,3.607 -1.617,7.346 -1.375,8.908 0.55,3.508 2.079,5.521 6.753,11.966 2.574,3.541 5.015,7.17 7.677,10.645 l 29.144,0.495 c 1.958,0.022 3.772,-1.011 4.773,-2.694 z"
                   style="fill:#c5ed77;fill-opacity:1;fill-rule:nonzero;stroke:none"
                   id="path190" />
              </g>
              <g
                 transform="translate(359.1324,322.4049)"
                 id="g196">
                <path
                   d="m 0,0 c 10.217,-5.73 10.91,-26.582 1.793,-38.02 -2.794,-3.497 -6.159,-5.686 -9.052,-7.082 -1.055,-0.506 -1.979,-1.254 -2.661,-2.222 -0.792,-1.122 -1.749,-2.54 -2.42,-3.926 -3.002,-6.214 -3.618,-11.526 -3.904,-13.384 -1.639,-10.899 -9.513,-21.149 -19.356,-33.995 -2.662,-3.475 -5.103,-7.104 -7.677,-10.646 -4.674,-6.445 -6.202,-8.457 -6.752,-11.965 -0.242,-1.562 -0.814,-5.301 1.374,-8.909 2.541,-4.201 7.083,-5.334 8.568,-5.631 -4.663,0.561 -9.205,1.991 -13.352,4.246 -5.785,3.123 -10.811,7.808 -14.396,13.879 -1.968,3.343 -3.365,6.863 -4.212,10.448 -1.903,8.105 -0.484,14.737 0.385,18.586 1.221,5.433 2.727,7.402 9.689,20.082 18.091,32.906 16.893,17.74 23.81,28.859 1.947,3.145 3.388,14.121 3.388,16.738 0,0 0.209,2.112 1.275,4.873 C -30.475,-10.195 -11.801,6.632 0,0"
                   style="fill:#4fa020;fill-opacity:1;fill-rule:nonzero;stroke:none"
                   id="path194" />
              </g>
            </g>
          </g>
        </g>
        <g
           id="g202"
           transform="translate(319.4081,186.5703)">
          <path
             d="m 0,0 48.842,0.473 c 4.234,0.033 6.84,4.641 4.685,8.281 L 38.042,35.006 c -1.001,1.683 -2.816,2.717 -4.773,2.695 L 4.124,37.206"
             style="fill:none;stroke:#007203;stroke-width:4;stroke-linecap:butt;stroke-linejoin:miter;stroke-miterlimit:10;stroke-dasharray:none;stroke-opacity:1"
             id="path204" />
        </g>
        <g
           id="g206"
           transform="translate(319.0452,186.6252)">
          <path
             d="m 0,0 c -1.485,0.297 -6.027,1.43 -8.567,5.631 -2.189,3.607 -1.617,7.346 -1.375,8.908 0.55,3.509 2.079,5.521 6.753,11.966 2.573,3.541 5.015,7.17 7.676,10.646 9.843,12.845 17.718,23.095 19.356,33.994 0.286,1.859 0.902,7.171 3.905,13.385 0.67,1.385 1.627,2.804 2.419,3.926 0.682,0.968 1.606,1.716 2.662,2.221 2.892,1.397 6.257,3.586 9.051,7.083 9.117,11.438 8.424,32.29 -1.793,38.02 C 28.286,142.411 9.612,125.585 6.588,117.71 5.521,114.95 5.312,112.838 5.312,112.838 5.312,110.221 3.871,99.245 1.925,96.099 -4.993,84.98 -3.794,100.147 -21.886,67.241 -28.847,54.56 -30.354,52.592 -31.575,47.159 -32.444,43.31 -33.862,36.678 -31.96,28.572 c 0.847,-3.585 2.244,-7.104 4.212,-10.448 3.586,-6.07 8.612,-10.755 14.397,-13.879 C -9.205,1.991 -4.663,0.561 0,0"
             style="fill:none;stroke:#007203;stroke-width:4;stroke-linecap:butt;stroke-linejoin:miter;stroke-miterlimit:10;stroke-dasharray:none;stroke-opacity:1"
             id="path208" />
        </g>
        <g
           id="g210"
           transform="translate(319.0452,186.6252)">
          <path
             d="m 0,0 c 0.066,-0.022 0.143,-0.033 0.209,-0.033 0.055,-0.011 0.11,-0.011 0.154,-0.022"
             style="fill:none;stroke:#007203;stroke-width:4;stroke-linecap:butt;stroke-linejoin:miter;stroke-miterlimit:10;stroke-dasharray:none;stroke-opacity:1"
             id="path212" />
        </g>
      </g>
    </g>
  </g>
</svg>
