<svg width="161" height="159" viewBox="0 0 161 159" fill="none" xmlns="http://www.w3.org/2000/svg">
<path d="M155.445 126.741C152.798 121.556 152.574 115.481 154.848 110.111C167.339 80.3704 160.553 46.0741 137.586 23.2593C114.618 0.481482 80.0927 -6.2963 50.1532 6.14815C44.747 8.37037 38.6323 8.18519 33.4125 5.55556C25.6946 1.7037 16.3734 3.18519 10.2588 9.25926C4.14409 15.3333 2.6527 24.5926 6.5303 32.2593C9.1775 37.4444 9.40121 43.5185 7.12685 48.8889C-5.36348 78.6296 1.42231 112.926 24.3896 135.741C47.3569 158.556 81.8824 165.296 111.822 152.889C117.228 150.667 123.343 150.852 128.563 153.481C136.281 157.333 145.602 155.852 151.716 149.778C157.831 143.704 159.322 134.407 155.445 126.741ZM34.9411 125.259C9.51306 100 9.51306 59.037 34.9411 33.7407C60.3692 8.48148 101.606 8.48148 127.071 33.7407C152.499 59 152.499 99.963 127.071 125.259C101.643 150.556 60.3692 150.519 34.9411 125.259Z" fill="#040D6A"/>
</svg>
