<svg width="44" height="36" viewBox="0 0 44 36" fill="none" xmlns="http://www.w3.org/2000/svg">
<path d="M22.0491 35.6939C15.1138 35.8347 8.59045 31.6983 5.79336 25.0753C5.24643 23.7749 4.33462 22.8941 3.00379 22.4402C1.16743 21.8155 0.0123509 20.2177 0.000101782 18.3254C-0.0122788 16.3928 1.10554 14.7704 2.95647 14.0794C4.29819 13.5811 5.18163 12.6623 5.75899 11.3509C8.319 5.52172 12.6795 1.83262 18.9014 0.650531C25.0212 -0.513096 30.3206 1.26587 34.7093 5.64597C36.2389 7.17224 37.3843 8.98371 38.2219 10.9846C38.7591 12.268 39.6739 13.1323 40.9949 13.5764C42.8325 14.1944 43.995 15.8178 44 17.731C44.0062 19.6276 42.8556 21.2805 41.0441 21.9391C39.7151 22.4231 38.8133 23.3214 38.2542 24.6264C36.0846 29.7104 32.3888 33.127 27.1667 34.8761C25.5136 35.4257 23.7851 35.7019 22.0491 35.6939ZM7.66187 18.5766C7.91983 26.6061 14.5221 32.7373 22.5708 32.4193C30.3147 32.1132 36.5603 25.3373 36.3437 17.4792C36.1237 9.5281 29.4785 3.26957 21.5904 3.58611C13.6676 3.90372 7.40726 10.6412 7.66187 18.5766Z" fill="#020D6F"/>
<path d="M22.5 9.30273C21.1193 9.30273 20 10.422 20 11.8027V16.3027H15.5C14.1193 16.3027 13 17.422 13 18.8027C13 20.1834 14.1193 21.3027 15.5 21.3027H20V24.8027C20 26.1834 21.1193 27.3027 22.5 27.3027C23.8807 27.3027 25 26.1834 25 24.8027V21.3027H28.5C29.8807 21.3027 31 20.1834 31 18.8027C31 17.422 29.8807 16.3027 28.5 16.3027H25V11.8027C25 10.422 23.8807 9.30273 22.5 9.30273Z" fill="#F1C759"/>
</svg>
