<?xml version="1.0" encoding="UTF-8"?><svg id="Layer_2" xmlns="http://www.w3.org/2000/svg" viewBox="0 0 254.1 222.31"><defs><style>.cls-1,.cls-2,.cls-3,.cls-4,.cls-5,.cls-6,.cls-7,.cls-8,.cls-9,.cls-10{stroke-width:0px;}.cls-1,.cls-5{fill:#ea5183;}.cls-1,.cls-11{opacity:.48;}.cls-2{fill:#f3cdcd;}.cls-3{fill:#ec6518;}.cls-4{fill:#252b5c;}.cls-6{fill:#fff;}.cls-7{fill:#f7db63;}.cls-8{fill:#c3d878;}.cls-9{fill:#b4b6dc;}.cls-10{fill:#252b5b;}</style></defs><g id="Personnage"><rect class="cls-4" x="181.04" y="162.97" width="53.7" height="7.32" rx="2.36" ry="2.36"/><rect class="cls-4" x="177.69" y="178.59" width="43.68" height="7.32" rx="2.36" ry="2.36"/><path class="cls-4" d="M70.25,142.19v17.1s9.51,0,9.51,0c.76,0,1.34.19,1.75.56.41.37.61.84.61,1.41,0,.58-.2,1.04-.6,1.4-.4.36-.98.54-1.75.54h-11.33c-1.02,0-1.76-.23-2.2-.69-.45-.46-.67-1.2-.67-2.23v-18.09c0-.96.21-1.68.64-2.16.43-.48.99-.72,1.68-.72.71,0,1.28.24,1.71.71.44.48.66,1.2.66,2.17Z"/><path class="cls-4" d="M96.09,161.13v-.56c-.52.66-1.06,1.22-1.63,1.67-.57.45-1.19.78-1.86,1s-1.44.33-2.31.33c-1.04,0-1.98-.22-2.8-.66-.83-.44-1.47-1.04-1.92-1.81-.54-.93-.81-2.26-.81-4.01v-8.67c0-.88.19-1.53.58-1.96s.91-.65,1.55-.65c.65,0,1.18.22,1.58.66.4.44.6,1.09.6,1.95v7c0,1.01.08,1.87.25,2.56.17.69.47,1.23.91,1.62.44.39,1.03.58,1.78.58.73,0,1.41-.22,2.05-.66.64-.44,1.11-1.01,1.41-1.71.24-.62.36-1.98.36-4.07v-5.32c0-.87.2-1.52.6-1.96.4-.44.92-.66,1.56-.66.64,0,1.16.22,1.55.65.39.43.58,1.09.58,1.96v12.68c0,.83-.19,1.46-.56,1.87-.37.42-.86.62-1.45.62-.59,0-1.08-.22-1.46-.65s-.58-1.04-.58-1.82Z"/><path class="cls-4" d="M108.35,148.23v.53c.76-1.01,1.59-1.76,2.49-2.24.9-.48,1.94-.71,3.1-.71,1.14,0,2.15.25,3.05.75.9.5,1.56,1.21,2.01,2.13.28.53.47,1.11.55,1.73.08.62.13,1.41.13,2.37v8.14c0,.88-.2,1.54-.59,1.99-.39.45-.91.67-1.54.67-.64,0-1.16-.23-1.56-.69-.4-.46-.6-1.12-.6-1.97v-7.29c0-1.44-.2-2.55-.59-3.31s-1.18-1.15-2.36-1.15c-.77,0-1.47.23-2.1.7-.63.46-1.1,1.1-1.39,1.91-.21.65-.32,1.87-.32,3.65v5.48c0,.89-.2,1.55-.61,2-.41.44-.93.67-1.57.66-.62,0-1.13-.23-1.53-.69s-.6-1.12-.6-1.97v-12.64c0-.83.18-1.46.54-1.87.36-.41.85-.62,1.47-.62.38,0,.72.09,1.03.27.31.18.55.45.73.82s.28.81.28,1.33Z"/><path class="cls-4" d="M139.45,158.18c0,.54-.16,1.13-.48,1.75-.32.62-.81,1.21-1.47,1.77-.66.56-1.49,1.01-2.49,1.35-1,.34-2.13.51-3.38.51-2.66,0-4.74-.79-6.24-2.36-1.5-1.58-2.24-3.69-2.24-6.34,0-1.79.34-3.38,1.03-4.76.68-1.38,1.67-2.44,2.97-3.2,1.3-.75,2.84-1.13,4.64-1.13,1.12,0,2.14.17,3.07.5.93.33,1.72.76,2.37,1.28.65.52,1.14,1.08,1.49,1.67.34.59.51,1.15.51,1.66,0,.52-.19.97-.58,1.33-.38.36-.85.54-1.4.54-.36,0-.66-.09-.89-.28s-.5-.49-.8-.91c-.53-.81-1.08-1.42-1.65-1.83-.57-.41-1.3-.61-2.19-.61-1.27,0-2.3.5-3.08,1.51s-1.17,2.39-1.17,4.14c0,.82.1,1.58.3,2.27.2.69.49,1.28.87,1.76.38.49.84.85,1.37,1.11.54.25,1.13.38,1.77.38.86,0,1.6-.2,2.22-.61s1.16-1.03,1.64-1.86c.26-.49.55-.88.85-1.15.31-.28.68-.42,1.12-.42.53,0,.96.2,1.31.61.35.41.52.84.52,1.3Z"/><path class="cls-4" d="M146.62,141.96v6.49c.55-.64,1.08-1.15,1.6-1.52.52-.37,1.1-.65,1.73-.84.63-.19,1.31-.28,2.04-.28,1.1,0,2.07.24,2.91.71.85.47,1.51,1.15,2,2.05.31.52.51,1.11.62,1.75.11.65.16,1.39.16,2.24v8.38c0,.88-.2,1.54-.59,1.99-.39.45-.92.67-1.57.67-1.42,0-2.13-.89-2.13-2.66v-7.39c0-1.4-.21-2.48-.62-3.23s-1.19-1.13-2.34-1.13c-.77,0-1.46.22-2.08.66-.62.44-1.08,1.05-1.38,1.82-.23.65-.35,1.81-.35,3.48v5.78c0,.87-.19,1.52-.58,1.98-.38.45-.92.68-1.6.68-1.42,0-2.13-.89-2.13-2.66v-18.97c0-.89.19-1.55.56-2,.37-.44.9-.67,1.57-.67.68,0,1.22.22,1.6.67.38.45.58,1.11.58,1.99Z"/><rect class="cls-4" x="184.78" y="147.35" width="69.32" height="7.32" rx="2.36" ry="2.36"/><path class="cls-4" d="M17.28,143.41h-5.12s0,17.07,0,17.07c0,.98-.22,1.71-.65,2.19-.43.48-.99.71-1.67.71-.7,0-1.26-.24-1.7-.72-.44-.48-.66-1.21-.66-2.18v-17.07s-5.12,0-5.12,0c-.8,0-1.4-.18-1.79-.54-.39-.36-.58-.83-.58-1.42,0-.61.2-1.09.61-1.44.41-.35.99-.53,1.76-.53h14.91c.81,0,1.41.18,1.81.54.39.36.59.84.59,1.43,0,.59-.2,1.06-.6,1.42-.4.36-1,.54-1.8.54Z"/><path class="cls-4" d="M24.91,163.92l.39-.98-5.31-13.56c-.33-.78-.49-1.35-.49-1.7,0-.37.09-.72.28-1.04.19-.32.45-.58.78-.77.33-.19.68-.29,1.03-.29.62,0,1.09.2,1.41.6.32.4.6.97.84,1.72l3.65,10.77,3.46-10.02c.27-.81.52-1.45.74-1.91.22-.46.46-.77.7-.93s.6-.24,1.05-.24c.33,0,.64.09.94.26.3.18.53.41.7.71.16.3.24.61.24.95-.04.2-.11.49-.21.87-.09.37-.21.75-.35,1.14l-5.62,14.93c-.48,1.31-.96,2.34-1.42,3.09-.46.75-1.08,1.32-1.84,1.72-.76.4-1.79.6-3.09.6-1.26,0-2.21-.14-2.84-.42-.63-.28-.95-.79-.95-1.52,0-.5.15-.89.45-1.16.3-.27.75-.41,1.34-.41.23,0,.46.03.68.1.27.06.51.1.71.1.5,0,.88-.07,1.17-.22.28-.15.54-.41.77-.78s.49-.91.78-1.63Z"/><path class="cls-5" d="M103.97,124.55c.89.11.77,1.22,2.98,3.69,2.04,2.29,3.43,2.79,3.33,3.96-.07.8-.79,1.34-2.15,2.34-1.63,1.21-2.78,1.54-3.69,2.02-3.02,1.57-2.52,3.89-5.65,6.94-1.98,1.92-5.18,3.91-6.08,3.16-.77-.64,3.88-6.22,4.68-10.15,1.45-7.12,5.03-12.16,6.58-11.97Z"/><path class="cls-6" d="M93.25,147.1c-.29,0-.53-.07-.72-.23-.52-.43.07-1.47,1.44-3.77,1.21-2.04,2.73-4.58,3.15-6.64,1.39-6.85,4.95-12.44,6.89-12.19.59.07.83.48,1.23,1.14.34.58.87,1.46,1.92,2.64.75.84,1.41,1.44,1.95,1.92.92.83,1.53,1.38,1.45,2.25-.08.93-.86,1.5-2.26,2.54-1.21.9-2.17,1.33-2.95,1.67-.28.13-.54.24-.78.37-1.58.82-2.14,1.85-2.85,3.14-.6,1.1-1.28,2.34-2.73,3.75-1.39,1.35-4.17,3.4-5.73,3.4ZM103.87,124.82c-1.35,0-4.8,4.81-6.21,11.75-.44,2.15-1.98,4.74-3.21,6.82-.73,1.23-1.65,2.77-1.54,3.08.63.51,3.56-1.11,5.69-3.17,1.38-1.34,2.05-2.55,2.63-3.61.73-1.33,1.35-2.47,3.09-3.37.25-.13.52-.25.81-.38.75-.33,1.68-.75,2.84-1.61,1.32-.98,1.98-1.46,2.04-2.14.05-.57-.35-.96-1.27-1.79-.54-.49-1.22-1.1-1.99-1.96-1.09-1.22-1.63-2.13-1.99-2.73-.38-.63-.51-.84-.82-.88h0s-.04,0-.06,0Z"/><path class="cls-3" d="M97.31,128.24c-8.78-5.86-21.05-28.91-13.82-42.06,2.23-4.05,11.2-6.31,29.07-10.65,17.57-4.27,18.69-1.75,21.03,1.23,3.37,4.3,5.94,11.65,1.84,16.71-4.29,5.29-10.72,6.58-18.71,6.03-8.55-.59-20.12-6.79-21.12-4.91-1.4,2.63-.35,7.13,3.5,14.98,1.91,3.88,5.54,8.54,6.29,14.79.23,1.89-.85,4.32-1.88,5.57-1.33,1.61-5.02-.9-6.19-1.68Z"/><path class="cls-6" d="M102.24,130.73c-1.71,0-4.01-1.53-5.03-2.22l-.06-.04c-4.6-3.07-9.83-10.47-13.02-18.42-2.22-5.53-5.28-16.01-.89-24,2.24-4.07,10.58-6.25,29.24-10.79,17.07-4.15,18.83-1.88,21.05.99l.27.34c3.71,4.73,5.87,12.08,1.84,17.06-3.94,4.87-9.79,6.76-18.95,6.13-4.35-.3-9.47-2.04-13.59-3.44-3.39-1.15-6.89-2.34-7.27-1.62-1.36,2.55-.31,6.95,3.51,14.72.48.97,1.07,2,1.69,3.08,1.9,3.31,4.06,7.07,4.63,11.79.23,1.94-.83,4.43-1.95,5.78-.37.45-.89.63-1.47.63ZM126.45,73.54c-2.86,0-7.14.63-13.83,2.26-17.2,4.18-26.67,6.49-28.89,10.52-7.03,12.78,4.9,35.8,13.73,41.69l.06.04c3.06,2.05,5,2.62,5.77,1.7,1.06-1.28,2.03-3.63,1.82-5.35-.56-4.61-2.68-8.31-4.56-11.58-.63-1.09-1.22-2.13-1.71-3.12-3.9-7.95-4.95-12.5-3.5-15.23.58-1.09,3.12-.29,7.94,1.35,4.08,1.39,9.16,3.11,13.44,3.41,8.96.62,14.66-1.21,18.48-5.92,3.84-4.74,1.73-11.81-1.85-16.37l-.27-.34c-1.26-1.63-2.36-3.05-6.64-3.05Z"/><path class="cls-5" d="M109.87,128.17c.89.11.77,1.22,2.98,3.69,2.04,2.29,3.43,2.79,3.33,3.96-.07.8-.79,1.34-2.15,2.34-1.63,1.21-2.78,1.54-3.69,2.02-3.02,1.57-2.52,3.89-5.65,6.94-1.98,1.92-5.18,3.91-6.08,3.16-.77-.64,3.88-6.22,4.68-10.15,1.45-7.12,5.03-12.16,6.58-11.97Z"/><path class="cls-6" d="M99.16,150.72c-.29,0-.53-.07-.72-.23-.52-.43.07-1.47,1.44-3.77,1.21-2.04,2.73-4.59,3.15-6.64,1.39-6.85,4.94-12.44,6.89-12.19.59.07.83.48,1.23,1.14.34.58.87,1.46,1.92,2.64.75.84,1.41,1.44,1.95,1.92.92.83,1.53,1.38,1.45,2.25-.08.93-.86,1.5-2.26,2.54-1.21.9-2.18,1.33-2.95,1.67-.28.13-.54.24-.78.37-1.58.82-2.14,1.85-2.85,3.14-.6,1.1-1.28,2.34-2.73,3.75-1.39,1.35-4.17,3.4-5.73,3.4ZM109.77,128.44c-1.35,0-4.8,4.81-6.21,11.75-.44,2.15-1.98,4.74-3.21,6.82-.73,1.23-1.65,2.77-1.54,3.08.63.51,3.56-1.11,5.69-3.17,1.38-1.34,2.05-2.55,2.63-3.61.73-1.33,1.35-2.47,3.09-3.37.25-.13.52-.25.81-.38.75-.33,1.68-.75,2.84-1.61,1.32-.98,1.98-1.47,2.04-2.14.05-.57-.35-.96-1.27-1.79-.54-.49-1.22-1.1-1.99-1.96-1.09-1.22-1.63-2.13-1.99-2.73-.38-.63-.51-.84-.82-.88-.02,0-.04,0-.06,0Z"/><path class="cls-7" d="M132.69,45.21c-.77-.01-3.63-.16-8.06-.17-1.61,0-2.71-.09-4.37-.09,0,0-3.15-.19-5.74-.66-4.02-.74-15.86-5.81-17.23-16.46-.54-4.2.47-8.68,2.4-12.22.15-3.71,4.32-8.59,8.05-11.25,6.85-4.9,17.59-6.15,24.17-1.29,6.78,5,4.01,12.67,9.51,15.43,9.03,4.53,23.61-12.32,26.74-9.51,2.49,2.23-4.23,15.16-13.27,24.13-8.09,8.02-17.34,12.16-22.21,12.09Z"/><path class="cls-8" d="M134.91,41.98c-2.91-1.22-7.7-2.57-13.86-2.08-2.37.19-4.77,1.36-6.32,1.74-.56.14-2.11-.09-2.7.06-3.48.91-5.69,5.28-12.52,12.41-3.16,3.3-7.6,9.18-17.5,13.81-5.02,2.34-6.58,7.53-5.96,9.59.66,2.2,6.28,3.12,7.12,3.17,7.65.49,15.76-6.56,16.34-7.07,2.58-2.28,4.28-4.51,5.71-3.41,1.49,1.15.89,4.58,2.06,8.05,1.89,5.61,9.22,7.34,12.68,8.29,3.32.91,13.86,3.8,21.13-2.23,8.58-7.13,6.06-22,3.09-28.11-.65-1.34-4.22-6.8-5.17-9.12-.76-1.86-.72-3.68-4.09-5.09Z"/><path class="cls-6" d="M135.02,41.59c-3.7-1.53-7.73-2.24-11.72-2.19-1.24.01-2.49.06-3.7.32s-2.29.65-3.41,1.04c-.89.31-1.65.55-2.6.51-.72-.03-1.4-.06-2.09.18-2.43.86-4.16,3.14-5.77,5.03-2.53,2.98-5.15,5.86-7.79,8.74-2.17,2.38-4.4,4.68-6.92,6.7-1.74,1.39-3.6,2.64-5.53,3.75s-4.13,1.89-5.9,3.29c-2.24,1.77-4.2,4.8-4.05,7.77.14,2.79,3.72,3.62,5.94,4.08,6.33,1.3,12.81-2.43,17.57-6.29,1.08-.88,2.06-1.86,3.08-2.8.57-.52,1.45-1.46,2.31-1.42s1.17,1.1,1.33,1.79c.5,2.22.43,4.51,1.28,6.66.62,1.57,1.69,2.9,3,3.95,2.46,1.98,5.53,3.02,8.54,3.85,2.45.68,4.89,1.31,7.42,1.62,3.68.46,7.54.31,11.03-1.06s6.31-3.87,8.04-7.17c3.11-5.95,2.78-13.42,1.02-19.73-.36-1.27-.79-2.53-1.33-3.74-.5-1.12-1.18-2.17-1.82-3.22-.9-1.5-1.82-2.99-2.66-4.52-.68-1.24-1.09-2.52-1.63-3.82-.67-1.63-1.95-2.62-3.54-3.3-.46-.2-.87.48-.4.68,1.72.74,2.83,1.76,3.44,3.54.44,1.29.98,2.47,1.64,3.66.83,1.48,1.71,2.93,2.59,4.38.59.98,1.22,1.96,1.69,3.01,1.16,2.6,1.84,5.45,2.21,8.26.44,3.33.43,6.77-.33,10.05-.77,3.33-2.38,6.45-5.01,8.69-3.03,2.58-6.98,3.65-10.89,3.72-3.01.05-6-.43-8.9-1.18-2.53-.66-5.1-1.32-7.47-2.43-1.49-.7-2.92-1.58-4.07-2.76-1.4-1.43-2.1-3.18-2.47-5.13-.2-1.09-.3-2.2-.45-3.29-.11-.78-.25-1.63-.68-2.32-.84-1.34-2.22-1.1-3.35-.28-1.34.98-2.45,2.25-3.71,3.32-.8.68-1.63,1.31-2.49,1.9-2.96,2.07-6.28,3.86-9.85,4.57-2.8.56-5.79.17-8.38-1.05-1.12-.54-1.94-1.2-1.93-2.51s.51-2.71,1.17-3.88c.9-1.59,2.22-2.92,3.8-3.85.96-.56,2.01-.99,2.99-1.51,1.05-.55,2.09-1.14,3.09-1.77,3.1-1.94,5.93-4.26,8.49-6.87,2.24-2.28,4.42-4.66,6.54-7.04,2.26-2.53,4.29-5.37,6.78-7.68.76-.71,1.61-1.36,2.61-1.69.72-.24,1.48-.11,2.23-.1.83,0,1.59-.28,2.36-.55,1.08-.38,2.17-.77,3.29-1.02,1.26-.28,2.58-.31,3.86-.31,2.23,0,4.46.23,6.64.71,1.58.35,3.12.84,4.61,1.46.47.2.68-.57.21-.76Z"/><path class="cls-2" d="M117.6,33.69c-.65,2.17,1.31,3.71.64,6.33-.24.94-.58,1.12-.47,1.76.25,1.4,2.29,2.51,3.94,2.56,2.91.09,5.57-3.05,5.14-5.02-.26-1.17-1.41-.99-2.42-2.79-1.18-2.1-.33-3.63-1.46-4.73-1.14-1.11-2.97-.46-3.16-.39-.23.09-1.74.67-2.22,2.28Z"/><path class="cls-4" d="M121.85,44.41s-.09,0-.13,0c-1.68-.05-3.75-1.18-4.01-2.62-.07-.4.03-.63.17-.95.09-.21.2-.46.3-.83.34-1.33,0-2.38-.34-3.39-.32-.97-.62-1.88-.3-2.95.46-1.55,1.85-2.17,2.26-2.32.21-.08,2.07-.72,3.23.41.59.57.66,1.26.74,2.05.08.78.16,1.66.74,2.69.51.9,1.06,1.31,1.5,1.63.45.33.8.58.93,1.18.19.87-.2,2-1.04,3.02-.84,1.02-2.34,2.08-4.04,2.08ZM117.6,33.69l.07.02c-.31,1.03-.01,1.92.3,2.87.34,1.03.69,2.09.35,3.46-.1.38-.21.64-.31.85-.14.31-.23.51-.16.87.25,1.37,2.25,2.45,3.88,2.5.04,0,.08,0,.12,0,1.65,0,3.11-1.04,3.93-2.03.82-.99,1.2-2.07,1.02-2.9-.12-.55-.44-.78-.87-1.1-.45-.33-1.01-.74-1.54-1.67-.59-1.05-.68-1.95-.76-2.74-.08-.8-.14-1.43-.69-1.97-1.11-1.07-2.89-.45-3.09-.38-.4.15-1.73.74-2.17,2.23l-.07-.02Z"/><path class="cls-2" d="M117.56,33.66c-.2.7-.15,1.41.04,2.13.22.8.55,1.56.68,2.38.15.95,0,1.84-.37,2.66-.22.5-.27.95,0,1.48.31.61.86,1.05,1.39,1.36.62.36,1.3.6,1.98.69,1.36.18,2.68-.33,3.73-1.19.85-.7,1.7-1.73,1.9-2.97.07-.43.05-.92-.17-1.31s-.59-.62-.92-.86c-1.2-.89-1.88-2.27-2.05-3.83-.06-.54-.07-1.12-.26-1.64s-.57-.92-1.02-1.16c-.82-.43-1.78-.33-2.58-.07-.74.24-1.45.75-1.92,1.43-.19.27-.33.58-.43.91-.02.06.07.12.09.05.56-1.78,2.46-2.74,4.11-2.46.54.09,1.09.37,1.44.88.3.44.37.98.43,1.5.06.59.12,1.17.28,1.74.2.68.53,1.34.96,1.87.33.42.73.72,1.14,1.03.36.26.68.55.8,1.03.27,1.14-.47,2.3-1.1,3.03-.87,1.01-2.06,1.74-3.33,1.91s-2.84-.28-3.88-1.31c-.42-.42-.84-1.09-.64-1.72.09-.28.23-.53.33-.81.13-.38.22-.79.24-1.2.05-.73-.11-1.45-.32-2.15s-.5-1.39-.57-2.12c-.04-.42,0-.83.11-1.22.02-.06-.07-.12-.09-.05Z"/><path class="cls-4" d="M121.83,44.46c-.19,0-.37-.01-.56-.04-.69-.09-1.39-.33-2.01-.69-.68-.39-1.15-.86-1.42-1.39-.26-.51-.26-.97,0-1.54.38-.87.5-1.75.37-2.62-.08-.51-.25-1.02-.41-1.5-.09-.28-.19-.58-.27-.87-.21-.8-.23-1.5-.04-2.16,0,0,0,0,0,0h0c.11-.34.25-.65.44-.93.46-.67,1.17-1.2,1.95-1.46.7-.23,1.72-.4,2.64.07.49.26.87.68,1.05,1.2.15.42.19.86.23,1.29.01.12.02.24.04.37.18,1.62.89,2.93,2.03,3.78.05.04.1.07.15.11.29.21.59.43.78.77.25.46.24.99.18,1.36-.23,1.44-1.31,2.5-1.93,3.01-.99.81-2.12,1.24-3.23,1.24ZM117.71,33.73c-.11.39-.15.79-.11,1.19.05.56.24,1.11.41,1.64.05.16.1.31.15.47.26.84.37,1.53.33,2.17-.03.41-.11.82-.25,1.22-.05.13-.1.26-.16.38-.06.14-.12.28-.17.42-.23.73.42,1.45.63,1.65.97.96,2.47,1.47,3.82,1.29,1.21-.16,2.37-.83,3.29-1.89.52-.6,1.36-1.79,1.08-2.97-.11-.47-.44-.75-.77-.99-.41-.3-.81-.61-1.16-1.04-.44-.54-.78-1.2-.98-1.9-.16-.55-.22-1.12-.27-1.67v-.08c-.06-.53-.14-1.05-.42-1.46-.31-.45-.8-.75-1.4-.85-1.53-.26-3.46.57-4.03,2.41Z"/><path class="cls-2" d="M110.82,28.89c-.62.17-1.84-.87-2.14-2.01-.23-.87.02-2.01.6-2.13.59-.13,1.43.81,1.78,1.58.46,1.01.36,2.39-.25,2.57Z"/><path class="cls-4" d="M110.68,28.98c-.18,0-.38-.07-.61-.19-.54-.31-1.22-1.03-1.45-1.89-.16-.63-.09-1.4.19-1.85.13-.2.29-.33.47-.37.66-.14,1.52.86,1.86,1.62.33.73.39,1.7.13,2.25-.1.22-.25.36-.43.41h0c-.05.01-.11.02-.17.02ZM109.4,24.8s-.07,0-.1.01c-.15.03-.27.14-.38.31-.25.42-.33,1.15-.17,1.74.21.78.85,1.5,1.38,1.8.26.15.5.21.67.16h0c.14-.04.25-.15.34-.34.24-.52.18-1.43-.13-2.14-.34-.75-1.09-1.55-1.61-1.55Z"/><path class="cls-2" d="M111.31,18.79c-2.95,5.1-.43,10.99,2.16,13.97,1.28,1.48,3.99,4.58,7.46,4.37,5.1-.31,8.2-7.57,9-12.09.42-2.35-.45-4.45-2.56-7.12-3.79-4.79-12.46-5.37-16.06.86Z"/><path class="cls-4" d="M120.59,37.22c-3.34,0-5.91-2.96-7.17-4.41-2.98-3.42-4.93-9.28-2.17-14.05,1.57-2.71,4.19-4.34,7.39-4.57,3.42-.25,6.79,1.17,8.79,3.7,2.23,2.82,2.98,4.9,2.57,7.17-.84,4.71-3.94,11.83-9.06,12.14-.12,0-.23.01-.34.01ZM111.31,18.79l.06.03c-2.73,4.71-.79,10.51,2.15,13.89,1.29,1.48,3.96,4.57,7.4,4.35,5.01-.31,8.14-7.54,8.94-12.03.4-2.23-.34-4.28-2.54-7.06-1.97-2.5-5.3-3.89-8.67-3.65-3.15.23-5.73,1.83-7.27,4.5l-.06-.03Z"/><g class="cls-11"><path class="cls-6" d="M118.13,33.61c.11-.27,1.16.1,2.59.13,2.45.06,3.79-.93,3.98-.6.19.35-1.05,1.84-2.72,2.12-1.4.23-2.52-.48-2.92-.73-.09-.06-1.04-.66-.93-.93Z"/><path class="cls-5" d="M121.42,35.38c-1.16,0-2.07-.58-2.4-.79-.5-.32-1.06-.75-.96-1.01h0c.08-.2.43-.16,1.07-.06.43.06.97.14,1.58.15,1.44.04,2.52-.3,3.16-.5.5-.16.77-.24.88-.06.05.09.03.22-.05.39-.3.63-1.41,1.61-2.72,1.83-.19.03-.38.05-.57.05ZM118.4,33.58c-.11,0-.19.02-.2.06h0c-.04.11.25.43.9.84.41.26,1.5.95,2.87.72,1.37-.23,2.38-1.26,2.62-1.76.06-.12.08-.22.05-.26-.05-.09-.36.01-.71.12-.65.2-1.74.55-3.2.51-.62-.02-1.16-.09-1.6-.15-.28-.04-.54-.08-.72-.08Z"/><path class="cls-6" d="M121.42,35.35c-1.15,0-2.06-.57-2.38-.78-.32-.2-1.06-.71-.95-.98h0c.07-.19.44-.13,1.04-.05.43.06.97.14,1.59.15,1.45.03,2.52-.3,3.17-.5.49-.15.75-.24.85-.07.05.08.03.21-.05.37-.3.62-1.4,1.6-2.7,1.82-.19.03-.38.05-.56.05ZM118.18,33.62c-.07.16.43.57.91.88.41.26,1.5.95,2.89.72,1.38-.23,2.4-1.27,2.64-1.77.06-.13.08-.23.05-.29-.06-.1-.33-.02-.74.11-.65.2-1.73.54-3.2.51-.62-.02-1.16-.09-1.6-.15-.5-.07-.9-.13-.95,0h0Z"/><path class="cls-5" d="M121.42,35.42c-1.17,0-2.08-.58-2.42-.79-.51-.32-1.09-.77-.97-1.07.1-.24.46-.19,1.12-.09.43.06.97.14,1.58.15,1.44.03,2.51-.3,3.14-.5.52-.16.81-.25.93-.04.06.1.04.25-.04.43-.3.64-1.43,1.64-2.75,1.86-.19.03-.38.05-.57.05ZM118.24,33.65c-.03.07.27.4.88.79.41.26,1.48.94,2.84.71,1.35-.23,2.35-1.24,2.59-1.73.06-.12.06-.2.05-.22-.03-.06-.41.07-.66.14-.66.21-1.76.55-3.22.51-.62-.02-1.17-.09-1.61-.16-.33-.05-.82-.12-.87-.05Z"/></g><circle class="cls-10" cx="116.32" cy="27.28" r=".75"/><circle class="cls-10" cx="125.51" cy="27.28" r=".75"/><circle class="cls-1" cx="126.69" cy="30.42" r=".68"/><circle class="cls-1" cx="115.41" cy="30.42" r=".68"/><path class="cls-10" d="M120.29,30.5c.07.36.39.64.76.64s.69-.28.76-.64c.01-.07-.1-.1-.11-.03-.06.31-.32.55-.65.55s-.58-.24-.64-.55c-.01-.07-.13-.04-.11.03h0Z"/><path class="cls-7" d="M118.13,24.02c-.45-.35-1.05-.55-1.61-.59-.98-.08-1.93.39-2.51,1.18-.12.16.14.31.26.15.86-1.16,2.57-1.36,3.7-.48.15.12.3-.14.15-.26h0Z"/><path class="cls-7" d="M126.89,24.02c-.45-.35-1.05-.55-1.61-.59-.98-.08-1.93.39-2.51,1.18-.12.16.14.31.26.15.86-1.16,2.57-1.36,3.7-.48.15.12.3-.14.15-.26h0Z"/><path class="cls-7" d="M108.68,12.98c-2.36,2.7-.9,8.94,1.07,11.76.59.84,1.22,1.38,1.81,1.42,1.75.14,2.39-4.13,6.57-5.53.77-.26,1.88-.61,3.14-.2,2.15.7,2.56,2.93,4.19,4.41,2.18,1.97,6.08,2.77,8,1,1.99-1.84,1.8-6.42.03-9.23-1.85-2.93-6.64-3.43-16.15-4.32-6.69-.62-7.84-.22-8.65.7Z"/><path class="cls-4" d="M130.44,26.9c-1.8,0-3.81-.79-5.16-2-.64-.58-1.09-1.26-1.53-1.93-.69-1.05-1.34-2.05-2.64-2.47-1.26-.41-2.36-.04-3.09.2-2.35.78-3.55,2.45-4.51,3.79-.72,1-1.29,1.81-2.09,1.74-.58-.05-1.23-.55-1.86-1.45l.11-.08c.61.87,1.21,1.35,1.76,1.39.72.06,1.27-.71,1.96-1.68.92-1.29,2.19-3.05,4.58-3.84.7-.23,1.88-.63,3.18-.2,1.35.44,2.01,1.45,2.72,2.52.43.66.88,1.34,1.5,1.9,2.14,1.94,5.98,2.77,7.91,1l.09.1c-.76.7-1.81,1.01-2.94,1.01Z"/><path class="cls-2" d="M68.77,79.35c-.02-.63-2.37-1.22-4-1.38-1.2-.12-1.78.01-1.82-.11-.11-.36,3.17-1.02,4.35-.77,1.82.39,1.93.79,4.1,1.3.37.09,1.76.11,3.7-.77,2.4-1.08,2.56-3.3,3.83-3.24,1.37.07,2.88,2.73,2.18,4.12-.6,1.19-2.44.63-5.31,1.62-.74.25-1.32.53-1.81.83-2.04,1.23-2.94,2.18-4.27,3.24-2.7,2.15-5.68,2.93-5.79,2.74-.13-.24,4.12-2.65,4-2.88-.09-.16-5.91,2.83-6.06,2.41-.22-.61,5.57-2.98,5.42-3.31-.15-.32-6.96,3.21-7.21,2.6-.23-.55,7.07-3.38,6.98-3.65-.2-.58-6.92,1.68-7.03,1.31-.07-.23,3.6-1.59,4.85-2.06,2.88-1.07,3.9-1.49,3.89-2Z"/><path class="cls-4" d="M167.9,199.98c-1.57-4.7-1-9.86,1.55-14.11,14.17-23.59,12.7-53.4-3.74-75.47-16.43-22.07-44.57-32.03-71.23-25.22-4.8,1.23-9.9.29-13.96-2.56-5.99-4.21-14.01-4.11-19.89.27-5.88,4.38-8.28,12.03-5.96,18.98,1.57,4.7,1,9.86-1.55,14.11-14.17,23.59-12.7,53.4,3.74,75.47,16.43,22.07,44.57,32.03,71.23,25.22,4.8-1.23,9.9-.29,13.96,2.56,5.99,4.21,14.01,4.11,19.89-.27,5.88-4.38,8.28-12.03,5.96-18.98ZM66.98,183.91c-18.22-24.47-13.15-59.07,11.32-77.29,24.47-18.22,59.07-13.15,77.29,11.32,18.22,24.47,13.15,59.07-11.32,77.29-24.47,18.22-59.07,13.15-77.29-11.32Z"/><path class="cls-3" d="M103.21,131.86c-8.78-5.86-21.05-28.91-13.82-42.06,2.23-4.05,11.2-6.31,29.07-10.65,17.57-4.27,18.69-1.75,21.03,1.23,3.37,4.3,5.94,11.65,1.84,16.71-4.29,5.29-10.72,6.58-18.71,6.03-8.55-.59-20.12-6.79-21.12-4.91-1.4,2.63-.35,7.13,3.5,14.98,1.91,3.88,5.54,8.54,6.29,14.79.23,1.89-.85,4.32-1.88,5.57-1.33,1.61-5.02-.9-6.19-1.68Z"/><path class="cls-6" d="M108.14,134.35c-1.71,0-4-1.53-5.03-2.22l-.06-.04c-4.6-3.07-9.83-10.47-13.02-18.42-2.22-5.53-5.28-16.01-.89-24,2.24-4.07,10.58-6.25,29.24-10.79,17.07-4.15,18.83-1.88,21.05.99l.27.34c3.71,4.73,5.87,12.08,1.84,17.06-3.94,4.87-9.79,6.76-18.95,6.13-4.35-.3-9.47-2.04-13.59-3.44-3.39-1.15-6.89-2.34-7.27-1.62-1.36,2.55-.31,6.95,3.51,14.72.48.97,1.07,2,1.69,3.08,1.9,3.31,4.06,7.07,4.63,11.79.23,1.94-.83,4.43-1.95,5.78-.37.45-.89.63-1.47.63ZM103.36,131.63l.06.04c3.06,2.05,5,2.62,5.76,1.7,1.06-1.28,2.03-3.63,1.82-5.35-.56-4.61-2.68-8.31-4.56-11.58-.63-1.09-1.22-2.13-1.71-3.12-3.9-7.95-4.95-12.5-3.5-15.23.58-1.09,3.12-.29,7.94,1.35,4.08,1.39,9.16,3.11,13.44,3.41,8.96.62,14.66-1.21,18.48-5.92,3.84-4.74,1.73-11.81-1.85-16.37l-.27-.34c-2.1-2.71-3.75-4.85-20.48-.79-17.2,4.18-26.67,6.49-28.89,10.52-7.02,12.78,4.9,35.8,13.73,41.69h0Z"/><path class="cls-8" d="M107.85,79.54c1.67,5.31,9.99,7.35,13.03,8.24,2.92.86,12.21,3.6,18.6-2.11,7.56-6.75,8.83-19.57,6.21-25.36"/><path class="cls-6" d="M107.47,79.64c1.31,4,5.66,6.02,9.34,7.3,3.04,1.06,6.24,2.02,9.44,2.43,4.78.63,9.81-.13,13.52-3.43,3.59-3.2,5.81-7.77,6.85-12.41.97-4.29,1.25-9.32-.58-13.43-.21-.46-.89-.06-.68.4,1.53,3.44,1.42,7.66.8,11.3-.76,4.45-2.54,8.88-5.61,12.25-1.7,1.87-3.75,3.29-6.18,4.04-2.17.67-4.46.81-6.71.64-3.08-.23-6.05-1.11-8.98-2.01-3.87-1.19-9.05-3.04-10.44-7.29-.16-.48-.92-.28-.76.21h0Z"/><path class="cls-9" d="M165.77,46.5c5.26,0,10.06-4.3,9.52-9.52-.25-1.46-.4-3.82,0-4,.5-.23,1.13.79,2.3.69.9-.08,1.76-.8,1.76-1.37,0-.49.21-1.21-1.24-1.27-1.37-.06-2.77-.02-3.11-.02h-25.88c-.34,0-1.74-.04-3.11.02-1.45.06-1.25.78-1.24,1.27,0,.57.86,1.29,1.76,1.37,1.17.11,1.8-.91,2.3-.69.4.18.25,2.55,0,4-.54,5.22,4.26,9.52,9.52,9.52h7.43Z"/><path class="cls-7" d="M174.31,29.36c.54-.21,1.07-.44,1.59-.67.52-.23,1.04-.48,1.54-.75.49-.27.97-.56,1.38-.89.2-.16.38-.34.51-.51.13-.17.18-.34.17-.42,0-.04-.02-.07-.04-.11-.02-.04-.05-.08-.11-.14-.1-.11-.28-.24-.48-.36-.41-.24-.91-.45-1.42-.63-1.03-.38-2.14-.71-3.27-1.11-.57-.2-1.14-.42-1.75-.7-.3-.15-.61-.31-.94-.54-.32-.23-.67-.52-.98-1.01-.15-.25-.28-.55-.34-.89-.01-.08-.02-.17-.03-.26,0-.08,0-.19,0-.28.01-.09.03-.18.05-.27.09-.35.26-.6.39-.77.28-.34.51-.48.7-.61.19-.12.37-.21.53-.29.33-.15.63-.26.92-.36.29-.1.58-.18.86-.25,1.13-.29,2.22-.51,3.31-.76,1.09-.25,2.16-.52,3.32-.89l.19.23c-.32.55-.74,1.02-1.19,1.45-.46.43-.95.81-1.47,1.15-1.03.68-2.14,1.2-3.2,1.64-.26.11-.53.21-.78.31-.25.1-.49.19-.69.28-.1.04-.18.08-.24.11-.05.02-.07.05.03-.07.04-.06.13-.18.18-.39.01-.05.02-.11.03-.17,0-.06,0-.12,0-.17,0-.01,0-.03-.01-.04-.02-.05-.05-.08-.06-.08-.01,0,0,.04.03.09.03.05.08.11.14.18.13.14.3.28.5.42.4.29.88.54,1.38.79,1,.49,2.08.94,3.16,1.49.54.29,1.08.59,1.62,1.02.27.22.54.47.78.83.12.18.22.39.28.63.06.24.07.5.02.75-.05.24-.14.46-.26.64-.11.18-.24.33-.37.46-.26.26-.54.44-.82.61-.55.32-1.11.55-1.68.74-.57.19-1.13.35-1.7.5-.57.14-1.14.26-1.71.37l-.08-.28Z"/><path class="cls-6" d="M149.75,36.62c-.26.6,0,1.83.15,2.5.19.89.7,2.82,1.14,2.61.16-.08.31-.43.33-.81.06-.9-.64-1.15-.92-2.69-.17-.94-.06-1.69-.28-1.88-.13-.12-.32.03-.42.27Z"/><path class="cls-9" d="M174.03,27.2c.34-.05.54-.43.37-.73-1.18-2.06-6.61-3.04-12.88-2.2-6.28.84-11.25,3.21-11.85,5.51-.09.34.2.65.55.61l23.82-3.19Z"/><path class="cls-9" d="M161.33,24.29c.02-.1.05-.31-.02-.54-.34-1.01-2.27-.74-2.56-1.51-.28-.72.89-2.31,2.47-2.53l-.12.02c1.58-.21,3.12,1.02,3.04,1.79-.09.82-2.02,1.06-2.08,2.13-.01.24.07.44.12.53"/><path class="cls-6" d="M159.55,21.19c-.05-.06.5-.91,1.37-1.04.42-.06.85.05.85.13,0,.08-.45.07-1.08.29-.76.28-1.1.67-1.14.62Z"/><path class="cls-9" d="M144.97,46.3h34.16c.13,0,.23.1.23.23v.56c0,.43-.35.78-.78.78h-33.05c-.43,0-.78-.35-.78-.78v-.56c0-.13.1-.23.23-.23Z"/><path class="cls-6" d="M178.35,47.94h-32.6c-.6,0-1.09-.49-1.09-1.09v-.26c0-.21.17-.37.37-.37h34.02c.21,0,.37.17.37.37v.26c0,.6-.49,1.09-1.09,1.09ZM145.04,46.38c-.12,0-.21.1-.21.22v.26c0,.51.42.93.93.93h32.6c.51,0,.93-.42.93-.93v-.26c0-.12-.1-.22-.22-.22h-34.02Z"/><path class="cls-8" d="M135.92,69.86c.78,3.36,2.26,9.73,5.91,10.7,4.42,1.17,9.54-6.24,11.44-10.98.88-2.18,1.88-4.66,1.67-7.84-.14-2.12-.72-3.18-.39-5.56.34-2.45,1.22-3.2.77-4.28-.65-1.54-3.43-2.33-5.27-1.28-1.83,1.04-1.25,3.04-3.21,6.99-2.14,4.31-4.19,4.65-4.76,7.84-.41,2.3.26,4.41.9,5.85"/><path class="cls-6" d="M135.54,69.96c.55,2.37,1.14,4.77,2.21,6.98.94,1.93,2.45,3.97,4.78,4.12,2.33.16,4.43-1.56,5.93-3.15,1.91-2.01,3.45-4.41,4.63-6.91,1.28-2.72,2.36-5.7,2.28-8.74-.04-1.5-.46-2.96-.51-4.46-.04-1.57.43-2.96.85-4.44.68-2.39-1.93-3.74-4-3.61-1.05.06-2.11.46-2.77,1.31-.61.79-.81,1.83-1.08,2.76-.52,1.8-1.22,3.53-2.21,5.12-.78,1.26-1.79,2.32-2.67,3.5-1.99,2.67-1.6,6.15-.33,9.05.2.47.89.06.68-.4-1.1-2.51-1.5-5.59.12-7.96.58-.85,1.31-1.6,1.94-2.43.95-1.25,1.72-2.63,2.33-4.07.47-1.12.8-2.27,1.14-3.44.23-.78.48-1.61,1.18-2.1,1.51-1.06,5.61-.51,4.92,2-.33,1.21-.74,2.33-.86,3.59s.13,2.58.32,3.88c.46,3.08-.32,5.9-1.46,8.73-.91,2.27-2.15,4.43-3.63,6.37-1.38,1.8-3.18,3.83-5.45,4.47-2.5.7-4.25-1.24-5.3-3.27-1.14-2.22-1.72-4.68-2.28-7.1-.12-.5-.88-.29-.76.21h0Z"/><path class="cls-2" d="M150.41,52.74c.22-.55.69-.5,1.58-1.54.23-.27.43-.54.49-.63.27-.41.37-.68.68-1.07,1-1.27,2.56-1.62,4.29-2.01.79-.18,1.74-.32,3.65-.36,2.88-.07,3.61-.19,3.65,0,.06.26-1.2.91-2.55,1.09-1.4.19-1.59-.3-2.74,0-.23.06-.41.13-.57.2.68.16,1.47.32,2.46.35,1.96.05,2.94-.23,4.23-.38,2.78-.32,4.29-1.67,4.41-1.36.14.35-1.67,1.74-2.32,2.11-2.56,1.49-4.37,2.53-6.48,2.19-1.95-.32-2.29-1.52-3.74-1.19-1.21.28-2.04,1.02-2.92,1.92-.45.46-.68.69-.89,1.03-.77,1.22-.31,2.2-.84,2.49-.53.28-1.51-.36-1.99-1.07-.11-.16-.68-1.01-.39-1.76Z"/></g></svg>