<?xml version="1.0" encoding="UTF-8"?><svg id="Layer_2" xmlns="http://www.w3.org/2000/svg" viewBox="0 0 240.49 192.39"><defs><style>.cls-1{fill:#252b5c;stroke-width:0px;}</style></defs><g id="Personnage"><path class="cls-1" d="M223.96,73.35c-6.68-2.2-12.06-7.2-14.73-13.71C194.41,23.56,159.26,0,120.25,0,81.24,0,46.09,23.56,31.26,59.65c-2.67,6.5-8.05,11.51-14.73,13.71C6.67,76.6,0,85.81,0,96.2c0,10.39,6.67,19.6,16.53,22.84,6.68,2.2,12.06,7.2,14.73,13.71,14.82,36.09,49.97,59.65,88.98,59.65,39.01,0,74.16-23.56,88.98-59.64,2.67-6.5,8.05-11.51,14.73-13.71,9.87-3.25,16.53-12.46,16.53-22.84,0-10.39-6.67-19.6-16.53-22.84ZM120.25,174.5c-43.25,0-78.3-35.06-78.3-78.3,0-43.25,35.06-78.3,78.3-78.3,43.25,0,78.3,35.06,78.3,78.3,0,43.25-35.06,78.3-78.3,78.3Z"/><path class="cls-1" d="M147.26,71.31c-12.5,12.32-25,24.64-37.5,36.96-5.57-6.19-11.14-12.39-16.72-18.58-5.14-5.71-13.53,2.73-8.42,8.42,6.89,7.66,13.78,15.32,20.67,22.98,2.16,2.4,6.22,2.17,8.42,0l41.96-41.36c5.47-5.39-2.95-13.8-8.42-8.42Z"/></g></svg>