<svg width="23" height="20" viewBox="0 0 23 20" fill="none" xmlns="http://www.w3.org/2000/svg">
<g opacity="0.3">
<path d="M7.21325 8.41964C7.74814 7.89506 8.12647 7.18689 8.24389 6.43937C8.26998 6.22954 8.28303 6.01971 8.32217 5.80988C8.29607 5.98037 8.33521 5.70497 8.34826 5.66562C8.3613 5.56071 8.38739 5.45579 8.40044 5.35088C8.46567 5.0099 8.54395 4.68204 8.64832 4.35419C8.7005 4.20993 8.73964 4.05256 8.80487 3.9083C8.83096 3.84273 8.85705 3.77715 8.88314 3.71158C8.94837 3.55421 8.81791 3.84273 8.89619 3.69847C8.90924 3.65913 8.93533 3.60667 8.94837 3.56732C9.07884 3.29192 9.22234 3.02964 9.37889 2.76735C9.40499 2.74112 9.61372 2.41326 9.62677 2.41326C9.62677 2.41326 9.5224 2.5444 9.60068 2.4526C9.62677 2.42638 9.63982 2.40015 9.66591 2.37392C9.71809 2.32146 9.75723 2.25589 9.80941 2.20343C9.90074 2.11163 9.99206 2.01983 10.0834 1.92803C10.1356 1.88869 10.1747 1.84934 10.2269 1.79689C10.2399 1.78377 10.266 1.77066 10.2921 1.74443C10.1617 1.87557 10.2399 1.78377 10.2791 1.75754C10.3834 1.69197 10.4748 1.6264 10.5922 1.56083C10.6444 1.5346 10.6965 1.50837 10.7487 1.48214C10.7748 1.46903 10.7879 1.45591 10.814 1.45591C10.9314 1.40346 10.6574 1.50837 10.8009 1.45591C10.9053 1.41657 11.0097 1.37723 11.114 1.351C11.1662 1.33788 11.2314 1.32477 11.2836 1.31165C11.3097 1.31165 11.3358 1.31165 11.3488 1.29854C11.1401 1.33788 11.2706 1.31165 11.3358 1.29854C11.4402 1.28543 11.5576 1.28543 11.662 1.29854C11.7272 1.29854 11.9098 1.33788 11.688 1.29854C11.7533 1.31165 11.8185 1.32477 11.8968 1.33788C12.0011 1.36411 12.0925 1.39034 12.1968 1.42968C12.2229 1.4428 12.2621 1.45591 12.2882 1.46903C12.2751 1.46903 12.1316 1.40346 12.2229 1.4428C12.2882 1.46903 12.3534 1.50837 12.4186 1.5346C12.523 1.58706 12.6143 1.65263 12.7056 1.7182C12.7448 1.74443 12.797 1.78377 12.8361 1.81C12.6535 1.69197 12.8622 1.83623 12.9144 1.87557C13.0057 1.96737 13.1101 2.05917 13.1883 2.15097C13.2275 2.19032 13.2666 2.24277 13.3058 2.28212C13.3188 2.29523 13.4232 2.4526 13.4493 2.4526C13.4232 2.4526 13.3579 2.33457 13.4362 2.43949C13.4623 2.46572 13.4754 2.49195 13.5014 2.53129C13.5406 2.58375 13.5797 2.64932 13.6189 2.71489C13.6971 2.83292 13.7754 2.96406 13.8406 3.09521C13.9189 3.22635 13.9841 3.37061 14.0494 3.50175C14.0885 3.56732 14.1146 3.64601 14.1407 3.71158C14.1537 3.75093 14.1929 3.8165 14.1277 3.68535C14.1537 3.7247 14.1668 3.77715 14.1798 3.8165C14.3233 4.17059 14.4277 4.53779 14.519 4.9181C14.5582 5.1017 14.5973 5.29842 14.6365 5.48202C14.6495 5.58694 14.6756 5.69185 14.6886 5.79677C14.6886 5.82299 14.7147 5.92791 14.6886 5.78365C14.7017 5.84922 14.7017 5.91479 14.7147 5.98037C14.7669 6.47871 14.8452 6.91149 15.0409 7.37049C15.2105 7.76392 15.4714 8.11801 15.7715 8.41964C16.0193 8.6557 16.4499 8.68192 16.6977 8.41964C16.9326 8.15735 16.9586 7.75081 16.6977 7.48852C16.6455 7.43606 16.5934 7.3836 16.5542 7.33115C16.5412 7.31803 16.4368 7.17377 16.5281 7.30492C16.502 7.27869 16.489 7.25246 16.4629 7.21312C16.4107 7.13443 16.3716 7.06886 16.3194 6.99017C16.2933 6.95083 16.2672 6.89837 16.2411 6.84591C16.2281 6.81969 16.1628 6.66231 16.215 6.80657C16.1498 6.6492 16.0976 6.47871 16.0585 6.30823C16.0454 6.26888 16.0454 6.21643 16.0324 6.17708C16.0063 6.07217 16.0454 6.33445 16.0324 6.16397C16.0193 6.05905 16.0063 5.94102 15.9932 5.83611C15.9019 5.08859 15.7584 4.35419 15.4975 3.64601C15.0931 2.42638 14.4016 1.24608 13.2927 0.524793C12.3012 -0.117811 11.0749 -0.170268 10.0182 0.367421C8.88315 0.944453 8.13952 2.11163 7.65682 3.25258C7.35676 3.97387 7.16107 4.74762 7.04365 5.52136C7.01756 5.66562 7.00451 5.82299 6.99147 5.96725C6.99147 6.0066 6.97842 6.04594 6.97842 6.07217C6.97842 6.11151 6.96538 6.13774 6.96538 6.17708C6.97842 6.08528 6.97842 6.08528 6.96538 6.15085C6.92624 6.33446 6.87405 6.51806 6.82187 6.70166C6.76969 6.85903 6.8871 6.58363 6.80882 6.72789C6.78273 6.78034 6.76969 6.81969 6.74359 6.87214C6.69141 6.96394 6.63923 7.05574 6.58704 7.13443C6.574 7.16066 6.5479 7.18689 6.52181 7.21312C6.48267 7.26557 6.48267 7.26557 6.53486 7.2C6.50876 7.22623 6.49572 7.25246 6.46963 7.27869C6.41744 7.34426 6.35221 7.40983 6.28698 7.46229C6.03911 7.69835 6.02606 8.15735 6.28698 8.39341C6.56095 8.6557 6.95233 8.66881 7.21325 8.41964Z" fill="#020D6F"/>
<path d="M19.1765 14.9637C18.6807 14.9637 18.1719 14.9637 17.6762 14.9637C16.4759 14.9637 15.2757 14.9637 14.0755 14.9637C12.6274 14.9637 11.1662 14.9637 9.71809 14.9637C8.46567 14.9637 7.21325 14.9637 5.94778 14.9637C5.33462 14.9637 4.7345 14.9506 4.12134 14.9637C4.10829 14.9637 4.10829 14.9637 4.09525 14.9637C3.75605 14.9637 3.4299 15.2653 3.44294 15.6194C3.45599 15.9735 3.72996 16.2751 4.09525 16.2751C4.591 16.2751 5.09979 16.2751 5.59554 16.2751C6.79578 16.2751 7.99601 16.2751 9.19625 16.2751C10.6444 16.2751 12.1055 16.2751 13.5536 16.2751C14.806 16.2751 16.0585 16.2751 17.3239 16.2751C17.9371 16.2751 18.5372 16.2883 19.1504 16.2751C19.1634 16.2751 19.1634 16.2751 19.1765 16.2751C19.5157 16.2751 19.8418 15.9735 19.8288 15.6194C19.8157 15.2653 19.5418 14.9637 19.1765 14.9637Z" fill="#020D6F"/>
<path d="M20.8464 11.2392C20.2202 11.2392 19.607 11.2392 18.9808 11.2392C17.4935 11.2392 16.0193 11.2392 14.5321 11.2392C12.7317 11.2392 10.9444 11.2392 9.14406 11.2392C7.59159 11.2392 6.03911 11.2392 4.48663 11.2392C3.72996 11.2392 2.97329 11.2261 2.22966 11.2392C2.21662 11.2392 2.20357 11.2392 2.19052 11.2392C1.85133 11.2392 1.52518 11.5409 1.53822 11.8949C1.55127 12.249 1.82523 12.5507 2.19052 12.5507C2.81673 12.5507 3.4299 12.5507 4.05611 12.5507C5.54336 12.5507 7.01756 12.5507 8.50481 12.5507C10.3052 12.5507 12.0925 12.5507 13.8928 12.5507C15.4453 12.5507 16.9978 12.5507 18.5503 12.5507C19.3069 12.5507 20.0636 12.5638 20.8072 12.5507C20.8203 12.5507 20.8333 12.5507 20.8464 12.5507C21.1856 12.5507 21.5117 12.249 21.4987 11.8949C21.4856 11.5409 21.2117 11.2392 20.8464 11.2392Z" fill="#020D6F"/>
<path d="M12.1577 19.3439C12.1577 18.1505 12.1577 16.944 12.1577 15.7506C12.1577 13.8359 12.1577 11.9343 12.1577 10.0196C12.1577 9.58682 12.1577 9.14093 12.1577 8.70815C12.1577 8.36718 11.8576 8.03932 11.5054 8.05244C11.1532 8.06555 10.8531 8.34095 10.8531 8.70815C10.8531 9.90156 10.8531 11.1081 10.8531 12.3015C10.8531 14.2162 10.8531 16.1178 10.8531 18.0325C10.8531 18.4652 10.8531 18.9111 10.8531 19.3439C10.8531 19.6849 11.1532 20.0127 11.5054 19.9996C11.8576 19.9734 12.1577 19.7111 12.1577 19.3439Z" fill="#020D6F"/>
<path d="M8.45262 19.1996C8.45262 17.9669 8.45262 16.7341 8.45262 15.5014C8.45262 13.5474 8.45262 11.5802 8.45262 9.62616C8.45262 9.18027 8.45262 8.73438 8.45262 8.2885C8.45262 7.94752 8.15257 7.61966 7.80032 7.63278C7.44808 7.64589 7.14802 7.92129 7.14802 8.2885C7.14802 9.52125 7.14802 10.754 7.14802 11.9867C7.14802 13.9408 7.14802 15.9079 7.14802 17.862C7.14802 18.3079 7.14802 18.7538 7.14802 19.1996C7.14802 19.5406 7.44808 19.8685 7.80032 19.8554C8.15257 19.8422 8.45262 19.58 8.45262 19.1996Z" fill="#020D6F"/>
<path d="M4.74755 18.7406C4.74755 17.5997 4.74755 16.4719 4.74755 15.3309C4.74755 13.5342 4.74755 11.7376 4.74755 9.9409C4.74755 9.53436 4.74755 9.1147 4.74755 8.70815C4.74755 8.36718 4.44749 8.03932 4.09525 8.05244C3.743 8.06555 3.44294 8.34095 3.44294 8.70815C3.44294 9.8491 3.44294 10.9769 3.44294 12.1179C3.44294 13.9146 3.44294 15.7112 3.44294 17.5079C3.44294 17.9144 3.44294 18.3341 3.44294 18.7406C3.44294 19.0816 3.743 19.4095 4.09525 19.3964C4.44749 19.3832 4.74755 19.1078 4.74755 18.7406Z" fill="#020D6F"/>
<path d="M15.9932 19.3439C15.9932 18.1112 15.9932 16.8784 15.9932 15.6457C15.9932 13.6916 15.9932 11.7507 15.9932 9.79665C15.9932 9.35076 15.9932 8.90487 15.9932 8.45898C15.9932 8.11801 15.6932 7.79015 15.3409 7.80326C14.9887 7.81638 14.6886 8.09178 14.6886 8.45898C14.6886 9.69173 14.6886 10.9245 14.6886 12.1572C14.6886 14.1113 14.6886 16.0522 14.6886 18.0062C14.6886 18.4521 14.6886 18.898 14.6886 19.3439C14.6886 19.6849 14.9887 20.0127 15.3409 19.9996C15.6932 19.9734 15.9932 19.7111 15.9932 19.3439Z" fill="#020D6F"/>
<path d="M19.8288 18.098C19.8288 17.0358 19.8288 15.9735 19.8288 14.9112C19.8288 13.2195 19.8288 11.5409 19.8288 9.8491C19.8288 9.46879 19.8288 9.08847 19.8288 8.69504C19.8288 8.35407 19.5287 8.02621 19.1765 8.03932C18.8242 8.05244 18.5242 8.32784 18.5242 8.69504C18.5242 9.7573 18.5242 10.8196 18.5242 11.8818C18.5242 13.5736 18.5242 15.2522 18.5242 16.944C18.5242 17.3243 18.5242 17.7046 18.5242 18.098C18.5242 18.439 18.8242 18.7669 19.1765 18.7538C19.5287 18.7406 19.8288 18.4652 19.8288 18.098Z" fill="#020D6F"/>
<path d="M2.51667 8.82618C2.84283 8.82618 3.16898 8.82618 3.49513 8.82618C4.33007 8.82618 5.16502 8.82618 6.01301 8.82618C7.16107 8.82618 8.30912 8.82618 9.45717 8.82618C10.7226 8.82618 11.9881 8.82618 13.2405 8.82618C14.4016 8.82618 15.5758 8.82618 16.7369 8.82618C17.6109 8.82618 18.485 8.82618 19.3461 8.82618C19.7244 8.82618 20.1027 8.82618 20.4811 8.82618C20.4811 8.82618 20.4811 8.82618 20.4941 8.82618C20.5202 8.82618 20.5594 8.82618 20.5854 8.82618C20.7029 8.82618 20.4941 8.79996 20.5724 8.82618C20.6246 8.8393 20.6768 8.85241 20.7159 8.86553C20.729 8.86553 20.755 8.87864 20.7811 8.89176C20.8594 8.90487 20.6768 8.82618 20.742 8.87864C20.7811 8.90487 20.8333 8.91798 20.8725 8.94421C20.8855 8.95733 20.9116 8.97044 20.9246 8.98355C21.0421 9.06224 20.8986 8.97044 20.9116 8.97044C20.9116 8.97044 21.016 9.06224 21.016 9.07536C21.029 9.08847 21.0421 9.10158 21.0551 9.1147C21.1334 9.2065 21.029 9.08847 21.029 9.07536L21.1073 9.19338C21.1203 9.2065 21.1334 9.23273 21.1334 9.24584C21.1464 9.25896 21.1464 9.28519 21.1595 9.2983C21.1725 9.32453 21.1725 9.32453 21.1464 9.27207C21.1073 9.24584 21.1334 9.21961 21.1464 9.27207C21.1595 9.2983 21.1595 9.32453 21.1725 9.35076C21.1856 9.37699 21.2117 9.53436 21.1986 9.42944C21.1856 9.32453 21.1986 9.4819 21.1986 9.50813C21.1986 9.56059 21.1856 9.62616 21.1856 9.67862C21.1856 9.65239 21.2117 9.52124 21.1856 9.63927C21.1856 9.6655 21.1725 9.67862 21.1725 9.70484C21.1725 9.73107 21.1595 9.74419 21.1595 9.77042V9.78353C21.1464 9.80976 21.1464 9.83599 21.1334 9.8491C21.0942 9.95402 21.0681 10.0589 21.029 10.1638C20.729 11.095 20.4289 12.0261 20.1288 12.9572C19.7505 14.1244 19.3852 15.2785 19.0069 16.4456C18.8242 17.0227 18.6416 17.6128 18.4459 18.1898C18.4459 18.2029 18.4328 18.2161 18.4328 18.2292C18.4068 18.321 18.4068 18.2161 18.4459 18.2029C18.4328 18.2029 18.4198 18.2554 18.4198 18.2685C18.4068 18.2948 18.3676 18.3997 18.3415 18.3997C18.3415 18.3997 18.4459 18.2816 18.3546 18.3734C18.3285 18.3997 18.3154 18.4128 18.2893 18.439C18.2633 18.4652 18.1589 18.5702 18.2241 18.5046C18.2893 18.439 18.1719 18.5439 18.1458 18.557C18.1197 18.5702 17.9762 18.6488 18.0676 18.6095C18.1458 18.5702 17.9893 18.6357 17.9501 18.6357C17.9241 18.6488 17.8849 18.6488 17.8588 18.662C17.7936 18.6751 17.911 18.6488 17.9241 18.6488C17.898 18.6357 17.8197 18.662 17.7805 18.662C17.7805 18.662 17.7805 18.662 17.7675 18.662C17.7545 18.662 17.7284 18.662 17.7153 18.662C17.5066 18.662 17.3109 18.662 17.1022 18.662C16.1889 18.662 15.2757 18.662 14.3625 18.662C13.1362 18.662 11.8968 18.662 10.6705 18.662C9.5224 18.662 8.38739 18.662 7.23934 18.662C6.58704 18.662 5.94778 18.662 5.29548 18.662C5.25634 18.662 5.23025 18.662 5.19111 18.662C5.16502 18.662 5.13893 18.662 5.12588 18.662C5.11284 18.662 5.0737 18.6488 5.06065 18.662C5.13893 18.6357 5.16502 18.6882 5.09979 18.662C5.04761 18.6488 4.99542 18.6357 4.94324 18.6226C4.93019 18.6226 4.89106 18.5964 4.87801 18.5964C4.95628 18.6357 4.98238 18.6357 4.93019 18.6226C4.91715 18.6226 4.9041 18.6095 4.89105 18.5964C4.83887 18.5702 4.79973 18.5439 4.76059 18.5177C4.66927 18.4521 4.83887 18.5964 4.7345 18.4915C4.69536 18.4521 4.65623 18.4128 4.63013 18.3734C4.5649 18.3079 4.65623 18.3603 4.64318 18.3997C4.64318 18.3866 4.60404 18.3341 4.591 18.321C4.57795 18.3079 4.48663 18.1505 4.53881 18.2423C4.591 18.321 4.52577 18.2161 4.52577 18.1898V18.1767C4.51272 18.1505 4.51272 18.1243 4.49967 18.1112C4.47358 18.0062 4.43444 17.9013 4.40835 17.8095C4.10829 16.8784 3.82128 15.9604 3.52122 15.0293C3.14288 13.8621 2.7776 12.6949 2.39926 11.5409C2.21662 10.9507 2.00788 10.3606 1.83828 9.77042C1.82523 9.71796 1.81219 9.6655 1.79914 9.61304C1.77305 9.54747 1.79914 9.67862 1.79914 9.67862C1.79914 9.65239 1.79914 9.61304 1.7861 9.58682C1.7861 9.53436 1.7861 9.4819 1.7861 9.42944C1.7861 9.41633 1.79914 9.37699 1.7861 9.36387C1.81219 9.40322 1.76 9.50813 1.7861 9.41633C1.79914 9.36387 1.81219 9.32453 1.82523 9.27207C1.82523 9.27207 1.85133 9.21961 1.85133 9.2065C1.86437 9.21961 1.7861 9.33764 1.83828 9.24584C1.86437 9.2065 1.87742 9.15404 1.90351 9.1147C1.91656 9.10158 1.9296 9.07536 1.94265 9.06224C2.00788 8.95733 1.9296 9.10158 1.91656 9.10158C1.91656 9.10158 2.00788 9.00978 2.02092 8.99667C2.03397 8.98355 2.04702 8.97044 2.06006 8.95733C2.15139 8.86553 2.03397 8.98355 2.02092 8.98355C2.02092 8.98355 2.12529 8.91798 2.13834 8.90487C2.15139 8.89176 2.2688 8.8393 2.2688 8.8393C2.2688 8.85241 2.11225 8.89176 2.22966 8.85241C2.25575 8.85241 2.2688 8.8393 2.29489 8.8393C2.30794 8.8393 2.4384 8.79995 2.4384 8.79995C2.4384 8.81307 2.2688 8.81307 2.39926 8.81307C2.46449 8.82618 2.49058 8.82618 2.51667 8.82618C2.85587 8.82618 3.18202 8.52455 3.16898 8.17047C3.15593 7.81638 2.88196 7.51475 2.51667 7.51475C1.96874 7.52786 1.40776 7.75081 1.02943 8.17047C0.677182 8.57701 0.4554 9.1147 0.507584 9.6655C0.533676 9.96713 0.624998 10.2294 0.71632 10.5048C1.01638 11.4491 1.32948 12.4064 1.62954 13.3506C2.00788 14.5309 2.38621 15.7112 2.76455 16.8915C2.89501 17.2981 3.02547 17.7046 3.15593 18.1243C3.22116 18.321 3.27334 18.5177 3.35162 18.7013C3.67777 19.5013 4.40835 19.9996 5.26939 19.9996C5.46508 19.9996 5.66077 19.9996 5.86951 19.9996C6.79578 19.9996 7.709 19.9996 8.63527 19.9996C9.88769 19.9996 11.1532 19.9996 12.4056 19.9996C13.5667 19.9996 14.7147 19.9996 15.8758 19.9996C16.489 19.9996 17.1152 19.9996 17.7284 19.9996C18.4589 19.9996 19.1634 19.6324 19.5418 18.9767C19.6853 18.7275 19.7505 18.4521 19.8418 18.1898C20.1419 17.2456 20.455 16.2883 20.755 15.344C21.1334 14.1637 21.5117 12.9834 21.8901 11.8031C22.0205 11.3966 22.151 10.9769 22.2814 10.5704C22.3467 10.3868 22.4119 10.1901 22.451 10.0065C22.5684 9.46879 22.4771 8.86553 22.151 8.40652C21.7987 7.90818 21.2769 7.60655 20.6768 7.52786C20.5463 7.51475 20.4028 7.51475 20.2723 7.51475C19.6592 7.51475 19.046 7.51475 18.4328 7.51475C17.3892 7.51475 16.3585 7.51475 15.3148 7.51475C14.0624 7.51475 12.797 7.51475 11.5445 7.51475C10.2921 7.51475 9.02665 7.51475 7.77423 7.51475C6.73055 7.51475 5.68686 7.51475 4.64318 7.51475C4.03002 7.51475 3.40381 7.51475 2.79064 7.51475C2.71237 7.51475 2.62104 7.51475 2.54277 7.51475C2.20357 7.51475 1.87742 7.81638 1.89046 8.17047C1.87742 8.52455 2.15139 8.82618 2.51667 8.82618Z" fill="#020D6F"/>
</g>
</svg>
