<svg width="196" height="150" viewBox="0 0 196 150" fill="none" xmlns="http://www.w3.org/2000/svg">
<g clip-path="url(#clip0_2561_513)">
<path d="M169.285 107.572C161.734 110.632 151.234 111.712 137.245 111.172C123.045 110.632 115.855 108.742 101.655 108.142C93.6528 107.812 81.6792 108.622 66.3662 114.803L89.11 138.238L125.693 142.559L159.116 125.065L169.285 107.572Z" fill="#4FA020"/>
<path d="M169.074 106.851C163.539 109.072 157.552 109.942 151.625 110.332C143.834 110.842 135.982 110.542 128.22 109.882C121.3 109.282 114.441 108.292 107.522 107.752C101.655 107.302 95.849 107.151 90.0126 107.842C82.8826 108.682 75.8729 110.452 69.1641 112.913C68.1412 113.273 67.1484 113.663 66.1556 114.083C65.6442 114.293 65.4035 114.893 65.8247 115.343C68.3217 117.924 70.8187 120.474 73.2856 123.055C77.317 127.196 81.3483 131.366 85.3796 135.507C86.4025 136.557 87.3952 137.608 88.4181 138.658C88.9295 139.168 89.9524 139.108 90.6444 139.198C95.5481 139.768 100.482 140.368 105.386 140.938C110.921 141.598 116.487 142.259 122.022 142.889C123.196 143.039 124.399 143.279 125.602 143.309C125.873 143.309 126.084 143.189 126.324 143.069C126.806 142.829 127.287 142.559 127.738 142.319C132.191 139.978 136.643 137.638 141.126 135.327C146.06 132.747 150.994 130.166 155.928 127.586C157.071 126.985 158.214 126.445 159.327 125.815C159.598 125.665 159.748 125.425 159.929 125.155C160.35 124.465 160.741 123.745 161.162 123.055C163.87 118.374 166.608 113.723 169.315 109.042C169.526 108.682 169.706 108.352 169.917 107.992C170.398 107.151 169.105 106.401 168.623 107.242C166.638 110.662 164.652 114.083 162.666 117.504C161.493 119.514 160.32 121.524 159.147 123.505C158.996 123.775 158.846 124.045 158.695 124.285C158.635 124.375 158.455 124.585 158.455 124.705C158.455 124.735 158.876 124.435 158.635 124.495C158.515 124.525 158.425 124.615 158.304 124.675C155.085 126.355 151.866 128.036 148.647 129.716C143.804 132.267 138.93 134.817 134.086 137.338C132.191 138.328 130.266 139.348 128.37 140.338C127.377 140.848 126.385 141.328 125.422 141.868C125.392 141.898 125.332 141.928 125.302 141.928C125.422 141.898 125.542 141.868 125.693 141.838C124.489 141.688 123.256 141.538 122.052 141.418C119.134 141.088 116.246 140.728 113.328 140.398C109.808 139.978 106.258 139.558 102.738 139.138C99.6998 138.778 96.6612 138.418 93.6227 138.058C92.6299 137.938 91.6071 137.818 90.6143 137.698C90.1329 137.638 89.6516 137.548 89.1702 137.518C89.1401 137.518 89.1401 137.518 89.1101 137.518C89.2906 137.578 89.4711 137.668 89.6516 137.728C87.0944 135.087 84.5372 132.447 81.98 129.806C77.8886 125.605 73.8272 121.404 69.7357 117.173C68.8031 116.213 67.8705 115.223 66.9077 114.263C66.7874 114.683 66.6972 115.103 66.5768 115.523C73.5263 112.733 80.7767 110.632 88.2075 109.582C93.8032 108.772 99.3688 108.742 104.995 109.072C112.004 109.492 118.954 110.452 125.933 111.142C133.725 111.922 141.577 112.283 149.399 111.952C155.567 111.682 161.854 110.992 167.691 108.982C168.292 108.772 168.894 108.562 169.466 108.322C169.857 108.172 170.097 107.812 169.977 107.392C169.917 107.031 169.435 106.701 169.074 106.851Z" fill="#007203"/>
<path d="M107.823 116.603C108.545 116.033 109.417 115.643 110.35 115.673C111.252 115.703 112.004 116.333 112.877 116.573C114.682 117.083 116.487 116.333 117.961 115.283C118.292 115.043 118.442 114.623 118.232 114.263C118.051 113.933 117.54 113.753 117.209 113.993C116.397 114.563 115.524 115.073 114.531 115.223C114.652 115.193 114.411 115.223 114.411 115.223C114.321 115.223 114.261 115.223 114.17 115.223C114.02 115.223 113.839 115.223 113.689 115.193C113.509 115.163 113.809 115.223 113.629 115.193C113.509 115.163 113.388 115.133 113.268 115.103C113.057 115.043 112.847 114.953 112.636 114.863C111.673 114.413 110.801 114.023 109.718 114.173C108.605 114.293 107.642 114.833 106.77 115.523C106.439 115.763 106.499 116.333 106.77 116.573C107.101 116.933 107.522 116.843 107.823 116.603Z" fill="#007203"/>
<path d="M182.011 102.171C178.611 98.8998 176.836 94.3089 177.137 89.598C178.762 63.5228 164.471 39.0679 140.915 27.6356C117.359 16.2033 89.2304 20.1341 69.7056 37.5376C66.1857 40.6582 61.4625 42.0985 56.7994 41.4684C49.88 40.5382 43.1711 44.1389 40.1025 50.3801C37.064 56.6214 38.3877 64.1229 43.3817 68.9839C45.4275 70.9643 46.9016 73.4548 47.6838 76.1553C44.7355 76.1553 41.8173 76.1553 38.8691 76.1553C35.0784 76.1553 31.3179 76.1553 27.5272 76.1553C24.248 76.1553 20.9387 76.1553 17.6595 76.1553C16.0651 76.1553 14.4706 76.1253 12.9062 76.1553C12.8761 76.1553 12.846 76.1553 12.846 76.1553C11.2816 76.1553 9.77742 77.5356 9.83759 79.1559C9.89776 80.7762 11.1613 82.1565 12.846 82.1565C14.1697 82.1565 15.4634 82.1565 16.7871 82.1565C19.9159 82.1565 23.0446 82.1565 26.1734 82.1565C29.9641 82.1565 33.7246 82.1565 37.5153 82.1565C40.7945 82.1565 44.1037 82.1565 47.3829 82.1565C47.6838 82.1565 47.9545 82.1565 48.2554 82.1565C48.1651 83.6568 48.1351 85.1271 48.1651 86.5974C48.0147 86.5974 47.8643 86.5974 47.7139 86.5974C43.7728 86.5974 39.8318 86.5974 35.8907 86.5974C31.1073 86.5974 26.2938 86.5974 21.5103 86.5974C17.3888 86.5974 13.2672 86.5974 9.14565 86.5974C7.12999 86.5974 5.14442 86.5674 3.12876 86.5974C3.09868 86.5974 3.06859 86.5974 3.03851 86.5974C1.47412 86.5974 -0.030102 87.9777 0.0300668 89.598C0.0902356 91.2183 1.35378 92.5986 3.03851 92.5986C4.69315 92.5986 6.3478 92.5986 8.00244 92.5986C11.9435 92.5986 15.8846 92.5986 19.8256 92.5986C24.609 92.5986 29.4225 92.5986 34.206 92.5986C38.3275 92.5986 42.4491 92.5986 46.5707 92.5986C47.2325 92.5986 47.8643 92.5986 48.5262 92.5986C48.7067 94.3389 48.9774 96.0793 49.3083 97.8196C48.9473 97.8196 48.5863 97.8196 48.2554 97.8196C45.1266 97.8196 41.9978 97.8196 38.8691 97.8196C35.0784 97.8196 31.3179 97.8196 27.5272 97.8196C24.248 97.8196 20.9387 97.8196 17.6595 97.8196C16.0651 97.8196 14.4706 97.7896 12.9062 97.8196C12.8761 97.8196 12.846 97.8196 12.846 97.8196C11.2816 97.8196 9.77742 99.1999 9.83759 100.82C9.89776 102.441 11.1613 103.821 12.846 103.821C14.1697 103.821 15.4634 103.821 16.7871 103.821C19.9159 103.821 23.0446 103.821 26.1734 103.821C29.9641 103.821 33.7246 103.821 37.5153 103.821C40.7945 103.821 44.1037 103.821 47.3829 103.821C48.5261 103.821 49.6694 103.821 50.8126 103.821C51.3842 105.801 52.0761 107.722 52.8282 109.612C50.3011 109.612 47.8041 109.612 45.277 109.612C41.9677 109.612 38.6284 109.612 35.3191 109.612C32.431 109.612 29.5429 109.612 26.6849 109.612C25.301 109.612 23.887 109.582 22.5031 109.612C22.473 109.612 22.473 109.612 22.443 109.612C20.8786 109.612 19.3743 110.992 19.4345 112.613C19.4947 114.233 20.7582 115.613 22.443 115.613C23.5862 115.613 24.7294 115.613 25.9027 115.613C28.6404 115.613 31.4081 115.613 34.1458 115.613C37.4551 115.613 40.7945 115.613 44.1037 115.613C46.9918 115.613 49.88 115.613 52.738 115.613C53.7007 115.613 54.6634 115.613 55.6261 115.613C61.9137 127.466 71.8717 137.338 84.5071 143.459C108.063 154.861 136.192 150.96 155.717 133.557C159.237 130.436 163.96 128.996 168.623 129.626C175.543 130.556 182.251 126.955 185.32 120.714C188.328 114.503 187.005 107.001 182.011 102.171ZM160.26 108.652C147.504 134.847 115.855 145.769 89.5914 133.047C63.3277 120.324 52.377 88.7578 65.1328 62.5626C77.8885 36.3673 109.537 25.4452 135.801 38.1677C162.065 50.8902 173.015 82.4266 160.26 108.652Z" fill="#040D6A"/>
<path d="M75.4516 10.4421L72.8343 11.9124L77.6779 20.5241C77.9486 21.0342 78.0389 21.4543 77.9787 21.8143C77.8885 22.1744 77.6779 22.4445 77.3169 22.6545C76.9558 22.8645 76.5948 22.8946 76.2338 22.7745C75.8728 22.6545 75.5419 22.3544 75.2711 21.8744L70.4275 13.2626L67.8102 14.7329C67.389 14.973 67.0581 15.033 66.7572 14.973C66.4564 14.913 66.2157 14.7329 66.0653 14.4329C65.8848 14.1328 65.8547 13.8327 65.975 13.5327C66.0954 13.2326 66.336 12.9926 66.7271 12.7525L74.3686 8.49167C74.7898 8.25163 75.1508 8.19161 75.4516 8.25163C75.7525 8.31164 75.9931 8.49167 76.1737 8.79173C76.3542 9.09179 76.3842 9.39185 76.2639 9.69191C76.1135 9.96197 75.8728 10.202 75.4516 10.4421Z" fill="#040D6A"/>
<path d="M83.6347 19.804V19.2039L77.7382 13.1727C77.3772 12.8426 77.1666 12.5726 77.1064 12.3625C77.0162 12.1525 76.9861 11.9424 77.0162 11.7324C77.0462 11.5224 77.1365 11.3123 77.2568 11.1323C77.4073 10.9522 77.5577 10.8322 77.7683 10.7422C78.0992 10.5922 78.4 10.5922 78.6708 10.7422C78.9416 10.8922 79.2123 11.1323 79.5132 11.4623L83.8754 16.3833L83.5144 10.2621C83.4843 9.782 83.4843 9.36192 83.4843 9.09187C83.5144 8.79181 83.5746 8.58176 83.6648 8.43173C83.7551 8.2817 83.9356 8.16168 84.1763 8.07166C84.3568 8.01165 84.5373 7.98164 84.7479 8.01165C84.9585 8.04166 85.139 8.10167 85.2894 8.22169C85.4398 8.34172 85.5601 8.49175 85.6203 8.67178C85.6504 8.79181 85.6805 8.97184 85.7106 9.18188C85.7406 9.39193 85.7707 9.63197 85.7707 9.87202L86.0415 19.1139C86.0716 19.924 86.0415 20.5842 85.9512 21.0943C85.861 21.6044 85.6504 22.0545 85.3496 22.4145C85.0186 22.8046 84.5072 23.1347 83.8152 23.4347C83.1233 23.7048 82.5818 23.8548 82.1907 23.8548C81.7996 23.8548 81.4987 23.6448 81.3483 23.2547C81.228 22.9846 81.228 22.7446 81.3483 22.5346C81.4386 22.3245 81.6492 22.1445 81.9801 22.0245C82.1004 21.9644 82.2509 21.9344 82.3712 21.9344C82.5216 21.9044 82.672 21.8744 82.7924 21.8144C83.0631 21.6944 83.2436 21.5744 83.364 21.4243C83.4843 21.2743 83.5746 21.0943 83.6047 20.8242C83.6047 20.6142 83.6347 20.2541 83.6347 19.804Z" fill="#040D6A"/>
<path d="M95.4881 11.3123L92.63 12.0324C92.2089 12.1524 91.8478 12.1224 91.5771 11.9724C91.3063 11.8224 91.1258 11.6123 91.0356 11.2822C90.9453 10.9522 91.0055 10.6821 91.1559 10.4121C91.3364 10.142 91.6373 9.96198 92.0885 9.87196L94.9465 9.15182C95.3978 9.03179 95.7588 9.0618 96.0296 9.21183C96.3003 9.36186 96.4808 9.60191 96.5711 9.90197C96.6614 10.232 96.6012 10.5021 96.4508 10.7721C96.2402 11.0122 95.9393 11.1922 95.4881 11.3123Z" fill="#040D6A"/>
<path d="M103.34 1.53033L104.273 11.3723L109.838 10.8622C110.29 10.8322 110.62 10.8922 110.891 11.1022C111.162 11.2823 111.282 11.5523 111.312 11.8824C111.342 12.2125 111.252 12.4825 111.042 12.7226C110.831 12.9626 110.5 13.0826 110.049 13.1126L103.43 13.7428C102.829 13.8028 102.377 13.7128 102.107 13.4727C101.806 13.2327 101.655 12.8126 101.595 12.2425L100.572 1.80038C100.512 1.26027 100.602 0.810183 100.843 0.510123C101.084 0.210063 101.385 0.0300269 101.776 2.0924e-05C102.197 -0.0299851 102.528 0.0600329 102.829 0.330087C103.099 0.570135 103.28 0.990219 103.34 1.53033Z" fill="#040D6A"/>
<path d="M117.6 12.0925V11.7624C117.269 12.1225 116.938 12.4526 116.607 12.6926C116.276 12.9327 115.885 13.1127 115.494 13.2327C115.103 13.3527 114.652 13.3827 114.14 13.3827C113.539 13.3527 112.997 13.2027 112.516 12.9327C112.034 12.6626 111.673 12.3025 111.433 11.8524C111.132 11.3123 111.012 10.5322 111.042 9.51197L111.222 4.50097C111.252 3.99087 111.373 3.6308 111.613 3.39075C111.854 3.1507 112.155 3.03068 112.546 3.06068C112.937 3.06068 113.238 3.21071 113.448 3.48077C113.689 3.75082 113.779 4.11089 113.749 4.621L113.599 8.67181C113.569 9.27193 113.599 9.75202 113.689 10.1421C113.779 10.5322 113.93 10.8622 114.2 11.1023C114.471 11.3423 114.802 11.4624 115.223 11.4924C115.645 11.5224 116.066 11.4024 116.457 11.1623C116.848 10.9223 117.119 10.5922 117.329 10.2021C117.48 9.84204 117.6 9.06188 117.63 7.86164L117.75 4.80103C117.78 4.29093 117.901 3.93086 118.142 3.69081C118.382 3.45076 118.683 3.33074 119.074 3.33074C119.465 3.33074 119.736 3.48077 119.977 3.75082C120.187 4.02088 120.308 4.38095 120.278 4.89105L120.007 12.2125C119.977 12.6926 119.856 13.0527 119.646 13.2927C119.405 13.5328 119.134 13.6228 118.773 13.6228C118.412 13.6228 118.142 13.4728 117.931 13.2027C117.72 12.9327 117.6 12.5426 117.6 12.0925Z" fill="#040D6A"/>
<path d="M124.098 5.2811L124.038 5.58116C124.579 5.07106 125.121 4.74099 125.692 4.56095C126.264 4.38092 126.896 4.35091 127.558 4.47094C128.22 4.59096 128.791 4.83101 129.242 5.19108C129.724 5.55115 130.025 6.03125 130.205 6.60136C130.325 6.93143 130.356 7.2915 130.356 7.65157C130.356 8.01164 130.295 8.46174 130.205 9.00184L129.423 13.6528C129.333 14.1629 129.152 14.5229 128.881 14.733C128.611 14.943 128.28 15.033 127.919 14.973C127.558 14.913 127.257 14.733 127.076 14.4329C126.896 14.1329 126.836 13.7428 126.926 13.2627L127.618 9.12187C127.768 8.31171 127.738 7.65157 127.588 7.17148C127.437 6.69138 127.016 6.39132 126.324 6.3013C125.873 6.21128 125.452 6.3013 125.031 6.48134C124.609 6.69138 124.278 6.99144 124.038 7.44153C123.857 7.8016 123.677 8.46174 123.496 9.48194L123.045 12.5426C122.955 13.0527 122.774 13.4127 122.503 13.6228C122.233 13.8328 121.902 13.9228 121.541 13.8628C121.18 13.8028 120.909 13.6228 120.729 13.3227C120.548 13.0226 120.488 12.6326 120.578 12.1525L121.812 4.95103C121.902 4.47094 122.052 4.14087 122.293 3.93083C122.534 3.72079 122.834 3.66077 123.195 3.72079C123.406 3.75079 123.617 3.84081 123.767 3.99084C123.917 4.11086 124.038 4.2909 124.128 4.53095C124.218 4.771 124.158 4.98104 124.098 5.2811Z" fill="#040D6A"/>
<path d="M139.2 14.913C139.11 15.2131 138.93 15.5132 138.629 15.7832C138.358 16.0833 137.967 16.3233 137.516 16.5034C137.064 16.7134 136.493 16.8034 135.891 16.8334C135.259 16.8634 134.597 16.7434 133.905 16.5334C132.401 16.0833 131.378 15.2731 130.807 14.1629C130.235 13.0227 130.175 11.7324 130.626 10.2621C130.927 9.27191 131.378 8.46175 132.01 7.80162C132.642 7.17149 133.364 6.75141 134.206 6.54136C135.049 6.36133 135.981 6.39133 137.004 6.7214C137.636 6.90144 138.177 7.17149 138.659 7.53156C139.14 7.89163 139.501 8.25171 139.772 8.64178C140.043 9.03186 140.223 9.42194 140.313 9.81202C140.404 10.2021 140.404 10.5322 140.313 10.8022C140.223 11.1023 140.043 11.3123 139.772 11.4323C139.501 11.5824 139.2 11.5824 138.899 11.4924C138.689 11.4323 138.538 11.3423 138.448 11.1923C138.358 11.0423 138.238 10.8322 138.147 10.5622C137.997 10.0221 137.786 9.60198 137.516 9.27191C137.275 8.94184 136.884 8.7018 136.402 8.55177C135.68 8.34172 135.019 8.43174 134.417 8.85183C133.815 9.27191 133.364 9.96205 133.063 10.9522C132.913 11.4023 132.853 11.8524 132.853 12.2425C132.853 12.6626 132.913 13.0227 133.033 13.3527C133.153 13.6828 133.364 13.9829 133.605 14.1929C133.875 14.4329 134.176 14.583 134.537 14.703C135.019 14.853 135.47 14.853 135.891 14.733C136.312 14.613 136.703 14.3729 137.124 13.9829C137.365 13.7428 137.576 13.5928 137.786 13.5028C137.997 13.4127 138.238 13.3827 138.478 13.4728C138.779 13.5628 138.99 13.7428 139.11 14.0429C139.26 14.4029 139.291 14.673 139.2 14.913Z" fill="#040D6A"/>
<path d="M145.428 7.44145L143.894 10.8621C144.345 10.6521 144.736 10.5021 145.127 10.4421C145.518 10.382 145.879 10.352 146.24 10.412C146.632 10.4721 147.023 10.5921 147.414 10.7421C148.015 11.0122 148.467 11.3722 148.798 11.8223C149.129 12.2724 149.339 12.7825 149.399 13.3826C149.429 13.7427 149.399 14.1028 149.309 14.4629C149.219 14.8229 149.068 15.243 148.858 15.6931L146.902 20.104C146.692 20.5541 146.421 20.8541 146.12 21.0042C145.819 21.1542 145.458 21.1542 145.127 20.9742C144.375 20.6441 144.195 19.984 144.616 19.0538L146.361 15.153C146.692 14.4028 146.842 13.8027 146.782 13.2926C146.752 12.7825 146.421 12.4224 145.789 12.1524C145.368 11.9724 144.947 11.9123 144.526 12.0024C144.104 12.0924 143.713 12.3024 143.352 12.6325C143.082 12.9325 142.751 13.5027 142.36 14.3728L141.006 17.4334C140.795 17.8835 140.554 18.1836 140.224 18.3336C139.923 18.4837 139.562 18.4837 139.201 18.3036C138.449 17.9736 138.268 17.3134 138.689 16.3832L143.172 6.36124C143.382 5.88114 143.623 5.58108 143.954 5.43105C144.255 5.28102 144.586 5.28102 144.947 5.46106C145.308 5.61109 145.548 5.88114 145.639 6.21121C145.699 6.57128 145.639 6.99136 145.428 7.44145Z" fill="#040D6A"/>
<path d="M158.154 20.7042C157.733 21.3343 157.161 21.7244 156.409 21.8744C155.657 22.0244 154.965 21.9044 154.333 21.4843C153.701 21.0642 153.31 20.4941 153.16 19.774C153.009 19.0538 153.13 18.3637 153.551 17.7036C153.972 17.0734 154.544 16.6834 155.266 16.5033C156.018 16.3233 156.68 16.4733 157.341 16.8634C157.763 17.1334 158.063 17.4935 158.304 17.9136C158.515 18.3637 158.635 18.8138 158.605 19.3239C158.575 19.864 158.424 20.3141 158.154 20.7042Z" fill="#040D6A"/>
<path d="M169.345 33.3667C169.044 33.6967 168.653 33.9668 168.142 34.1768C167.63 34.4169 167.059 34.5369 166.397 34.5969C165.735 34.6569 165.043 34.5369 164.291 34.2669C163.539 33.9968 162.847 33.5467 162.155 32.9166C161.613 32.4365 161.192 31.9264 160.861 31.4463C160.53 30.9362 160.259 30.4261 160.109 29.886C159.959 29.3459 159.898 28.7758 159.898 28.1456C159.929 27.5755 160.019 27.0354 160.199 26.4653C160.38 25.8952 160.62 25.3551 160.921 24.845C161.222 24.3049 161.613 23.7948 162.095 23.3147C162.847 22.5045 163.629 21.9044 164.441 21.4843C165.253 21.0642 166.096 20.8242 166.968 20.7942C167.811 20.7342 168.653 20.8842 169.465 21.1842C170.278 21.4843 171 21.9344 171.661 22.5645C172.474 23.3147 173.045 24.1248 173.376 25.025C173.707 25.9252 173.828 26.7654 173.707 27.5455C173.617 28.3257 173.346 28.9258 172.955 29.3459C172.744 29.5859 172.474 29.7059 172.143 29.736C171.812 29.766 171.541 29.6759 171.3 29.4659C171.03 29.2259 170.909 28.9858 170.879 28.7458C170.849 28.5057 170.909 28.1456 171.03 27.7256C171.21 26.9754 171.27 26.3453 171.12 25.7452C171 25.175 170.669 24.6349 170.127 24.1548C169.285 23.3747 168.352 23.1046 167.269 23.2547C166.186 23.4347 165.103 24.0948 164.05 25.2651C163.328 26.0452 162.847 26.7954 162.576 27.5155C162.305 28.2357 162.275 28.8958 162.426 29.5259C162.576 30.156 162.937 30.6961 163.478 31.2063C164.05 31.7464 164.682 32.0464 165.344 32.1364C166.006 32.2265 166.698 32.0764 167.42 31.7164C167.75 31.5363 168.051 31.4163 168.322 31.3563C168.593 31.2963 168.894 31.4163 169.164 31.6863C169.405 31.8964 169.525 32.1964 169.556 32.4965C169.706 32.8266 169.586 33.1266 169.345 33.3667Z" fill="#040D6A"/>
<path d="M176.144 40.8682C175.542 41.3483 174.941 41.6784 174.309 41.9185C173.677 42.1285 173.015 42.2185 172.384 42.1585C171.752 42.0985 171.15 41.9185 170.548 41.5884C169.977 41.2583 169.435 40.8082 168.954 40.2081C168.473 39.608 168.142 39.0079 167.931 38.3778C167.72 37.7476 167.69 37.1175 167.751 36.4874C167.841 35.8572 168.051 35.2571 168.382 34.657C168.713 34.0869 169.195 33.5468 169.796 33.0667C170.398 32.5866 171 32.2265 171.661 32.0165C172.293 31.8064 172.955 31.7164 173.557 31.7764C174.159 31.8364 174.79 32.0165 175.362 32.3465C175.933 32.6766 176.475 33.1267 176.956 33.7268C177.438 34.3269 177.769 34.9271 177.979 35.5872C178.19 36.2473 178.25 36.8774 178.16 37.5076C178.069 38.1377 177.859 38.7378 177.528 39.3079C177.197 39.8781 176.746 40.3882 176.144 40.8682ZM174.55 38.9179C175.362 38.2577 175.843 37.5976 175.994 36.8775C176.144 36.1573 175.994 35.4972 175.512 34.9271C175.211 34.537 174.82 34.2969 174.399 34.1469C173.948 34.0269 173.497 34.0269 172.955 34.1769C172.444 34.3269 171.902 34.627 171.391 35.0471C170.879 35.4672 170.488 35.9173 170.217 36.3673C169.947 36.8474 169.856 37.2975 169.887 37.7476C169.917 38.1977 170.097 38.6178 170.398 39.0079C170.879 39.608 171.481 39.9081 172.233 39.878C172.985 39.878 173.737 39.548 174.55 38.9179Z" fill="#040D6A"/>
<path d="M180.446 48.3697L177.528 50.05C177.077 50.32 176.656 50.4101 176.295 50.32C175.934 50.23 175.663 50.02 175.482 49.6899C175.302 49.3599 175.242 49.0298 175.362 48.6697C175.482 48.3397 175.753 48.0396 176.235 47.7695L179.754 45.7591C180.296 45.4291 180.717 45.189 181.018 44.979C181.289 44.7689 181.499 44.5289 181.59 44.2288C181.68 43.9588 181.65 43.6287 181.439 43.2686C181.018 42.5485 180.507 42.2184 179.875 42.2784C179.243 42.3384 178.461 42.6085 177.558 43.1486L174.58 44.859C174.129 45.129 173.707 45.219 173.377 45.129C173.016 45.069 172.745 44.859 172.564 44.4989C172.384 44.1688 172.324 43.8387 172.444 43.4787C172.564 43.1486 172.835 42.8185 173.286 42.5785L179.574 38.9778C179.995 38.7377 180.356 38.6477 180.687 38.7377C181.018 38.7977 181.259 39.0078 181.439 39.3078C181.62 39.6079 181.65 39.908 181.56 40.238C181.469 40.5681 181.259 40.8081 180.898 41.0182L180.687 41.1382C181.349 41.2582 181.921 41.4683 182.402 41.7983C182.853 42.0984 183.244 42.5185 183.545 43.0586C183.876 43.5987 184.026 44.1388 184.026 44.6789C184.026 45.189 183.876 45.7291 183.575 46.2392C184.237 46.3593 184.809 46.5693 185.26 46.8694C185.711 47.1694 186.102 47.5895 186.403 48.0996C186.734 48.6997 186.915 49.2698 186.945 49.84C186.945 50.4101 186.794 50.9202 186.493 51.4003C186.193 51.8203 185.621 52.2704 184.779 52.7505L180.477 55.211C180.025 55.4811 179.604 55.5711 179.243 55.4811C178.882 55.3911 178.611 55.181 178.431 54.851C178.25 54.5209 178.19 54.1908 178.31 53.8307C178.431 53.5007 178.702 53.1706 179.153 52.9306L182.853 50.8301C183.335 50.5601 183.696 50.32 183.966 50.11C184.237 49.9 184.418 49.6599 184.508 49.3899C184.598 49.0898 184.538 48.7897 184.327 48.4297C184.147 48.1296 183.906 47.9196 183.605 47.7395C183.274 47.5895 182.943 47.4995 182.552 47.5295C182.071 47.5595 181.379 47.8596 180.446 48.3697Z" fill="#040D6A"/>
<path d="M187.967 55.0311L187.666 55.1511C188.388 55.3911 188.96 55.6912 189.411 56.0813C189.863 56.4713 190.194 56.9514 190.404 57.5816C190.675 58.3017 190.735 59.0519 190.585 59.802C190.434 60.5522 190.073 61.2423 189.472 61.8724C188.87 62.5026 188.088 62.9826 187.095 63.3727C186.373 63.6428 185.651 63.7928 184.959 63.8228C184.267 63.8528 183.665 63.7628 183.094 63.5528C182.552 63.3427 182.071 63.0427 181.65 62.6526C181.228 62.2325 180.928 61.7524 180.717 61.2123C180.476 60.5222 180.386 59.922 180.476 59.3519C180.567 58.7818 180.807 58.2117 181.168 57.5816L177.618 58.9018C176.565 59.2919 175.903 59.1119 175.633 58.3617C175.452 57.9116 175.482 57.5816 175.693 57.3115C175.903 57.0715 176.264 56.8614 176.776 56.6514L187.005 52.8406C187.456 52.6606 187.817 52.6306 188.118 52.7506C188.419 52.8706 188.629 53.0807 188.75 53.4407C188.87 53.7708 188.87 54.1009 188.719 54.4009C188.569 54.701 188.388 54.881 187.967 55.0311ZM186.252 60.9722C186.884 60.7322 187.366 60.4321 187.757 60.0721C188.148 59.712 188.388 59.3219 188.509 58.9018C188.629 58.4818 188.599 58.0617 188.449 57.6416C188.208 56.9815 187.727 56.5314 187.065 56.2913C186.373 56.0213 185.53 56.0813 184.538 56.4713C183.605 56.8314 182.943 57.3115 182.582 57.9716C182.221 58.6018 182.161 59.2619 182.432 59.922C182.582 60.3121 182.823 60.6422 183.184 60.8822C183.545 61.1223 183.996 61.2723 184.508 61.3023C185.019 61.3023 185.591 61.2123 186.252 60.9722Z" fill="#040D6A"/>
<path d="M192.029 63.1327L192.089 63.4027L193.563 63.0126C193.954 62.9226 194.285 62.8326 194.495 62.8026C194.736 62.7726 194.947 62.7726 195.127 62.8326C195.308 62.8926 195.488 62.9826 195.639 63.1327C195.789 63.2827 195.909 63.4627 195.94 63.7028C196.03 64.0028 195.97 64.3329 195.819 64.633C195.699 64.843 195.548 64.993 195.338 65.1131C195.127 65.2031 194.796 65.3231 194.405 65.4131L192.72 65.8332L192.961 66.7334C193.051 67.0935 193.051 67.3635 192.931 67.6036C192.811 67.8136 192.63 67.9636 192.359 68.0537C192.029 68.1437 191.758 68.0537 191.577 67.8436C191.367 67.6036 191.216 67.2735 191.096 66.7934L190.976 66.3433L186.463 67.5135C186.072 67.6036 185.801 67.6936 185.59 67.7836C185.38 67.8736 185.229 67.9936 185.139 68.1437C185.049 68.2937 185.019 68.5037 185.079 68.7738C185.109 68.9238 185.199 69.1039 185.32 69.3439C185.44 69.584 185.5 69.764 185.56 69.884C185.621 70.0941 185.59 70.2741 185.47 70.4841C185.35 70.6942 185.169 70.8142 184.929 70.8742C184.538 70.9642 184.176 70.8442 183.846 70.4541C183.515 70.0641 183.244 69.4939 183.063 68.6838C182.853 67.9336 182.853 67.3035 183.003 66.8534C183.154 66.4033 183.454 66.0433 183.876 65.8032C184.297 65.5632 184.899 65.3531 185.651 65.1431L190.374 63.9128L190.284 63.5828C190.193 63.2227 190.193 62.9526 190.314 62.7126C190.434 62.4725 190.615 62.3225 190.885 62.2625C191.156 62.2025 191.367 62.2325 191.607 62.3825C191.758 62.5025 191.908 62.7726 192.029 63.1327Z" fill="#040D6A"/>
<path d="M189.11 76.7254L188.358 71.8344C187.787 71.9244 187.305 72.1045 186.914 72.4045C186.523 72.7046 186.222 73.0346 186.072 73.4547C185.922 73.8448 185.861 74.2949 185.922 74.715C185.982 75.015 186.042 75.2851 186.162 75.5251C186.283 75.7652 186.403 75.9752 186.613 76.1853C186.794 76.3953 187.005 76.5754 187.185 76.7554C187.396 76.9354 187.666 77.1455 187.997 77.4155C188.118 77.5355 188.208 77.7156 188.238 77.9256C188.268 78.1957 188.238 78.4057 188.118 78.5858C187.997 78.7658 187.817 78.8858 187.546 78.9158C187.305 78.9458 187.035 78.9158 186.704 78.7658C186.373 78.6458 186.042 78.4057 185.711 78.1057C185.38 77.8056 185.079 77.3855 184.808 76.8754C184.538 76.3653 184.357 75.7652 184.237 75.045C183.996 73.4547 184.267 72.1345 185.049 71.0843C185.831 70.064 187.005 69.4039 188.569 69.1639C189.321 69.0438 190.013 69.0438 190.675 69.1639C191.337 69.2839 191.938 69.5239 192.45 69.884C192.961 70.2441 193.382 70.6942 193.743 71.2943C194.074 71.8644 194.315 72.5245 194.435 73.2747C194.586 74.2649 194.496 75.1351 194.195 75.8852C193.894 76.6354 193.443 77.2655 192.841 77.6856C192.239 78.1357 191.607 78.4057 190.916 78.5257C190.284 78.6158 189.863 78.4957 189.622 78.1657C189.381 77.8656 189.231 77.3855 189.11 76.7254ZM189.772 71.6244L190.464 76.1553C191.307 75.9752 191.908 75.6452 192.269 75.1651C192.63 74.715 192.751 74.1449 192.66 73.4847C192.57 72.8546 192.269 72.3745 191.788 72.0444C191.307 71.7144 190.645 71.5643 189.772 71.6244Z" fill="#040D6A"/>
<path d="M113.328 115.193V56.2613C113.328 55.6012 112.606 55.0911 111.733 55.0911C110.861 55.0911 110.139 55.6312 110.139 56.2613V114.383L112.846 115.253L113.328 115.193Z" fill="#C6C6C6"/>
<path d="M81.2279 79.786L85.2893 85.6671C85.5901 86.0872 86.0113 86.3573 86.5227 86.4473L123.677 93.2887C124.7 93.4687 125.693 92.8086 125.903 91.7584L127.738 81.8564C127.919 80.8362 127.257 79.846 126.204 79.6359L89.0498 72.7946C88.5685 72.7046 88.057 72.8246 87.6358 73.0946L81.7393 77.1454C80.8368 77.7456 80.6262 78.9158 81.2279 79.786Z" fill="white"/>
<path d="M80.5659 80.1461C81.6791 81.7364 82.7621 83.3567 83.8752 84.947C84.4468 85.7872 84.9583 86.7174 86.0112 87.0774C86.2519 87.1675 86.4926 87.1975 86.7633 87.2275C87.9366 87.4375 89.1099 87.6476 90.2832 87.8876C92.2989 88.2477 94.3446 88.6378 96.3603 88.9978C98.8272 89.4479 101.294 89.898 103.761 90.3481C106.288 90.8282 108.815 91.2783 111.372 91.7584C113.569 92.1484 115.735 92.5685 117.931 92.9586C119.405 93.2287 120.849 93.4987 122.323 93.7688C122.654 93.8288 122.985 93.8888 123.316 93.9488C124.339 94.1289 125.362 93.9188 126.024 93.0786C126.565 92.4185 126.625 91.6684 126.776 90.8582C126.986 89.748 127.197 88.6678 127.377 87.5575C127.708 85.7272 128.099 83.8668 128.4 82.0364C128.641 80.5961 127.798 79.1859 126.324 78.8858C126.084 78.8258 125.843 78.7958 125.602 78.7658C124.279 78.5257 122.955 78.2857 121.631 78.0456C119.525 77.6556 117.419 77.2655 115.313 76.8754C112.816 76.4253 110.289 75.9452 107.792 75.4951C105.295 75.045 102.798 74.5649 100.301 74.1148C98.1954 73.7248 96.0594 73.3347 93.9535 72.9446C92.6298 72.7046 91.3061 72.4645 89.9824 72.2245C89.7417 72.1645 89.4709 72.1344 89.2303 72.0744C88.5985 71.9544 87.9968 72.0144 87.3951 72.3145C87.1544 72.4345 86.9438 72.5845 86.7333 72.7346C84.9884 73.9348 83.2134 75.135 81.4685 76.3653C81.0774 76.6353 80.6863 76.9354 80.4456 77.3855C79.9943 78.2557 80.0244 79.3359 80.5659 80.1461C81.0774 80.9562 82.4011 80.2061 81.8596 79.3959C81.4986 78.8558 81.5587 78.1957 82.0702 77.7756C82.2507 77.6256 82.4312 77.5355 82.6117 77.3855C83.5443 76.7554 84.4769 76.0952 85.4095 75.4651C86.1917 74.925 87.004 74.3849 87.7862 73.8148C88.1472 73.5747 88.5082 73.4247 88.9294 73.5147C89.862 73.6948 90.7646 73.8448 91.6972 74.0248C93.5022 74.3549 95.3374 74.685 97.1425 75.015C99.4891 75.4351 101.836 75.8852 104.152 76.3053C106.649 76.7554 109.146 77.2355 111.643 77.6856C113.93 78.1056 116.186 78.5257 118.472 78.9458C120.187 79.2459 121.902 79.5759 123.617 79.876C124.369 80.026 125.151 80.1461 125.903 80.2961C126.625 80.4461 127.046 81.0162 126.896 81.7364C126.776 82.4865 126.625 83.2667 126.475 84.0168C126.054 86.2373 125.662 88.4577 125.241 90.7082C125.121 91.3383 125.091 92.1485 124.399 92.4485C124.068 92.5985 123.797 92.5385 123.466 92.4785C122.383 92.2685 121.3 92.0884 120.247 91.8784C118.322 91.5183 116.427 91.1583 114.501 90.8282C112.125 90.3781 109.748 89.958 107.371 89.5079C104.874 89.0578 102.377 88.5777 99.9102 88.1277C97.684 87.7076 95.4577 87.3175 93.2315 86.8974C91.637 86.5973 90.0425 86.2973 88.4481 86.0272C87.8163 85.9072 87.1244 85.8472 86.4926 85.6672C86.1316 85.5771 85.921 85.3071 85.7405 85.037C85.4998 84.707 85.2591 84.3469 85.0485 84.0168C84.3566 83.0266 83.6646 82.0064 82.9727 81.0162C82.6117 80.4761 82.2206 79.936 81.8596 79.3959C81.6189 79.0658 81.1977 78.9158 80.8367 79.1259C80.5058 79.3359 80.3554 79.816 80.5659 80.1461Z" fill="#FC751A"/>
<path d="M90.0729 80.4462L90.6746 80.7162C90.4339 81.1963 90.1331 81.5564 89.742 81.7665C89.3509 81.9765 88.8996 82.0365 88.4183 81.9465C87.9069 81.8565 87.5158 81.6764 87.2149 81.4064C86.9442 81.1363 86.7336 80.7763 86.6433 80.3562C86.5531 79.9361 86.5531 79.486 86.6132 79.0359C86.7035 78.5258 86.884 78.1357 87.1247 77.8057C87.3954 77.4756 87.6963 77.2356 88.0874 77.1155C88.4785 76.9955 88.8696 76.9655 89.2907 77.0555C89.7721 77.1455 90.1331 77.3256 90.4339 77.6556C90.7047 77.9557 90.8852 78.3458 90.9153 78.7959L90.2534 78.8259C90.1933 78.4658 90.103 78.1657 89.9225 77.9857C89.742 77.7757 89.5013 77.6556 89.1704 77.5956C88.8094 77.5356 88.4785 77.5656 88.2077 77.6856C87.9369 77.8057 87.7263 78.0157 87.5458 78.2858C87.3954 78.5558 87.2751 78.8559 87.2149 79.1859C87.1547 79.576 87.1247 79.9661 87.1848 80.2662C87.245 80.5962 87.3954 80.8363 87.606 81.0463C87.8166 81.2564 88.0874 81.3764 88.3882 81.4064C88.7492 81.4664 89.0501 81.4364 89.3509 81.2564C89.6818 81.1063 89.8924 80.8363 90.0729 80.4462Z" fill="#FC751A"/>
<path d="M90.0126 80.5062C90.2232 80.5962 90.4037 80.6862 90.6143 80.7762C90.6143 80.7462 90.5842 80.7162 90.5842 80.6862C90.2232 81.4064 89.6215 81.9465 88.7491 81.9165C87.9368 81.8865 87.1546 81.5264 86.8237 80.7762C86.4627 79.9961 86.5529 78.9459 86.944 78.1957C87.3351 77.4456 88.1173 77.0255 88.9597 77.0555C89.9524 77.1155 90.7046 77.7456 90.8249 78.7658C90.855 78.7358 90.8851 78.7058 90.8851 78.7058C90.6745 78.7058 90.4639 78.7358 90.2232 78.7358C90.2533 78.7658 90.2834 78.7658 90.2834 78.7959C90.1931 78.1657 89.8622 77.6856 89.2304 77.5356C88.5986 77.3856 87.9067 77.5656 87.5457 78.1357C87.1546 78.7058 87.0042 79.546 87.0944 80.2361C87.2148 80.8963 87.6961 81.3764 88.358 81.5264C89.1402 81.6764 89.7719 81.2263 90.0728 80.5362C90.1029 80.4462 89.9825 80.3862 89.9524 80.4462C89.802 80.7462 89.6215 81.0763 89.3207 81.2263C88.9597 81.4364 88.5084 81.4364 88.1173 81.2863C87.305 80.9563 87.1546 80.0861 87.2749 79.3059C87.3953 78.5558 87.7864 77.7456 88.6287 77.6556C89.0198 77.6256 89.441 77.7156 89.7419 77.9557C90.0126 78.1957 90.1029 78.5258 90.163 78.8559C90.163 78.8859 90.1931 78.9159 90.2232 78.9159C90.4338 78.9159 90.6444 78.8859 90.8851 78.8859C90.9151 78.8859 90.9753 78.8559 90.9452 78.8259C90.855 77.9557 90.3135 77.2955 89.4711 77.0555C88.5686 76.8154 87.6059 77.0555 87.0343 77.8056C86.4626 78.5558 86.3122 79.636 86.5228 80.5062C86.7635 81.3764 87.4554 81.9165 88.3279 82.0665C89.3808 82.2465 90.2232 81.7364 90.6745 80.8062C90.7046 80.7762 90.6745 80.7162 90.6444 80.7162C90.4338 80.6262 90.2533 80.5362 90.0427 80.4462C90.0126 80.3562 89.9224 80.4762 90.0126 80.5062Z" fill="#FC751A"/>
<path d="M91.1857 80.5962C91.3061 79.9661 91.5768 79.516 91.9679 79.276C92.2989 79.0659 92.69 79.0059 93.1111 79.0959C93.5925 79.1859 93.9535 79.396 94.1942 79.7861C94.4349 80.1461 94.495 80.5962 94.4048 81.1663C94.3145 81.6164 94.1942 81.9465 94.0137 82.1865C93.8332 82.4266 93.5925 82.5766 93.3217 82.6666C93.051 82.7567 92.7501 82.7867 92.4493 82.7267C91.9679 82.6366 91.6069 82.3966 91.3662 82.0365C91.1557 81.6464 91.0654 81.1963 91.1857 80.5962ZM91.7874 80.7162C91.6972 81.1663 91.7273 81.4964 91.9078 81.7665C92.0582 82.0365 92.2688 82.1865 92.5696 82.2165C92.8705 82.2766 93.1111 82.2165 93.3518 82.0065C93.5925 81.8265 93.7429 81.4964 93.8332 81.0463C93.9234 80.6262 93.8632 80.2662 93.7128 80.0261C93.5624 79.7561 93.3518 79.606 93.051 79.576C92.7501 79.516 92.5095 79.576 92.2688 79.7561C92.0281 79.9661 91.8777 80.2662 91.7874 80.7162Z" fill="#FC751A"/>
<path d="M91.2461 80.6262C91.3664 79.9661 91.6973 79.366 92.3893 79.1859C93.0812 79.0059 93.8634 79.306 94.1943 79.9361C94.3749 80.2361 94.4049 80.6262 94.3448 80.9563C94.3147 81.3164 94.1943 81.7064 94.0138 82.0065C93.6227 82.6366 92.7503 82.7867 92.0884 82.5166C91.7575 82.3966 91.4567 82.1265 91.3062 81.7965C91.1859 81.4364 91.1859 81.0163 91.2461 80.6262C91.2762 80.5362 91.1257 80.5062 91.0956 80.5962C90.9753 81.3464 91.0957 82.1265 91.7876 82.5466C92.4495 82.9667 93.3821 82.9367 93.9537 82.3666C94.2244 82.0965 94.3749 81.7365 94.4651 81.3764C94.5554 80.9863 94.5854 80.5362 94.4651 80.1461C94.2244 79.396 93.4723 78.9759 92.6901 79.0059C92.299 79.0359 91.9079 79.1859 91.6071 79.486C91.3062 79.7861 91.1558 80.2061 91.0956 80.5962C91.0956 80.6862 91.2461 80.7162 91.2461 80.6262Z" fill="#FC751A"/>
<path d="M91.7273 80.6862C91.637 81.1963 91.6671 81.7665 92.1485 82.1265C92.5997 82.4266 93.2014 82.3666 93.5624 81.9465C93.7129 81.7665 93.8332 81.5264 93.8934 81.2563C93.9535 80.9563 94.0137 80.6562 93.9535 80.3562C93.8633 79.8461 93.3819 79.456 92.8705 79.486C92.1485 79.516 91.8175 80.1161 91.7273 80.6862C91.6972 80.7763 91.8476 80.8063 91.8777 80.7162C91.968 80.2662 92.1485 79.8161 92.5997 79.666C93.0811 79.516 93.5624 79.7861 93.743 80.2361C93.8934 80.6862 93.773 81.2564 93.5624 81.6464C93.3218 82.0665 92.8103 82.2466 92.3591 82.0665C91.8175 81.8265 91.7875 81.2263 91.8777 80.7162C91.8777 80.6562 91.7273 80.5962 91.7273 80.6862Z" fill="#FC751A"/>
<path d="M94.7959 83.0566L95.4277 79.606L95.9692 79.696L95.8789 80.1761C96.2099 79.846 96.601 79.726 97.0823 79.816C97.2929 79.846 97.4734 79.936 97.6238 80.026C97.7743 80.1161 97.8946 80.2661 97.9548 80.3861C98.0149 80.5061 98.045 80.6862 98.045 80.8662C98.045 80.9862 98.0149 81.1663 97.9848 81.4363L97.5937 83.5668L97.0221 83.4467L97.4132 81.3463C97.4433 81.1063 97.4734 80.9262 97.4433 80.8062C97.4132 80.6862 97.3531 80.5662 97.2628 80.4761C97.1726 80.3861 97.0221 80.3261 96.8717 80.2961C96.631 80.2361 96.3904 80.2961 96.1798 80.4161C95.9692 80.5361 95.8188 80.8362 95.7285 81.2563L95.3675 83.1467L94.7959 83.0566Z" fill="#FC751A"/>
<path d="M94.8563 83.0867C95.0368 82.0965 95.2173 81.0763 95.4279 80.0861C95.458 79.9361 95.4881 79.786 95.5181 79.666C95.4881 79.696 95.458 79.696 95.4279 79.726C95.6084 79.756 95.7889 79.786 95.9694 79.816C95.9393 79.786 95.9393 79.756 95.9092 79.726C95.8792 79.876 95.8491 80.0561 95.819 80.2061C95.819 80.2661 95.8792 80.3261 95.9393 80.2661C96.3605 79.846 96.9923 79.786 97.5338 80.0861C98.0753 80.3861 98.0452 80.9263 97.955 81.4664C97.8647 81.9765 97.7745 82.4566 97.6842 82.9667C97.6541 83.1767 97.594 83.3867 97.5639 83.5668C97.594 83.5368 97.6241 83.5368 97.6541 83.5068C97.4736 83.4768 97.263 83.4468 97.0825 83.3867C97.1126 83.4167 97.1126 83.4468 97.1427 83.4768C97.2029 83.0867 97.2931 82.7266 97.3533 82.3365C97.4435 81.9164 97.5338 81.5264 97.5639 81.1063C97.594 80.7462 97.4736 80.4462 97.1427 80.2961C96.8118 80.1461 96.3605 80.1761 96.0897 80.4462C95.7588 80.7462 95.7287 81.3163 95.6385 81.7364C95.5482 82.1865 95.458 82.6666 95.3677 83.1167C95.3978 83.0867 95.4279 83.0867 95.458 83.0567C95.2775 83.0267 95.0669 82.9967 94.8864 82.9367C94.7961 82.9066 94.766 83.0567 94.8563 83.0867C95.0368 83.1167 95.2474 83.1467 95.4279 83.2067C95.458 83.2067 95.5181 83.2067 95.5181 83.1467C95.5783 82.8166 95.6385 82.4566 95.6986 82.1265C95.7588 81.7664 95.819 81.3763 95.9092 81.0463C96.0296 80.6262 96.2703 80.3261 96.7516 80.3561C96.9923 80.3561 97.263 80.4762 97.3834 80.6862C97.4736 80.8662 97.4435 81.1363 97.3834 81.3163C97.3232 81.6464 97.263 81.9465 97.2029 82.2765C97.1427 82.6666 97.0524 83.0267 96.9923 83.4168C96.9923 83.4468 96.9923 83.5068 97.0524 83.5068C97.233 83.5368 97.4435 83.5668 97.6241 83.6268C97.6541 83.6268 97.7143 83.6268 97.7143 83.5668C97.8046 82.9967 97.9249 82.4265 98.0151 81.8564C98.0753 81.6164 98.1054 81.3463 98.1355 81.1063C98.2257 80.5362 97.9851 80.0561 97.4435 79.816C96.8719 79.576 96.2703 79.666 95.819 80.0861C95.8491 80.1161 95.9092 80.1461 95.9393 80.1461C95.9694 79.9961 95.9995 79.816 96.0296 79.666C96.0296 79.636 96.0296 79.576 95.9694 79.576C95.7889 79.546 95.6084 79.516 95.4279 79.486C95.3978 79.486 95.3376 79.486 95.3376 79.546C95.1571 80.5362 94.9766 81.5564 94.766 82.5466C94.7359 82.6966 94.7059 82.8466 94.6758 82.9667C94.7059 83.1167 94.8563 83.1767 94.8563 83.0867Z" fill="#FC751A"/>
<path d="M98.6465 83.7768L99.188 80.7762L98.6766 80.6862L98.7668 80.2361L99.2783 80.3261L99.3384 79.966C99.3685 79.726 99.4287 79.5759 99.4889 79.4559C99.5791 79.3059 99.6994 79.2159 99.8499 79.1559C100 79.0958 100.211 79.0658 100.482 79.1259C100.632 79.1559 100.813 79.2159 101.023 79.2759L100.843 79.756C100.722 79.726 100.602 79.666 100.512 79.666C100.331 79.636 100.211 79.636 100.121 79.696C100.03 79.756 99.9702 79.906 99.9401 80.086L99.8799 80.4161L100.542 80.5361L100.452 80.9862L99.7897 80.8662L99.2482 83.8668L98.6465 83.7768Z" fill="#FC751A"/>
<path d="M98.7069 83.7768C98.8874 82.7866 99.0679 81.7964 99.2484 80.7762C99.2484 80.7462 99.2484 80.6862 99.1882 80.6862C99.0077 80.6562 98.8573 80.6262 98.6768 80.5962C98.7069 80.6262 98.7069 80.6562 98.737 80.6862C98.767 80.5362 98.7971 80.3861 98.8272 80.2361C98.7971 80.2661 98.767 80.2661 98.737 80.2961C98.9175 80.3261 99.0679 80.3561 99.2484 80.3861C99.2785 80.3861 99.3387 80.3861 99.3387 80.3261C99.3988 80.0561 99.3988 79.726 99.5492 79.486C99.8501 78.9458 100.542 79.1259 100.993 79.3059C100.963 79.2759 100.963 79.2459 100.933 79.2159C100.873 79.3659 100.813 79.546 100.753 79.696C100.783 79.666 100.813 79.666 100.843 79.636C100.572 79.546 100.151 79.3959 99.9403 79.696C99.82 79.876 99.7899 80.1461 99.7598 80.3561C99.7598 80.3861 99.7598 80.4462 99.82 80.4462C100.031 80.4762 100.271 80.5362 100.482 80.5662C100.452 80.5362 100.452 80.5062 100.422 80.4762C100.392 80.6262 100.362 80.7762 100.331 80.9262C100.362 80.8962 100.392 80.8962 100.422 80.8662C100.211 80.8362 99.9704 80.7762 99.7598 80.7462C99.7297 80.7462 99.6696 80.7462 99.6696 80.8062C99.4891 81.7964 99.3086 82.7866 99.1281 83.8068C99.1581 83.7768 99.1882 83.7768 99.2183 83.7468C99.0378 83.7168 98.8272 83.6868 98.6467 83.6268C98.5564 83.5968 98.5264 83.7468 98.6166 83.7768C98.7971 83.8068 99.0077 83.8368 99.1882 83.8968C99.2183 83.8968 99.2785 83.8968 99.2785 83.8368C99.459 82.8466 99.6395 81.8564 99.82 80.8362C99.7899 80.8662 99.7598 80.8662 99.7297 80.8962C99.9403 80.9262 100.181 80.9863 100.392 81.0163C100.422 81.0163 100.482 81.0163 100.482 80.9562C100.512 80.8062 100.542 80.6562 100.572 80.5062C100.572 80.4762 100.572 80.4161 100.512 80.4161C100.301 80.3861 100.061 80.3261 99.8501 80.2961C99.8802 80.3261 99.8802 80.3561 99.9103 80.3861C99.9403 80.2661 99.9403 80.1461 99.9704 80.0261C100.001 79.876 100.031 79.726 100.211 79.666C100.392 79.606 100.632 79.696 100.813 79.756C100.843 79.756 100.903 79.726 100.903 79.696C100.963 79.546 101.023 79.3659 101.084 79.2159C101.084 79.1859 101.053 79.1259 101.023 79.1259C100.542 78.9459 99.9403 78.7958 99.5191 79.1859C99.2484 79.4559 99.2484 79.876 99.1581 80.2361C99.1882 80.2061 99.2183 80.2061 99.2484 80.1761C99.0679 80.1461 98.9175 80.1161 98.737 80.0861C98.7069 80.0861 98.6467 80.0861 98.6467 80.1461C98.6166 80.2961 98.5865 80.4462 98.5565 80.5962C98.5565 80.6262 98.5564 80.6862 98.6166 80.6862C98.7971 80.7162 98.9475 80.7462 99.1281 80.7762C99.098 80.7462 99.098 80.7162 99.0679 80.6862C98.8874 81.6764 98.7069 82.6666 98.5264 83.6868C98.5565 83.8368 98.7069 83.8668 98.7069 83.7768Z" fill="#FC751A"/>
<path d="M101.114 79.9961L101.234 79.3359L101.806 79.456L101.686 80.1161L101.114 79.9961ZM100.362 84.0769L100.994 80.6262L101.565 80.7462L100.933 84.1969L100.362 84.0769Z" fill="#FC751A"/>
<path d="M101.174 80.0261C101.204 79.8161 101.234 79.6361 101.294 79.426C101.294 79.396 101.294 79.366 101.324 79.336C101.294 79.366 101.264 79.366 101.234 79.396C101.415 79.426 101.625 79.456 101.806 79.516C101.776 79.486 101.776 79.456 101.745 79.426C101.715 79.6361 101.685 79.8161 101.625 80.0261C101.625 80.0561 101.625 80.0861 101.595 80.1161C101.625 80.0861 101.655 80.0861 101.685 80.0561C101.505 80.0261 101.294 79.9961 101.114 79.9361C101.084 79.9361 101.023 79.9361 101.023 79.9961C101.023 80.0261 101.023 80.0861 101.084 80.0861C101.264 80.1161 101.475 80.1461 101.655 80.2062C101.685 80.2062 101.745 80.2062 101.745 80.1462C101.776 79.9361 101.806 79.7561 101.866 79.546C101.866 79.516 101.866 79.486 101.896 79.456C101.896 79.426 101.896 79.366 101.836 79.366C101.655 79.336 101.445 79.306 101.264 79.246C101.234 79.246 101.174 79.246 101.174 79.306C101.144 79.516 101.114 79.6961 101.054 79.9061C101.054 79.9361 101.054 79.9661 101.023 79.9961C101.023 80.0261 101.023 80.0861 101.084 80.0861C101.114 80.0861 101.174 80.0561 101.174 80.0261Z" fill="#FC751A"/>
<path d="M100.422 84.107C100.602 83.1168 100.783 82.0966 100.994 81.1064C101.024 80.9564 101.054 80.8063 101.084 80.6563C101.054 80.6863 101.024 80.6863 100.994 80.7163C101.174 80.7463 101.385 80.7763 101.565 80.8363C101.535 80.8063 101.535 80.7763 101.505 80.7463C101.324 81.7365 101.144 82.7567 100.933 83.7469C100.903 83.897 100.873 84.047 100.843 84.197C100.873 84.167 100.903 84.167 100.933 84.137C100.753 84.107 100.542 84.077 100.362 84.017C100.271 83.987 100.241 84.137 100.332 84.167C100.512 84.197 100.723 84.227 100.903 84.287C100.933 84.287 100.994 84.287 100.994 84.227C101.174 83.2368 101.355 82.2166 101.565 81.2264C101.595 81.0764 101.625 80.9264 101.655 80.7763C101.655 80.7463 101.655 80.6863 101.595 80.6863C101.415 80.6563 101.204 80.6263 101.024 80.5663C100.994 80.5663 100.933 80.5663 100.933 80.6263C100.753 81.6165 100.572 82.6367 100.362 83.6269C100.332 83.7769 100.302 83.927 100.271 84.077C100.271 84.167 100.422 84.197 100.422 84.107Z" fill="#FC751A"/>
<path d="M101.836 84.3469L102.468 80.8962L103.009 80.9863L102.919 81.4964C103.099 81.2863 103.25 81.1363 103.37 81.0763C103.491 81.0163 103.641 81.0163 103.761 81.0163C103.972 81.0463 104.152 81.1663 104.333 81.3163L104.032 81.8264C103.912 81.7064 103.761 81.6464 103.641 81.6164C103.521 81.5864 103.4 81.6164 103.28 81.6764C103.16 81.7364 103.069 81.8264 103.009 81.9465C102.919 82.1565 102.829 82.3665 102.799 82.6066L102.468 84.4069L101.836 84.3469Z" fill="#FC751A"/>
<path d="M101.896 84.3769C102.077 83.3867 102.257 82.3665 102.468 81.3763C102.498 81.2263 102.528 81.0763 102.558 80.9263C102.528 80.9563 102.498 80.9563 102.468 80.9863C102.648 81.0163 102.829 81.0463 103.009 81.0763C102.979 81.0463 102.979 81.0163 102.949 80.9863C102.919 81.1663 102.889 81.3463 102.859 81.4964C102.859 81.5564 102.919 81.6464 102.979 81.5564C103.129 81.3763 103.28 81.1963 103.521 81.1363C103.821 81.0763 104.092 81.2263 104.303 81.4063C104.303 81.3763 104.303 81.3463 104.303 81.3163C104.213 81.4964 104.092 81.6464 104.002 81.8264C104.032 81.8264 104.092 81.8264 104.122 81.7964C103.731 81.4664 103.19 81.4964 102.919 81.9765C102.768 82.2465 102.708 82.5466 102.678 82.8466C102.588 83.3567 102.498 83.8968 102.377 84.4069C102.407 84.3769 102.438 84.3769 102.468 84.3469C102.287 84.3169 102.077 84.2869 101.896 84.2269C101.806 84.1969 101.776 84.3469 101.866 84.3769C102.046 84.4069 102.257 84.437 102.438 84.497C102.468 84.497 102.528 84.497 102.528 84.437C102.618 83.9869 102.708 83.5368 102.768 83.0867C102.799 82.9367 102.829 82.7866 102.859 82.6066C102.919 82.3665 102.979 82.0365 103.16 81.8564C103.4 81.5864 103.761 81.6464 104.002 81.8564C104.032 81.8864 104.092 81.8864 104.122 81.8264C104.213 81.6464 104.333 81.4964 104.423 81.3163C104.453 81.2863 104.423 81.2563 104.423 81.2263C104.182 81.0163 103.882 80.8662 103.581 80.8962C103.28 80.9263 103.069 81.1663 102.889 81.3763C102.919 81.4063 102.979 81.4364 103.009 81.4364C103.039 81.2563 103.069 81.0763 103.099 80.9263C103.099 80.8962 103.099 80.8362 103.039 80.8362C102.859 80.8062 102.678 80.7762 102.498 80.7462C102.468 80.7462 102.407 80.7462 102.407 80.8062C102.227 81.7964 102.046 82.8166 101.836 83.8068C101.806 83.9569 101.776 84.1069 101.746 84.2569C101.746 84.4369 101.866 84.467 101.896 84.3769Z" fill="#FC751A"/>
<path d="M104.062 84.767L104.694 81.3163L105.205 81.4063L105.115 81.8864C105.265 81.7364 105.416 81.6163 105.626 81.5563C105.837 81.4963 106.048 81.4663 106.258 81.5263C106.529 81.5863 106.709 81.6764 106.86 81.7964C107.01 81.9164 107.101 82.0964 107.131 82.3065C107.492 81.9464 107.883 81.8264 108.304 81.8864C108.635 81.9464 108.906 82.0964 109.056 82.3065C109.206 82.5165 109.237 82.8466 109.176 83.2367L108.725 85.6071L108.153 85.4871L108.545 83.3267C108.575 83.0866 108.605 82.9066 108.575 82.8166C108.545 82.7266 108.515 82.6065 108.424 82.5165C108.334 82.4265 108.214 82.3965 108.093 82.3665C107.853 82.3365 107.642 82.3665 107.431 82.4865C107.221 82.6065 107.101 82.8466 107.04 83.2067L106.679 85.2171L106.108 85.097L106.529 82.8466C106.589 82.5765 106.559 82.3965 106.499 82.2465C106.439 82.0964 106.288 82.0064 106.078 81.9764C105.927 81.9464 105.747 81.9464 105.596 82.0364C105.446 82.0964 105.326 82.2165 105.235 82.3665C105.145 82.5165 105.055 82.7566 104.995 83.0566L104.664 84.857L104.062 84.767Z" fill="#FC751A"/>
<path d="M104.122 84.797C104.333 83.6568 104.543 82.4865 104.754 81.3463C104.724 81.3763 104.694 81.3763 104.664 81.4063C104.844 81.4363 105.025 81.4663 105.175 81.4963C105.145 81.4663 105.145 81.4363 105.115 81.4063C105.085 81.5563 105.055 81.7364 105.025 81.8864C105.025 81.9464 105.085 82.0064 105.145 81.9464C105.687 81.4063 106.86 81.4363 107.04 82.3365C107.04 82.3965 107.131 82.3965 107.161 82.3665C107.462 82.0664 107.823 81.9164 108.274 81.9764C108.665 82.0364 108.996 82.2465 109.086 82.6366C109.146 82.9666 109.056 83.3267 108.996 83.6568C108.876 84.2869 108.755 84.947 108.635 85.5771C108.665 85.5471 108.695 85.5471 108.725 85.5171C108.545 85.4871 108.334 85.4571 108.154 85.3971C108.184 85.4271 108.184 85.4571 108.214 85.4871C108.364 84.707 108.545 83.8968 108.635 83.1166C108.665 82.7866 108.605 82.4565 108.274 82.3065C107.973 82.1865 107.582 82.2165 107.341 82.4265C106.98 82.7266 106.95 83.2967 106.86 83.7468C106.77 84.2269 106.679 84.677 106.589 85.1571C106.619 85.127 106.649 85.1271 106.679 85.097C106.499 85.067 106.288 85.037 106.108 84.977C106.138 85.007 106.138 85.037 106.168 85.067C106.318 84.3169 106.469 83.5667 106.589 82.8166C106.649 82.5165 106.649 82.1265 106.348 81.9464C106.078 81.7664 105.626 81.7964 105.356 81.9764C104.934 82.2765 104.904 82.8766 104.814 83.3567C104.724 83.8368 104.634 84.2869 104.543 84.767C104.573 84.737 104.604 84.737 104.634 84.707C104.453 84.677 104.243 84.647 104.062 84.5869C103.972 84.5569 103.942 84.707 104.032 84.737C104.212 84.767 104.423 84.797 104.604 84.857C104.634 84.857 104.694 84.857 104.694 84.797C104.814 84.1068 104.904 83.3867 105.085 82.6966C105.205 82.2165 105.536 81.8564 106.078 82.0064C106.469 82.1264 106.469 82.4865 106.409 82.8466C106.348 83.2067 106.258 83.5667 106.198 83.9568C106.138 84.3169 106.048 84.677 105.987 85.037C105.987 85.067 105.987 85.1271 106.048 85.1271C106.228 85.1571 106.439 85.1871 106.619 85.2471C106.649 85.2471 106.709 85.2471 106.709 85.1871C106.83 84.5269 106.95 83.8368 107.07 83.1767C107.161 82.7566 107.371 82.3665 107.823 82.3665C108.093 82.3665 108.364 82.4865 108.424 82.7566C108.454 82.9066 108.424 83.0866 108.394 83.2667C108.334 83.5967 108.274 83.9568 108.214 84.2869C108.154 84.677 108.063 85.037 108.003 85.4271C108.003 85.4571 108.003 85.5171 108.063 85.5171C108.244 85.5471 108.454 85.5771 108.635 85.6372C108.665 85.6372 108.725 85.6372 108.725 85.5771C108.876 84.827 108.996 84.0768 109.146 83.3267C109.237 82.8466 109.267 82.3365 108.845 82.0064C108.274 81.5563 107.492 81.7064 107.01 82.1865C107.04 82.1865 107.101 82.2165 107.131 82.2165C106.95 81.2263 105.626 81.1363 104.995 81.7664C105.025 81.7964 105.085 81.8264 105.115 81.8264C105.145 81.6764 105.175 81.4963 105.205 81.3463C105.205 81.3163 105.205 81.2563 105.145 81.2563C104.965 81.2263 104.784 81.1963 104.634 81.1663C104.604 81.1663 104.543 81.1663 104.543 81.2263C104.333 82.3665 104.122 83.5367 103.912 84.677C103.972 84.827 104.092 84.887 104.122 84.797Z" fill="#FC751A"/>
<path d="M111.944 85.7873C111.704 85.9373 111.463 86.0273 111.252 86.0573C111.042 86.0873 110.801 86.0873 110.591 86.0573C110.199 85.9973 109.929 85.8473 109.778 85.6073C109.598 85.3972 109.538 85.1272 109.598 84.8271C109.628 84.6471 109.688 84.497 109.808 84.377C109.899 84.257 110.019 84.167 110.169 84.107C110.32 84.0469 110.47 84.0169 110.621 83.9869C110.741 83.9869 110.921 83.9869 111.162 83.9869C111.644 84.0169 112.005 84.0169 112.245 83.9869C112.275 83.8969 112.275 83.8669 112.275 83.8369C112.305 83.5969 112.305 83.4168 112.215 83.2968C112.095 83.1468 111.884 83.0267 111.583 82.9667C111.313 82.9067 111.102 82.9367 110.952 82.9967C110.801 83.0567 110.681 83.2068 110.56 83.4468L109.989 83.2668C110.079 83.0267 110.199 82.8467 110.35 82.7267C110.5 82.6067 110.681 82.5166 110.921 82.4866C111.162 82.4566 111.433 82.4566 111.734 82.5166C112.035 82.5766 112.275 82.6367 112.426 82.7567C112.606 82.8467 112.727 82.9667 112.787 83.0867C112.847 83.2068 112.877 83.3568 112.907 83.5068C112.907 83.5968 112.877 83.7769 112.847 84.0469L112.696 84.8271C112.606 85.3672 112.546 85.7273 112.546 85.8773C112.546 86.0273 112.576 86.1774 112.606 86.3274L112.005 86.2074C111.944 86.0873 111.914 85.9373 111.944 85.7873ZM112.125 84.467C111.884 84.527 111.553 84.527 111.132 84.497C110.891 84.497 110.711 84.497 110.591 84.527C110.47 84.557 110.38 84.5871 110.32 84.6771C110.26 84.7371 110.199 84.8271 110.199 84.9471C110.169 85.0972 110.199 85.2472 110.29 85.3672C110.38 85.4872 110.56 85.5772 110.771 85.6073C110.982 85.6373 111.192 85.6373 111.403 85.5773C111.583 85.5172 111.764 85.3972 111.854 85.2472C111.944 85.1272 112.005 84.9471 112.065 84.6771L112.125 84.467Z" fill="#FC751A"/>
<path d="M111.884 85.7272C111.403 85.9973 110.891 86.0873 110.35 85.9373C109.838 85.7873 109.507 85.3372 109.658 84.7971C109.808 84.2269 110.38 84.0769 110.891 84.1069C111.343 84.1069 111.764 84.1669 112.215 84.1069C112.245 84.1069 112.275 84.0769 112.275 84.0469C112.335 83.8069 112.396 83.5668 112.245 83.3268C112.125 83.1467 111.914 83.0267 111.734 82.9667C111.493 82.9067 111.192 82.8467 110.951 82.9367C110.711 83.0267 110.56 83.2367 110.44 83.4468C110.47 83.4468 110.5 83.4168 110.53 83.4168C110.35 83.3568 110.169 83.2968 109.959 83.2367C109.959 83.2667 109.989 83.2968 109.989 83.3568C110.139 83.0267 110.35 82.7566 110.711 82.6366C111.072 82.5166 111.493 82.5766 111.854 82.6666C112.155 82.7566 112.516 82.8767 112.666 83.1767C112.817 83.4468 112.757 83.7769 112.696 84.0469C112.636 84.317 112.606 84.587 112.546 84.8571C112.456 85.3372 112.305 85.8773 112.456 86.3874C112.486 86.3574 112.516 86.3274 112.546 86.2974C112.426 86.2674 112.275 86.2373 112.155 86.2373C112.095 86.2373 112.004 86.2373 111.974 86.2073C111.974 86.2073 111.974 86.2073 111.944 86.2073C112.004 86.2073 112.004 86.1773 111.974 86.1473C111.974 86.0573 111.974 85.9373 111.974 85.8473C111.974 85.7573 111.824 85.7573 111.824 85.8473C111.824 85.9973 111.824 86.1473 111.854 86.3274C111.854 86.3574 111.884 86.3874 111.914 86.3874C112.125 86.4174 112.335 86.4774 112.516 86.5074C112.576 86.5074 112.636 86.4774 112.606 86.4174C112.456 85.9373 112.606 85.4572 112.696 84.9771C112.757 84.737 112.787 84.467 112.847 84.2269C112.907 83.8369 112.997 83.3868 112.726 83.0567C112.396 82.6666 111.764 82.5166 111.252 82.5166C110.951 82.5166 110.651 82.5466 110.41 82.6966C110.139 82.8467 109.989 83.1167 109.868 83.3868C109.838 83.4468 109.868 83.4768 109.898 83.5068C110.079 83.5668 110.26 83.6268 110.47 83.6868C110.5 83.6868 110.53 83.6868 110.56 83.6568C110.711 83.3268 110.921 83.1467 111.282 83.1767C111.583 83.2067 112.004 83.2968 112.125 83.5968C112.155 83.6868 112.185 83.9269 112.125 84.0169C112.095 84.0769 112.095 84.0769 112.004 84.0769C111.944 84.0769 111.884 84.0769 111.794 84.0769C111.463 84.0769 111.132 84.0469 110.801 84.0469C110.26 84.0469 109.688 84.2269 109.507 84.7971C109.327 85.3072 109.537 85.8173 110.019 86.0873C110.651 86.4174 111.373 86.3274 111.944 85.9673C112.065 85.7873 111.974 85.6672 111.884 85.7272Z" fill="#FC751A"/>
<path d="M112.095 84.407C111.703 84.497 111.312 84.437 110.921 84.437C110.771 84.437 110.59 84.437 110.44 84.5271C110.259 84.6171 110.169 84.7671 110.139 84.9471C110.079 85.3372 110.38 85.6073 110.741 85.6973C111.132 85.7873 111.583 85.7273 111.884 85.3972C112.125 85.1572 112.155 84.7971 112.215 84.497C112.245 84.407 112.095 84.377 112.064 84.467C112.034 84.7071 112.004 84.9471 111.884 85.1572C111.703 85.4872 111.342 85.6073 110.981 85.5773C110.65 85.5473 110.199 85.3972 110.289 84.9771C110.35 84.5871 110.741 84.5871 111.072 84.5871C111.433 84.5871 111.824 84.6171 112.185 84.5571C112.245 84.527 112.215 84.377 112.095 84.407Z" fill="#FC751A"/>
<path d="M114.682 86.1773V86.7174C114.501 86.7174 114.351 86.7174 114.231 86.6874C114.02 86.6574 113.87 86.5974 113.749 86.5074C113.629 86.4174 113.569 86.3273 113.539 86.2073C113.509 86.0873 113.539 85.8472 113.599 85.5172L113.96 83.5368L113.539 83.4468L113.629 82.9967L114.05 83.0867L114.201 82.2465L114.862 82.0065L114.652 83.2067L115.253 83.3267L115.163 83.7768L114.562 83.6568L114.201 85.6672C114.17 85.8472 114.17 85.9373 114.17 85.9973C114.17 86.0573 114.201 86.0873 114.261 86.1173C114.291 86.1473 114.381 86.1773 114.441 86.2073C114.471 86.1773 114.562 86.1773 114.682 86.1773Z" fill="#FC751A"/>
<path d="M114.592 86.1773C114.592 86.3573 114.592 86.5373 114.592 86.7174C114.622 86.6874 114.652 86.6574 114.652 86.6574C114.381 86.6574 114.05 86.6574 113.81 86.4773C113.539 86.2673 113.599 85.9672 113.629 85.6972C113.659 85.4871 113.719 85.2771 113.749 85.067C113.84 84.5569 113.93 84.0468 114.02 83.5367C114.02 83.5067 114.02 83.4467 113.96 83.4467C113.81 83.4167 113.659 83.3867 113.539 83.3567C113.569 83.3867 113.569 83.4167 113.599 83.4467C113.629 83.2967 113.659 83.1467 113.689 82.9966C113.659 83.0266 113.629 83.0266 113.599 83.0566C113.749 83.0866 113.9 83.1166 114.02 83.1467C114.05 83.1467 114.11 83.1467 114.11 83.0866C114.14 82.9666 114.14 82.8766 114.171 82.7566C114.201 82.6365 114.291 82.3965 114.261 82.2765C114.261 82.2765 114.291 82.1865 114.231 82.2765C114.201 82.3365 114.201 82.2765 114.261 82.2765C114.321 82.2765 114.411 82.2165 114.471 82.1865C114.592 82.1264 114.742 82.0964 114.863 82.0364C114.832 82.0064 114.802 81.9764 114.772 81.9464C114.712 82.3365 114.622 82.7566 114.562 83.1467C114.562 83.1767 114.562 83.2367 114.622 83.2367C114.832 83.2667 115.013 83.2967 115.224 83.3567C115.193 83.3267 115.193 83.2967 115.163 83.2667C115.133 83.4167 115.103 83.5667 115.073 83.7168C115.103 83.6868 115.133 83.6868 115.163 83.6568C114.953 83.6267 114.772 83.5967 114.562 83.5367C114.532 83.5367 114.471 83.5367 114.471 83.5967C114.381 84.1068 114.291 84.617 114.201 85.1271C114.171 85.3071 114.11 85.5171 114.08 85.6972C114.05 85.8472 114.02 85.9972 114.11 86.1172C114.231 86.2673 114.471 86.2673 114.652 86.2973C114.742 86.2973 114.742 86.1473 114.652 86.1473C114.502 86.1473 114.381 86.1473 114.261 86.0272C114.171 85.9072 114.201 85.8172 114.231 85.6672C114.231 85.6372 114.231 85.5771 114.261 85.5471C114.291 85.3071 114.351 85.097 114.381 84.857C114.471 84.4369 114.532 84.0468 114.622 83.6268C114.592 83.6568 114.562 83.6568 114.532 83.6868C114.742 83.7168 114.923 83.7468 115.133 83.8068C115.163 83.8068 115.224 83.8068 115.224 83.7468C115.254 83.5967 115.284 83.4467 115.314 83.2967C115.314 83.2667 115.314 83.2067 115.254 83.2067C115.043 83.1767 114.863 83.1467 114.652 83.0866C114.682 83.1166 114.682 83.1467 114.712 83.1767C114.772 82.7866 114.863 82.3665 114.923 81.9764C114.923 81.9164 114.893 81.8564 114.832 81.8864C114.682 81.9464 114.532 82.0064 114.381 82.0664C114.291 82.0964 114.171 82.1264 114.14 82.1865C114.08 82.3065 114.08 82.4865 114.05 82.6065C114.02 82.7566 113.99 82.8766 113.96 83.0266C113.99 82.9966 114.02 82.9966 114.05 82.9666C113.9 82.9366 113.749 82.9066 113.629 82.8766C113.599 82.8766 113.539 82.8766 113.539 82.9366C113.509 83.0866 113.479 83.2367 113.449 83.3867C113.449 83.4167 113.449 83.4767 113.509 83.4767C113.659 83.5067 113.81 83.5367 113.93 83.5667C113.9 83.5367 113.9 83.5067 113.87 83.4767C113.749 84.0768 113.659 84.647 113.539 85.2471C113.479 85.5471 113.388 85.8472 113.449 86.1473C113.539 86.7174 114.201 86.7774 114.652 86.7774C114.682 86.7774 114.712 86.7474 114.712 86.7174C114.712 86.5373 114.712 86.3573 114.712 86.1773C114.772 86.0872 114.622 86.0872 114.592 86.1773Z" fill="#FC751A"/>
<path d="M115.915 82.7265L116.036 82.0664L116.607 82.1864L116.487 82.8466L115.915 82.7265ZM115.163 86.8074L115.795 83.3567L116.366 83.4767L115.735 86.9274L115.163 86.8074Z" fill="#FC751A"/>
<path d="M116.005 82.7566C116.035 82.5465 116.066 82.3665 116.126 82.1565C116.126 82.1265 116.126 82.0965 116.156 82.0665C116.126 82.0965 116.096 82.0965 116.066 82.1265C116.246 82.1565 116.457 82.1865 116.637 82.2465C116.607 82.2165 116.607 82.1865 116.577 82.1565C116.547 82.3665 116.517 82.5465 116.457 82.7566C116.457 82.7866 116.457 82.8166 116.427 82.8466C116.457 82.8166 116.487 82.8166 116.517 82.7866C116.336 82.7566 116.126 82.7266 115.945 82.6666C115.915 82.6666 115.855 82.6666 115.855 82.7266C115.855 82.7566 115.855 82.8166 115.915 82.8166C116.096 82.8466 116.306 82.8766 116.487 82.9366C116.517 82.9366 116.577 82.9366 116.577 82.8766C116.607 82.6666 116.637 82.4865 116.697 82.2765C116.697 82.2465 116.697 82.2165 116.727 82.1865C116.727 82.1565 116.727 82.0965 116.667 82.0965C116.487 82.0665 116.276 82.0365 116.096 81.9764C116.066 81.9764 116.005 81.9764 116.005 82.0364C115.975 82.2465 115.945 82.4265 115.885 82.6366C115.885 82.6666 115.885 82.6966 115.855 82.7266C115.855 82.7566 115.855 82.8166 115.915 82.8166C115.945 82.8166 115.975 82.7866 116.005 82.7566Z" fill="#FC751A"/>
<path d="M115.223 86.8375C115.404 85.8473 115.584 84.8271 115.795 83.8369C115.825 83.6868 115.855 83.5368 115.885 83.3868C115.855 83.4168 115.825 83.4168 115.795 83.4468C115.975 83.4768 116.186 83.5068 116.366 83.5668C116.336 83.5368 116.336 83.5068 116.306 83.4768C116.126 84.467 115.945 85.4872 115.735 86.4774C115.705 86.6274 115.674 86.7775 115.644 86.9275C115.674 86.8975 115.705 86.8975 115.735 86.8675C115.554 86.8375 115.344 86.8075 115.163 86.7474C115.073 86.7174 115.043 86.8675 115.133 86.8975C115.313 86.9275 115.524 86.9575 115.705 87.0175C115.735 87.0175 115.795 87.0175 115.795 86.9575C115.975 85.9673 116.156 84.9471 116.366 83.9569C116.396 83.8068 116.427 83.6568 116.457 83.5068C116.457 83.4768 116.457 83.4168 116.396 83.4168C116.216 83.3868 116.005 83.3568 115.825 83.2968C115.795 83.2968 115.735 83.2967 115.735 83.3568C115.554 84.347 115.374 85.3672 115.163 86.3574C115.133 86.5074 115.103 86.6574 115.073 86.8074C115.073 86.8975 115.223 86.9275 115.223 86.8375Z" fill="#FC751A"/>
<path d="M116.728 85.3372C116.848 84.7071 117.119 84.257 117.51 84.0169C117.841 83.8069 118.232 83.7469 118.653 83.8369C119.134 83.9269 119.495 84.137 119.736 84.527C119.977 84.9171 120.037 85.3372 119.947 85.9073C119.856 86.3574 119.736 86.6875 119.556 86.9275C119.375 87.1676 119.134 87.3176 118.864 87.4076C118.593 87.4976 118.292 87.5276 117.991 87.4676C117.51 87.3776 117.149 87.1376 116.908 86.7775C116.698 86.3874 116.637 85.9073 116.728 85.3372ZM117.329 85.4272C117.239 85.8773 117.269 86.2074 117.45 86.4774C117.63 86.7475 117.811 86.8975 118.112 86.9275C118.412 86.9875 118.653 86.9275 118.894 86.7175C119.134 86.5374 119.285 86.2074 119.375 85.7573C119.465 85.3372 119.405 84.9771 119.255 84.7371C119.104 84.467 118.894 84.317 118.593 84.287C118.292 84.227 118.051 84.287 117.811 84.467C117.57 84.6771 117.42 85.0071 117.329 85.4272Z" fill="#FC751A"/>
<path d="M116.818 85.3372C116.938 84.677 117.269 84.0769 117.961 83.8969C118.653 83.7168 119.435 84.0169 119.766 84.647C119.947 84.9471 119.977 85.3372 119.917 85.6672C119.886 86.0273 119.766 86.4174 119.586 86.7174C119.195 87.3476 118.322 87.4976 117.66 87.2275C117.329 87.1075 117.028 86.8375 116.878 86.5074C116.728 86.1773 116.758 85.7572 116.818 85.3372C116.848 85.2471 116.698 85.2171 116.667 85.3072C116.547 86.0573 116.667 86.8375 117.359 87.2575C118.021 87.6776 118.954 87.6476 119.525 87.0775C119.796 86.8075 119.947 86.4474 120.037 86.0873C120.127 85.6972 120.157 85.2471 120.037 84.8571C119.796 84.1069 119.044 83.6868 118.262 83.7168C117.871 83.7468 117.48 83.8969 117.179 84.1969C116.878 84.497 116.728 84.9171 116.667 85.3072C116.637 85.3972 116.788 85.4572 116.818 85.3372Z" fill="#FC751A"/>
<path d="M117.269 85.4272C117.179 85.9373 117.209 86.5074 117.69 86.8675C118.142 87.1675 118.743 87.1075 119.104 86.6874C119.255 86.5074 119.375 86.2674 119.435 85.9973C119.496 85.6973 119.556 85.3972 119.496 85.0971C119.405 84.587 118.924 84.197 118.412 84.227C117.721 84.257 117.39 84.8271 117.269 85.4272C117.239 85.5172 117.39 85.5472 117.42 85.4572C117.51 85.0071 117.69 84.557 118.142 84.407C118.623 84.257 119.104 84.527 119.285 84.9771C119.435 85.4272 119.315 85.9973 119.104 86.3874C118.864 86.8075 118.352 86.9875 117.901 86.8075C117.36 86.5674 117.329 85.9673 117.42 85.4572C117.42 85.3672 117.299 85.3372 117.269 85.4272Z" fill="#FC751A"/>
<path d="M120.338 87.7676L120.97 84.3169L121.511 84.4069L121.421 84.887C121.752 84.5569 122.143 84.4369 122.624 84.5269C122.835 84.5569 123.015 84.647 123.166 84.737C123.316 84.827 123.437 84.977 123.497 85.0971C123.557 85.2471 123.587 85.3971 123.587 85.5772C123.587 85.6972 123.557 85.8772 123.527 86.1473L123.136 88.2777L122.564 88.1577L122.955 86.0572C122.985 85.8172 123.015 85.6372 122.985 85.5171C122.955 85.3971 122.895 85.2771 122.805 85.1871C122.715 85.097 122.564 85.037 122.414 85.007C122.173 84.947 121.932 85.007 121.722 85.1271C121.511 85.2471 121.361 85.5471 121.271 85.9672L120.909 87.8576L120.338 87.7676Z" fill="#FC751A"/>
<path d="M120.428 87.7976C120.609 86.8074 120.789 85.7872 121 84.797C121.03 84.647 121.06 84.497 121.09 84.3769C121.06 84.4069 121.03 84.4069 121 84.4369C121.18 84.4669 121.361 84.497 121.541 84.527C121.511 84.497 121.511 84.4669 121.481 84.4369C121.451 84.587 121.421 84.767 121.391 84.917C121.391 84.9771 121.451 85.0371 121.511 84.9771C121.932 84.557 122.564 84.497 123.106 84.797C123.647 85.0971 123.617 85.6372 123.527 86.1773C123.437 86.6874 123.346 87.1675 123.256 87.6776C123.226 87.8876 123.166 88.0977 123.136 88.2777C123.166 88.2477 123.196 88.2477 123.226 88.2177C123.045 88.1877 122.835 88.1577 122.654 88.0977C122.684 88.1277 122.684 88.1577 122.714 88.1877C122.775 87.7976 122.865 87.4375 122.925 87.0475C123.015 86.6274 123.106 86.2373 123.136 85.8172C123.166 85.4571 123.045 85.1571 122.714 85.0071C122.384 84.857 121.932 84.887 121.662 85.1571C121.331 85.4571 121.301 86.0273 121.21 86.4473C121.12 86.8974 121.03 87.3775 120.939 87.8276C120.97 87.7976 121 87.7976 121.03 87.7676C120.849 87.7376 120.639 87.7076 120.458 87.6476C120.368 87.6176 120.338 87.7676 120.428 87.7976C120.609 87.8276 120.819 87.8576 121 87.9176C121.03 87.9176 121.09 87.9176 121.09 87.8576C121.15 87.5276 121.21 87.1675 121.27 86.8374C121.331 86.4774 121.391 86.0873 121.481 85.7572C121.601 85.3371 121.842 85.0371 122.323 85.0671C122.564 85.0671 122.835 85.1871 122.955 85.3971C123.045 85.5772 123.015 85.8472 122.955 86.0273C122.895 86.3573 122.835 86.6574 122.775 86.9875C122.714 87.3775 122.624 87.7376 122.564 88.1277C122.564 88.1577 122.564 88.2177 122.624 88.2177C122.805 88.2477 123.015 88.2777 123.196 88.3377C123.226 88.3377 123.286 88.3377 123.286 88.2777C123.376 87.7076 123.497 87.1375 123.587 86.5674C123.647 86.3273 123.677 86.0573 123.707 85.8172C123.798 85.2471 123.557 84.767 123.015 84.527C122.444 84.2869 121.842 84.3769 121.391 84.797C121.421 84.827 121.481 84.857 121.511 84.857C121.541 84.707 121.571 84.527 121.601 84.3769C121.601 84.3469 121.601 84.2869 121.541 84.2869C121.361 84.2569 121.18 84.2269 121 84.1969C120.97 84.1969 120.909 84.1969 120.909 84.2569C120.729 85.2471 120.548 86.2673 120.338 87.2575C120.308 87.4075 120.278 87.5576 120.248 87.6776C120.248 87.8576 120.398 87.8876 120.428 87.7976Z" fill="#FC751A"/>
<path d="M141.035 65.413L136.583 61.5123C136.192 61.1822 135.711 61.0022 135.199 61.0322L102.558 63.1326C101.505 63.1926 100.722 64.0928 100.783 65.143L101.324 73.4547C101.384 74.5049 102.287 75.285 103.34 75.225L135.981 73.1246C136.493 73.0946 136.944 72.8545 137.275 72.4945L141.186 68.0536C141.908 67.3034 141.818 66.1332 141.035 65.413Z" fill="white"/>
<path d="M141.547 64.903C140.254 63.7928 138.99 62.6525 137.696 61.5423C137.516 61.3623 137.335 61.2123 137.125 61.0322C136.583 60.5521 135.921 60.2821 135.199 60.3121C135.049 60.3121 134.868 60.3421 134.718 60.3421C131.86 60.5221 128.972 60.7022 126.114 60.9122C121.722 61.1823 117.329 61.4823 112.937 61.7524C109.778 61.9624 106.619 62.1724 103.46 62.3525C103.19 62.3825 102.919 62.3825 102.648 62.4125C101.655 62.4725 100.723 62.9826 100.301 63.9128C99.9705 64.6329 100.061 65.3231 100.091 66.0732C100.151 67.0634 100.211 68.0236 100.271 69.0138C100.331 70.064 100.392 71.0842 100.482 72.1344C100.512 72.7046 100.512 73.3047 100.602 73.8448C100.813 75.165 102.046 76.0652 103.37 76.0052C103.581 76.0052 103.821 75.9752 104.032 75.9752C107.07 75.7652 110.079 75.5851 113.117 75.3751C117.51 75.105 121.902 74.805 126.264 74.5349C129.273 74.3549 132.311 74.1448 135.32 73.9648C135.53 73.9648 135.741 73.9348 135.951 73.9348C136.854 73.8748 137.516 73.4247 138.087 72.7646C139.261 71.4143 140.464 70.064 141.637 68.7138C142.66 67.5735 142.69 65.9532 141.547 64.903C140.825 64.2429 139.772 65.2931 140.494 65.9532C140.945 66.3733 141.066 67.0334 140.675 67.5435C140.584 67.6936 140.434 67.8136 140.344 67.9336C139.712 68.6537 139.05 69.3739 138.418 70.124C137.877 70.7242 137.365 71.3243 136.824 71.9244C136.553 72.2245 136.252 72.4045 135.831 72.4345C133.424 72.5845 131.018 72.7346 128.581 72.9146C124.369 73.1847 120.127 73.4547 115.915 73.7248C112.425 73.9648 108.906 74.1748 105.416 74.4149C104.724 74.4449 104.032 74.5049 103.34 74.5349C102.678 74.5649 102.106 74.1748 102.016 73.4847C101.956 72.8846 101.926 72.2845 101.896 71.6844C101.776 69.734 101.655 67.7836 101.505 65.8332C101.475 65.2331 101.354 64.5729 101.926 64.1528C102.197 63.9428 102.467 63.9428 102.768 63.9128C105.356 63.7328 107.943 63.5827 110.5 63.4027C114.772 63.1326 119.014 62.8626 123.286 62.5625C126.655 62.3525 130.055 62.1124 133.424 61.9024C133.996 61.8724 134.537 61.8124 135.109 61.7824C135.801 61.7524 136.222 62.2625 136.704 62.6825C137.486 63.3727 138.268 64.0628 139.05 64.723C139.501 65.113 139.953 65.5031 140.374 65.8932C140.675 66.1632 141.126 66.1933 141.427 65.8932C141.848 65.6832 141.878 65.173 141.547 64.903Z" fill="#F3BB04"/>
<path d="M104.904 70.8443L104.604 65.9233L105.265 65.8933L105.566 70.8143L104.904 70.8443Z" fill="#F3BB04"/>
<path d="M104.965 70.8443C104.874 69.404 104.784 67.9637 104.694 66.5534C104.694 66.3434 104.664 66.1334 104.664 65.9533C104.634 65.9833 104.604 66.0133 104.604 66.0133C104.814 66.0133 105.025 65.9833 105.265 65.9833C105.235 65.9533 105.205 65.9233 105.205 65.9233C105.295 67.3636 105.386 68.8039 105.476 70.2142C105.476 70.4242 105.506 70.6343 105.506 70.8143C105.536 70.7843 105.566 70.7543 105.566 70.7543C105.356 70.7543 105.145 70.7843 104.904 70.7843C104.814 70.7843 104.814 70.9343 104.904 70.9343C105.115 70.9343 105.326 70.9043 105.566 70.9043C105.596 70.9043 105.656 70.8743 105.626 70.8443C105.536 69.404 105.446 67.9637 105.356 66.5534C105.356 66.3434 105.326 66.1334 105.326 65.9533C105.326 65.9233 105.295 65.8633 105.265 65.8933C105.055 65.8933 104.844 65.9233 104.604 65.9233C104.573 65.9233 104.513 65.9533 104.543 65.9833C104.634 67.4236 104.724 68.8639 104.814 70.2742C104.814 70.4842 104.844 70.6943 104.844 70.8743C104.844 70.9343 104.995 70.9343 104.965 70.8443Z" fill="#F3BB04"/>
<path d="M106.619 70.7243L106.378 67.1836L106.92 67.1536L106.95 67.6637C107.191 67.2436 107.552 67.0335 108.033 67.0035C108.244 67.0035 108.454 67.0035 108.635 67.0936C108.815 67.1536 108.966 67.2436 109.056 67.3636C109.146 67.4836 109.236 67.6337 109.267 67.7837C109.297 67.9037 109.327 68.0838 109.327 68.3538L109.477 70.5442L108.875 70.5743L108.725 68.4138C108.695 68.1738 108.665 67.9937 108.605 67.8737C108.544 67.7537 108.454 67.6637 108.334 67.6037C108.214 67.5436 108.063 67.5136 107.913 67.5136C107.642 67.5436 107.431 67.6337 107.251 67.8137C107.07 67.9937 107.01 68.2938 107.04 68.7439L107.161 70.6943L106.619 70.7243Z" fill="#F3BB04"/>
<path d="M106.709 70.7242C106.649 69.674 106.589 68.6538 106.499 67.6036C106.499 67.4536 106.469 67.3036 106.469 67.1535C106.439 67.1835 106.409 67.2135 106.409 67.2135C106.589 67.2135 106.77 67.1835 106.95 67.1835C106.92 67.1535 106.89 67.1235 106.89 67.1235C106.89 67.3036 106.92 67.4536 106.92 67.6336C106.92 67.6936 107.01 67.7236 107.07 67.6636C107.371 67.1535 107.943 66.9435 108.515 67.0635C108.845 67.1535 109.116 67.3336 109.237 67.6636C109.327 67.8737 109.327 68.1137 109.327 68.3238C109.357 68.8339 109.387 69.344 109.417 69.8541C109.417 70.0641 109.447 70.2742 109.447 70.4842C109.477 70.4542 109.507 70.4242 109.507 70.4242C109.297 70.4242 109.116 70.4542 108.906 70.4542C108.936 70.4842 108.966 70.5142 108.966 70.5142C108.936 70.1241 108.906 69.7341 108.876 69.344C108.845 68.9239 108.845 68.5038 108.785 68.0837C108.725 67.7236 108.515 67.4236 108.123 67.3636C107.762 67.3036 107.341 67.4536 107.131 67.7537C106.86 68.1437 106.98 68.7138 107.01 69.1639C107.04 69.644 107.07 70.1241 107.101 70.6042C107.131 70.5742 107.161 70.5442 107.161 70.5442C106.95 70.5442 106.77 70.5742 106.559 70.5742C106.469 70.5742 106.469 70.7242 106.559 70.7242C106.77 70.7242 106.95 70.6942 107.161 70.6942C107.191 70.6942 107.251 70.6642 107.221 70.6342C107.191 70.2742 107.191 69.9441 107.161 69.584C107.131 69.1939 107.07 68.8039 107.101 68.4138C107.131 67.9937 107.311 67.6636 107.762 67.5736C108.003 67.5136 108.304 67.5436 108.454 67.7537C108.605 67.9037 108.605 68.1437 108.635 68.3538C108.665 68.6838 108.665 69.0139 108.695 69.344C108.725 69.7341 108.755 70.1541 108.785 70.5442C108.785 70.5742 108.815 70.6342 108.845 70.6042C109.056 70.6042 109.237 70.5742 109.447 70.5742C109.477 70.5742 109.537 70.5442 109.507 70.5142C109.477 69.9141 109.447 69.344 109.387 68.7439C109.357 68.4738 109.357 68.2037 109.327 67.9337C109.267 67.3636 108.906 66.9735 108.334 66.8835C107.732 66.7935 107.131 67.0335 106.8 67.5736C106.86 67.5736 106.89 67.6036 106.95 67.6036C106.95 67.4236 106.92 67.2736 106.92 67.0935C106.92 67.0635 106.89 67.0035 106.86 67.0335C106.679 67.0335 106.499 67.0635 106.318 67.0635C106.288 67.0635 106.228 67.0935 106.258 67.1235C106.318 68.1737 106.379 69.1939 106.469 70.2442C106.469 70.3942 106.499 70.5442 106.499 70.6942C106.559 70.8143 106.709 70.8143 106.709 70.7242Z" fill="#F3BB04"/>
<path d="M110.139 69.434L110.741 69.314C110.801 69.554 110.891 69.7341 111.042 69.8541C111.192 69.9741 111.433 70.0341 111.704 70.0041C111.974 69.9741 112.185 69.9141 112.305 69.7941C112.426 69.6741 112.486 69.524 112.486 69.374C112.486 69.224 112.426 69.134 112.275 69.0739C112.185 69.0139 111.974 68.9839 111.643 68.9239C111.192 68.8339 110.891 68.7739 110.711 68.6839C110.53 68.6239 110.41 68.5038 110.29 68.3838C110.199 68.2338 110.139 68.0837 110.139 67.9037C110.139 67.7537 110.169 67.6036 110.229 67.4536C110.29 67.3036 110.38 67.1836 110.5 67.0935C110.59 67.0035 110.711 66.9435 110.861 66.8835C111.012 66.8235 111.192 66.7935 111.373 66.7635C111.643 66.7335 111.914 66.7635 112.125 66.8235C112.335 66.8835 112.516 67.0035 112.606 67.1236C112.726 67.2436 112.787 67.4236 112.847 67.6637L112.275 67.7837C112.245 67.6036 112.155 67.4536 112.004 67.3636C111.854 67.2736 111.673 67.2436 111.463 67.2436C111.192 67.2736 110.982 67.3336 110.891 67.4236C110.771 67.5136 110.741 67.6337 110.741 67.7537C110.741 67.8437 110.771 67.9037 110.831 67.9637C110.891 68.0237 110.951 68.0837 111.072 68.1138C111.132 68.1438 111.312 68.1738 111.613 68.2338C112.034 68.3238 112.365 68.3838 112.516 68.4438C112.696 68.5038 112.817 68.5938 112.937 68.7439C113.027 68.8639 113.087 69.0439 113.118 69.254C113.118 69.464 113.087 69.6441 112.967 69.8241C112.847 70.0041 112.696 70.1542 112.486 70.2742C112.275 70.3942 112.034 70.4542 111.734 70.4542C111.282 70.4842 110.921 70.4242 110.651 70.2442C110.38 70.0641 110.229 69.7941 110.139 69.434Z" fill="#F3BB04"/>
<path d="M110.139 69.494C110.35 69.464 110.53 69.404 110.741 69.374C110.711 69.344 110.681 69.344 110.651 69.314C110.801 69.9141 111.283 70.1241 111.854 70.0341C112.095 70.0041 112.335 69.8841 112.456 69.6741C112.576 69.464 112.546 69.194 112.366 69.0439C112.185 68.8939 111.914 68.8939 111.704 68.8339C111.403 68.7739 111.102 68.7139 110.831 68.6238C110.5 68.5038 110.26 68.2638 110.23 67.9337C110.169 67.5436 110.41 67.1836 110.741 67.0035C111.132 66.8235 111.644 66.7935 112.065 66.8835C112.486 67.0035 112.696 67.2736 112.787 67.6937C112.817 67.6637 112.817 67.6336 112.847 67.6036C112.666 67.6336 112.456 67.6937 112.275 67.7237C112.305 67.7537 112.335 67.7537 112.366 67.7837C112.215 67.1836 111.583 67.0935 111.042 67.2736C110.831 67.3636 110.621 67.5436 110.651 67.7837C110.651 68.0237 110.861 68.1738 111.072 68.2038C111.373 68.2938 111.674 68.3238 111.974 68.3838C112.245 68.4438 112.576 68.5038 112.817 68.7139C113.118 68.9839 113.118 69.494 112.907 69.8241C112.727 70.1241 112.366 70.3042 112.035 70.3642C111.674 70.4242 111.222 70.4242 110.861 70.2742C110.53 70.0941 110.32 69.7641 110.23 69.404C110.199 69.314 110.049 69.344 110.079 69.434C110.23 69.9741 110.56 70.3942 111.132 70.5142C111.704 70.6342 112.426 70.5442 112.847 70.0941C113.238 69.6741 113.298 68.9539 112.847 68.5638C112.636 68.3838 112.396 68.3238 112.125 68.2638C111.794 68.1738 111.493 68.1437 111.162 68.0537C111.012 68.0237 110.831 67.9637 110.771 67.7837C110.711 67.5436 110.982 67.3936 111.162 67.3336C111.583 67.2436 112.035 67.3036 112.155 67.7837C112.155 67.8137 112.215 67.8437 112.245 67.8437C112.426 67.8137 112.636 67.7537 112.817 67.7237C112.847 67.7237 112.877 67.6636 112.877 67.6336C112.817 67.3636 112.696 67.1235 112.486 66.9435C112.275 66.7635 111.974 66.7035 111.674 66.6735C111.072 66.6134 110.35 66.7935 110.079 67.3636C109.838 67.8737 110.079 68.5038 110.621 68.7139C110.861 68.8039 111.132 68.8639 111.403 68.9239C111.583 68.9539 111.734 68.9839 111.914 69.0139C112.035 69.0439 112.155 69.0739 112.245 69.1639C112.456 69.344 112.305 69.644 112.125 69.7641C111.974 69.8541 111.764 69.8841 111.583 69.9141C111.162 69.9141 110.861 69.7041 110.741 69.284C110.741 69.254 110.681 69.224 110.651 69.224C110.44 69.254 110.26 69.314 110.049 69.344C110.019 69.374 110.049 69.524 110.139 69.494Z" fill="#F3BB04"/>
<path d="M116.126 68.8038L116.728 68.8338C116.698 69.2539 116.547 69.584 116.276 69.824C116.006 70.0641 115.705 70.2141 115.314 70.2441C114.832 70.2741 114.411 70.1541 114.11 69.8541C113.81 69.554 113.629 69.1039 113.569 68.5038C113.539 68.1137 113.599 67.7836 113.689 67.4836C113.779 67.1835 113.99 66.9735 114.231 66.7934C114.471 66.6134 114.772 66.5534 115.073 66.5234C115.464 66.4934 115.795 66.5834 116.036 66.7634C116.307 66.9435 116.457 67.2135 116.577 67.5736L116.006 67.6936C115.946 67.4536 115.825 67.2735 115.675 67.1835C115.524 67.0935 115.344 67.0335 115.133 67.0335C114.832 67.0635 114.592 67.1835 114.411 67.3936C114.231 67.6036 114.171 67.9637 114.201 68.4438C114.231 68.9239 114.351 69.2539 114.532 69.464C114.742 69.674 114.983 69.764 115.284 69.734C115.524 69.704 115.705 69.644 115.855 69.464C116.006 69.344 116.096 69.1039 116.126 68.8038Z" fill="#F3BB04"/>
<path d="M116.126 68.8938C116.336 68.8938 116.517 68.9238 116.728 68.9238C116.697 68.8938 116.667 68.8638 116.667 68.8638C116.607 69.4939 116.216 70.004 115.584 70.154C115.013 70.2741 114.381 70.094 114.02 69.6139C113.689 69.1338 113.629 68.4737 113.719 67.9036C113.839 67.2435 114.261 66.7634 114.922 66.6433C115.283 66.5833 115.644 66.6133 115.975 66.7934C116.276 66.9734 116.457 67.2735 116.547 67.6035C116.577 67.5735 116.577 67.5435 116.607 67.5135C116.427 67.5435 116.216 67.6035 116.036 67.6335C116.066 67.6635 116.096 67.6635 116.126 67.6936C115.975 67.2435 115.644 66.9134 115.133 66.9734C114.712 67.0034 114.351 67.3035 114.231 67.7236C113.99 68.5337 114.23 69.914 115.314 69.854C115.885 69.824 116.186 69.3739 116.216 68.8338C116.216 68.7438 116.066 68.7438 116.066 68.8338C116.036 69.1038 115.975 69.3739 115.765 69.5239C115.554 69.6739 115.283 69.734 115.013 69.6739C114.501 69.5539 114.321 69.0138 114.291 68.5337C114.261 68.0836 114.291 67.5435 114.682 67.2735C114.892 67.1234 115.163 67.0934 115.404 67.1534C115.675 67.2435 115.855 67.4835 115.915 67.7536C115.915 67.7836 115.975 67.8136 116.005 67.8136C116.186 67.7836 116.397 67.7236 116.577 67.6936C116.607 67.6936 116.637 67.6335 116.637 67.6035C116.457 66.9434 115.915 66.5233 115.223 66.5233C114.501 66.5233 113.839 66.8834 113.599 67.6035C113.388 68.2337 113.418 69.0438 113.779 69.6439C114.11 70.2141 114.742 70.4841 115.404 70.3941C116.216 70.3041 116.697 69.704 116.788 68.9238C116.788 68.8938 116.758 68.8638 116.728 68.8638C116.517 68.8638 116.336 68.8338 116.126 68.8338C116.036 68.7138 116.036 68.8638 116.126 68.8938Z" fill="#F3BB04"/>
<path d="M117.299 70.0341L117.059 66.4934L117.6 66.4634L117.63 67.0035C117.751 66.7335 117.871 66.5534 117.991 66.4934C118.112 66.4034 118.232 66.3434 118.382 66.3434C118.593 66.3434 118.803 66.3734 119.014 66.4934L118.834 67.0635C118.683 66.9735 118.533 66.9435 118.382 66.9735C118.262 66.9735 118.142 67.0335 118.021 67.1235C117.901 67.2136 117.841 67.3336 117.811 67.4536C117.751 67.6636 117.751 67.9037 117.751 68.1737L117.871 70.0341H117.299Z" fill="#F3BB04"/>
<path d="M117.389 70.0341C117.329 68.9839 117.269 67.9637 117.179 66.9135C117.179 66.7634 117.149 66.6134 117.149 66.4634C117.119 66.4934 117.089 66.5234 117.089 66.5234C117.269 66.5234 117.45 66.4934 117.63 66.4934C117.6 66.4634 117.57 66.4334 117.57 66.4334C117.57 66.6134 117.6 66.7935 117.6 66.9735C117.6 67.0335 117.72 67.0935 117.75 67.0035C117.841 66.7935 117.961 66.5834 118.142 66.4634C118.412 66.3134 118.743 66.4034 119.014 66.5234C119.014 66.4934 118.984 66.4634 118.984 66.4334C118.924 66.6134 118.864 66.8235 118.803 67.0035C118.833 67.0035 118.864 66.9735 118.924 66.9735C118.472 66.7634 117.961 66.8835 117.811 67.3936C117.72 67.7236 117.75 68.0537 117.781 68.3838C117.811 68.9239 117.841 69.464 117.871 70.0041C117.901 69.9741 117.931 69.9441 117.931 69.9441C117.72 69.9441 117.54 69.9741 117.329 69.9741C117.239 69.9741 117.239 70.1241 117.329 70.1241C117.54 70.1241 117.72 70.0941 117.931 70.0941C117.961 70.0941 118.021 70.0641 117.991 70.0341C117.961 69.584 117.931 69.1039 117.901 68.6538C117.901 68.5038 117.871 68.3238 117.871 68.1737C117.871 67.9037 117.841 67.6036 117.961 67.3636C118.111 67.0335 118.503 67.0035 118.803 67.1535C118.833 67.1835 118.894 67.1535 118.924 67.1235C118.984 66.9435 119.044 66.7334 119.104 66.5534C119.104 66.5234 119.104 66.4934 119.074 66.4634C118.803 66.3134 118.442 66.2233 118.142 66.3734C117.871 66.4934 117.72 66.7634 117.6 67.0335C117.66 67.0335 117.69 67.0635 117.75 67.0635C117.75 66.8835 117.72 66.7034 117.72 66.5234C117.72 66.4934 117.69 66.4334 117.66 66.4634C117.48 66.4634 117.299 66.4934 117.119 66.4934C117.089 66.4934 117.028 66.5234 117.058 66.5534C117.119 67.6036 117.179 68.6238 117.269 69.674C117.269 69.8241 117.299 69.9741 117.299 70.1241C117.239 70.1241 117.389 70.1241 117.389 70.0341Z" fill="#F3BB04"/>
<path d="M119.345 65.6833L119.315 64.9931L119.917 64.9631L119.947 65.6533L119.345 65.6833ZM119.616 69.8841L119.375 66.3434L119.977 66.3134L120.217 69.8541L119.616 69.8841Z" fill="#F3BB04"/>
<path d="M119.405 65.6832C119.405 65.4732 119.375 65.2932 119.375 65.0831C119.375 65.0531 119.375 65.0231 119.375 64.9931C119.345 65.0231 119.315 65.0531 119.315 65.0531C119.526 65.0531 119.706 65.0231 119.917 65.0231C119.887 64.9931 119.856 64.9631 119.856 64.9631C119.856 65.1731 119.887 65.3532 119.887 65.5632C119.887 65.5932 119.887 65.6232 119.887 65.6532C119.917 65.6232 119.947 65.5932 119.947 65.5932C119.736 65.5932 119.556 65.6232 119.345 65.6232C119.315 65.6232 119.285 65.6532 119.285 65.6832C119.285 65.7132 119.315 65.7733 119.345 65.7432C119.556 65.7432 119.736 65.7132 119.947 65.7132C119.977 65.7132 120.037 65.6832 120.007 65.6532C120.007 65.4432 119.977 65.2631 119.977 65.0531C119.977 65.0231 119.977 64.9931 119.977 64.9631C119.977 64.9331 119.947 64.8731 119.917 64.9031C119.706 64.9031 119.526 64.9331 119.315 64.9331C119.285 64.9331 119.225 64.9631 119.255 64.9931C119.255 65.2031 119.285 65.3832 119.285 65.5932C119.285 65.6232 119.285 65.6532 119.285 65.6832C119.285 65.7132 119.315 65.7432 119.345 65.7432C119.375 65.7432 119.405 65.7132 119.405 65.6832Z" fill="#F3BB04"/>
<path d="M119.676 69.884C119.616 68.8338 119.556 67.8136 119.465 66.7634C119.465 66.6134 119.435 66.4633 119.435 66.3133C119.405 66.3433 119.375 66.3733 119.375 66.3733C119.586 66.3733 119.766 66.3433 119.977 66.3433C119.947 66.3133 119.917 66.2833 119.917 66.2833C119.977 67.3335 120.037 68.3537 120.127 69.4039C120.127 69.554 120.157 69.704 120.157 69.854C120.187 69.824 120.217 69.794 120.217 69.794C120.007 69.794 119.826 69.824 119.616 69.824C119.525 69.824 119.525 69.974 119.616 69.974C119.826 69.974 120.007 69.944 120.217 69.944C120.247 69.944 120.308 69.914 120.278 69.884C120.217 68.8338 120.157 67.8136 120.067 66.7634C120.067 66.6134 120.037 66.4633 120.037 66.3133C120.037 66.2833 120.007 66.2233 119.977 66.2533C119.766 66.2533 119.586 66.2833 119.375 66.2833C119.345 66.2833 119.285 66.3133 119.315 66.3433C119.375 67.3935 119.435 68.4137 119.525 69.4639C119.525 69.614 119.556 69.764 119.556 69.914C119.525 69.974 119.676 69.974 119.676 69.884Z" fill="#F3BB04"/>
<path d="M121.21 71.1444L120.909 66.2234L121.451 66.1934L121.481 66.6435C121.601 66.4635 121.752 66.3134 121.902 66.2234C122.052 66.1334 122.263 66.0734 122.474 66.0434C122.774 66.0134 123.045 66.0734 123.286 66.2234C123.527 66.3735 123.707 66.5835 123.857 66.8536C124.008 67.1236 124.068 67.4237 124.098 67.7837C124.128 68.1438 124.068 68.4739 123.978 68.7739C123.888 69.074 123.677 69.314 123.436 69.4941C123.196 69.6741 122.925 69.7641 122.654 69.7641C122.443 69.7641 122.263 69.7341 122.113 69.6741C121.962 69.6141 121.812 69.4941 121.691 69.3741L121.812 71.1144L121.21 71.1444ZM121.571 67.9938C121.601 68.4439 121.721 68.7739 121.902 68.984C122.113 69.194 122.323 69.284 122.594 69.254C122.865 69.224 123.075 69.104 123.256 68.864C123.436 68.6239 123.496 68.2638 123.466 67.7837C123.436 67.3336 123.316 67.0036 123.135 66.7935C122.925 66.5835 122.714 66.4935 122.443 66.4935C122.173 66.5235 121.962 66.6435 121.782 66.8836C121.601 67.1236 121.541 67.5437 121.571 67.9938Z" fill="#F3BB04"/>
<path d="M121.3 71.1444C121.21 69.7041 121.12 68.2638 121.03 66.8535C121.03 66.6435 121 66.4334 121 66.2534C120.969 66.2834 120.939 66.3134 120.939 66.3134C121.12 66.3134 121.3 66.2834 121.481 66.2834C121.451 66.2534 121.421 66.2234 121.421 66.2234C121.421 66.3734 121.451 66.5234 121.451 66.6735C121.451 66.7335 121.541 66.7635 121.601 66.7035C121.962 66.1634 122.654 65.9533 123.256 66.2534C123.827 66.5534 124.068 67.2136 124.098 67.8137C124.128 68.3838 123.978 68.9839 123.527 69.374C123.015 69.7941 122.293 69.7941 121.842 69.314C121.812 69.284 121.722 69.314 121.722 69.374C121.752 69.9441 121.782 70.5142 121.842 71.1143C121.872 71.0843 121.902 71.0543 121.902 71.0543C121.691 71.0543 121.511 71.0843 121.3 71.0843C121.21 71.0843 121.21 71.2344 121.3 71.2344C121.511 71.2344 121.691 71.2044 121.902 71.2044C121.932 71.2044 121.992 71.1744 121.962 71.1444C121.932 70.5742 121.902 70.0041 121.842 69.404C121.812 69.434 121.752 69.434 121.722 69.464C122.203 69.9741 122.985 69.9741 123.557 69.584C124.128 69.164 124.309 68.4438 124.249 67.7837C124.188 67.1235 123.888 66.4034 123.226 66.1333C122.564 65.8633 121.872 66.0733 121.481 66.6735C121.541 66.6735 121.571 66.7035 121.631 66.7035C121.631 66.5534 121.601 66.4034 121.601 66.2534C121.601 66.2234 121.571 66.1634 121.541 66.1934C121.361 66.1934 121.18 66.2234 121 66.2234C120.969 66.2234 120.909 66.2534 120.939 66.2834C121.03 67.7237 121.12 69.164 121.21 70.5742C121.21 70.7843 121.24 70.9943 121.24 71.1744C121.15 71.2644 121.3 71.2644 121.3 71.1444Z" fill="#F3BB04"/>
<path d="M121.481 67.9938C121.511 68.5039 121.661 69.074 122.173 69.284C122.654 69.4941 123.195 69.224 123.406 68.7739C123.526 68.5339 123.556 68.2638 123.556 67.9938C123.556 67.6937 123.526 67.3936 123.406 67.1236C123.226 66.6735 122.744 66.3434 122.233 66.4935C121.601 66.7035 121.451 67.4236 121.481 67.9938C121.481 68.0838 121.631 68.0838 121.631 67.9938C121.601 67.5437 121.691 67.0036 122.082 66.7335C122.504 66.4635 123.015 66.6735 123.226 67.0936C123.436 67.4837 123.466 68.0538 123.346 68.4739C123.226 68.9239 122.865 69.284 122.383 69.194C121.812 69.074 121.661 68.4739 121.631 67.9938C121.631 67.9037 121.481 67.9037 121.481 67.9938Z" fill="#F3BB04"/>
<path d="M126.235 68.9239L126.355 69.464C126.174 69.524 126.024 69.524 125.904 69.554C125.693 69.554 125.513 69.554 125.392 69.494C125.272 69.434 125.182 69.3439 125.121 69.2239C125.061 69.1039 125.031 68.8639 125.001 68.5038L124.881 66.4634L124.43 66.4934L124.399 66.0133L124.851 65.9833L124.791 65.1131L125.362 64.723L125.452 65.9533L126.054 65.9233L126.084 66.4034L125.482 66.4334L125.603 68.5038C125.603 68.6838 125.633 68.7738 125.663 68.8338C125.693 68.8939 125.723 68.9239 125.783 68.9539C125.843 68.9839 125.904 68.9839 125.994 68.9839C126.054 68.9539 126.144 68.9539 126.235 68.9239Z" fill="#F3BB04"/>
<path d="M126.174 68.9539C126.204 69.1339 126.264 69.3139 126.295 69.494C126.325 69.464 126.325 69.434 126.355 69.404C126.084 69.464 125.723 69.554 125.452 69.434C125.181 69.3139 125.151 69.0439 125.121 68.7738C125.091 68.5338 125.091 68.2937 125.061 68.0837C125.031 67.5436 125.001 67.0335 124.971 66.4934C124.971 66.4634 124.941 66.4034 124.911 66.4334C124.76 66.4334 124.61 66.4634 124.459 66.4634C124.489 66.4934 124.52 66.5234 124.52 66.5234C124.52 66.3734 124.489 66.2233 124.489 66.0433C124.459 66.0733 124.429 66.1033 124.429 66.1033C124.58 66.1033 124.73 66.0733 124.881 66.0733C124.911 66.0733 124.971 66.0433 124.941 66.0133C124.941 65.8933 124.941 65.7732 124.911 65.6532C124.911 65.5332 124.941 65.2631 124.881 65.1431C124.881 65.1431 124.881 65.0531 124.85 65.1431C124.82 65.2031 124.85 65.1731 124.881 65.1431C124.941 65.1131 125.031 65.0531 125.061 65.0231C125.181 64.9331 125.302 64.8731 125.422 64.783C125.392 64.753 125.332 64.753 125.302 64.723C125.332 65.1431 125.362 65.5632 125.392 65.9533C125.392 65.9833 125.422 66.0433 125.452 66.0133C125.663 66.0133 125.843 65.9833 126.054 65.9833C126.024 65.9533 125.994 65.9233 125.994 65.9233C125.994 66.0733 126.024 66.2233 126.024 66.4034C126.054 66.3734 126.084 66.3434 126.084 66.3434C125.873 66.3434 125.693 66.3734 125.482 66.3734C125.452 66.3734 125.392 66.4034 125.422 66.4334C125.452 66.9435 125.482 67.4836 125.512 67.9937C125.512 68.2037 125.542 68.3838 125.542 68.5938C125.542 68.7438 125.573 68.8939 125.693 68.9839C125.843 69.1039 126.084 69.0439 126.264 69.0139C126.355 68.9839 126.325 68.8639 126.234 68.8639C126.084 68.8939 125.903 68.9539 125.783 68.8338C125.693 68.7438 125.693 68.6238 125.693 68.5038C125.693 68.4738 125.693 68.4138 125.693 68.3838C125.663 68.1437 125.663 67.9037 125.633 67.6936C125.603 67.2735 125.573 66.8535 125.542 66.4334C125.512 66.4634 125.482 66.4934 125.482 66.4934C125.693 66.4934 125.873 66.4634 126.084 66.4634C126.114 66.4634 126.174 66.4334 126.144 66.4034C126.144 66.2533 126.114 66.1033 126.114 65.9233C126.114 65.8933 126.084 65.8333 126.054 65.8633C125.843 65.8633 125.663 65.8933 125.452 65.8933C125.482 65.9233 125.512 65.9533 125.512 65.9533C125.482 65.5332 125.452 65.1131 125.422 64.723C125.422 64.663 125.362 64.633 125.302 64.663C125.181 64.753 125.031 64.8431 124.911 64.9331C124.851 64.9931 124.73 65.0231 124.7 65.1131C124.67 65.2331 124.73 65.4132 124.73 65.5632C124.73 65.7132 124.76 65.8633 124.76 66.0133C124.79 65.9833 124.82 65.9533 124.82 65.9533C124.67 65.9533 124.52 65.9833 124.369 65.9833C124.339 65.9833 124.279 66.0133 124.309 66.0433C124.309 66.1933 124.339 66.3434 124.339 66.5234C124.339 66.5534 124.369 66.6134 124.399 66.5834C124.55 66.5834 124.7 66.5534 124.85 66.5534C124.82 66.5234 124.79 66.4934 124.79 66.4934C124.82 67.0935 124.881 67.7236 124.911 68.3237C124.941 68.6238 124.911 68.9539 125.031 69.2539C125.272 69.764 125.934 69.674 126.385 69.554C126.415 69.554 126.445 69.494 126.445 69.464C126.415 69.2839 126.355 69.1039 126.325 68.9239C126.295 68.8038 126.144 68.8639 126.174 68.9539Z" fill="#F3BB04"/>
<path d="M126.595 65.2032L126.565 64.513L127.167 64.483L127.197 65.1732L126.595 65.2032ZM126.866 69.434L126.625 65.8933L127.227 65.8633L127.467 69.404L126.866 69.434Z" fill="#F3BB04"/>
<path d="M126.685 65.2031C126.685 64.9931 126.655 64.8131 126.655 64.603C126.655 64.573 126.655 64.543 126.655 64.513C126.625 64.543 126.595 64.573 126.595 64.573C126.806 64.573 126.986 64.543 127.197 64.543C127.167 64.513 127.137 64.483 127.137 64.483C127.137 64.693 127.167 64.8731 127.167 65.0831C127.167 65.1131 127.167 65.1431 127.167 65.1731C127.197 65.1431 127.227 65.1131 127.227 65.1131C127.016 65.1131 126.836 65.1431 126.625 65.1431C126.595 65.1431 126.565 65.1731 126.565 65.2031C126.565 65.2331 126.595 65.2931 126.625 65.2631C126.836 65.2631 127.016 65.2331 127.227 65.2331C127.257 65.2331 127.317 65.2031 127.287 65.1731C127.287 64.9631 127.257 64.783 127.257 64.573C127.257 64.543 127.257 64.513 127.257 64.483C127.257 64.453 127.227 64.393 127.197 64.423C126.986 64.423 126.806 64.453 126.595 64.453C126.565 64.453 126.505 64.483 126.535 64.513C126.535 64.723 126.565 64.9031 126.565 65.1131C126.565 65.1431 126.565 65.1731 126.565 65.2031C126.565 65.2331 126.595 65.2631 126.625 65.2631C126.625 65.2931 126.685 65.2631 126.685 65.2031Z" fill="#F3BB04"/>
<path d="M126.956 69.4339C126.896 68.3837 126.836 67.3635 126.746 66.3133C126.746 66.1633 126.715 66.0133 126.715 65.8632C126.685 65.8932 126.655 65.9232 126.655 65.9232C126.866 65.9232 127.046 65.8932 127.257 65.8932C127.227 65.8632 127.197 65.8332 127.197 65.8332C127.257 66.8834 127.317 67.9036 127.407 68.9539C127.407 69.1039 127.437 69.2539 127.437 69.4039C127.468 69.3739 127.498 69.3439 127.498 69.3439C127.287 69.3439 127.107 69.3739 126.896 69.3739C126.806 69.3739 126.806 69.524 126.896 69.524C127.107 69.524 127.287 69.494 127.498 69.494C127.528 69.494 127.588 69.464 127.558 69.4339C127.498 68.3837 127.437 67.3635 127.347 66.3133C127.347 66.1633 127.317 66.0133 127.317 65.8632C127.317 65.8332 127.287 65.7732 127.257 65.8032C127.046 65.8032 126.866 65.8332 126.655 65.8332C126.625 65.8332 126.565 65.8632 126.595 65.8932C126.655 66.9435 126.715 67.9637 126.806 69.0139C126.806 69.1639 126.836 69.3139 126.836 69.464C126.806 69.524 126.956 69.524 126.956 69.4339Z" fill="#F3BB04"/>
<path d="M128.039 67.5736C128.009 66.9135 128.16 66.4034 128.491 66.0733C128.792 65.8033 129.153 65.6232 129.574 65.5932C130.055 65.5632 130.476 65.6832 130.807 65.9833C131.138 66.2834 131.319 66.7034 131.349 67.2735C131.379 67.7236 131.319 68.0837 131.198 68.3538C131.078 68.6238 130.897 68.8339 130.627 69.0139C130.356 69.1939 130.085 69.2539 129.784 69.284C129.273 69.314 128.882 69.1939 128.551 68.8939C128.28 68.6238 128.1 68.1737 128.039 67.5736ZM128.671 67.5136C128.701 67.9637 128.822 68.2938 129.032 68.5038C129.243 68.7138 129.514 68.8039 129.814 68.8039C130.115 68.7739 130.356 68.6538 130.536 68.4138C130.717 68.1737 130.807 67.8137 130.777 67.3636C130.747 66.9135 130.627 66.5834 130.416 66.3734C130.205 66.1633 129.935 66.0733 129.634 66.0733C129.333 66.1033 129.092 66.2233 128.912 66.4634C128.731 66.7334 128.641 67.0635 128.671 67.5136Z" fill="#F3BB04"/>
<path d="M128.13 67.5736C128.1 66.8835 128.28 66.2233 128.912 65.8632C129.544 65.5332 130.386 65.6232 130.898 66.1633C131.349 66.6734 131.439 67.5436 131.259 68.1737C131.048 68.9239 130.236 69.3139 129.484 69.2239C129.092 69.1639 128.701 68.9839 128.461 68.6538C128.25 68.3537 128.16 67.9637 128.13 67.5736C128.13 67.4836 127.979 67.4836 127.979 67.5736C128.039 68.3237 128.37 69.0739 129.153 69.3139C129.935 69.554 130.898 69.2839 131.289 68.5338C131.469 68.2037 131.499 67.8136 131.499 67.4236C131.499 67.0035 131.409 66.6134 131.198 66.2533C130.777 65.5932 129.965 65.3832 129.213 65.5932C128.822 65.7132 128.491 65.9533 128.25 66.2833C128.009 66.6734 127.949 67.1235 127.979 67.5736C127.979 67.6636 128.13 67.6636 128.13 67.5736Z" fill="#F3BB04"/>
<path d="M128.611 67.5136C128.641 68.0537 128.822 68.5938 129.363 68.8039C129.874 69.0139 130.446 68.7739 130.687 68.2938C130.807 68.0537 130.837 67.7537 130.837 67.4836C130.837 67.1835 130.807 66.9135 130.687 66.6434C130.446 66.1333 129.905 65.8933 129.393 66.0433C128.731 66.2534 128.551 66.9435 128.611 67.5136C128.611 67.6036 128.761 67.6036 128.761 67.5136C128.731 67.0635 128.822 66.5234 129.243 66.2834C129.664 66.0433 130.236 66.1933 130.476 66.5834C130.717 66.9735 130.777 67.5736 130.627 68.0237C130.506 68.5038 130.055 68.8039 129.574 68.7138C128.972 68.6238 128.791 68.0237 128.731 67.5136C128.731 67.4236 128.581 67.4236 128.611 67.5136Z" fill="#F3BB04"/>
<path d="M132.221 69.0739L131.98 65.5332L132.522 65.5032L132.552 66.0133C132.793 65.5932 133.154 65.3832 133.635 65.3531C133.846 65.3531 134.056 65.3532 134.237 65.4432C134.417 65.5332 134.568 65.5932 134.658 65.7132C134.748 65.8332 134.838 65.9833 134.869 66.1333C134.899 66.2533 134.929 66.4334 134.929 66.7034L135.079 68.8939L134.477 68.9239L134.327 66.7634C134.297 66.5234 134.267 66.3433 134.207 66.2233C134.147 66.1033 134.056 66.0133 133.936 65.9533C133.816 65.8933 133.665 65.8633 133.515 65.8633C133.244 65.8933 133.033 65.9833 132.853 66.1633C132.672 66.3433 132.612 66.6434 132.642 67.0935L132.763 69.0439L132.221 69.0739Z" fill="#F3BB04"/>
<path d="M132.281 69.0739C132.221 68.0236 132.161 67.0034 132.071 65.9532C132.071 65.8032 132.041 65.6532 132.041 65.5031C132.01 65.5332 131.98 65.5632 131.98 65.5632C132.161 65.5632 132.341 65.5331 132.522 65.5331C132.492 65.5031 132.462 65.4731 132.462 65.4731C132.462 65.6532 132.492 65.8032 132.492 65.9832C132.492 66.0433 132.582 66.0733 132.642 66.0132C132.943 65.5031 133.515 65.2931 134.086 65.4131C134.417 65.5031 134.688 65.6832 134.808 66.0132C134.899 66.2233 134.899 66.4633 134.899 66.6734C134.929 67.1835 134.959 67.6936 134.989 68.2037C134.989 68.4137 135.019 68.6238 135.019 68.8338C135.049 68.8038 135.079 68.7738 135.079 68.7738C134.868 68.7738 134.688 68.8038 134.477 68.8038C134.507 68.8338 134.538 68.8638 134.538 68.8638C134.507 68.4737 134.477 68.0837 134.447 67.6936C134.417 67.2735 134.417 66.8534 134.357 66.4333C134.297 66.0733 134.086 65.7732 133.695 65.7132C133.334 65.6532 132.913 65.8032 132.702 66.1033C132.432 66.4933 132.552 67.0635 132.582 67.5135C132.612 67.9936 132.642 68.4737 132.672 68.9538C132.702 68.9238 132.733 68.8938 132.733 68.8938C132.522 68.8938 132.341 68.9238 132.131 68.9238C132.041 68.9238 132.041 69.0739 132.131 69.0739C132.341 69.0739 132.522 69.0439 132.733 69.0439C132.763 69.0439 132.823 69.0138 132.793 68.9838C132.763 68.6238 132.763 68.2937 132.733 67.9336C132.702 67.5436 132.642 67.1535 132.672 66.7634C132.702 66.3433 132.883 66.0132 133.334 65.9232C133.575 65.8632 133.876 65.8932 134.026 66.1033C134.177 66.2533 134.177 66.4933 134.207 66.7034C134.237 67.0335 134.237 67.3635 134.267 67.6936C134.297 68.0837 134.327 68.5037 134.357 68.8938C134.357 68.9238 134.387 68.9838 134.417 68.9538C134.628 68.9538 134.808 68.9238 135.019 68.9238C135.049 68.9238 135.109 68.8938 135.079 68.8638C135.049 68.2637 135.019 67.6936 134.959 67.0935C134.929 66.8234 134.929 66.5534 134.899 66.2833C134.838 65.7132 134.477 65.3231 133.906 65.2331C133.304 65.1431 132.702 65.3831 132.371 65.9232C132.432 65.9232 132.462 65.9532 132.522 65.9532C132.522 65.7732 132.492 65.6232 132.492 65.4431C132.492 65.4131 132.462 65.3531 132.432 65.3831C132.251 65.3831 132.071 65.4131 131.89 65.4131C131.86 65.4131 131.8 65.4431 131.83 65.4731C131.89 66.5233 131.95 67.5436 132.041 68.5938C132.041 68.7438 132.071 68.8938 132.071 69.0439C132.131 69.1939 132.281 69.1939 132.281 69.0739Z" fill="#F3BB04"/>
</g>
<defs>
<clipPath id="clip0_2561_513">
<rect width="196" height="150" fill="white"/>
</clipPath>
</defs>
</svg>
