<svg width="135" height="111" viewBox="0 0 135 111" fill="none" xmlns="http://www.w3.org/2000/svg">
<path d="M125.669 42.5204C121.93 41.2752 118.925 38.4278 117.429 34.741C109.206 14.2731 89.5302 0.901872 67.6761 0.906292C45.8221 0.910712 26.06 14.2899 17.7045 34.7612C16.1854 38.4486 13.1619 41.2972 9.41506 42.5439C3.88284 44.3758 0.123121 49.6148 0.104083 55.5141C0.0850438 61.4134 3.81104 66.6254 9.33136 68.4806C13.0702 69.7258 16.0753 72.5731 17.5706 76.2599C25.8191 96.7279 45.4697 110.099 67.3237 110.095C89.1778 110.09 108.94 96.7111 117.295 76.2397C118.814 72.5524 121.838 69.7038 125.585 68.4571C131.117 66.6251 134.877 61.3862 134.896 55.4868C134.915 49.5875 131.189 44.3501 125.669 42.5204ZM67.3566 99.898C43.1162 99.9029 23.5369 80.0221 23.6161 55.4839C23.6953 30.9458 43.403 11.057 67.6434 11.0521C91.8838 11.0472 111.463 30.928 111.384 55.4662C111.305 80.0043 91.597 99.8931 67.3566 99.898Z" fill="#B4B6DC"/>
<path d="M61.7558 63.4293L78.7009 46.5224C79.2274 45.9971 79.8975 45.7344 80.7113 45.7344C81.525 45.7344 82.1952 45.9971 82.7217 46.5224C83.2483 47.0478 83.5115 47.7164 83.5115 48.5283C83.5115 49.3402 83.2483 50.0088 82.7217 50.5342L63.7663 69.447C63.1918 70.0201 62.5217 70.3066 61.7558 70.3066C60.9899 70.3066 60.3198 70.0201 59.7454 69.447L52.2781 61.9965C51.7516 61.4711 51.4883 60.8025 51.4883 59.9906C51.4883 59.1787 51.7516 58.51 52.2781 57.9847C52.8046 57.4593 53.4748 57.1967 54.2885 57.1967C55.1023 57.1967 55.7724 57.4593 56.2989 57.9847L61.7558 63.4293Z" fill="#B4B6DC"/>
</svg>
