<svg width="163" height="60" viewBox="0 0 163 60" fill="none" xmlns="http://www.w3.org/2000/svg">
<rect y="33.3545" width="160.887" height="27.0335" rx="10" transform="rotate(-11.9304 0 33.3545)" fill="#B4B6DC"/>
<g filter="url(#filter0_d_1671_303)">
<path d="M19.1842 39.3477L18.0865 39.5796L19.3797 45.7005C19.5039 46.2882 19.5807 46.7064 19.61 46.955C19.6317 47.1126 19.6118 47.3195 19.5501 47.5758C19.4971 47.8187 19.3595 48.0446 19.1373 48.2538C18.9127 48.4518 18.6563 48.5813 18.368 48.6422C18.0797 48.7031 17.7928 48.6884 17.5073 48.5982C17.2195 48.4968 17.0022 48.3458 16.8556 48.1451C16.6955 47.9357 16.5935 47.7545 16.5496 47.6016C16.4759 47.3624 16.3769 46.9489 16.2528 46.3612L14.9595 40.2403L13.8617 40.4723C13.2297 40.6058 12.7689 40.6453 12.4793 40.5906C11.9603 40.4918 11.6446 40.1762 11.5322 39.644C11.483 39.4111 11.4983 39.182 11.5781 38.9566C11.669 38.7289 11.8104 38.5484 12.0023 38.4152C12.3092 38.223 12.7454 38.0671 13.3109 37.9476L18.6667 36.816C19.2655 36.6895 19.7274 36.6556 20.0526 36.7143C20.54 36.7735 20.8447 37.0914 20.9665 37.668C21.086 38.2335 20.9293 38.6431 20.4963 38.8967C20.2536 39.0638 19.8163 39.2142 19.1842 39.3477ZM22.0288 41.8916C21.6563 40.1285 21.8811 38.6157 22.7032 37.3532C23.534 36.0772 24.8254 35.2541 26.5774 34.8839C28.3627 34.5067 29.8822 34.7359 31.136 35.5714C32.3986 36.3935 33.222 37.7138 33.6062 39.5323C33.9693 41.251 33.7355 42.7484 32.9047 44.0244C32.0826 45.2869 30.7955 46.1033 29.0435 46.4735C27.2694 46.8483 25.751 46.6247 24.4885 45.8026C23.2259 44.9805 22.406 43.6769 22.0288 41.8916ZM28.5094 43.9453C29.2966 43.7789 29.8567 43.3594 30.1895 42.6868C30.531 42.0007 30.5987 41.1697 30.3925 40.1939C30.2239 39.3956 29.9704 38.7715 29.6321 38.3217C29.3435 37.9425 28.9738 37.6731 28.5231 37.5135C28.07 37.3428 27.5995 37.309 27.1116 37.4121C26.3132 37.5808 25.736 38.0561 25.3799 38.8379C25.1026 39.4988 25.0635 40.3006 25.2626 41.2431C25.4758 42.2521 25.8707 42.9969 26.4471 43.4775C27.0236 43.958 27.711 44.114 28.5094 43.9453ZM43.9413 34.0821L44.8691 38.4731C45.2135 40.1031 45.0402 41.3387 44.3491 42.1797C43.6184 43.0523 42.499 43.6479 40.991 43.9665C39.5273 44.2758 38.2626 44.1839 37.197 43.6908C36.2295 43.2234 35.5712 42.1636 35.2221 40.5114L34.2943 36.1204C34.1678 35.5216 34.0899 35.0979 34.0605 34.8492C34.0364 34.6806 34.0553 34.4681 34.1169 34.2118C34.181 33.9666 34.3296 33.7383 34.563 33.5268C34.7963 33.3153 35.0516 33.1803 35.3288 33.1217C35.606 33.0632 35.8941 33.0834 36.193 33.1824C36.4919 33.2814 36.7202 33.4301 36.878 33.6284C37.0381 33.8379 37.1424 34.0301 37.191 34.2052C37.2647 34.4444 37.3636 34.8579 37.4878 35.4456L38.3594 39.5705C38.4742 40.1139 38.5705 40.4874 38.6482 40.691C38.7237 40.8836 38.8388 41.0446 38.9935 41.1741C39.3574 41.5258 39.861 41.6337 40.5041 41.4978C41.114 41.369 41.5142 41.0701 41.7047 40.6013C41.7804 40.4115 41.8127 40.2078 41.8014 39.9901C41.7902 39.7723 41.7295 39.4029 41.6194 38.8817L40.7478 34.7568C40.6213 34.158 40.5434 33.7343 40.514 33.4857C40.49 33.317 40.5088 33.1045 40.5705 32.8483C40.6345 32.6031 40.7832 32.3747 41.0165 32.1633C41.2498 31.9518 41.5051 31.8168 41.7823 31.7582C42.0595 31.6996 42.3476 31.7198 42.6465 31.8189C42.9454 31.9179 43.1738 32.0665 43.3315 32.2649C43.4916 32.4743 43.5959 32.6666 43.6445 32.8416C43.7182 33.0809 43.8172 33.4944 43.9413 34.0821ZM52.2386 32.3637L51.1409 32.5956L52.4341 38.7165C52.5583 39.3042 52.6351 39.7224 52.6644 39.971C52.6862 40.1286 52.6662 40.3355 52.6045 40.5918C52.5515 40.8347 52.414 41.0606 52.1917 41.2698C51.9671 41.4678 51.7107 41.5973 51.4224 41.6582C51.1341 41.7191 50.8472 41.7044 50.5617 41.6142C50.2739 41.5128 50.0566 41.3618 49.91 41.1611C49.7499 40.9517 49.6479 40.7705 49.604 40.6176C49.5303 40.3784 49.4313 39.9649 49.3072 39.3772L48.0139 33.2563L46.9161 33.4883C46.2841 33.6218 45.8233 33.6613 45.5337 33.6066C45.0148 33.5078 44.699 33.1922 44.5866 32.66C44.5374 32.4271 44.5527 32.198 44.6325 31.9726C44.7234 31.7449 44.8648 31.5644 45.0567 31.4312C45.3636 31.239 45.7998 31.0831 46.3653 30.9636L51.7211 29.832C52.3199 29.7055 52.7818 29.6716 53.107 29.7303C53.5944 29.7895 53.8991 30.1074 54.0209 30.684C54.1404 31.2495 53.9837 31.6591 53.5507 31.9127C53.3081 32.0798 52.8707 32.2302 52.2386 32.3637ZM68.8057 37.8116L64.215 38.7815C63.5497 38.9221 63.1015 38.9936 62.8704 38.9961C62.6503 38.9963 62.4395 38.9308 62.2381 38.7996C62.0769 38.6946 61.9428 38.5261 61.8358 38.2938C61.7534 38.068 61.6465 37.6446 61.5153 37.0236L60.1166 30.4038C59.9831 29.7717 59.9119 29.3524 59.903 29.1458C59.8894 28.917 59.9382 28.7097 60.0496 28.524C60.165 28.3027 60.3178 28.1488 60.508 28.0623C60.7403 27.9553 61.1225 27.8456 61.6548 27.7331L66.4117 26.728C67.199 26.5617 67.7606 26.5878 68.0963 26.8065C68.3808 27.0012 68.5581 27.2649 68.6284 27.5976C68.7034 27.9524 68.6312 28.2688 68.4119 28.5468C68.1705 28.8295 67.6728 29.0505 66.9187 29.2098L63.3427 29.9654L63.6976 31.6453L66.7913 30.9917C67.5121 30.8394 68.0132 30.8262 68.2946 30.952C68.663 31.1059 68.8906 31.3879 68.9773 31.7982C69.0616 32.1974 68.9597 32.5375 68.6716 32.8184C68.4319 33.0544 67.9683 33.245 67.2808 33.3903L64.2037 34.0404L64.643 36.1195L68.2856 35.3499C68.9176 35.2164 69.3717 35.1726 69.6478 35.2185C70.1668 35.3173 70.4813 35.6273 70.5915 36.1485C70.6852 36.592 70.5559 36.9668 70.2035 37.273C69.948 37.4891 69.4821 37.6686 68.8057 37.8116ZM75.2626 29.028L76.8403 29.0943C77.9033 29.1361 78.7673 29.388 79.4325 29.8498C80.0977 30.3116 80.5158 30.9472 80.6868 31.7567C80.9305 32.9099 80.6691 33.9207 79.9028 34.7892C79.1977 35.5637 78.1299 36.1021 76.6995 36.4043C75.4354 36.6714 74.3477 36.7043 73.4364 36.503C72.8059 36.3698 72.255 36.0924 71.7836 35.6707C71.3123 35.249 71.0192 34.7665 70.9044 34.2232C70.813 33.7907 70.8711 33.4078 71.0787 33.0744C71.295 32.7275 71.6082 32.5107 72.0185 32.424C72.4953 32.3233 72.9256 32.4409 73.3093 32.7768C73.4466 32.9331 73.5965 33.1216 73.7589 33.3421C74.2532 34.0369 75.077 34.2625 76.2302 34.0188C76.6848 33.9228 77.0474 33.7477 77.3181 33.4936C77.5887 33.2395 77.6948 32.9738 77.6362 32.6966C77.5917 32.4859 77.4489 32.3308 77.2077 32.2311C76.9777 32.1291 76.5869 32.0611 76.0352 32.0271L74.5739 31.9362C73.8133 31.9 73.325 31.8642 73.109 31.8287C72.8685 31.7869 72.5909 31.7065 72.2762 31.5877C71.763 31.4065 71.3297 31.11 70.9762 30.6982C70.6228 30.2864 70.3899 29.8143 70.2774 29.2821C70.0548 28.2287 70.276 27.3016 70.9408 26.5009C71.6278 25.6955 72.6422 25.151 73.9839 24.8675C75.2258 24.6051 76.2983 24.6102 77.2015 24.8827C77.7188 25.0282 78.1649 25.2757 78.5399 25.625C78.926 25.9721 79.1623 26.3507 79.249 26.761C79.3287 27.138 79.2592 27.4944 79.0405 27.8302C78.8306 28.1525 78.5317 28.3547 78.1436 28.4367C77.8442 28.5 77.5806 28.4861 77.3529 28.3952C77.1339 28.2909 76.8951 28.0924 76.6363 27.7995C76.4628 27.5814 76.31 27.4341 76.178 27.3577C76.0572 27.279 75.8943 27.2207 75.6894 27.183C75.2953 27.1272 74.9043 27.1403 74.5162 27.2223C74.1059 27.309 73.7853 27.4636 73.5543 27.6862C73.332 27.8953 73.2479 28.1274 73.3018 28.3824C73.351 28.6153 73.5005 28.7748 73.7504 28.861C74.0224 28.9426 74.5265 28.9982 75.2626 29.028ZM87.3234 24.9507L86.2257 25.1826L87.5189 31.3035C87.6431 31.8912 87.7199 32.3094 87.7492 32.558C87.7709 32.7156 87.751 32.9225 87.6893 33.1788C87.6363 33.4217 87.4987 33.6476 87.2765 33.8568C87.0519 34.0548 86.7955 34.1843 86.5072 34.2452C86.2189 34.3061 85.932 34.2914 85.6465 34.2012C85.3587 34.0998 85.1414 33.9488 84.9948 33.7481C84.8347 33.5387 84.7327 33.3575 84.6888 33.2046C84.6151 32.9654 84.5161 32.5519 84.392 31.9642L83.0987 25.8433L82.0009 26.0753C81.3689 26.2088 80.9081 26.2483 80.6185 26.1936C80.0996 26.0948 79.7838 25.7792 79.6714 25.247C79.6222 25.0141 79.6375 24.785 79.7173 24.5596C79.8082 24.3319 79.9496 24.1515 80.1415 24.0182C80.4484 23.826 80.8846 23.6701 81.4501 23.5506L86.8059 22.419C87.4047 22.2925 87.8666 22.2586 88.1918 22.3173C88.6792 22.3765 88.9839 22.6944 89.1057 23.271C89.2252 23.8365 89.0685 24.2461 88.6355 24.4997C88.3928 24.6668 87.9555 24.8172 87.3234 24.9507ZM100.662 27.2061L99.4476 27.4626L99.7111 28.7101C99.8283 29.2645 99.9039 29.6771 99.9379 29.9479C99.962 30.1166 99.9432 30.3291 99.8815 30.5854C99.8175 30.8306 99.6688 31.0589 99.4355 31.2704C99.2132 31.4795 98.9635 31.6133 98.6863 31.6719C98.398 31.7328 98.1044 31.7138 97.8054 31.6148C97.5176 31.5134 97.3004 31.3624 97.1537 31.1617C96.9936 30.9523 96.8916 30.7711 96.8478 30.6182C96.774 30.379 96.6751 29.9655 96.5509 29.3778L95.212 23.0407C95.0925 22.4752 95.0259 22.078 95.0123 21.8492C95.0186 21.6046 95.0707 21.3851 95.1686 21.1907C95.2817 20.9583 95.4642 20.7807 95.7163 20.658C95.9771 20.5218 96.3958 20.3928 96.9724 20.2709L99.301 19.7789C100.72 19.479 101.866 19.5267 102.737 19.9218C103.742 20.4043 104.376 21.2666 104.639 22.5085C104.765 23.1073 104.768 23.6974 104.648 24.2788C104.538 24.8579 104.317 25.3449 103.983 25.7397C103.656 26.11 103.276 26.3931 102.842 26.589C102.42 26.7825 101.693 26.9882 100.662 27.2061ZM98.4108 22.5559L98.9415 25.0675L100.139 24.8145C101.292 24.5708 101.779 24.0221 101.598 23.1682C101.425 22.3477 100.778 22.0557 99.6583 22.2924L98.4108 22.5559ZM112.463 26.4849L108.887 27.2405L108.851 27.891C108.812 28.4783 108.723 28.8793 108.584 29.0942C108.372 29.4633 108.044 29.6947 107.601 29.7884C107.179 29.8774 106.783 29.8106 106.412 29.5879C106.04 29.3652 105.811 29.0487 105.725 28.6384C105.668 28.3723 105.686 27.9342 105.777 27.3242L106.702 20.0223C106.821 19.163 106.989 18.6122 107.204 18.3698C107.414 18.1052 107.897 17.8933 108.651 17.734C109.416 17.5723 109.966 17.5719 110.301 17.7328C110.636 17.8936 111.022 18.3218 111.458 19.0172L115.374 25.2964C115.691 25.8087 115.877 26.1979 115.934 26.464C116.023 26.8853 115.948 27.2718 115.709 27.6234C115.482 27.9726 115.152 28.1929 114.72 28.2842C114.298 28.3733 113.934 28.3228 113.628 28.1327C113.33 27.9292 113.029 27.5468 112.725 26.9855L112.463 26.4849ZM109.334 20.804L109.065 24.6312L111.211 24.1779L109.334 20.804ZM120.424 22.8047L119.609 22.9769L119.911 24.4073C120.038 25.0061 120.116 25.4298 120.145 25.6784C120.169 25.8471 120.15 26.0596 120.089 26.3159C120.024 26.5611 119.876 26.7894 119.642 27.0009C119.409 27.2123 119.154 27.3473 118.877 27.4059C118.599 27.4645 118.311 27.4443 118.012 27.3453C117.714 27.2462 117.485 27.0976 117.327 26.8992C117.167 26.6898 117.064 26.5031 117.018 26.3391C116.944 26.0998 116.844 25.6808 116.718 25.082L115.365 18.6784C115.219 17.9909 115.161 17.5226 115.189 17.2733C115.228 16.9061 115.347 16.6492 115.548 16.5026C115.76 16.3536 116.193 16.2099 116.847 16.0717L119.924 15.4216C120.678 15.2623 121.303 15.1766 121.798 15.1645C122.283 15.1549 122.723 15.2123 123.12 15.3369C123.591 15.4808 123.988 15.7443 124.313 16.1276C124.637 16.5108 124.856 16.9741 124.971 17.5174C125.177 18.4932 125.023 19.2962 124.507 19.9264C124.303 20.1665 124.004 20.3975 123.611 20.6196C124.265 20.6437 124.769 20.8382 125.124 21.2034C125.48 21.5685 125.826 22.2483 126.163 23.2426C126.211 23.3599 126.279 23.4903 126.368 23.6339L126.652 23.9909C126.738 24.1233 126.793 24.2505 126.819 24.3725C126.892 24.7162 126.79 25.0563 126.513 25.3927C126.246 25.7157 125.896 25.9229 125.463 26.0143C124.776 26.1595 124.202 25.9679 123.743 25.4394C123.574 25.2434 123.444 25.0625 123.351 24.8968C123.289 24.7708 123.104 24.3349 122.796 23.5892C122.698 23.3435 122.55 23.1373 122.353 22.9705C122.155 22.8037 121.943 22.7038 121.716 22.6707C121.465 22.6311 121.034 22.6758 120.424 22.8047ZM118.618 18.2864L119.092 20.5319L120.323 20.2718C120.878 20.1547 121.278 20.0236 121.526 19.8787C121.941 19.5941 122.098 19.2134 121.997 18.7366C121.899 18.2709 121.632 17.9971 121.198 17.9151C120.942 17.8534 120.503 17.8881 119.882 18.0193L118.618 18.2864ZM132.852 15.331L131.755 15.5629L133.048 21.6838C133.172 22.2715 133.249 22.6896 133.278 22.9383C133.3 23.0958 133.28 23.3028 133.218 23.5591C133.165 23.8019 133.028 24.0279 132.806 24.237C132.581 24.4351 132.324 24.5646 132.036 24.6255C131.748 24.6864 131.461 24.6717 131.176 24.5814C130.888 24.4801 130.67 24.3291 130.524 24.1284C130.364 23.919 130.262 23.7378 130.218 23.5849C130.144 23.3456 130.045 22.9322 129.921 22.3445L128.628 16.2236L127.53 16.4555C126.898 16.5891 126.437 16.6285 126.148 16.5739C125.629 16.475 125.313 16.1595 125.2 15.6272C125.151 15.3944 125.166 15.1653 125.246 14.9399C125.337 14.7122 125.479 14.5317 125.671 14.3985C125.977 14.2062 126.414 14.0504 126.979 13.9309L132.335 12.7993C132.934 12.6728 133.396 12.6389 133.721 12.6976C134.208 12.7567 134.513 13.0746 134.635 13.6512C134.754 14.2168 134.597 14.6263 134.165 14.88C133.922 15.0471 133.484 15.1974 132.852 15.331ZM139.023 13.9925L140.312 20.0968C140.439 20.6956 140.517 21.1193 140.546 21.3679C140.57 21.5366 140.551 21.749 140.49 22.0053C140.426 22.2505 140.277 22.4789 140.044 22.6903C139.81 22.9018 139.555 23.0368 139.278 23.0954C139.001 23.154 138.713 23.1338 138.414 23.0347C138.115 22.9357 137.886 22.7871 137.729 22.5887C137.569 22.3793 137.465 22.1926 137.419 22.0286C137.345 21.7893 137.245 21.3703 137.119 20.7715L135.829 14.6673C135.703 14.0685 135.625 13.6448 135.595 13.3962C135.571 13.2275 135.59 13.015 135.652 12.7587C135.716 12.5135 135.864 12.2852 136.098 12.0737C136.331 11.8623 136.586 11.7272 136.863 11.6687C137.141 11.6101 137.429 11.6303 137.728 11.7293C138.027 11.8283 138.255 11.977 138.413 12.1754C138.573 12.3848 138.676 12.5715 138.722 12.7355C138.796 12.9747 138.896 13.3938 139.023 13.9925ZM148.885 13.907L149.021 15.4592C149.084 16.0831 149.053 16.5125 148.929 16.7472C148.787 17.0088 148.55 17.1747 148.217 17.245C147.862 17.32 147.578 17.2642 147.365 17.0775C147.15 16.8798 146.948 16.4997 146.759 15.9372L146.257 14.4622C146.062 13.9242 145.899 13.3447 145.768 12.7237L145.585 11.8588C145.426 11.1048 145.489 10.5295 145.776 10.133C145.984 9.85735 146.26 9.68321 146.604 9.61058C147.181 9.48875 147.652 9.66147 148.017 10.1287C148.19 10.3469 148.333 10.7221 148.446 11.2544L148.629 12.1193C148.755 12.7181 148.84 13.314 148.885 13.907ZM148.326 18.0907C148.726 18.0064 149.108 18.0878 149.473 18.335C149.846 18.5688 150.077 18.8909 150.163 19.3011C150.245 19.6892 150.173 20.0579 149.945 20.4071C149.716 20.7452 149.407 20.9553 149.019 21.0373C148.608 21.124 148.223 21.0548 147.863 20.8298C147.5 20.5936 147.277 20.276 147.192 19.8768C147.108 19.4776 147.179 19.1034 147.407 18.7542C147.632 18.3939 147.938 18.1727 148.326 18.0907Z" fill="#020D6F"/>
</g>
<defs>
<filter id="filter0_d_1671_303" x="7.2124" y="7.22168" width="147.274" height="48.5186" filterUnits="userSpaceOnUse" color-interpolation-filters="sRGB">
<feFlood flood-opacity="0" result="BackgroundImageFix"/>
<feColorMatrix in="SourceAlpha" type="matrix" values="0 0 0 0 0 0 0 0 0 0 0 0 0 0 0 0 0 0 127 0" result="hardAlpha"/>
<feOffset dy="2"/>
<feGaussianBlur stdDeviation="2"/>
<feComposite in2="hardAlpha" operator="out"/>
<feColorMatrix type="matrix" values="0 0 0 0 0 0 0 0 0 0 0 0 0 0 0 0 0 0 0.2 0"/>
<feBlend mode="normal" in2="BackgroundImageFix" result="effect1_dropShadow_1671_303"/>
<feBlend mode="normal" in="SourceGraphic" in2="effect1_dropShadow_1671_303" result="shape"/>
</filter>
</defs>
</svg>
