<svg width="24" height="24" viewBox="0 0 24 24" fill="none" xmlns="http://www.w3.org/2000/svg">
<rect width="24" height="24" rx="12" fill="#B4B6DC"/>
<path d="M11.1563 9.01402C10.8346 8.99595 10.7049 9.06317 10.6231 9.44879C10.5509 9.80303 10.546 10.1752 10.5074 10.5384C10.3672 12.5384 10.0107 15.1257 10.0049 17.3993C9.99525 17.4307 10.0096 17.5025 10 17.5338C10.0189 18.1841 10.422 18.7672 11.0125 19.0948C11.0461 19.1038 11.0797 19.1128 11.0894 19.0814C11.2142 19.1487 11.339 19.216 11.4734 19.2519C11.9104 19.3687 12.3185 19.342 12.722 19.2121C13.2887 19.024 13.7451 18.6026 13.9278 18.0063C13.9663 17.8807 13.9951 17.7865 14 17.652C13.9952 17.5489 13.9905 17.4457 13.9857 17.3426C14.0109 14.7686 13.0183 11.7188 13.0049 9.50803C13.0098 9.13583 12.9186 9.0775 12.6305 9.06841C12.1215 9.06821 11.6461 9.07699 11.1563 9.01402Z" fill="white"/>
<path d="M12.2531 4.72292C11.325 4.47489 10.3573 4.97644 10.0917 5.84316C9.82613 6.70988 10.3632 7.61356 11.2913 7.86159C12.2194 8.10962 13.1871 7.60808 13.4527 6.74136C13.7183 5.87464 13.1812 4.97095 12.2531 4.72292Z" fill="white"/>
</svg>
