<svg version="1.2" xmlns="http://www.w3.org/2000/svg" viewBox="0 0 179 170" width="179" height="170">
	<title>Vector2-svg</title>
	<style>
		.s0 { opacity: .1;fill: #020d6f } 
	</style>
	<path id="Layer" fill-rule="evenodd" class="s0" d="m-62.6 164.4c-61.5-15.5-108.4-69.7-116.2-138-1.5-13.4-7.3-23.8-17.9-31.2-14.6-10.3-20.7-27.9-16-45.5 4.9-18 18.8-30.4 36.9-32.4 13.1-1.3 23.2-7.8 31.7-18.5 37.4-48 85.2-71.8 143.1-67.7 56.9 4 99.1 33.3 126.6 84.6 9.6 17.9 15.1 37.5 17.3 58.2 1.5 13.2 7.4 23.4 17.9 30.7 14.6 10.2 20.7 28.1 15.9 45.9-4.8 17.7-19.2 30.3-36.8 32-12.9 1.3-23.2 7.5-31.4 18.2q-48.2 63-123.9 68.5c-16 1.1-31.9-0.5-47.2-4.8zm-83.2-193.9c-18.2 75.3 24.4 148.2 96.2 164.7 69 15.9 141.3-32 159.4-105.5 18.4-74.5-24.3-148.7-94.6-164.8-70.6-16.2-143 31.2-161 105.6z"/>
</svg>