<svg width="23" height="17" viewBox="0 0 23 17" fill="none" xmlns="http://www.w3.org/2000/svg">
<path d="M0.5 14.5246C0.580697 14.3142 0.639874 14.0983 0.73671 13.8989C0.951901 13.467 1.28545 13.1458 1.72121 12.9519C1.83418 12.9021 1.87722 12.8357 1.87722 12.7083C1.91488 9.90623 2.90476 7.51947 4.863 5.57577C6.12724 4.31872 7.63899 3.52129 9.34975 3.12258C9.43041 3.10596 9.51651 3.07828 9.61336 3.05613C9.23139 1.94859 9.44654 1.00165 10.4149 0.353741C11.1519 -0.139112 11.9589 -0.116961 12.6691 0.420194C13.5514 1.08472 13.7504 1.9929 13.3738 3.05059C13.7342 3.15026 14.0839 3.23887 14.4336 3.34963C16.3811 3.98092 17.9735 5.13829 19.2055 6.82173C20.2061 8.18958 20.814 9.729 21.0292 11.4235C21.083 11.8555 21.0991 12.2874 21.1153 12.7194C21.1206 12.8412 21.153 12.8966 21.2606 12.9519C22.7239 13.6663 22.9336 15.5547 21.6641 16.5736C21.2821 16.8782 20.8409 17 20.3621 17C18.1295 17 15.8969 17 13.6643 17C9.98989 17 6.32092 17 2.64653 17C1.75349 17 1.09715 16.5957 0.699052 15.7706C0.607595 15.5768 0.564557 15.3553 0.5 15.1449C0.5 14.9399 0.5 14.7351 0.5 14.5246ZM19.7219 12.7526C19.7811 10.2496 18.5492 7.16507 15.7086 5.46501C12.6583 3.63758 9.10765 3.88124 6.34782 6.12952C4.29274 7.81301 3.319 10.0613 3.24369 12.7526C8.75795 12.7526 14.2346 12.7526 19.7219 12.7526ZM11.4747 15.5879C14.4013 15.5879 17.328 15.5879 20.2599 15.5879C20.389 15.5879 20.5181 15.5824 20.6419 15.5436C20.9216 15.455 21.083 15.2445 21.1099 14.9455C21.1368 14.6686 21.0346 14.425 20.7925 14.2976C20.6419 14.2201 20.4536 14.1758 20.2814 14.1758C14.4282 14.1702 8.56968 14.1702 2.71646 14.1702C2.59811 14.1702 2.46899 14.1813 2.35602 14.2146C1.9364 14.3419 1.75349 14.8514 1.97944 15.2335C2.14083 15.5104 2.39906 15.5879 2.69495 15.5879C5.62154 15.5879 8.54811 15.5879 11.4747 15.5879ZM12.1795 2.15348C12.1849 1.78246 11.8675 1.4502 11.5016 1.44466C11.1412 1.43913 10.813 1.76585 10.8077 2.14241C10.8023 2.51897 11.1197 2.8457 11.4855 2.85123C11.8567 2.85677 12.1795 2.53005 12.1795 2.15348Z" fill="#020D6F"/>
<path d="M11.7491 5.68642C13.632 5.78056 15.2675 6.5503 16.5909 8.0067C16.8653 8.31129 16.8599 8.74319 16.5802 9.02009C16.3004 9.29698 15.8916 9.29698 15.601 8.99239C15.1007 8.46635 14.5573 8.01223 13.9118 7.68552C13.1748 7.31449 12.3947 7.11515 11.577 7.10962C11.1735 7.10962 10.7862 6.79397 10.8077 6.35096C10.8346 5.93561 11.1466 5.67534 11.6308 5.68642C11.6523 5.68642 11.6738 5.68642 11.7491 5.68642Z" fill="#020D6F"/>
</svg>
