<svg width="36" height="29" viewBox="0 0 36 29" fill="none" xmlns="http://www.w3.org/2000/svg">
<path d="M18.0402 28.9564C12.3658 29.0716 7.02855 25.6873 4.74002 20.2685C4.29254 19.2045 3.5465 18.4838 2.45764 18.1125C0.95517 17.6014 0.0101053 16.2941 8.32759e-05 14.7458C-0.0100463 13.1646 0.904532 11.8371 2.41893 11.2718C3.5167 10.8641 4.23952 10.1123 4.7119 9.03943C6.80645 4.27008 10.3742 1.25172 15.4648 0.284561C20.4719 -0.667497 24.8078 0.788019 28.3985 4.37174C29.65 5.6205 30.5872 7.10262 31.2725 8.73969C31.712 9.78974 32.4605 10.4969 33.5413 10.8603C35.0448 11.3659 35.9959 12.6942 36 14.2595C36.005 15.8113 35.0637 17.1636 33.5815 17.7024C32.4942 18.0985 31.7564 18.8335 31.2989 19.9012C29.5238 24.0608 26.4999 26.8562 22.2273 28.2873C20.8747 28.737 19.4605 28.963 18.0402 28.9564ZM6.26881 14.9513C6.47986 21.5209 11.8817 26.5374 18.467 26.2772C24.8029 26.0267 29.913 20.4828 29.7357 14.0535C29.5557 7.54803 24.1187 2.42741 17.6649 2.6864C11.1826 2.94626 6.06049 8.45876 6.26881 14.9513Z" fill="#020D6F"/>
<path d="M18.4091 7.36364C17.2794 7.36364 16.3636 8.27942 16.3636 9.40909V13.0909H12.6818C11.5521 13.0909 10.6364 14.0067 10.6364 15.1364C10.6364 16.266 11.5521 17.1818 12.6818 17.1818H16.3636V20.0455C16.3636 21.1751 17.2794 22.0909 18.4091 22.0909C19.5388 22.0909 20.4545 21.1751 20.4545 20.0455V17.1818H23.3182C24.4479 17.1818 25.3636 16.266 25.3636 15.1364C25.3636 14.0067 24.4479 13.0909 23.3182 13.0909H20.4545V9.40909C20.4545 8.27942 19.5388 7.36364 18.4091 7.36364Z" fill="#F1C759"/>
</svg>
