<svg width="275" height="133" viewBox="0 0 275 133" fill="none" xmlns="http://www.w3.org/2000/svg">
<path opacity="0.05" d="M-39.5387 37.7272C-73.2287 -14.7186 -69.7349 -82.6359 -28.2699 -132.872C-20.1177 -142.718 -17.1349 -153.529 -19.6366 -165.687C-23.1012 -182.456 -15.3503 -198.25 0.187752 -206.583C16.058 -215.092 34.6726 -213.604 49.0488 -202.452C59.4491 -194.357 71.1655 -191.599 84.6812 -192.891C144.731 -198.686 195.589 -181.388 234.514 -138.933C272.809 -97.1804 283.004 -48.8907 267.489 3.75613C262.085 22.104 252.528 38.7544 239.966 53.8743C231.908 63.5716 229.076 74.3336 231.611 86.3744C235.137 103.123 227.21 119.085 211.465 127.454C195.863 135.759 176.844 134.153 162.919 123.161C152.696 115.102 141.063 112.114 127.685 113.518C75.6081 119.055 30.1146 105.655 -8.79496 73.3194C-21.0787 63.0651 -31.4623 51.0438 -39.5387 37.7272ZM34.0551 -146.872C-30.9119 -109.938 -50.4762 -32.7318 -10.1033 27.4607C28.7418 85.3733 113.881 103.654 177.629 67.7821C242.128 31.4799 262.54 -46.6098 222.933 -105.58C183.154 -164.811 98.2616 -183.371 34.0551 -146.872Z" fill="#020D6F"/>
</svg>
