<svg width="132" height="28" viewBox="0 0 132 28" fill="none" xmlns="http://www.w3.org/2000/svg">
<path d="M16.9005 4.38089L12.3723 4.38089L12.3723 18.4443C12.3723 19.8833 12.2535 20.8209 12.0158 21.2569C11.8256 21.6058 11.5166 21.9002 11.0888 22.14C10.6609 22.358 10.2093 22.467 9.73386 22.467C9.28222 22.467 8.84248 22.358 8.41462 22.14C7.98675 21.9002 7.67774 21.6058 7.48758 21.2569C7.29742 20.9299 7.19046 20.6246 7.16669 20.3412C7.14292 20.145 7.13103 19.5126 7.13103 18.4443L7.13103 4.38089L2.60283 4.38089C1.81841 4.38089 1.18851 4.20646 0.713103 3.8576C0.237701 3.48693 -1.46709e-07 2.99635 -9.42004e-08 2.38585C-3.2315e-08 1.66632 0.320897 1.13213 0.962689 0.783276C1.41432 0.543434 2.05611 0.423514 2.88807 0.423514L16.6866 0.423515C17.5661 0.423515 18.2436 0.597945 18.719 0.946805C19.1944 1.29566 19.4321 1.78625 19.4321 2.41855C19.4321 3.02906 19.2062 3.50874 18.7546 3.8576C18.303 4.20646 17.685 4.38089 16.9005 4.38089Z" fill="#020D6F"/>
<path d="M31.7175 9.97353L27.5458 21.0934C26.4524 23.9933 25.5373 25.7812 24.8004 26.4571C23.8734 27.3075 22.5303 27.7326 20.7714 27.7326C18.3943 27.7326 17.2058 27.0458 17.2058 25.6722C17.2058 25.1489 17.3841 24.7128 17.7407 24.364C18.0972 24.0151 18.5489 23.8407 19.0956 23.8407L20.0226 23.9061C20.1177 23.9061 20.2128 23.9061 20.3078 23.9061C20.4029 23.9279 20.4861 23.9388 20.5574 23.9388C20.6287 23.9606 20.6882 23.9715 20.7357 23.9715C20.7832 23.9715 20.8189 23.9715 20.8427 23.9715C21.2943 23.9715 21.6509 23.8625 21.9123 23.6444C22.1976 23.4264 22.4828 23.023 22.768 22.4343L17.5981 9.81C17.3128 9.11229 17.1702 8.56719 17.1702 8.17473C17.1702 7.60783 17.4079 7.11725 17.8833 6.70298C18.3587 6.28871 18.9292 6.08157 19.5947 6.08157C20.7595 6.08157 21.5677 6.73569 22.0193 8.04391L23.5881 12.6554C23.9922 13.811 24.3963 15.4463 24.8004 17.5612C24.9906 16.6891 25.4778 14.923 26.2623 12.2629L27.5458 8.04391C27.9262 6.73569 28.663 6.08158 29.7565 6.08158C30.422 6.08158 30.9806 6.27781 31.4323 6.67028C31.9077 7.06274 32.1454 7.54242 32.1454 8.10932C32.1454 8.589 32.0027 9.2104 31.7175 9.97353Z" fill="#020D6F"/>
<path d="M38.4087 16.1876L34.8432 16.1876C33.1793 16.1876 32.3473 15.5989 32.3473 14.4215C32.3473 13.2441 33.1555 12.6554 34.7719 12.6554L38.4087 12.6554C40.0488 12.6554 40.8689 13.2223 40.8689 14.3561C40.8689 14.9884 40.6193 15.479 40.1201 15.8278C39.7874 16.0677 39.2169 16.1876 38.4087 16.1876Z" fill="#020D6F"/>
<path d="M56.9586 22.2381L46.1194 22.2381C44.8833 22.2381 44.0157 21.9002 43.5166 21.2242C43.1838 20.7228 43.0174 19.8942 43.0174 18.7386L43.0174 4.25007C43.0174 2.81102 43.1362 1.86256 43.3739 1.40468C43.778 0.619751 44.5506 0.227284 45.6915 0.227284C46.8563 0.227284 47.6169 0.619751 47.9735 1.40468C48.2112 1.86256 48.33 2.81102 48.33 4.25007L48.33 18.2807L56.4237 18.2807C57.3983 18.2807 58.0758 18.368 58.4561 18.5424C59.2405 18.9567 59.6327 19.5345 59.6327 20.2758C59.6327 20.8863 59.395 21.366 58.9196 21.7148C58.4442 22.0637 57.7905 22.2381 56.9586 22.2381Z" fill="#020D6F"/>
<path d="M76.5455 9.71189L76.5455 19.5563C76.5455 20.6246 76.3672 21.3769 76.0107 21.8129C75.6541 22.249 75.0599 22.4671 74.2279 22.4671C73.5386 22.4671 72.9919 22.2817 72.5878 21.9111C72.2075 21.5404 72.0292 21.0498 72.0529 20.4393C72.0529 20.3303 72.0648 20.254 72.0886 20.2104C71.2329 21.0825 70.4247 21.7148 69.6641 22.1073C68.9034 22.478 68.0596 22.6633 67.1325 22.6633C65.1358 22.6633 63.5789 21.9765 62.4617 20.6028C61.7011 19.5999 61.3207 18.0518 61.3207 15.9587L61.3207 9.7446C61.3207 8.47998 61.4277 7.62964 61.6416 7.19357C62.022 6.47404 62.7113 6.11428 63.7096 6.11428C64.708 6.11428 65.3973 6.47404 65.7776 7.19357C65.9916 7.62964 66.0985 8.47998 66.0985 9.7446L66.0985 15.7297C66.0985 17.8011 66.9899 18.8367 68.7727 18.8367C69.9136 18.8367 70.7694 18.3898 71.3399 17.4958C71.6726 16.9289 71.839 16.035 71.839 14.814L71.839 9.71189C71.839 8.42547 71.946 7.57513 72.1599 7.16086C72.4927 6.46314 73.1701 6.11428 74.1923 6.11428C75.2144 6.11428 75.8918 6.46314 76.2246 7.16086C76.4385 7.57513 76.5455 8.42548 76.5455 9.71189Z" fill="#020D6F"/>
<path d="M84.5164 13.7347L84.5164 18.8367C84.5164 20.1014 84.4094 20.9517 84.1955 21.3878C84.0291 21.693 83.7438 21.9547 83.3398 22.1727C82.9594 22.3689 82.5672 22.4671 82.1631 22.4671C81.7353 22.4671 81.3312 22.3689 80.9509 22.1727C80.5705 21.9547 80.2972 21.693 80.1308 21.3878C79.9169 20.9517 79.8099 20.1014 79.8099 18.8367L79.8099 8.99237C79.8099 8.12022 79.9406 7.47701 80.2021 7.06274C80.6062 6.40863 81.248 6.08158 82.1275 6.08158C82.8168 6.08158 83.3635 6.27781 83.7676 6.67028C84.1004 7.01914 84.2668 7.50972 84.2668 8.14203L84.2668 8.33826C85.1225 7.46611 85.9307 6.84471 86.6913 6.47405C87.452 6.08158 88.2958 5.88535 89.2229 5.88535C91.2433 5.88535 92.8003 6.57216 93.8937 7.9458C94.6543 8.94877 95.0346 10.4968 95.0346 12.59L95.0346 18.804C95.0346 20.0905 94.9277 20.9408 94.7138 21.3551C94.381 22.0746 93.6916 22.4343 92.6458 22.4343C91.5999 22.4343 90.9105 22.0746 90.5778 21.3551C90.3638 20.9408 90.2569 20.0905 90.2569 18.804L90.2569 12.8189C90.2569 10.7476 89.3655 9.71189 87.5827 9.71189C86.4418 9.71189 85.586 10.1589 85.0156 11.0528C84.6828 11.6197 84.5164 12.5137 84.5164 13.7347Z" fill="#020D6F"/>
<path d="M97.7957 14.3888C97.7957 11.816 98.5801 9.7555 100.149 8.20744C101.718 6.65938 103.833 5.88535 106.496 5.88535C108.373 5.88535 110.002 6.28872 111.38 7.09545C112.759 7.90219 113.448 8.85065 113.448 9.94083C113.448 10.4859 113.234 10.9438 112.807 11.3145C112.402 11.6851 111.903 11.8705 111.309 11.8705C110.857 11.8705 110.501 11.7832 110.239 11.6088C109.978 11.4344 109.574 11.0092 109.027 10.3333C108.813 10.0499 108.468 9.82091 107.993 9.64648C107.518 9.47205 107.03 9.38484 106.531 9.38484C105.343 9.38484 104.416 9.81001 103.75 10.6604C103.085 11.5107 102.752 12.699 102.752 14.2253C102.752 17.3868 104.095 18.9676 106.781 18.9676C107.993 18.9676 108.873 18.477 109.419 17.4958C109.895 16.6673 110.513 16.253 111.273 16.253C111.939 16.253 112.498 16.4601 112.949 16.8744C113.401 17.2669 113.627 17.7466 113.627 18.3135C113.627 18.7495 113.448 19.2401 113.092 19.7852C112.735 20.3085 112.26 20.7773 111.666 21.1915C110.239 22.1727 108.504 22.6633 106.46 22.6633C103.798 22.6633 101.682 21.922 100.113 20.4393C98.5682 18.9567 97.7957 16.9398 97.7957 14.3888Z" fill="#020D6F"/>
<path d="M120.869 13.9636L120.869 18.8367C120.869 20.1014 120.762 20.9517 120.548 21.3878C120.381 21.693 120.096 21.9547 119.692 22.1727C119.312 22.3689 118.92 22.4671 118.516 22.4671C118.088 22.4671 117.672 22.3689 117.268 22.1727C116.887 21.9547 116.614 21.693 116.448 21.3878C116.234 20.9517 116.127 20.1014 116.127 18.8367L116.127 3.8249C116.127 2.53848 116.234 1.68814 116.448 1.27387C116.614 0.968615 116.887 0.717873 117.268 0.521639C117.672 0.303603 118.088 0.194584 118.516 0.194584C118.92 0.194584 119.312 0.303603 119.692 0.52164C120.096 0.717873 120.381 0.968615 120.548 1.27387C120.762 1.68814 120.869 2.53848 120.869 3.8249L120.869 7.9785C122.247 6.71389 123.84 6.08158 125.647 6.08158C127.619 6.08158 129.141 6.72479 130.21 8.01121C130.971 8.94877 131.351 10.257 131.351 11.9359L131.351 18.7713C131.351 20.0796 131.244 20.9408 131.03 21.3551C130.864 21.6603 130.579 21.922 130.175 22.14C129.794 22.358 129.378 22.4671 128.927 22.4671C128.499 22.4671 128.083 22.358 127.679 22.14C127.299 21.922 127.025 21.6603 126.859 21.3551C126.645 20.9408 126.538 20.0796 126.538 18.7713L126.538 13.9636C126.538 12.2847 126.36 11.2273 126.003 10.7912C125.551 10.1807 124.838 9.87542 123.864 9.87542C122.842 9.87542 122.057 10.257 121.511 11.0201C121.083 11.6088 120.869 12.59 120.869 13.9636Z" fill="#020D6F"/>
</svg>
