<svg width="23" height="18" viewBox="0 0 23 18" fill="none" xmlns="http://www.w3.org/2000/svg">
<path d="M11.4957 17.9987C8.02803 18.0246 4.77322 15.8776 3.38552 12.4905C3.11419 11.8255 2.65974 11.3715 1.99509 11.1318C1.07797 10.802 0.503054 9.98168 0.500012 9.01913C0.49697 8.03605 1.0585 7.21825 1.98505 6.87902C2.65669 6.63445 3.0999 6.17291 3.3907 5.50975C4.68014 2.56179 6.86635 0.714211 9.97907 0.154055C13.0407 -0.397387 15.6874 0.542429 17.8745 2.79924C18.6368 3.58563 19.2066 4.51456 19.6221 5.53776C19.8886 6.1941 20.3445 6.63974 21.0043 6.87434C21.922 7.20081 22.5006 8.03418 22.5 9.0073C22.5 9.972 21.922 10.8051 21.0153 11.1281C20.35 11.3656 19.8977 11.8165 19.616 12.4766C18.5229 15.0481 16.6696 16.7614 14.0558 17.6166C13.2283 17.8852 12.3637 18.0143 11.4957 17.9987ZM4.33033 9.19747C4.44622 13.2832 7.73722 16.4452 11.7619 16.3366C15.6342 16.2321 18.7679 12.827 18.6724 8.82868C18.5754 4.78311 15.2631 1.556 11.3187 1.66492C7.35699 1.77415 4.21595 5.15966 4.33033 9.19747Z" fill="#020D6F"/>
</svg>
