<svg width="19" height="20" viewBox="0 0 19 20" fill="none" xmlns="http://www.w3.org/2000/svg">
<path d="M17.42 20C16.844 20 16.34 19.4964 16.34 18.9209V16.9065C16.34 16.1151 16.052 15.3957 15.476 14.8921C14.9 14.3165 14.18 14.0288 13.46 14.0288H5.54C4.748 14.0288 4.028 14.3165 3.524 14.8921C2.948 15.4676 2.66 16.1871 2.66 16.9065V18.9209C2.66 19.4964 2.156 20 1.58 20C1.004 20 0.5 19.4964 0.5 18.9209V16.9065C0.5 15.5396 1.004 14.3165 2.012 13.3813C2.948 12.446 4.244 11.8705 5.54 11.8705H13.46C14.828 11.8705 16.052 12.3741 17.06 13.3813C17.996 14.3165 18.5 15.6115 18.5 16.9065V18.9209C18.5 19.4964 17.996 20 17.42 20ZM9.5 10.0719C6.692 10.0719 4.46 7.84173 4.46 5.03597C4.46 2.23022 6.692 0 9.5 0C12.308 0 14.54 2.23022 14.54 5.03597C14.54 7.84173 12.308 10.0719 9.5 10.0719ZM9.5 2.15827C7.916 2.15827 6.62 3.45324 6.62 5.03597C6.62 6.61871 7.916 7.91367 9.5 7.91367C11.084 7.91367 12.38 6.61871 12.38 5.03597C12.38 3.45324 11.084 2.15827 9.5 2.15827Z" fill="#020D6F"/>
</svg>
