<svg width="12" height="43" viewBox="0 0 12 43" fill="none" xmlns="http://www.w3.org/2000/svg">
<path d="M8.24001 29.8984C9.08454 29.9494 9.42496 29.7597 9.63971 28.6712C9.82921 27.6713 9.84226 26.6207 9.94353 25.5954C10.3115 19.95 11.2473 12.6467 11.2626 6.22903C11.2879 6.14043 11.2501 5.93789 11.2754 5.84929C11.2257 4.01384 10.1676 2.36784 8.61755 1.44313C8.52932 1.41778 8.44109 1.39243 8.41585 1.48102C8.08819 1.29101 7.76054 1.101 7.40763 0.999587C6.2607 0.669989 5.18922 0.745483 4.13023 1.11212C2.64259 1.64313 1.4446 2.83248 0.96489 4.51581C0.863899 4.87019 0.788156 5.13598 0.775391 5.51572C0.787873 5.80686 0.800356 6.09801 0.812838 6.38915C0.746753 13.6549 3.35241 22.2635 3.3876 28.504C3.37455 29.5546 3.61398 29.7193 4.37028 29.7449C5.70643 29.7455 6.95436 29.7207 8.24001 29.8984Z" fill="#020D6F"/>
<path d="M5.36093 42.011C7.79722 42.7112 10.3374 41.2954 11.0346 38.8489C11.7318 36.4024 10.322 33.8515 7.8857 33.1514C5.44941 32.4513 2.90922 33.867 2.21202 36.3135C1.51483 38.7601 2.92464 41.3109 5.36093 42.011Z" fill="#020D6F"/>
</svg>
