<svg width="179" height="340" viewBox="0 0 179 340" fill="none" xmlns="http://www.w3.org/2000/svg">
<path opacity="0.1" d="M-62.5846 334.412C-124.074 318.95 -171.03 264.728 -178.805 196.405C-180.311 182.996 -186.103 172.604 -196.677 165.167C-211.271 154.92 -217.38 137.275 -212.665 119.657C-207.848 101.664 -193.86 89.2867 -175.784 87.3405C-162.688 85.9532 -152.559 79.5492 -144.127 68.7568C-106.705 20.766 -58.8669 -2.97905 -1.01173 1.07929C55.8959 5.06218 98.0735 34.4123 125.593 85.7371C135.186 103.622 140.665 123.229 142.948 143.853C144.411 157.08 150.272 167.326 160.784 174.649C175.406 184.836 181.515 202.737 176.683 220.531C171.903 238.175 157.549 250.756 139.903 252.497C126.955 253.783 116.717 259.951 108.463 270.729C76.3807 312.737 35.096 335.556 -15.3915 339.186C-31.3638 340.297 -47.3032 338.685 -62.5846 334.412ZM-145.771 140.519C-163.963 215.776 -121.395 288.729 -49.6401 305.237C19.3981 321.117 91.7198 273.24 109.839 199.677C128.165 125.241 85.5431 50.9998 15.2077 34.8673C-55.4361 18.6608 -127.79 66.1459 -145.771 140.519Z" fill="#020D6F"/>
</svg>
