<svg width="245" height="151" viewBox="0 0 245 151" fill="none" xmlns="http://www.w3.org/2000/svg">
<path opacity="0.1" d="M52.6835 359.922C-12.5836 367.34 -77.5382 331.034 -109.439 266.297C-115.681 253.584 -125.013 245.44 -137.939 241.988C-155.773 237.24 -167.997 222.036 -169.692 202.861C-171.423 183.275 -162.239 165.86 -145.366 157.255C-133.132 151.044 -125.57 140.964 -121.222 127.17C-101.954 65.8543 -63.924 24.683 -6.25207 7.32379C50.4722 -9.76009 101.92 3.70048 146.953 44.3216C162.648 58.4758 174.96 75.8538 184.527 95.4178C190.663 107.967 200.009 115.94 212.834 119.303C230.675 123.981 242.99 139.438 244.634 158.832C246.276 178.057 236.809 195.81 220.28 204.052C208.155 210.108 200.403 219.995 196.222 233.709C180.012 287.132 148.021 324.966 100.249 347.211C85.1221 354.211 69.0571 358.505 52.6835 359.922ZM-97.2489 198.789C-88.1125 279.981 -20.7485 336.445 54.8676 326.269C127.62 316.477 180.845 242.38 172.242 162.891C163.529 82.4623 95.6531 24.7441 21.55 34.7664C-52.8791 44.8294 -106.275 118.55 -97.2489 198.789Z" fill="#020D6F"/>
</svg>
