<svg width="27" height="24" viewBox="0 0 27 24" fill="none" xmlns="http://www.w3.org/2000/svg">
<g clip-path="url(#clip0_2483_362)">
<path d="M12.2549 24C18.8823 24 24.2549 18.6274 24.2549 12C24.2549 5.37258 18.8823 0 12.2549 0C5.62747 0 0.254883 5.37258 0.254883 12C0.254883 18.6274 5.62747 24 12.2549 24Z" fill="#007203"/>
<path d="M20.8786 15.7653C14.3928 19.0447 5.52637 20.6965 5.52637 20.6965C5.52637 20.6965 5.7207 14.3564 10.4575 8.81795C14.9029 3.61957 26.1741 4.32402 26.1741 4.32402C26.1741 4.32402 28.0203 12.1459 20.8786 15.7653Z" fill="#4FA020"/>
<path d="M26.9269 5.34414C26.8783 4.95548 26.854 4.54252 26.7569 4.15386C26.7326 4.05669 26.684 3.95953 26.6111 3.88665C26.5868 3.86236 26.5868 3.86236 26.5625 3.86236C26.5625 3.86236 26.5383 3.86236 26.5383 3.83807C26.514 3.81378 26.4897 3.81378 26.4654 3.78949C26.4411 3.7652 26.4168 3.7652 26.3925 3.7652C26.3925 3.7652 26.3682 3.7652 26.3439 3.7652C26.3196 3.7652 26.3196 3.7652 26.2953 3.7409C26.271 3.7409 26.2225 3.71661 26.1739 3.71661C25.1779 3.66803 24.182 3.66803 23.2103 3.71661C21.0484 3.81378 18.8864 4.08099 16.7974 4.63969C14.5383 5.22269 12.2791 6.17005 10.5787 7.82188C9.43704 8.91499 8.48967 10.3239 7.71235 11.7085C6.9836 12.996 6.37631 14.3563 5.91477 15.7409C5.38036 17.3199 4.96741 19.0203 4.89453 20.6964C4.89453 20.9879 5.06457 21.1822 5.30749 21.2551C5.45324 21.3279 5.62328 21.3279 5.76903 21.2551C9.43704 20.5749 13.0565 19.5304 16.5545 18.2672C18.1334 17.6842 19.6638 17.0526 21.1698 16.2996C23.5504 15.085 25.3966 13.0931 26.3196 10.5668C26.9269 8.8907 27.097 7.06884 26.9269 5.34414ZM10.9188 9.20649C12.352 7.55467 14.4168 6.6073 16.4816 5.97572C18.5706 5.36843 20.5625 5.07694 22.7002 4.95548C23.4532 4.9069 24.2063 4.8826 24.9593 4.8826C24.2549 5.87856 23.599 6.92309 22.7245 7.79758C21.7771 8.76924 20.6354 9.44941 19.3966 9.95953C19.5666 9.1822 19.5909 8.40487 19.4694 7.60325C19.4208 7.28746 19.0079 7.09313 18.7164 7.1903C18.3763 7.31175 18.2549 7.60325 18.3034 7.94333C18.3034 7.87046 18.3034 7.91904 18.3034 7.96762C18.3034 8.01621 18.3034 8.0405 18.3034 8.08908C18.3034 8.16196 18.3277 8.23483 18.3277 8.332C18.3277 8.50204 18.3277 8.64779 18.3277 8.81783C18.3277 8.96358 18.3034 9.10932 18.3034 9.25507C18.3034 9.27937 18.3034 9.30366 18.3034 9.35224C18.2791 9.42511 18.2791 9.49799 18.2549 9.57086C18.2063 9.88665 18.1091 10.2024 18.0119 10.4939C17.8419 10.5425 17.6476 10.5911 17.4775 10.6397C15.9957 11.0284 14.5383 11.3199 13.1293 11.9271C13.2994 11.1498 13.3237 10.3482 13.2022 9.54657C13.1536 9.23078 12.7407 9.03645 12.4492 9.13362C12.1091 9.25507 11.9876 9.54657 12.0362 9.88665C12.0362 9.81378 12.0362 9.86236 12.0362 9.91094C12.0362 9.95953 12.0362 9.98382 12.0362 10.0324C12.0362 10.1053 12.0605 10.1782 12.0605 10.2753C12.0605 10.4454 12.0605 10.5911 12.0605 10.7611C12.0605 10.9069 12.0362 11.0526 12.0362 11.1984C12.0362 11.2227 12.0362 11.247 12.0362 11.2956C12.0119 11.3684 12.0119 11.4413 11.9876 11.5142C11.9148 11.9514 11.769 12.3644 11.6233 12.7773C10.6759 13.3603 9.80141 14.0648 8.99979 14.8421C8.10101 15.7166 7.32368 16.664 6.59494 17.6842C6.64352 17.4899 6.6921 17.2713 6.76498 17.0769C7.61518 14.162 8.9755 11.4413 10.9188 9.20649ZM25.7609 7.11742C25.7609 7.33605 25.7366 7.53038 25.7123 7.749C25.7123 7.84617 25.6881 7.96763 25.6881 8.06479V8.08908C25.6881 8.08908 25.6881 8.08908 25.6881 8.11337V8.13767C25.6881 8.18625 25.6638 8.25912 25.6638 8.30771C25.5909 8.79354 25.4694 9.27937 25.348 9.7409C25.2022 10.251 25.0322 10.664 24.8136 11.1012C24.5706 11.6113 24.2791 12.0729 23.9391 12.5344C23.0889 13.6518 21.8743 14.5749 20.5868 15.2308C18.0605 16.5182 15.3642 17.4656 12.6435 18.2915C10.6759 18.8745 8.684 19.4089 6.66781 19.8462C8.17388 17.1984 10.2387 14.8421 12.8864 13.3846C13.6395 12.9717 14.4168 12.7045 15.2184 12.4616C15.3885 12.5587 15.5342 12.6559 15.68 12.7773C15.7042 12.8016 15.7528 12.8259 15.7771 12.8502C15.8257 12.8988 15.8986 12.9474 15.9472 12.996C16.0929 13.1174 16.2144 13.2389 16.3358 13.3603C16.4573 13.5061 16.5787 13.6275 16.7002 13.7733C16.7002 13.7733 16.7002 13.7733 16.7002 13.7976C16.7245 13.8462 16.7731 13.8947 16.7974 13.919C16.8459 13.9919 16.9188 14.0891 16.9674 14.1862C17.0889 14.3806 17.186 14.5749 17.2832 14.7692C17.3075 14.8178 17.3318 14.8664 17.3318 14.8907C17.3318 14.915 17.3318 14.915 17.3561 14.915C17.3561 14.915 17.3561 14.9393 17.3804 14.9393C17.4289 15.0364 17.4532 15.1336 17.4775 15.2308C17.5747 15.5223 17.8905 15.7652 18.2306 15.6437C18.5221 15.5466 18.765 15.2065 18.6435 14.8907C18.2549 13.749 17.5747 12.7773 16.6759 12.0243C16.9431 11.9514 17.2346 11.8786 17.5018 11.8057C19.4937 11.2956 21.5099 10.4939 23.0646 9.08503C23.8419 8.38058 24.4978 7.53038 25.1293 6.68018C25.3237 6.41297 25.518 6.14576 25.6881 5.87856C25.7852 6.3158 25.7852 6.70447 25.7609 7.11742Z" fill="#007203"/>
<path d="M2.73229 13.5791L4.06832 12.9718L2.61083 12.6317C2.53796 12.6074 2.48938 12.6074 2.44079 12.5831C2.4165 12.5831 2.39221 12.5588 2.36792 12.5345C2.34363 12.5102 2.31934 12.4617 2.31934 12.4131C2.31934 12.3888 2.31934 12.3402 2.34363 12.3159C2.36792 12.2916 2.36792 12.2673 2.4165 12.243C2.44079 12.2188 2.46508 12.2188 2.51367 12.2188C2.53796 12.2188 2.56225 12.2188 2.58654 12.2188C2.61083 12.2188 2.63513 12.2188 2.65942 12.243C2.68371 12.243 2.708 12.2673 2.73229 12.2673L4.1412 12.6317C4.18978 12.656 4.23836 12.656 4.28695 12.6803C4.33553 12.7046 4.38411 12.7046 4.4084 12.7289C4.45699 12.7532 4.48128 12.7775 4.50557 12.826C4.52986 12.8746 4.55415 12.8989 4.55415 12.9718C4.55415 13.0204 4.55415 13.069 4.52986 13.1175C4.50557 13.1661 4.48128 13.1904 4.45699 13.2147C4.4327 13.239 4.38411 13.2633 4.33553 13.2876C4.28695 13.3119 4.23836 13.3362 4.18978 13.3605L2.90233 13.992C2.87804 13.992 2.85375 14.0163 2.82946 14.0163C2.80517 14.0163 2.78087 14.0406 2.75658 14.0406C2.73229 14.0406 2.708 14.0649 2.68371 14.0649C2.63513 14.0649 2.58654 14.0649 2.53796 14.0163C2.48938 13.992 2.46509 13.9434 2.46509 13.8706C2.46509 13.7977 2.46508 13.7491 2.51367 13.7005C2.58654 13.6519 2.63513 13.6277 2.73229 13.5791Z" fill="#4FA020"/>
<path d="M1.97937 10.6154L2.00366 10.4211C2.00366 10.3725 2.02795 10.3482 2.02795 10.3482C2.02795 10.3482 2.05224 10.3725 2.10083 10.4454C2.14941 10.5182 2.19799 10.5668 2.22228 10.6154C2.24658 10.664 2.29516 10.7126 2.29516 10.7369C2.31945 10.7854 2.31945 10.8583 2.31945 10.9069C2.31945 10.9555 2.29516 10.9555 2.27087 10.9555C2.24658 10.9555 2.22228 10.9312 2.19799 10.9069L2.07654 10.834C2.00366 10.7854 1.97937 10.7611 1.95508 10.7126C1.95508 10.7126 1.95508 10.664 1.97937 10.6154ZM2.90245 10.2267L2.78099 11.1741L3.29111 11.247L3.41257 10.3725C3.41257 10.2996 3.43686 10.251 3.48544 10.2267C3.50973 10.2024 3.55832 10.1781 3.6069 10.2024C3.65548 10.2024 3.67977 10.2267 3.70407 10.2753C3.72836 10.2996 3.72836 10.3482 3.72836 10.4211L3.6069 11.2956L4.1899 11.3684L4.31135 10.3968C4.31135 10.3239 4.33564 10.2753 4.38423 10.251C4.43281 10.2267 4.4571 10.2024 4.50569 10.2267C4.55427 10.2267 4.60285 10.251 4.62714 10.2996C4.65143 10.3482 4.65143 10.3968 4.65143 10.4454L4.50569 11.5871C4.48139 11.6842 4.4571 11.7328 4.40852 11.7814C4.35994 11.8057 4.28706 11.83 4.21419 11.8057L2.65953 11.5871C2.61095 11.5871 2.56237 11.5628 2.51378 11.5385C2.4652 11.5142 2.44091 11.4656 2.44091 11.4413C2.44091 11.3927 2.41662 11.3441 2.44091 11.2956L2.58666 10.1781C2.58666 10.1053 2.61095 10.0567 2.65953 10.0324C2.68382 10.0081 2.73241 9.98382 2.78099 10.0081C2.82957 10.0081 2.87815 10.0324 2.90245 10.081C2.90245 10.1053 2.90245 10.1539 2.90245 10.2267Z" fill="#4FA020"/>
<path d="M4.65146 7.91894L5.01583 8.06469C5.06441 8.08898 5.11299 8.11327 5.13729 8.13757C5.16158 8.16186 5.18587 8.18615 5.18587 8.23473C5.21016 8.25902 5.21016 8.30761 5.21016 8.35619C5.23445 8.50194 5.23445 8.62339 5.21016 8.74485C5.18587 8.86631 5.16158 8.98777 5.11299 9.10922C5.06441 9.25497 4.96725 9.37643 4.87008 9.49789C4.77291 9.59505 4.67575 9.66793 4.55429 9.7408C4.43283 9.81368 4.31138 9.81368 4.16563 9.81368C4.01988 9.81368 3.87413 9.78939 3.72838 9.71651C3.58263 9.66793 3.43688 9.57076 3.33972 9.4736C3.24255 9.37643 3.14538 9.27927 3.0968 9.15781C3.04822 9.03635 3.02393 8.91489 3.02393 8.76914C3.02393 8.62339 3.07251 8.47765 3.12109 8.30761C3.16967 8.18615 3.24255 8.06469 3.31542 7.99182C3.3883 7.89465 3.46117 7.84607 3.53405 7.79748C3.60692 7.7489 3.6798 7.72461 3.75267 7.72461C3.82555 7.72461 3.87413 7.72461 3.92271 7.7489C3.97129 7.77319 3.99559 7.79748 4.01988 7.84607C4.04417 7.89465 4.04417 7.94323 4.01988 7.99182C4.01988 8.01611 3.99559 8.0404 3.97129 8.06469C3.947 8.08898 3.92271 8.08898 3.89842 8.11327C3.80125 8.13757 3.72838 8.13756 3.6798 8.16186C3.63121 8.18615 3.58263 8.21044 3.53405 8.25902C3.48546 8.30761 3.43688 8.38048 3.41259 8.45335C3.36401 8.55052 3.36401 8.6234 3.36401 8.72056C3.36401 8.79344 3.3883 8.8906 3.43688 8.96348C3.48546 9.03635 3.53405 9.10923 3.60692 9.15781C3.6798 9.23068 3.77696 9.27927 3.87413 9.30356C4.09275 9.40072 4.28708 9.42501 4.45712 9.35214C4.62716 9.30356 4.74862 9.1821 4.8215 8.98777C4.87008 8.8906 4.87008 8.81773 4.89437 8.72056C4.89437 8.6234 4.89437 8.52623 4.89437 8.42906L4.57858 8.30761L4.45712 8.62339C4.43283 8.69627 4.38425 8.74485 4.35996 8.76914C4.31138 8.79344 4.28708 8.79344 4.21421 8.76914C4.16563 8.74485 4.14133 8.72056 4.11704 8.67198C4.09275 8.6234 4.09275 8.57481 4.11704 8.52623L4.28708 8.08898C4.31138 8.0404 4.33567 7.99182 4.35996 7.96752C4.38425 7.94323 4.40854 7.91894 4.45712 7.89465C4.53 7.89465 4.57858 7.89465 4.65146 7.91894Z" fill="#4FA020"/>
<path d="M3.97131 5.75695L4.09277 5.6112C4.11706 5.56262 4.14135 5.56262 4.14135 5.56262C4.14135 5.56262 4.16564 5.6112 4.16564 5.68408C4.18994 5.75695 4.18994 5.82983 4.18994 5.9027C4.18994 5.97558 4.18994 6.02416 4.18994 6.04845C4.18994 6.09703 4.16564 6.16991 4.11706 6.21849C4.09277 6.24278 4.06848 6.26707 4.04419 6.24278C4.0199 6.24278 4.01989 6.21849 3.9956 6.16991L3.94702 6.04845C3.92273 5.97558 3.89844 5.92699 3.89844 5.9027C3.89844 5.87841 3.94702 5.80554 3.97131 5.75695ZM4.99155 5.85412L4.43285 6.63145L4.84581 6.92294L5.35593 6.21849C5.40451 6.16991 5.4288 6.14562 5.47738 6.12133C5.52597 6.12133 5.55026 6.12132 5.59884 6.14562C5.64743 6.16991 5.64743 6.21849 5.67172 6.24278C5.67172 6.29137 5.67172 6.33995 5.62313 6.38853L5.11301 7.09299L5.59884 7.43307L6.18184 6.63145C6.23042 6.58286 6.25471 6.53428 6.3033 6.53428C6.35188 6.53428 6.40046 6.53428 6.42475 6.55857C6.47334 6.58286 6.49763 6.63145 6.49763 6.68003C6.49763 6.72861 6.49763 6.7772 6.44904 6.82578L5.76888 7.74886C5.7203 7.82173 5.64743 7.87031 5.59884 7.87031C5.55026 7.87031 5.47739 7.84602 5.40451 7.79744L4.14135 6.87436C4.09277 6.85007 4.06848 6.80149 4.04419 6.7529C4.0199 6.70432 4.01989 6.68003 4.01989 6.63145C4.01989 6.58286 4.04419 6.53428 4.09277 6.4857L4.74864 5.58691C4.79722 5.53833 4.82151 5.48975 4.8701 5.48975C4.91868 5.48975 4.94297 5.48975 4.99155 5.51404C5.04014 5.53833 5.06443 5.58691 5.06443 5.6355C5.04014 5.75695 5.04014 5.80554 4.99155 5.85412Z" fill="#4FA020"/>
<path d="M6.59494 4.34814L6.25486 4.66393L7.25081 5.80563C7.2994 5.8785 7.34798 5.92709 7.32369 5.99996C7.32369 6.04854 7.2994 6.09713 7.25081 6.14571C7.20223 6.19429 7.15365 6.19429 7.10507 6.19429C7.05648 6.19429 6.98361 6.14571 6.93502 6.09713L5.93907 4.95543L5.59899 5.27122C5.55041 5.3198 5.50183 5.34409 5.45324 5.34409C5.40466 5.34409 5.35608 5.3198 5.33179 5.29551C5.30749 5.24692 5.2832 5.22263 5.2832 5.17405C5.2832 5.12547 5.30749 5.07688 5.38037 5.0283L6.37632 4.12951C6.4249 4.08093 6.47349 4.05664 6.52207 4.05664C6.57065 4.05664 6.61924 4.08093 6.64353 4.10522C6.66782 4.15381 6.69211 4.1781 6.69211 4.22668C6.66782 4.25097 6.64353 4.29956 6.59494 4.34814Z" fill="#4FA020"/>
<path d="M8.92685 4.66416L8.70823 4.49412L7.97948 4.90707L8.02806 5.19857C8.05235 5.32003 8.05235 5.3929 8.05235 5.44149C8.05235 5.49007 8.02806 5.51436 7.95519 5.56294C7.90661 5.58723 7.85802 5.58723 7.80944 5.58723C7.76086 5.56294 7.71227 5.53865 7.68798 5.51436C7.66369 5.49007 7.66369 5.46578 7.66369 5.44149C7.66369 5.41719 7.6394 5.36861 7.6394 5.32003L7.42078 3.88683C7.42078 3.83825 7.39648 3.78966 7.39648 3.74108C7.39648 3.6925 7.39648 3.64391 7.39648 3.59533C7.39648 3.54675 7.42078 3.52246 7.44507 3.47387C7.46936 3.42529 7.49365 3.401 7.56653 3.37671C7.61511 3.35242 7.66369 3.32812 7.71227 3.32812C7.76086 3.32812 7.80944 3.32813 7.83373 3.35242C7.88231 3.37671 7.90661 3.401 7.9309 3.42529C7.95519 3.44958 8.00377 3.49817 8.07665 3.52246L9.21835 4.42124C9.31551 4.49412 9.3641 4.5427 9.38839 4.59128C9.41268 4.63987 9.41268 4.68845 9.41268 4.73703C9.38839 4.78561 9.3641 4.8342 9.31551 4.85849C9.29122 4.88278 9.26693 4.88278 9.24264 4.88278C9.21835 4.88278 9.19406 4.88278 9.16976 4.85849C9.14547 4.85849 9.12118 4.8342 9.0726 4.80991C9.02401 4.78561 8.95114 4.66416 8.92685 4.66416ZM7.90661 4.56699L8.44102 4.2512L7.73657 3.66821L7.90661 4.56699Z" fill="#4FA020"/>
<path d="M9.92287 3.57102L9.77712 3.6196L9.94716 4.27547C9.97145 4.37264 9.97145 4.42122 9.94716 4.4698C9.92287 4.51839 9.87428 4.54268 9.8257 4.56697C9.75283 4.59126 9.70424 4.56697 9.65566 4.54268C9.60708 4.51839 9.58278 4.44551 9.55849 4.37264L9.12125 2.81798C9.09695 2.72082 9.09695 2.67223 9.12125 2.59936C9.14554 2.52648 9.21841 2.50219 9.29129 2.4779L9.97145 2.30786C10.0686 2.28357 10.1415 2.25928 10.2144 2.25928C10.2872 2.25928 10.3358 2.25928 10.4087 2.25928C10.4816 2.25928 10.5544 2.28357 10.603 2.33215C10.6759 2.35644 10.7245 2.40503 10.7731 2.4779C10.8217 2.52648 10.8459 2.59936 10.8702 2.67223C10.9188 2.81798 10.8945 2.96373 10.8459 3.0609C10.7974 3.18235 10.6759 3.27952 10.5059 3.35239C10.5787 3.37669 10.6759 3.40098 10.7488 3.47385C10.8459 3.52244 10.9188 3.59531 10.9917 3.66818C11.0646 3.74106 11.1374 3.81393 11.186 3.86252C11.2346 3.9111 11.2589 3.95968 11.2589 3.98397C11.2589 4.00827 11.2589 4.03256 11.2589 4.08114C11.2589 4.10543 11.2346 4.12972 11.2103 4.15401C11.186 4.17831 11.1617 4.2026 11.1131 4.2026C11.0646 4.22689 11.016 4.22689 10.9917 4.2026C10.9431 4.17831 10.9188 4.17831 10.8945 4.15401C10.8702 4.12972 10.8217 4.08114 10.7731 4.03256L10.5302 3.81393C10.433 3.74106 10.3601 3.66818 10.3115 3.6196C10.2629 3.57102 10.1901 3.54673 10.1415 3.54673C10.0686 3.52244 9.99574 3.54673 9.92287 3.57102ZM9.92287 2.64794L9.55849 2.74511L9.70424 3.30381L10.0686 3.20665C10.1658 3.18235 10.2387 3.15806 10.3115 3.10948C10.3844 3.0609 10.4087 3.03661 10.433 2.98802C10.4573 2.93944 10.4573 2.86656 10.433 2.79369C10.4087 2.74511 10.3844 2.69652 10.3601 2.64794C10.3115 2.62365 10.2629 2.59936 10.2144 2.57507C10.1658 2.59936 10.0686 2.62365 9.92287 2.64794Z" fill="#4FA020"/>
<path d="M11.5743 3.88644L11.4043 2.25891C11.4043 2.16174 11.4043 2.11316 11.4529 2.06457C11.4772 2.01599 11.5258 1.9917 11.5986 1.9917C11.6715 1.9917 11.7201 1.9917 11.7687 2.04028C11.8173 2.08887 11.8415 2.13745 11.8415 2.23461L12.0116 3.86214C12.0116 3.95931 12.0116 4.00789 11.963 4.05648C11.9144 4.10506 11.8658 4.12935 11.8173 4.12935C11.7687 4.12935 11.6958 4.12935 11.6715 4.08077C11.5986 4.03219 11.5743 3.9836 11.5743 3.88644Z" fill="#4FA020"/>
<path d="M13.9066 2.35631L12.9592 2.28344L12.9349 2.79356L13.8094 2.84214C13.8823 2.84214 13.9309 2.86644 13.9552 2.89073C13.9795 2.91502 14.0038 2.9636 14.0038 3.01219C14.0038 3.06077 13.9795 3.08506 13.9552 3.13364C13.9309 3.15793 13.8823 3.18223 13.8094 3.15793L12.8863 3.10935L12.8378 3.69235L13.8094 3.76522C13.8823 3.76522 13.9309 3.78951 13.9552 3.8138C13.9795 3.8381 14.0038 3.88668 14.0038 3.93526C14.0038 3.98385 13.9795 4.03243 13.9552 4.05672C13.9309 4.08101 13.858 4.1053 13.8094 4.08101L12.6677 4.00814C12.5706 4.00814 12.522 3.98385 12.4734 3.93526C12.4248 3.88668 12.4248 3.8138 12.4248 3.74093L12.522 2.18627C12.522 2.13769 12.5463 2.06482 12.5706 2.04053C12.5948 1.99194 12.6191 1.96765 12.6677 1.96765C12.692 1.94336 12.7406 1.94336 12.8135 1.94336L13.9309 2.01623C14.0038 2.01623 14.0523 2.04053 14.0766 2.06482C14.1009 2.1134 14.1009 2.16198 14.1009 2.21057C14.1009 2.25915 14.0766 2.30773 14.0523 2.33202C14.028 2.35631 13.9552 2.35631 13.9066 2.35631Z" fill="#4FA020"/>
<path d="M15.3397 2.55068L15.7284 3.95959L16.1171 2.76931C16.1414 2.69643 16.1656 2.64785 16.2142 2.62356C16.2628 2.59927 16.3114 2.59927 16.36 2.59927C16.4086 2.62356 16.4571 2.64785 16.4814 2.69643C16.5057 2.74501 16.5057 2.81789 16.4814 2.89076L15.9713 4.44542C15.9227 4.61546 15.8256 4.68833 15.6798 4.63975C15.6555 4.63975 15.6069 4.61546 15.5826 4.59117C15.5584 4.56688 15.5341 4.54259 15.5098 4.51829C15.4855 4.494 15.4855 4.44542 15.4612 4.42113C15.4612 4.37254 15.4369 4.34825 15.4369 4.29967L15.0482 2.91505L14.6839 4.08105C14.6596 4.15392 14.6353 4.2025 14.5867 4.2268C14.5381 4.25109 14.4895 4.25109 14.4409 4.25109C14.3924 4.2268 14.3438 4.2025 14.3195 4.15392C14.2952 4.10534 14.2952 4.03246 14.3195 3.95959L14.8053 2.42922C14.8296 2.35635 14.8539 2.30777 14.8782 2.28348C14.9025 2.25918 14.9511 2.23489 14.9996 2.2106C15.0482 2.18631 15.0968 2.18631 15.1454 2.2106C15.1697 2.2106 15.2183 2.23489 15.2426 2.25918C15.2669 2.28348 15.2911 2.30777 15.2911 2.33206C15.2911 2.35635 15.3154 2.38064 15.3154 2.42922C15.3154 2.47781 15.3154 2.5021 15.3397 2.55068Z" fill="#4FA020"/>
</g>
<defs>
<clipPath id="clip0_2483_362">
<rect width="26.7449" height="24" fill="white" transform="translate(0.254883)"/>
</clipPath>
</defs>
</svg>
